G04*
G04 #@! TF.GenerationSoftware,Altium Limited,Altium Designer,20.0.2 (26)*
G04*
G04 Layer_Physical_Order=1*
G04 Layer_Color=255*
%FSLAX25Y25*%
%MOIN*%
G70*
G01*
G75*
%ADD12C,0.01000*%
%ADD16C,0.00050*%
%ADD17R,0.03937X0.02362*%
%ADD18R,0.03150X0.03543*%
%ADD19R,0.03543X0.03150*%
G04:AMPARAMS|DCode=30|XSize=76.77mil|YSize=76.77mil|CornerRadius=0mil|HoleSize=0mil|Usage=FLASHONLY|Rotation=315.000|XOffset=0mil|YOffset=0mil|HoleType=Round|Shape=Round|*
%AMOVALD30*
21,1,0.00000,0.07677,0.00000,0.00000,315.0*
1,1,0.07677,0.00000,0.00000*
1,1,0.07677,0.00000,0.00000*
%
%ADD30OVALD30*%

%ADD31R,0.12224X0.12224*%
%ADD32C,0.12224*%
%ADD33C,0.05906*%
%ADD34R,0.05906X0.05906*%
%ADD35C,0.02362*%
%ADD36C,0.05000*%
%ADD37C,0.11811*%
G36*
X570000Y478500D02*
Y460457D01*
X569645Y460302D01*
X569500Y460288D01*
X565754Y464034D01*
X565258Y464366D01*
X564673Y464482D01*
X508916D01*
X502443Y470956D01*
X502670Y471436D01*
X503500Y471354D01*
X504894Y471491D01*
X506235Y471898D01*
X507470Y472558D01*
X508553Y473447D01*
X509442Y474530D01*
X510102Y475765D01*
X510509Y477106D01*
X510646Y478500D01*
X510509Y479894D01*
X510102Y481235D01*
X509442Y482470D01*
X508553Y483553D01*
X507470Y484442D01*
X506235Y485102D01*
X504894Y485509D01*
X503500Y485646D01*
X502106Y485509D01*
X500765Y485102D01*
X499530Y484442D01*
X498447Y483553D01*
X497558Y482470D01*
X496898Y481235D01*
X496491Y479894D01*
X496354Y478500D01*
X496436Y477670D01*
X495956Y477443D01*
X492641Y480757D01*
Y481653D01*
X492525Y482238D01*
X492193Y482734D01*
X485734Y489193D01*
X485238Y489525D01*
X484653Y489641D01*
X399847D01*
X399262Y489525D01*
X398766Y489193D01*
X389602Y480029D01*
X388112D01*
Y485612D01*
X373888D01*
Y471388D01*
X388112D01*
Y476971D01*
X390235D01*
X390821Y477087D01*
X391317Y477419D01*
X393456Y479557D01*
X393936Y479330D01*
X393854Y478500D01*
X393991Y477106D01*
X394398Y475765D01*
X395058Y474530D01*
X395947Y473447D01*
X397030Y472558D01*
X398265Y471898D01*
X399606Y471491D01*
X401000Y471354D01*
X402394Y471491D01*
X403735Y471898D01*
X404970Y472558D01*
X406053Y473447D01*
X406942Y474530D01*
X407602Y475765D01*
X407968Y476971D01*
X429155D01*
X429740Y477087D01*
X430236Y477419D01*
X435926Y483108D01*
X436388Y482917D01*
Y479000D01*
X450612D01*
Y484582D01*
X458913D01*
X459092Y484082D01*
X458447Y483553D01*
X457558Y482470D01*
X456898Y481235D01*
X456491Y479894D01*
X456354Y478500D01*
X456491Y477106D01*
X456898Y475765D01*
X457491Y474654D01*
X430005Y447168D01*
X429674Y446672D01*
X429624Y446421D01*
X428118D01*
Y442059D01*
X434055D01*
Y446421D01*
X434055D01*
X433917Y446754D01*
X459654Y472492D01*
X460765Y471898D01*
X462106Y471491D01*
X463500Y471354D01*
X464894Y471491D01*
X466235Y471898D01*
X467470Y472558D01*
X468553Y473447D01*
X469442Y474530D01*
X470102Y475765D01*
X470509Y477106D01*
X470582Y477851D01*
X471053Y478019D01*
X489201Y459871D01*
X489697Y459540D01*
X490282Y459423D01*
X548047D01*
Y452547D01*
X555231D01*
X555422Y452085D01*
X555371Y452034D01*
X555040Y451538D01*
X554923Y450953D01*
Y449869D01*
X554423Y449623D01*
X553993Y449953D01*
X553032Y450351D01*
X552000Y450487D01*
X550968Y450351D01*
X550007Y449953D01*
X549181Y449319D01*
X548547Y448493D01*
X548355Y448029D01*
X542831D01*
Y449272D01*
X537681D01*
Y449272D01*
X537319D01*
Y449272D01*
X535442D01*
X535160Y449460D01*
X534575Y449577D01*
X523272D01*
Y450819D01*
X523272D01*
Y451181D01*
X523272D01*
Y456331D01*
X517728D01*
Y455482D01*
X517075D01*
Y456772D01*
X512063D01*
X511925Y456772D01*
Y456772D01*
X511563D01*
Y456772D01*
X509488D01*
Y454000D01*
X508988D01*
Y453500D01*
X506413D01*
Y451289D01*
X500882D01*
Y453000D01*
X497913D01*
Y453500D01*
D01*
Y453000D01*
X494945D01*
Y451319D01*
Y446533D01*
X494483Y446342D01*
X493724Y447101D01*
X493228Y447433D01*
X492642Y447549D01*
X490055D01*
Y448201D01*
X484961D01*
X484770Y448663D01*
X487426Y451319D01*
X490055D01*
Y455681D01*
X484118D01*
Y452337D01*
X476344Y444562D01*
X475882Y444754D01*
Y446421D01*
X473413D01*
Y444240D01*
X472913D01*
Y443740D01*
X469945D01*
Y442059D01*
Y438319D01*
Y434579D01*
X475882D01*
Y435230D01*
X483933D01*
X484118Y435046D01*
Y432059D01*
X487360D01*
X487552Y431597D01*
X486005Y430051D01*
X485674Y429555D01*
X485557Y428969D01*
Y428941D01*
X484118D01*
Y428289D01*
X472720D01*
X465055Y435954D01*
Y438941D01*
X459118D01*
Y438289D01*
X448968D01*
X446735Y440522D01*
X446239Y440854D01*
X445653Y440970D01*
X444882D01*
Y443740D01*
X441913D01*
Y444740D01*
X444882D01*
Y445392D01*
X446079D01*
X448312Y443159D01*
X448808Y442827D01*
X449394Y442711D01*
X459118D01*
Y442059D01*
X465055D01*
Y446421D01*
X459118D01*
Y445770D01*
X450027D01*
X447794Y448003D01*
X447298Y448334D01*
X446713Y448451D01*
X439324D01*
X438738Y448334D01*
X438242Y448003D01*
X437363Y447124D01*
X437032Y446628D01*
X436915Y446043D01*
Y437441D01*
X437032Y436856D01*
X437363Y436360D01*
X437740Y436108D01*
X437603Y435608D01*
X434055D01*
Y438941D01*
X428118D01*
Y434579D01*
X430817D01*
Y434079D01*
X430934Y433494D01*
X431265Y432997D01*
X431761Y432666D01*
X432346Y432549D01*
X444503D01*
X445088Y432666D01*
X445585Y432997D01*
X447818Y435230D01*
X459118D01*
Y434579D01*
X462105D01*
X471005Y425678D01*
X471501Y425347D01*
X472087Y425231D01*
X484118D01*
Y424579D01*
X490055D01*
Y428941D01*
X489875D01*
X489683Y429403D01*
X491637Y431356D01*
X491968Y431852D01*
X492085Y432438D01*
Y437069D01*
X491968Y437654D01*
X491637Y438150D01*
X488616Y441171D01*
Y443839D01*
X490055D01*
Y444490D01*
X492009D01*
X494990Y441509D01*
X495486Y441178D01*
X496072Y441061D01*
X501413D01*
Y439500D01*
X503988D01*
Y439000D01*
X504488D01*
Y436228D01*
X506563D01*
Y436228D01*
X506925D01*
Y436228D01*
X507971D01*
Y434878D01*
X507228D01*
Y432344D01*
X506914Y432029D01*
X500882D01*
Y433740D01*
X497913D01*
X494945D01*
Y432059D01*
Y428319D01*
Y424579D01*
X500882D01*
Y425231D01*
X507228D01*
Y424217D01*
X512772D01*
Y426003D01*
X513532D01*
X514117Y426119D01*
X514613Y426450D01*
X517081Y428919D01*
X517413Y429415D01*
X517529Y430000D01*
Y431023D01*
X524534Y438028D01*
X524866Y438524D01*
X524955Y438971D01*
X532169D01*
Y436228D01*
X532169D01*
Y435772D01*
X532169D01*
Y434529D01*
X528655D01*
X528557Y434765D01*
X527996Y435496D01*
X527265Y436057D01*
X526414Y436410D01*
X525500Y436530D01*
X524586Y436410D01*
X523735Y436057D01*
X523004Y435496D01*
X522443Y434765D01*
X522090Y433914D01*
X521970Y433000D01*
X522090Y432086D01*
X522443Y431235D01*
X523004Y430504D01*
X523735Y429943D01*
X524586Y429590D01*
X525500Y429470D01*
X526414Y429590D01*
X527265Y429943D01*
X527996Y430504D01*
X528557Y431235D01*
X528655Y431471D01*
X532169D01*
Y430345D01*
X532100Y430227D01*
X531795Y429926D01*
X531000Y430030D01*
X530086Y429910D01*
X529235Y429557D01*
X528504Y428996D01*
X527943Y428265D01*
X527590Y427414D01*
X527470Y426500D01*
X527590Y425586D01*
X527943Y424735D01*
X528504Y424004D01*
X529235Y423443D01*
X530086Y423090D01*
X531000Y422970D01*
X531914Y423090D01*
X532765Y423443D01*
X533137Y423728D01*
X534715D01*
Y418772D01*
X532169D01*
Y413228D01*
X537181D01*
X537319Y413228D01*
Y413228D01*
X537681D01*
Y413228D01*
X542831D01*
Y414471D01*
X545569D01*
X549074Y410966D01*
X549570Y410634D01*
X549652Y410618D01*
X550026Y410046D01*
X550007Y409953D01*
X549181Y409319D01*
X548547Y408493D01*
X548355Y408029D01*
X542831D01*
Y409272D01*
X537681D01*
Y409272D01*
X537319D01*
Y409272D01*
X532169D01*
Y406821D01*
X531793Y406492D01*
X531500Y406530D01*
X530586Y406410D01*
X530351Y406312D01*
X525529Y411133D01*
Y411657D01*
X525413Y412242D01*
X525081Y412738D01*
X522738Y415081D01*
X522242Y415413D01*
X521657Y415529D01*
X518343D01*
X517758Y415413D01*
X517262Y415081D01*
X515710Y413529D01*
X475434D01*
X475365Y414023D01*
X476542Y414510D01*
X477553Y415286D01*
X478328Y416297D01*
X478816Y417474D01*
X478982Y418737D01*
X478816Y420000D01*
X478328Y421177D01*
X477553Y422188D01*
X476542Y422963D01*
X475365Y423451D01*
X474102Y423617D01*
X472839Y423451D01*
X471662Y422963D01*
X470929Y422402D01*
X470461Y422672D01*
X470464Y422700D01*
X467500D01*
Y419736D01*
X467914Y419790D01*
X468765Y420143D01*
X468971Y420301D01*
X469364Y420017D01*
X469386Y419989D01*
X469222Y418737D01*
X469388Y417474D01*
X469875Y416297D01*
X470651Y415286D01*
X471662Y414510D01*
X472839Y414023D01*
X472770Y413529D01*
X457604D01*
X457227Y414440D01*
X456451Y415451D01*
X455440Y416226D01*
X454263Y416714D01*
X453000Y416880D01*
X451737Y416714D01*
X450560Y416226D01*
X449549Y415451D01*
X448773Y414440D01*
X448286Y413263D01*
X448120Y412000D01*
X448286Y410737D01*
X448773Y409560D01*
X449190Y409017D01*
X448813Y408687D01*
X436500Y421000D01*
X416500Y441000D01*
Y454000D01*
X409000Y461500D01*
X361000D01*
X353000Y469500D01*
Y481500D01*
X364500Y493000D01*
X555500D01*
X570000Y478500D01*
D02*
G37*
G36*
X558547Y444507D02*
X559181Y443681D01*
X560007Y443047D01*
X560968Y442649D01*
X562000Y442513D01*
X563032Y442649D01*
X563993Y443047D01*
X564423Y443377D01*
X564923Y443131D01*
Y439869D01*
X564423Y439623D01*
X563993Y439953D01*
X563032Y440351D01*
X562500Y440421D01*
Y436500D01*
Y432579D01*
X563032Y432649D01*
X563993Y433047D01*
X564423Y433377D01*
X564923Y433131D01*
Y429869D01*
X564423Y429623D01*
X563993Y429953D01*
X563032Y430351D01*
X562000Y430487D01*
X560968Y430351D01*
X560007Y429953D01*
X559181Y429319D01*
X558547Y428493D01*
X558355Y428029D01*
X558297D01*
X557712Y427913D01*
X557216Y427581D01*
X556450Y426815D01*
X555922Y426995D01*
X555851Y427532D01*
X555453Y428493D01*
X554819Y429319D01*
X553993Y429953D01*
X553032Y430351D01*
X552000Y430487D01*
X550968Y430351D01*
X550504Y430159D01*
X546582Y434081D01*
X546085Y434413D01*
X545500Y434529D01*
X542831D01*
Y435772D01*
X542831D01*
Y436228D01*
X542831D01*
Y438971D01*
X547367D01*
X548341Y437996D01*
X548149Y437532D01*
X548013Y436500D01*
X548149Y435468D01*
X548547Y434507D01*
X549181Y433681D01*
X550007Y433047D01*
X550968Y432649D01*
X552000Y432513D01*
X553032Y432649D01*
X553993Y433047D01*
X554819Y433681D01*
X555453Y434507D01*
X555851Y435468D01*
X555987Y436500D01*
X555851Y437532D01*
X555453Y438493D01*
X554819Y439319D01*
X553993Y439953D01*
X553974Y440046D01*
X554348Y440618D01*
X554430Y440634D01*
X554926Y440966D01*
X557534Y443574D01*
X557866Y444070D01*
X557882Y444152D01*
X558454Y444526D01*
X558547Y444507D01*
D02*
G37*
G36*
X558819Y424152D02*
X559181Y423681D01*
X560007Y423047D01*
X560968Y422649D01*
X562000Y422513D01*
X563032Y422649D01*
X563993Y423047D01*
X564423Y423377D01*
X564923Y423131D01*
Y419869D01*
X564423Y419623D01*
X563993Y419953D01*
X563032Y420351D01*
X562000Y420487D01*
X560968Y420351D01*
X560007Y419953D01*
X559181Y419319D01*
X558547Y418493D01*
X558149Y417532D01*
X558013Y416500D01*
X558149Y415468D01*
X558341Y415004D01*
X556914Y413577D01*
X555369D01*
X555123Y414077D01*
X555453Y414507D01*
X555851Y415468D01*
X555921Y416000D01*
X552000D01*
Y417000D01*
X555921D01*
X555851Y417532D01*
X555453Y418493D01*
X554819Y419319D01*
X553993Y419953D01*
X553974Y420046D01*
X554348Y420618D01*
X554430Y420634D01*
X554926Y420966D01*
X558156Y424196D01*
X558819Y424152D01*
D02*
G37*
G36*
X522471Y411023D02*
Y410500D01*
X522587Y409915D01*
X522919Y409419D01*
X528188Y404149D01*
X528090Y403914D01*
X527970Y403000D01*
X528090Y402086D01*
X528443Y401235D01*
X529004Y400504D01*
X529735Y399943D01*
X530586Y399590D01*
X531500Y399470D01*
X531793Y399508D01*
X532169Y399179D01*
Y397728D01*
X537319D01*
Y397728D01*
X537681D01*
Y397728D01*
X542831D01*
Y399423D01*
X548631D01*
X548877Y398923D01*
X548547Y398493D01*
X548149Y397532D01*
X548013Y396500D01*
X548149Y395468D01*
X548547Y394507D01*
X549181Y393681D01*
X550007Y393047D01*
X550968Y392649D01*
X552000Y392513D01*
X553032Y392649D01*
X553993Y393047D01*
X554819Y393681D01*
X555453Y394507D01*
X555851Y395468D01*
X555987Y396500D01*
X555851Y397532D01*
X555453Y398493D01*
X555123Y398923D01*
X555369Y399423D01*
X556453D01*
X557038Y399540D01*
X557534Y399871D01*
X560504Y402841D01*
X560968Y402649D01*
X562000Y402513D01*
X563032Y402649D01*
X563993Y403047D01*
X564423Y403377D01*
X564923Y403131D01*
Y399869D01*
X564423Y399623D01*
X563993Y399953D01*
X563032Y400351D01*
X562500Y400421D01*
Y396500D01*
X562000D01*
Y396000D01*
X558079D01*
X558149Y395468D01*
X558547Y394507D01*
X559181Y393681D01*
X560007Y393047D01*
X560026Y392954D01*
X559652Y392382D01*
X559570Y392366D01*
X559074Y392034D01*
X556466Y389426D01*
X556134Y388930D01*
X556118Y388848D01*
X555546Y388474D01*
X555453Y388493D01*
X554819Y389319D01*
X553993Y389953D01*
X553032Y390351D01*
X552000Y390487D01*
X550968Y390351D01*
X550007Y389953D01*
X549181Y389319D01*
X548547Y388493D01*
X548149Y387532D01*
X548013Y386500D01*
X548149Y385468D01*
X548547Y384507D01*
X549181Y383681D01*
X550007Y383047D01*
X550968Y382649D01*
X552000Y382513D01*
X553032Y382649D01*
X553993Y383047D01*
X554819Y383681D01*
X555453Y384507D01*
X555518Y384664D01*
X556018Y384564D01*
Y380953D01*
X556134Y380367D01*
X556466Y379871D01*
X558341Y377996D01*
X558149Y377532D01*
X558013Y376500D01*
X558149Y375468D01*
X558547Y374507D01*
X559181Y373681D01*
X560007Y373047D01*
X560968Y372649D01*
X562000Y372513D01*
X563032Y372649D01*
X563993Y373047D01*
X564819Y373681D01*
X565453Y374507D01*
X565851Y375468D01*
X565987Y376500D01*
X565851Y377532D01*
X565453Y378493D01*
X564819Y379319D01*
X563993Y379953D01*
X563032Y380351D01*
X562000Y380487D01*
X560968Y380351D01*
X560504Y380159D01*
X559077Y381586D01*
Y383131D01*
X559577Y383377D01*
X560007Y383047D01*
X560968Y382649D01*
X562000Y382513D01*
X563032Y382649D01*
X563993Y383047D01*
X564819Y383681D01*
X565453Y384507D01*
X565851Y385468D01*
X565987Y386500D01*
X566167Y386705D01*
X568453D01*
X569038Y386821D01*
X569500Y387130D01*
X569678Y387090D01*
X570000Y386950D01*
Y243500D01*
X564500Y238000D01*
X539000D01*
X507000Y270000D01*
X507000Y350500D01*
X463829Y393671D01*
X464159Y394048D01*
X464702Y393631D01*
X465879Y393144D01*
X467142Y392978D01*
X468405Y393144D01*
X469001Y393391D01*
X469384Y393008D01*
X469184Y392526D01*
X469018Y391263D01*
X469184Y390000D01*
X469672Y388823D01*
X470447Y387812D01*
X471458Y387036D01*
X472635Y386549D01*
X473898Y386383D01*
X475161Y386549D01*
X476338Y387036D01*
X477349Y387812D01*
X478125Y388823D01*
X478502Y389734D01*
X493554D01*
X512971Y370317D01*
Y369500D01*
X513087Y368915D01*
X513419Y368419D01*
X515337Y366500D01*
X513919Y365081D01*
X513587Y364585D01*
X513471Y364000D01*
Y359587D01*
X513297Y359414D01*
X513217Y359293D01*
X512717Y359277D01*
X512491Y359572D01*
X511480Y360347D01*
X510303Y360835D01*
X509040Y361001D01*
X507777Y360835D01*
X506600Y360347D01*
X505589Y359572D01*
X504814Y358561D01*
X504326Y357384D01*
X504160Y356121D01*
X504326Y354858D01*
X504814Y353681D01*
X505589Y352670D01*
X506600Y351894D01*
X507777Y351407D01*
X509040Y351241D01*
X510303Y351407D01*
X511480Y351894D01*
X512022Y352310D01*
X512471Y352089D01*
Y317000D01*
Y314000D01*
X512587Y313415D01*
X512919Y312919D01*
X520919Y304919D01*
X521415Y304587D01*
X522000Y304471D01*
X532169D01*
Y303228D01*
X532169D01*
X532065Y302772D01*
X532047D01*
Y297228D01*
X537059D01*
X537197Y297228D01*
Y297228D01*
X537559D01*
Y297228D01*
X542709D01*
Y298471D01*
X547866D01*
X548341Y297996D01*
X548149Y297532D01*
X548013Y296500D01*
X548141Y295529D01*
X548088Y295340D01*
X547881Y295029D01*
X542831D01*
Y296272D01*
X537681D01*
Y296272D01*
X537319D01*
Y296272D01*
X532169D01*
Y290728D01*
X534593D01*
Y289272D01*
X532169D01*
Y284321D01*
X531793Y283992D01*
X531500Y284030D01*
X530586Y283910D01*
X529735Y283557D01*
X529004Y282996D01*
X528443Y282265D01*
X528090Y281414D01*
X527970Y280500D01*
X528090Y279586D01*
X528443Y278735D01*
X529004Y278004D01*
X529735Y277443D01*
X530586Y277090D01*
X531500Y276970D01*
X532414Y277090D01*
X533265Y277443D01*
X533669Y277753D01*
X534169Y277506D01*
Y273728D01*
X534593D01*
Y268772D01*
X532169D01*
Y263228D01*
X537319D01*
Y263228D01*
X537681D01*
Y263228D01*
X542831D01*
Y264471D01*
X545569D01*
X549074Y260966D01*
X549570Y260634D01*
X550156Y260518D01*
X557547D01*
X558133Y260634D01*
X558629Y260966D01*
X560504Y262841D01*
X560968Y262649D01*
X562000Y262513D01*
X563032Y262649D01*
X563993Y263047D01*
X564819Y263681D01*
X565453Y264507D01*
X565851Y265468D01*
X565987Y266500D01*
X565851Y267532D01*
X565453Y268493D01*
X564819Y269319D01*
X563993Y269953D01*
X563032Y270351D01*
X562000Y270487D01*
X560968Y270351D01*
X560007Y269953D01*
X559181Y269319D01*
X558547Y268493D01*
X558149Y267532D01*
X558013Y266500D01*
X558149Y265468D01*
X558341Y265004D01*
X556914Y263577D01*
X555369D01*
X555123Y264077D01*
X555453Y264507D01*
X555851Y265468D01*
X555921Y266000D01*
X552000D01*
Y266500D01*
X551500D01*
Y270421D01*
X550968Y270351D01*
X550007Y269953D01*
X549181Y269319D01*
X548547Y268493D01*
X548149Y267532D01*
X548078Y266995D01*
X547550Y266815D01*
X547284Y267081D01*
X546788Y267413D01*
X546203Y267529D01*
X542831D01*
Y268772D01*
X537681D01*
X537651Y269259D01*
Y273728D01*
X539181D01*
X539319Y273728D01*
X539681D01*
X539819Y273728D01*
X544831D01*
Y274971D01*
X545703D01*
X546288Y275087D01*
X546784Y275419D01*
X547550Y276185D01*
X548078Y276005D01*
X548149Y275468D01*
X548547Y274507D01*
X549181Y273681D01*
X550007Y273047D01*
X550968Y272649D01*
X552000Y272513D01*
X553032Y272649D01*
X553993Y273047D01*
X554819Y273681D01*
X555453Y274507D01*
X555851Y275468D01*
X555922Y276005D01*
X556450Y276185D01*
X557216Y275419D01*
X557712Y275087D01*
X558297Y274971D01*
X558355D01*
X558547Y274507D01*
X559181Y273681D01*
X560007Y273047D01*
X560968Y272649D01*
X562000Y272513D01*
X563032Y272649D01*
X563993Y273047D01*
X564819Y273681D01*
X565453Y274507D01*
X565851Y275468D01*
X565987Y276500D01*
X565851Y277532D01*
X565453Y278493D01*
X564819Y279319D01*
X563993Y279953D01*
X563032Y280351D01*
X562000Y280487D01*
X560968Y280351D01*
X560007Y279953D01*
X559181Y279319D01*
X558819Y278848D01*
X558156Y278804D01*
X554926Y282034D01*
X554430Y282366D01*
X554348Y282382D01*
X553974Y282954D01*
X553993Y283047D01*
X554819Y283681D01*
X555453Y284507D01*
X555851Y285468D01*
X555987Y286500D01*
X555851Y287532D01*
X555453Y288493D01*
X554819Y289319D01*
X553993Y289953D01*
X553836Y290018D01*
X553936Y290518D01*
X555819D01*
X558341Y287996D01*
X558149Y287532D01*
X558013Y286500D01*
X558149Y285468D01*
X558547Y284507D01*
X559181Y283681D01*
X560007Y283047D01*
X560968Y282649D01*
X562000Y282513D01*
X563032Y282649D01*
X563993Y283047D01*
X564819Y283681D01*
X565453Y284507D01*
X565851Y285468D01*
X565987Y286500D01*
X565851Y287532D01*
X565453Y288493D01*
X564819Y289319D01*
X563993Y289953D01*
X563032Y290351D01*
X562000Y290487D01*
X560968Y290351D01*
X560504Y290159D01*
X557534Y293129D01*
X557038Y293460D01*
X556453Y293577D01*
X555369D01*
X555123Y294077D01*
X555453Y294507D01*
X555851Y295468D01*
X555987Y296500D01*
X555851Y297532D01*
X555453Y298493D01*
X554819Y299319D01*
X553993Y299953D01*
X553836Y300018D01*
X553936Y300518D01*
X557547D01*
X558133Y300634D01*
X558629Y300966D01*
X560504Y302841D01*
X560968Y302649D01*
X562000Y302513D01*
X563032Y302649D01*
X563993Y303047D01*
X564819Y303681D01*
X565453Y304507D01*
X565851Y305468D01*
X565987Y306500D01*
X565851Y307532D01*
X565453Y308493D01*
X564819Y309319D01*
X563993Y309953D01*
X563032Y310351D01*
X562000Y310487D01*
X560968Y310351D01*
X560007Y309953D01*
X559181Y309319D01*
X558547Y308493D01*
X558149Y307532D01*
X558013Y306500D01*
X558149Y305468D01*
X558341Y305004D01*
X556914Y303577D01*
X555369D01*
X555123Y304077D01*
X555453Y304507D01*
X555851Y305468D01*
X555987Y306500D01*
X555851Y307532D01*
X555453Y308493D01*
X554819Y309319D01*
X553993Y309953D01*
X553032Y310351D01*
X552000Y310487D01*
X550968Y310351D01*
X550504Y310159D01*
X547581Y313081D01*
X547085Y313413D01*
X546500Y313529D01*
X542831D01*
Y314228D01*
X542953D01*
Y315471D01*
X548149D01*
X548149Y315468D01*
X548547Y314507D01*
X549181Y313681D01*
X550007Y313047D01*
X550968Y312649D01*
X552000Y312513D01*
X553032Y312649D01*
X553993Y313047D01*
X554819Y313681D01*
X555453Y314507D01*
X555851Y315468D01*
X555987Y316500D01*
X555851Y317532D01*
X555453Y318493D01*
X554819Y319319D01*
X553993Y319953D01*
X553032Y320351D01*
X552000Y320487D01*
X550968Y320351D01*
X550007Y319953D01*
X549181Y319319D01*
X548575Y318529D01*
X542953D01*
Y319772D01*
X537803D01*
Y319772D01*
X537441D01*
Y319772D01*
X532291D01*
Y314772D01*
X532169D01*
Y314029D01*
X528655D01*
X528557Y314265D01*
X527996Y314996D01*
X527265Y315557D01*
X526414Y315910D01*
X525500Y316030D01*
X524586Y315910D01*
X523735Y315557D01*
X523004Y314996D01*
X522443Y314265D01*
X522090Y313414D01*
X521970Y312500D01*
X522090Y311586D01*
X522443Y310735D01*
X523004Y310004D01*
X523735Y309443D01*
X524586Y309090D01*
X525500Y308970D01*
X526414Y309090D01*
X527265Y309443D01*
X527996Y310004D01*
X528557Y310735D01*
X528655Y310971D01*
X532169D01*
Y309228D01*
X532169D01*
Y308772D01*
X532169D01*
Y307529D01*
X522634D01*
X515529Y314633D01*
Y316367D01*
X535391Y336228D01*
X537197D01*
Y336228D01*
X537559D01*
Y336228D01*
X542709D01*
Y337471D01*
X544500D01*
X545085Y337587D01*
X545581Y337919D01*
X550504Y342841D01*
X550968Y342649D01*
X552000Y342513D01*
X553032Y342649D01*
X553993Y343047D01*
X554819Y343681D01*
X555181Y344152D01*
X555844Y344196D01*
X559696Y340344D01*
X559652Y339681D01*
X559181Y339319D01*
X558547Y338493D01*
X558149Y337532D01*
X558013Y336500D01*
X558149Y335468D01*
X558547Y334507D01*
X559181Y333681D01*
X560007Y333047D01*
X560968Y332649D01*
X562000Y332513D01*
X563032Y332649D01*
X563993Y333047D01*
X564819Y333681D01*
X565453Y334507D01*
X565851Y335468D01*
X565987Y336500D01*
X565851Y337532D01*
X565453Y338493D01*
X564819Y339319D01*
X563993Y339953D01*
X563529Y340145D01*
Y340203D01*
X563413Y340788D01*
X563081Y341284D01*
X562315Y342050D01*
X562495Y342578D01*
X563032Y342649D01*
X563993Y343047D01*
X564819Y343681D01*
X565453Y344507D01*
X565851Y345468D01*
X565987Y346500D01*
X565851Y347532D01*
X565453Y348493D01*
X564819Y349319D01*
X563993Y349953D01*
X563032Y350351D01*
X562000Y350487D01*
X560968Y350351D01*
X560504Y350159D01*
X557982Y352681D01*
Y354564D01*
X558482Y354664D01*
X558547Y354507D01*
X559181Y353681D01*
X560007Y353047D01*
X560968Y352649D01*
X562000Y352513D01*
X563032Y352649D01*
X563993Y353047D01*
X564819Y353681D01*
X565453Y354507D01*
X565851Y355468D01*
X565987Y356500D01*
X565851Y357532D01*
X565453Y358493D01*
X564819Y359319D01*
X563993Y359953D01*
X563032Y360351D01*
X562000Y360487D01*
X560968Y360351D01*
X560007Y359953D01*
X559181Y359319D01*
X558547Y358493D01*
X558454Y358474D01*
X557882Y358848D01*
X557866Y358930D01*
X557534Y359426D01*
X554926Y362034D01*
X554430Y362366D01*
X554348Y362382D01*
X553974Y362954D01*
X553993Y363047D01*
X554819Y363681D01*
X555453Y364507D01*
X555851Y365468D01*
X555987Y366500D01*
X555851Y367532D01*
X555453Y368493D01*
X554819Y369319D01*
X553993Y369953D01*
X553032Y370351D01*
X552000Y370487D01*
X550968Y370351D01*
X550007Y369953D01*
X549181Y369319D01*
X548547Y368493D01*
X548355Y368029D01*
X542709D01*
Y369272D01*
X537559D01*
Y369272D01*
X537197D01*
Y369272D01*
X532047D01*
Y368029D01*
X518133D01*
X516029Y370133D01*
Y370950D01*
X515913Y371535D01*
X515846Y371636D01*
X515912Y371844D01*
X516114Y372135D01*
X517263Y372286D01*
X518440Y372774D01*
X519451Y373549D01*
X520226Y374560D01*
X520714Y375737D01*
X520880Y377000D01*
X520714Y378263D01*
X520226Y379440D01*
X519451Y380451D01*
X518440Y381226D01*
X517263Y381714D01*
X516000Y381880D01*
X514737Y381714D01*
X513560Y381226D01*
X512549Y380451D01*
X511773Y379440D01*
X511286Y378263D01*
X511143Y377177D01*
X510652Y376961D01*
X495269Y392344D01*
X495173Y392408D01*
X495069Y393061D01*
X495118Y393135D01*
X496263Y393286D01*
X497440Y393774D01*
X498128Y394302D01*
X498359Y394208D01*
X498577Y394016D01*
X498536Y393700D01*
X501500D01*
Y396664D01*
X501086Y396610D01*
X500235Y396257D01*
X499973Y396057D01*
X499563Y396372D01*
X499714Y396737D01*
X499880Y398000D01*
X499714Y399263D01*
X499227Y400440D01*
X498451Y401451D01*
X497440Y402226D01*
X496263Y402714D01*
X495000Y402880D01*
X493737Y402714D01*
X492560Y402226D01*
X491549Y401451D01*
X490773Y400440D01*
X490286Y399263D01*
X490120Y398000D01*
X490286Y396737D01*
X490773Y395560D01*
X491549Y394549D01*
X492560Y393774D01*
X493737Y393286D01*
X493668Y392792D01*
X478502D01*
X478125Y393703D01*
X477349Y394714D01*
X476338Y395490D01*
X475161Y395977D01*
X473898Y396143D01*
X472635Y395977D01*
X472039Y395730D01*
X471657Y396113D01*
X471856Y396595D01*
X472022Y397858D01*
X471856Y399121D01*
X471369Y400298D01*
X470593Y401309D01*
X469582Y402084D01*
X468405Y402572D01*
X467142Y402738D01*
X465879Y402572D01*
X464702Y402084D01*
X463691Y401309D01*
X462916Y400298D01*
X462428Y399121D01*
X462262Y397858D01*
X462428Y396595D01*
X462916Y395418D01*
X463332Y394875D01*
X462956Y394545D01*
X449687Y407813D01*
X450017Y408190D01*
X450560Y407773D01*
X451737Y407286D01*
X453000Y407120D01*
X454263Y407286D01*
X455440Y407773D01*
X456451Y408549D01*
X457227Y409560D01*
X457604Y410471D01*
X516343D01*
X516928Y410587D01*
X517425Y410919D01*
X518977Y412471D01*
X521023D01*
X522471Y411023D01*
D02*
G37*
%LPC*%
G36*
X450612Y478000D02*
X444000D01*
Y471388D01*
X450612D01*
Y478000D01*
D02*
G37*
G36*
X443000D02*
X436388D01*
Y471388D01*
X443000D01*
Y478000D01*
D02*
G37*
G36*
X523500Y485646D02*
X522106Y485509D01*
X520765Y485102D01*
X519530Y484442D01*
X518447Y483553D01*
X517558Y482470D01*
X516898Y481235D01*
X516491Y479894D01*
X516354Y478500D01*
X516491Y477106D01*
X516898Y475765D01*
X517558Y474530D01*
X518447Y473447D01*
X519530Y472558D01*
X520765Y471898D01*
X522106Y471491D01*
X523500Y471354D01*
X524894Y471491D01*
X526235Y471898D01*
X527470Y472558D01*
X528553Y473447D01*
X529442Y474530D01*
X530102Y475765D01*
X530509Y477106D01*
X530646Y478500D01*
X530509Y479894D01*
X530102Y481235D01*
X529442Y482470D01*
X528553Y483553D01*
X527470Y484442D01*
X526235Y485102D01*
X524894Y485509D01*
X523500Y485646D01*
D02*
G37*
G36*
X557158Y481943D02*
X555804Y481810D01*
X554502Y481415D01*
X553302Y480773D01*
X552251Y479911D01*
X551388Y478859D01*
X550747Y477659D01*
X550352Y476358D01*
X550219Y475004D01*
X550352Y473650D01*
X550747Y472349D01*
X551388Y471149D01*
X552251Y470097D01*
X553302Y469235D01*
X554502Y468593D01*
X555804Y468198D01*
X557158Y468065D01*
X558511Y468198D01*
X559813Y468593D01*
X561013Y469235D01*
X562064Y470097D01*
X562927Y471149D01*
X563568Y472349D01*
X563963Y473650D01*
X564096Y475004D01*
X563963Y476358D01*
X563568Y477659D01*
X562927Y478859D01*
X562064Y479911D01*
X561013Y480773D01*
X559813Y481415D01*
X558511Y481810D01*
X557158Y481943D01*
D02*
G37*
G36*
X364244D02*
X362890Y481810D01*
X361589Y481415D01*
X360389Y480773D01*
X359337Y479911D01*
X358475Y478859D01*
X357833Y477659D01*
X357438Y476358D01*
X357305Y475004D01*
X357438Y473650D01*
X357833Y472349D01*
X358475Y471149D01*
X359337Y470097D01*
X360389Y469235D01*
X361589Y468593D01*
X362890Y468198D01*
X364244Y468065D01*
X365598Y468198D01*
X366899Y468593D01*
X368099Y469235D01*
X369151Y470097D01*
X370014Y471149D01*
X370655Y472349D01*
X371050Y473650D01*
X371183Y475004D01*
X371050Y476358D01*
X370655Y477659D01*
X370014Y478859D01*
X369151Y479911D01*
X368099Y480773D01*
X366899Y481415D01*
X365598Y481810D01*
X364244Y481943D01*
D02*
G37*
G36*
X508488Y456772D02*
X506413D01*
Y454500D01*
X508488D01*
Y456772D01*
D02*
G37*
G36*
X500882Y455681D02*
X498413D01*
Y454000D01*
X500882D01*
Y455681D01*
D02*
G37*
G36*
X497413D02*
X494945D01*
Y454000D01*
X497413D01*
Y455681D01*
D02*
G37*
G36*
X472413Y446421D02*
X469945D01*
Y444740D01*
X472413D01*
Y446421D01*
D02*
G37*
G36*
X503488Y438500D02*
X501413D01*
Y436228D01*
X503488D01*
Y438500D01*
D02*
G37*
G36*
X497913Y436620D02*
X497328Y436504D01*
X497205Y436421D01*
X494945D01*
Y434740D01*
X497913D01*
X500882D01*
Y436421D01*
X498622D01*
X498499Y436504D01*
X497913Y436620D01*
D02*
G37*
G36*
X467500Y426664D02*
Y423700D01*
X470464D01*
X470410Y424114D01*
X470057Y424965D01*
X469496Y425696D01*
X468765Y426257D01*
X467914Y426610D01*
X467500Y426664D01*
D02*
G37*
G36*
X466500D02*
X466086Y426610D01*
X465235Y426257D01*
X464504Y425696D01*
X463943Y424965D01*
X463590Y424114D01*
X463536Y423700D01*
X466500D01*
Y426664D01*
D02*
G37*
G36*
X457500D02*
Y423700D01*
X460464D01*
X460410Y424114D01*
X460057Y424965D01*
X459496Y425696D01*
X458765Y426257D01*
X457914Y426610D01*
X457500Y426664D01*
D02*
G37*
G36*
X456500D02*
X456086Y426610D01*
X455235Y426257D01*
X454504Y425696D01*
X453943Y424965D01*
X453590Y424114D01*
X453536Y423700D01*
X456500D01*
Y426664D01*
D02*
G37*
G36*
X447500D02*
Y423700D01*
X450464D01*
X450410Y424114D01*
X450057Y424965D01*
X449496Y425696D01*
X448765Y426257D01*
X447914Y426610D01*
X447500Y426664D01*
D02*
G37*
G36*
X446500D02*
X446086Y426610D01*
X445235Y426257D01*
X444504Y425696D01*
X443943Y424965D01*
X443590Y424114D01*
X443536Y423700D01*
X446500D01*
Y426664D01*
D02*
G37*
G36*
X466500Y422700D02*
X463536D01*
X463590Y422286D01*
X463943Y421435D01*
X464504Y420704D01*
X465235Y420143D01*
X466086Y419790D01*
X466500Y419736D01*
Y422700D01*
D02*
G37*
G36*
X460464D02*
X457500D01*
Y419736D01*
X457914Y419790D01*
X458765Y420143D01*
X459496Y420704D01*
X460057Y421435D01*
X460410Y422286D01*
X460464Y422700D01*
D02*
G37*
G36*
X456500D02*
X453536D01*
X453590Y422286D01*
X453943Y421435D01*
X454504Y420704D01*
X455235Y420143D01*
X456086Y419790D01*
X456500Y419736D01*
Y422700D01*
D02*
G37*
G36*
X450464D02*
X447500D01*
Y419736D01*
X447914Y419790D01*
X448765Y420143D01*
X449496Y420704D01*
X450057Y421435D01*
X450410Y422286D01*
X450464Y422700D01*
D02*
G37*
G36*
X446500D02*
X443536D01*
X443590Y422286D01*
X443943Y421435D01*
X444504Y420704D01*
X445235Y420143D01*
X446086Y419790D01*
X446500Y419736D01*
Y422700D01*
D02*
G37*
G36*
X561500Y440421D02*
X560968Y440351D01*
X560007Y439953D01*
X559181Y439319D01*
X558547Y438493D01*
X558149Y437532D01*
X558079Y437000D01*
X561500D01*
Y440421D01*
D02*
G37*
G36*
Y436000D02*
X558079D01*
X558149Y435468D01*
X558547Y434507D01*
X559181Y433681D01*
X560007Y433047D01*
X560968Y432649D01*
X561500Y432579D01*
Y436000D01*
D02*
G37*
G36*
X507500Y406664D02*
Y403700D01*
X510464D01*
X510410Y404114D01*
X510057Y404965D01*
X509496Y405696D01*
X508765Y406257D01*
X507914Y406610D01*
X507500Y406664D01*
D02*
G37*
G36*
X506500D02*
X506086Y406610D01*
X505235Y406257D01*
X504504Y405696D01*
X503943Y404965D01*
X503590Y404114D01*
X503536Y403700D01*
X506500D01*
Y406664D01*
D02*
G37*
G36*
X487500D02*
Y403700D01*
X490464D01*
X490410Y404114D01*
X490057Y404965D01*
X489496Y405696D01*
X488765Y406257D01*
X487914Y406610D01*
X487500Y406664D01*
D02*
G37*
G36*
X486500D02*
X486086Y406610D01*
X485235Y406257D01*
X484504Y405696D01*
X483943Y404965D01*
X483590Y404114D01*
X483536Y403700D01*
X486500D01*
Y406664D01*
D02*
G37*
G36*
X477500D02*
Y403700D01*
X480464D01*
X480410Y404114D01*
X480057Y404965D01*
X479496Y405696D01*
X478765Y406257D01*
X477914Y406610D01*
X477500Y406664D01*
D02*
G37*
G36*
X476500D02*
X476086Y406610D01*
X475235Y406257D01*
X474504Y405696D01*
X473943Y404965D01*
X473590Y404114D01*
X473536Y403700D01*
X476500D01*
Y406664D01*
D02*
G37*
G36*
X510464Y402700D02*
X507500D01*
Y399736D01*
X507914Y399790D01*
X508765Y400143D01*
X509496Y400704D01*
X510057Y401435D01*
X510410Y402286D01*
X510464Y402700D01*
D02*
G37*
G36*
X506500D02*
X503536D01*
X503590Y402286D01*
X503943Y401435D01*
X504504Y400704D01*
X505235Y400143D01*
X506086Y399790D01*
X506500Y399736D01*
Y402700D01*
D02*
G37*
G36*
X490464D02*
X487500D01*
Y399736D01*
X487914Y399790D01*
X488765Y400143D01*
X489496Y400704D01*
X490057Y401435D01*
X490410Y402286D01*
X490464Y402700D01*
D02*
G37*
G36*
X486500D02*
X483536D01*
X483590Y402286D01*
X483943Y401435D01*
X484504Y400704D01*
X485235Y400143D01*
X486086Y399790D01*
X486500Y399736D01*
Y402700D01*
D02*
G37*
G36*
X480464D02*
X477500D01*
Y399736D01*
X477914Y399790D01*
X478765Y400143D01*
X479496Y400704D01*
X480057Y401435D01*
X480410Y402286D01*
X480464Y402700D01*
D02*
G37*
G36*
X476500D02*
X473536D01*
X473590Y402286D01*
X473943Y401435D01*
X474504Y400704D01*
X475235Y400143D01*
X476086Y399790D01*
X476500Y399736D01*
Y402700D01*
D02*
G37*
G36*
X561500Y400421D02*
X560968Y400351D01*
X560007Y399953D01*
X559181Y399319D01*
X558547Y398493D01*
X558149Y397532D01*
X558079Y397000D01*
X561500D01*
Y400421D01*
D02*
G37*
G36*
X502500Y396664D02*
Y393700D01*
X505464D01*
X505410Y394114D01*
X505057Y394965D01*
X504496Y395696D01*
X503765Y396257D01*
X502914Y396610D01*
X502500Y396664D01*
D02*
G37*
G36*
X505464Y392700D02*
X502500D01*
Y389736D01*
X502914Y389790D01*
X503765Y390143D01*
X504496Y390704D01*
X505057Y391435D01*
X505410Y392286D01*
X505464Y392700D01*
D02*
G37*
G36*
X501500D02*
X498536D01*
X498590Y392286D01*
X498943Y391435D01*
X499504Y390704D01*
X500235Y390143D01*
X501086Y389790D01*
X501500Y389736D01*
Y392700D01*
D02*
G37*
G36*
X552000Y380487D02*
X550968Y380351D01*
X550007Y379953D01*
X549181Y379319D01*
X548547Y378493D01*
X548149Y377532D01*
X548013Y376500D01*
X548149Y375468D01*
X548547Y374507D01*
X549181Y373681D01*
X550007Y373047D01*
X550968Y372649D01*
X552000Y372513D01*
X553032Y372649D01*
X553993Y373047D01*
X554819Y373681D01*
X555453Y374507D01*
X555851Y375468D01*
X555987Y376500D01*
X555851Y377532D01*
X555453Y378493D01*
X554819Y379319D01*
X553993Y379953D01*
X553032Y380351D01*
X552000Y380487D01*
D02*
G37*
G36*
X562500Y370421D02*
Y367000D01*
X565921D01*
X565851Y367532D01*
X565453Y368493D01*
X564819Y369319D01*
X563993Y369953D01*
X563032Y370351D01*
X562500Y370421D01*
D02*
G37*
G36*
X561500D02*
X560968Y370351D01*
X560007Y369953D01*
X559181Y369319D01*
X558547Y368493D01*
X558149Y367532D01*
X558079Y367000D01*
X561500D01*
Y370421D01*
D02*
G37*
G36*
X488040Y382001D02*
X486777Y381835D01*
X485600Y381347D01*
X484589Y380572D01*
X483814Y379561D01*
X483326Y378384D01*
X483160Y377121D01*
X483326Y375858D01*
X483814Y374681D01*
X484589Y373670D01*
X485600Y372894D01*
X486777Y372407D01*
X488040Y372241D01*
X489303Y372407D01*
X490154Y372759D01*
X490536Y372376D01*
X490184Y371526D01*
X490018Y370263D01*
X490184Y369000D01*
X490672Y367823D01*
X491447Y366812D01*
X492458Y366037D01*
X493635Y365549D01*
X494898Y365383D01*
X496161Y365549D01*
X497338Y366037D01*
X498349Y366812D01*
X499125Y367823D01*
X499612Y369000D01*
X499778Y370263D01*
X499612Y371526D01*
X499125Y372703D01*
X498349Y373714D01*
X497338Y374489D01*
X496161Y374977D01*
X494898Y375143D01*
X493635Y374977D01*
X492785Y374625D01*
X492402Y375008D01*
X492754Y375858D01*
X492921Y377121D01*
X492754Y378384D01*
X492267Y379561D01*
X491491Y380572D01*
X490480Y381347D01*
X489303Y381835D01*
X488040Y382001D01*
D02*
G37*
G36*
X565921Y366000D02*
X562500D01*
Y362579D01*
X563032Y362649D01*
X563993Y363047D01*
X564819Y363681D01*
X565453Y364507D01*
X565851Y365468D01*
X565921Y366000D01*
D02*
G37*
G36*
X561500D02*
X558079D01*
X558149Y365468D01*
X558547Y364507D01*
X559181Y363681D01*
X560007Y363047D01*
X560968Y362649D01*
X561500Y362579D01*
Y366000D01*
D02*
G37*
G36*
X552500Y340421D02*
Y337000D01*
X555921D01*
X555851Y337532D01*
X555453Y338493D01*
X554819Y339319D01*
X553993Y339953D01*
X553032Y340351D01*
X552500Y340421D01*
D02*
G37*
G36*
X551500D02*
X550968Y340351D01*
X550007Y339953D01*
X549181Y339319D01*
X548547Y338493D01*
X548149Y337532D01*
X548079Y337000D01*
X551500D01*
Y340421D01*
D02*
G37*
G36*
X555921Y336000D02*
X552500D01*
Y332579D01*
X553032Y332649D01*
X553993Y333047D01*
X554819Y333681D01*
X555453Y334507D01*
X555851Y335468D01*
X555921Y336000D01*
D02*
G37*
G36*
X551500D02*
X548079D01*
X548149Y335468D01*
X548547Y334507D01*
X549181Y333681D01*
X550007Y333047D01*
X550968Y332649D01*
X551500Y332579D01*
Y336000D01*
D02*
G37*
G36*
X562000Y330487D02*
X560968Y330351D01*
X560007Y329953D01*
X559181Y329319D01*
X558547Y328493D01*
X558149Y327532D01*
X558013Y326500D01*
X558149Y325468D01*
X558547Y324507D01*
X559181Y323681D01*
X560007Y323047D01*
X560968Y322649D01*
X562000Y322513D01*
X563032Y322649D01*
X563993Y323047D01*
X564819Y323681D01*
X565453Y324507D01*
X565851Y325468D01*
X565987Y326500D01*
X565851Y327532D01*
X565453Y328493D01*
X564819Y329319D01*
X563993Y329953D01*
X563032Y330351D01*
X562000Y330487D01*
D02*
G37*
G36*
X552000D02*
X550968Y330351D01*
X550007Y329953D01*
X549181Y329319D01*
X548547Y328493D01*
X548149Y327532D01*
X548013Y326500D01*
X548149Y325468D01*
X548547Y324507D01*
X549181Y323681D01*
X550007Y323047D01*
X550968Y322649D01*
X552000Y322513D01*
X553032Y322649D01*
X553993Y323047D01*
X554819Y323681D01*
X555453Y324507D01*
X555851Y325468D01*
X555987Y326500D01*
X555851Y327532D01*
X555453Y328493D01*
X554819Y329319D01*
X553993Y329953D01*
X553032Y330351D01*
X552000Y330487D01*
D02*
G37*
G36*
X562500Y320421D02*
Y317000D01*
X565921D01*
X565851Y317532D01*
X565453Y318493D01*
X564819Y319319D01*
X563993Y319953D01*
X563032Y320351D01*
X562500Y320421D01*
D02*
G37*
G36*
X561500D02*
X560968Y320351D01*
X560007Y319953D01*
X559181Y319319D01*
X558547Y318493D01*
X558149Y317532D01*
X558079Y317000D01*
X561500D01*
Y320421D01*
D02*
G37*
G36*
X565921Y316000D02*
X562500D01*
Y312579D01*
X563032Y312649D01*
X563993Y313047D01*
X564819Y313681D01*
X565453Y314507D01*
X565851Y315468D01*
X565921Y316000D01*
D02*
G37*
G36*
X561500D02*
X558079D01*
X558149Y315468D01*
X558547Y314507D01*
X559181Y313681D01*
X560007Y313047D01*
X560968Y312649D01*
X561500Y312579D01*
Y316000D01*
D02*
G37*
G36*
X562500Y300421D02*
Y297000D01*
X565921D01*
X565851Y297532D01*
X565453Y298493D01*
X564819Y299319D01*
X563993Y299953D01*
X563032Y300351D01*
X562500Y300421D01*
D02*
G37*
G36*
X561500D02*
X560968Y300351D01*
X560007Y299953D01*
X559181Y299319D01*
X558547Y298493D01*
X558149Y297532D01*
X558079Y297000D01*
X561500D01*
Y300421D01*
D02*
G37*
G36*
X565921Y296000D02*
X562500D01*
Y292579D01*
X563032Y292649D01*
X563993Y293047D01*
X564819Y293681D01*
X565453Y294507D01*
X565851Y295468D01*
X565921Y296000D01*
D02*
G37*
G36*
X561500D02*
X558079D01*
X558149Y295468D01*
X558547Y294507D01*
X559181Y293681D01*
X560007Y293047D01*
X560968Y292649D01*
X561500Y292579D01*
Y296000D01*
D02*
G37*
G36*
X512500Y276664D02*
Y273700D01*
X515464D01*
X515410Y274114D01*
X515057Y274965D01*
X514496Y275696D01*
X513765Y276257D01*
X512914Y276610D01*
X512500Y276664D01*
D02*
G37*
G36*
X511500D02*
X511086Y276610D01*
X510235Y276257D01*
X509504Y275696D01*
X508943Y274965D01*
X508590Y274114D01*
X508536Y273700D01*
X511500D01*
Y276664D01*
D02*
G37*
G36*
X515464Y272700D02*
X512500D01*
Y269736D01*
X512914Y269790D01*
X513765Y270143D01*
X514496Y270704D01*
X515057Y271435D01*
X515410Y272286D01*
X515464Y272700D01*
D02*
G37*
G36*
X511500D02*
X508536D01*
X508590Y272286D01*
X508943Y271435D01*
X509504Y270704D01*
X510235Y270143D01*
X511086Y269790D01*
X511500Y269736D01*
Y272700D01*
D02*
G37*
G36*
X552500Y270421D02*
Y267000D01*
X555921D01*
X555851Y267532D01*
X555453Y268493D01*
X554819Y269319D01*
X553993Y269953D01*
X553032Y270351D01*
X552500Y270421D01*
D02*
G37*
G36*
X557158Y253596D02*
X555804Y253463D01*
X554502Y253068D01*
X553302Y252427D01*
X552251Y251564D01*
X551388Y250513D01*
X550747Y249313D01*
X550352Y248011D01*
X550219Y246658D01*
X550352Y245304D01*
X550747Y244002D01*
X551388Y242803D01*
X552251Y241751D01*
X553302Y240888D01*
X554502Y240247D01*
X555804Y239852D01*
X557158Y239719D01*
X558511Y239852D01*
X559813Y240247D01*
X561013Y240888D01*
X562064Y241751D01*
X562927Y242803D01*
X563568Y244002D01*
X563963Y245304D01*
X564096Y246658D01*
X563963Y248011D01*
X563568Y249313D01*
X562927Y250513D01*
X562064Y251564D01*
X561013Y252427D01*
X559813Y253068D01*
X558511Y253463D01*
X557158Y253596D01*
D02*
G37*
%LPD*%
D12*
X514000Y317000D02*
X536000Y339000D01*
X536122Y300122D02*
Y306000D01*
X536244Y416122D02*
Y426500D01*
X524000Y410500D02*
X531500Y403000D01*
X524000Y410500D02*
Y411657D01*
X521657Y414000D02*
X524000Y411657D01*
X518343Y414000D02*
X521657D01*
X516343Y412000D02*
X518343Y414000D01*
X453000Y412000D02*
X516343D01*
X525500Y345000D02*
X535500D01*
X515000Y358953D02*
Y364000D01*
X514379Y358332D02*
X515000Y358953D01*
X514379Y353910D02*
Y358332D01*
X514000Y353531D02*
X514379Y353910D01*
X494187Y391263D02*
X514500Y370950D01*
X473898Y391263D02*
X494187D01*
X531000Y426500D02*
X534866D01*
X536244D01*
X536122Y416000D02*
X536244Y416122D01*
X534744Y416000D02*
X536122D01*
X534622Y366500D02*
X536000D01*
X515000Y364000D02*
X517500Y366500D01*
X514500Y369500D02*
X517500Y366500D01*
X514500Y369500D02*
Y370950D01*
X534744Y306000D02*
X536122D01*
X522000D02*
X534744D01*
X517500Y366500D02*
X534622D01*
X514000Y317000D02*
Y353531D01*
X431087Y444240D02*
Y446087D01*
X438445Y446043D02*
X439324Y446921D01*
X442973Y439441D02*
X445653D01*
X441913Y436760D02*
X442594Y437441D01*
X444503Y434079D02*
X447184Y436760D01*
X466653Y486112D02*
X471112Y481653D01*
X472913Y440500D02*
X474087D01*
Y441559D02*
X475503D01*
X474087Y440500D02*
Y441559D01*
X487087Y426760D02*
Y428969D01*
X484567Y436760D02*
X487087Y434240D01*
Y440537D02*
Y446020D01*
Y453142D02*
Y453500D01*
X497913Y434240D02*
X499228D01*
X497913D02*
Y435090D01*
Y453500D02*
X498413Y454000D01*
X508287Y426760D02*
X509059Y427532D01*
X509500Y433000D02*
Y439000D01*
Y433000D02*
X510000Y432500D01*
X514000Y314000D02*
Y317000D01*
X513532Y427532D02*
X516000Y430000D01*
X514500Y454000D02*
X514547Y453953D01*
X531500Y403000D02*
X533622D01*
X538878Y360953D02*
Y361000D01*
Y400500D02*
Y400953D01*
Y426500D02*
X539000D01*
X548703Y293500D02*
X550156Y292047D01*
X544703Y345500D02*
X550156Y350953D01*
X548738Y442591D02*
X549281Y442047D01*
X553844Y350953D02*
X556453Y348344D01*
Y345750D02*
Y348344D01*
X553844Y442047D02*
X556453Y444656D01*
X562000Y336500D02*
Y340203D01*
X563844Y460953D02*
X566453Y458344D01*
X438445Y437441D02*
Y446043D01*
X441913Y440500D02*
X442973Y439441D01*
X471112Y480124D02*
Y481653D01*
X490555Y432438D02*
Y437069D01*
X491112Y480124D02*
Y481653D01*
X507547Y430500D02*
X509000Y431953D01*
X516000Y430000D02*
Y431657D01*
X523453Y439110D02*
Y440500D01*
X545703Y276500D02*
X550156Y280953D01*
X546203Y266000D02*
X550156Y262047D01*
X546203Y306000D02*
X550156Y302047D01*
X546203Y416000D02*
X550156Y412047D01*
X545703Y426500D02*
X550156Y422047D01*
X553844Y280953D02*
X558297Y276500D01*
X553844Y360953D02*
X556453Y358344D01*
Y444656D02*
Y450953D01*
X553844Y422047D02*
X558297Y426500D01*
X562750Y390953D02*
X566453Y394656D01*
X556453Y352047D02*
Y358344D01*
X557547Y380953D02*
Y388344D01*
X566453Y394656D02*
Y458344D01*
X445653Y439441D02*
X448335Y436760D01*
X447184D02*
X448335D01*
X431087D02*
X432346Y435500D01*
Y434079D02*
Y435500D01*
Y434079D02*
X444503D01*
X438445Y437441D02*
X442594D01*
X446713Y446921D02*
X449394Y444240D01*
X439324Y446921D02*
X446713D01*
X497913Y430500D02*
X507547D01*
X497913Y426760D02*
X508287D01*
X509059Y427532D02*
X513532D01*
X492642Y446020D02*
X496072Y442591D01*
X487087Y446020D02*
X492642D01*
X497913Y449760D02*
X510260D01*
X514500Y454000D01*
X538878Y266000D02*
X546203D01*
X541634Y276500D02*
X545703D01*
X531500Y280500D02*
X536122Y285122D01*
X536000Y300000D02*
X536122Y300122D01*
X538878Y306000D02*
X546203D01*
X536122Y316878D02*
X536244Y317000D01*
X525500Y312500D02*
X535622D01*
X538756Y339000D02*
X544500D01*
X538756Y345500D02*
X544703D01*
X535500Y345000D02*
X536122Y345622D01*
Y400500D02*
Y406500D01*
X533622Y403000D02*
X536122Y400500D01*
X539000Y426500D02*
X545703D01*
X538878Y433000D02*
X545500D01*
X525500D02*
X536122D01*
X523453Y440500D02*
X536000D01*
X550156Y262047D02*
X557547D01*
X558297Y276500D02*
X562000D01*
X552000Y286500D02*
X552000Y286500D01*
X550156Y280953D02*
X553844D01*
X550156Y292047D02*
X556453D01*
X548500Y300000D02*
X552000Y296500D01*
X550156Y302047D02*
X557547D01*
X551500Y317000D02*
X552000Y316500D01*
X550156Y350953D02*
X553844D01*
X552000Y356500D02*
X552000Y356500D01*
X557547Y380953D02*
X562000Y376500D01*
X560156Y390953D02*
X562750D01*
X557547Y388344D02*
X560156Y390953D01*
X560266Y388234D02*
X562000Y386500D01*
X560266Y388234D02*
X568453D01*
X556453Y400953D02*
X562000Y406500D01*
X550156Y412047D02*
X557547D01*
X550156Y422047D02*
X553844D01*
X558297Y426500D02*
X562000D01*
X549281Y442047D02*
X553844D01*
X564673Y462953D02*
X568453Y459173D01*
X462087Y436760D02*
X472087Y426760D01*
X487087Y428969D02*
X490555Y432438D01*
X487087Y440537D02*
X490555Y437069D01*
X491112Y480124D02*
X508283Y462953D01*
X536122Y266000D02*
Y285122D01*
X538878Y312000D02*
X546500D01*
X536122D02*
Y316878D01*
X535622Y312500D02*
X536122Y312000D01*
X538878Y416000D02*
X546203D01*
X518472Y446020D02*
X520500Y448047D01*
X534575D01*
X536122Y446500D01*
X557547Y262047D02*
X562000Y266500D01*
X557547Y302047D02*
X562000Y306500D01*
X556453Y345750D02*
X562000Y340203D01*
X556453Y352047D02*
X562000Y346500D01*
X557547Y412047D02*
X562000Y416500D01*
X390235Y478500D02*
X399847Y488112D01*
X429155Y478500D02*
X436767Y486112D01*
X484653Y488112D02*
X491112Y481653D01*
X536122Y285122D02*
Y293500D01*
Y345622D02*
Y361000D01*
X556453Y292047D02*
X562000Y286500D01*
X556453Y450953D02*
X562000Y456500D01*
X568453Y388234D02*
Y459173D01*
X381000Y478500D02*
X390235D01*
X472087Y426760D02*
X487087D01*
X472913Y436760D02*
X484567D01*
X448335D02*
X462087D01*
X497913Y446020D02*
X518472D01*
X449394Y444240D02*
X462087D01*
X514547Y453953D02*
X520500D01*
X436767Y486112D02*
X466653D01*
X538878Y286500D02*
X552000D01*
X538878Y293500D02*
X548703D01*
X538756Y300000D02*
X548500D01*
X539000Y317000D02*
X551500D01*
X538878Y356500D02*
X552000D01*
X538756Y366500D02*
X552000D01*
X538878Y360953D02*
X553844D01*
X538878Y406500D02*
X552000D01*
X538878Y400953D02*
X556453D01*
X538756Y440500D02*
X548000D01*
X538878Y446500D02*
X552000D01*
X514000Y314000D02*
X522000Y306000D01*
X516000Y431657D02*
X523453Y439110D01*
X471112Y480124D02*
X490282Y460953D01*
X546500Y312000D02*
X552000Y306500D01*
X544500Y339000D02*
X552000Y346500D01*
X548000Y440500D02*
X552000Y436500D01*
X545500Y433000D02*
X552000Y426500D01*
X475503Y441559D02*
X487087Y453142D01*
X431087Y446087D02*
X463500Y478500D01*
X496072Y442591D02*
X548738D01*
X490282Y460953D02*
X563844D01*
X508283Y462953D02*
X564673D01*
X401000Y478500D02*
X429155D01*
X399847Y488112D02*
X484653D01*
X416500Y441000D02*
Y454000D01*
X409000Y461500D02*
X416500Y454000D01*
X361000Y461500D02*
X409000D01*
X353000Y481500D02*
X364500Y493000D01*
X353000Y469500D02*
Y481500D01*
Y469500D02*
X361000Y461500D01*
X416500Y441000D02*
X436500Y421000D01*
X507000Y350500D01*
Y270000D02*
Y350500D01*
Y270000D02*
X539000Y238000D01*
X564500D01*
X570000Y243500D01*
Y478500D01*
X555500Y493000D02*
X570000Y478500D01*
X364500Y493000D02*
X555500D01*
D16*
X369657Y475004D02*
G03*
X369657Y475004I-5413J0D01*
G01*
X562571D02*
G03*
X562571Y475004I-5413J0D01*
G01*
Y246658D02*
G03*
X562571Y246658I-5413J0D01*
G01*
D17*
X487087Y446020D02*
D03*
Y453500D02*
D03*
X497913D02*
D03*
Y449760D02*
D03*
Y446020D02*
D03*
X487087Y426760D02*
D03*
Y434240D02*
D03*
X497913D02*
D03*
Y430500D02*
D03*
Y426760D02*
D03*
X431087Y436760D02*
D03*
Y444240D02*
D03*
X441913D02*
D03*
Y440500D02*
D03*
Y436760D02*
D03*
X472913D02*
D03*
Y440500D02*
D03*
Y444240D02*
D03*
X462087D02*
D03*
Y436760D02*
D03*
D18*
X508988Y454000D02*
D03*
X514500D02*
D03*
X503988Y439000D02*
D03*
X509500D02*
D03*
X534744Y400500D02*
D03*
X540256D02*
D03*
X534744Y406500D02*
D03*
X540256D02*
D03*
X534744Y439000D02*
D03*
X540256D02*
D03*
X534744Y433000D02*
D03*
X540256D02*
D03*
X534866Y426500D02*
D03*
X540378D02*
D03*
X540256Y293500D02*
D03*
X534744D02*
D03*
X540134Y300000D02*
D03*
X534622D02*
D03*
X540378Y317000D02*
D03*
X534866D02*
D03*
X540134Y339000D02*
D03*
X534622D02*
D03*
X540256Y355468D02*
D03*
X534744D02*
D03*
X540256Y266000D02*
D03*
X534744D02*
D03*
X540256Y286500D02*
D03*
X534744D02*
D03*
X540256Y306000D02*
D03*
X534744D02*
D03*
X540256Y312000D02*
D03*
X534744D02*
D03*
X540134Y345500D02*
D03*
X534622D02*
D03*
X540134Y366500D02*
D03*
X534622D02*
D03*
X540256Y361000D02*
D03*
X534744D02*
D03*
X540256Y416000D02*
D03*
X534744D02*
D03*
X540256Y446500D02*
D03*
X534744D02*
D03*
X542256Y276500D02*
D03*
X536744D02*
D03*
D19*
X520500Y453756D02*
D03*
Y448244D02*
D03*
X510000Y432303D02*
D03*
Y426791D02*
D03*
D30*
X474102Y418737D02*
D03*
X467142Y397858D02*
D03*
X453000Y412000D02*
D03*
X516000Y377000D02*
D03*
X509040Y356121D02*
D03*
X494898Y370263D02*
D03*
X495000Y398000D02*
D03*
X488040Y377121D02*
D03*
X473898Y391263D02*
D03*
D31*
X381000Y478500D02*
D03*
X443500D02*
D03*
D32*
X401000D02*
D03*
X463500D02*
D03*
X483500D02*
D03*
X503500D02*
D03*
X523500D02*
D03*
D33*
X562000Y266500D02*
D03*
X552000D02*
D03*
X562000Y276500D02*
D03*
X552000D02*
D03*
X562000Y286500D02*
D03*
X552000D02*
D03*
X562000Y296500D02*
D03*
X552000D02*
D03*
X562000Y306500D02*
D03*
X552000D02*
D03*
X562000Y316500D02*
D03*
X552000D02*
D03*
X562000Y326500D02*
D03*
X552000D02*
D03*
X562000Y336500D02*
D03*
X552000D02*
D03*
X562000Y346500D02*
D03*
X552000D02*
D03*
X562000Y356500D02*
D03*
X552000D02*
D03*
X562000Y366500D02*
D03*
X552000D02*
D03*
X562000Y376500D02*
D03*
X552000D02*
D03*
X562000Y386500D02*
D03*
X552000D02*
D03*
X562000Y396500D02*
D03*
X552000D02*
D03*
X562000Y406500D02*
D03*
X552000D02*
D03*
X562000Y416500D02*
D03*
X552000D02*
D03*
X562000Y426500D02*
D03*
X552000D02*
D03*
X562000Y436500D02*
D03*
X552000D02*
D03*
X562000Y446500D02*
D03*
X552000D02*
D03*
X562000Y456500D02*
D03*
D34*
X552000D02*
D03*
D35*
X565000Y480000D02*
D03*
X567500Y475000D02*
D03*
X565000Y470000D02*
D03*
X567500Y465000D02*
D03*
Y385000D02*
D03*
Y375000D02*
D03*
Y365000D02*
D03*
Y355000D02*
D03*
Y345000D02*
D03*
Y335000D02*
D03*
Y325000D02*
D03*
Y315000D02*
D03*
Y305000D02*
D03*
Y295000D02*
D03*
Y285000D02*
D03*
Y275000D02*
D03*
Y265000D02*
D03*
X565000Y260000D02*
D03*
X567500Y255000D02*
D03*
X565000Y250000D02*
D03*
X567500Y245000D02*
D03*
X560000Y260000D02*
D03*
X562500Y255000D02*
D03*
X555000Y490000D02*
D03*
X557500Y485000D02*
D03*
Y255000D02*
D03*
X550000Y490000D02*
D03*
X552500Y485000D02*
D03*
X550000Y480000D02*
D03*
Y470000D02*
D03*
X552500Y255000D02*
D03*
X550000Y240000D02*
D03*
X545000Y490000D02*
D03*
X547500Y485000D02*
D03*
X545000Y480000D02*
D03*
X547500Y475000D02*
D03*
X545000Y470000D02*
D03*
Y450000D02*
D03*
Y410000D02*
D03*
Y390000D02*
D03*
Y380000D02*
D03*
Y370000D02*
D03*
Y330000D02*
D03*
Y320000D02*
D03*
Y270000D02*
D03*
Y260000D02*
D03*
X547500Y255000D02*
D03*
X545000Y250000D02*
D03*
X547500Y245000D02*
D03*
X545000Y240000D02*
D03*
X540000Y490000D02*
D03*
X542500Y485000D02*
D03*
X540000Y480000D02*
D03*
X542500Y475000D02*
D03*
X540000Y470000D02*
D03*
X542500Y455000D02*
D03*
Y395000D02*
D03*
X540000Y390000D02*
D03*
X542500Y385000D02*
D03*
X540000Y380000D02*
D03*
X542500Y375000D02*
D03*
Y335000D02*
D03*
X540000Y330000D02*
D03*
X542500Y325000D02*
D03*
X540000Y270000D02*
D03*
Y260000D02*
D03*
X542500Y255000D02*
D03*
X540000Y250000D02*
D03*
X542500Y245000D02*
D03*
X540000Y240000D02*
D03*
X535000Y490000D02*
D03*
X537500Y485000D02*
D03*
X535000Y480000D02*
D03*
X537500Y475000D02*
D03*
X535000Y470000D02*
D03*
X537500Y455000D02*
D03*
Y395000D02*
D03*
X535000Y390000D02*
D03*
X537500Y385000D02*
D03*
X535000Y380000D02*
D03*
X537500Y375000D02*
D03*
Y335000D02*
D03*
X535000Y330000D02*
D03*
X537500Y325000D02*
D03*
X535000Y260000D02*
D03*
X537500Y255000D02*
D03*
X535000Y250000D02*
D03*
X537500Y245000D02*
D03*
X530000Y490000D02*
D03*
X532500Y485000D02*
D03*
Y475000D02*
D03*
X530000Y470000D02*
D03*
X532500Y455000D02*
D03*
X530000Y420000D02*
D03*
Y410000D02*
D03*
X532500Y275000D02*
D03*
X530000Y270000D02*
D03*
Y260000D02*
D03*
X532500Y255000D02*
D03*
X530000Y250000D02*
D03*
X525000Y490000D02*
D03*
Y470000D02*
D03*
X527500Y455000D02*
D03*
X525000Y300000D02*
D03*
X527500Y295000D02*
D03*
X525000Y290000D02*
D03*
X527500Y285000D02*
D03*
X525000Y280000D02*
D03*
X527500Y275000D02*
D03*
X525000Y270000D02*
D03*
X527500Y265000D02*
D03*
X525000Y260000D02*
D03*
X527500Y255000D02*
D03*
X520000Y490000D02*
D03*
Y470000D02*
D03*
Y300000D02*
D03*
X522500Y295000D02*
D03*
X520000Y290000D02*
D03*
X522500Y285000D02*
D03*
X520000Y280000D02*
D03*
X522500Y275000D02*
D03*
X520000Y270000D02*
D03*
X522500Y265000D02*
D03*
X520000Y260000D02*
D03*
X515000Y490000D02*
D03*
Y480000D02*
D03*
Y470000D02*
D03*
Y420000D02*
D03*
X517500Y315000D02*
D03*
Y305000D02*
D03*
X515000Y300000D02*
D03*
X517500Y295000D02*
D03*
X515000Y290000D02*
D03*
X517500Y285000D02*
D03*
X515000Y280000D02*
D03*
X517500Y275000D02*
D03*
Y265000D02*
D03*
X510000Y490000D02*
D03*
X512500Y475000D02*
D03*
X510000Y470000D02*
D03*
Y420000D02*
D03*
X512500Y415000D02*
D03*
Y405000D02*
D03*
Y395000D02*
D03*
X510000Y390000D02*
D03*
X512500Y385000D02*
D03*
X510000Y380000D02*
D03*
Y350000D02*
D03*
Y340000D02*
D03*
Y330000D02*
D03*
Y320000D02*
D03*
Y310000D02*
D03*
X512500Y305000D02*
D03*
X510000Y300000D02*
D03*
X512500Y295000D02*
D03*
X510000Y290000D02*
D03*
X512500Y285000D02*
D03*
X510000Y280000D02*
D03*
X505000Y490000D02*
D03*
Y420000D02*
D03*
X507500Y415000D02*
D03*
Y395000D02*
D03*
Y385000D02*
D03*
X500000Y490000D02*
D03*
X502500Y455000D02*
D03*
Y435000D02*
D03*
X500000Y420000D02*
D03*
X502500Y415000D02*
D03*
Y405000D02*
D03*
X500000Y380000D02*
D03*
X502500Y365000D02*
D03*
X500000Y360000D02*
D03*
X495000Y440000D02*
D03*
Y420000D02*
D03*
X492500Y385000D02*
D03*
X485000Y460000D02*
D03*
Y420000D02*
D03*
X487500Y415000D02*
D03*
Y395000D02*
D03*
X482500Y455000D02*
D03*
X480000Y450000D02*
D03*
Y430000D02*
D03*
X482500Y415000D02*
D03*
Y405000D02*
D03*
Y395000D02*
D03*
X480000Y380000D02*
D03*
X475000Y460000D02*
D03*
X470000Y470000D02*
D03*
X472500Y465000D02*
D03*
X470000Y460000D02*
D03*
Y450000D02*
D03*
X472500Y405000D02*
D03*
X465000Y470000D02*
D03*
X467500Y465000D02*
D03*
X465000Y460000D02*
D03*
X467500Y455000D02*
D03*
X465000Y450000D02*
D03*
X467500Y445000D02*
D03*
Y415000D02*
D03*
Y405000D02*
D03*
X460000Y470000D02*
D03*
X462500Y465000D02*
D03*
X460000Y460000D02*
D03*
X462500Y455000D02*
D03*
X460000Y450000D02*
D03*
Y430000D02*
D03*
X462500Y425000D02*
D03*
Y415000D02*
D03*
Y405000D02*
D03*
X460000Y400000D02*
D03*
X455000Y480000D02*
D03*
X457500Y465000D02*
D03*
X455000Y460000D02*
D03*
X457500Y455000D02*
D03*
X455000Y430000D02*
D03*
X457500Y405000D02*
D03*
X452500Y475000D02*
D03*
X450000Y470000D02*
D03*
Y430000D02*
D03*
X452500Y425000D02*
D03*
X445000Y470000D02*
D03*
Y430000D02*
D03*
X447500Y415000D02*
D03*
X440000Y470000D02*
D03*
Y430000D02*
D03*
X442500Y425000D02*
D03*
X440000Y420000D02*
D03*
X435000Y480000D02*
D03*
Y470000D02*
D03*
Y440000D02*
D03*
Y430000D02*
D03*
X437500Y425000D02*
D03*
X432500Y475000D02*
D03*
X430000Y470000D02*
D03*
X432500Y465000D02*
D03*
X430000Y430000D02*
D03*
X427500Y475000D02*
D03*
X425000Y470000D02*
D03*
X427500Y465000D02*
D03*
X425000Y450000D02*
D03*
Y440000D02*
D03*
X422500Y475000D02*
D03*
X420000Y470000D02*
D03*
X422500Y465000D02*
D03*
X420000Y460000D02*
D03*
X422500Y455000D02*
D03*
X420000Y450000D02*
D03*
X422500Y445000D02*
D03*
X420000Y440000D02*
D03*
X417500Y475000D02*
D03*
X415000Y470000D02*
D03*
X417500Y465000D02*
D03*
X415000Y460000D02*
D03*
X417500Y455000D02*
D03*
X412500Y475000D02*
D03*
X410000Y470000D02*
D03*
X412500Y465000D02*
D03*
X405000Y470000D02*
D03*
X407500Y465000D02*
D03*
X400000Y470000D02*
D03*
X402500Y465000D02*
D03*
X395000Y490000D02*
D03*
Y470000D02*
D03*
X397500Y465000D02*
D03*
X390000Y490000D02*
D03*
X392500Y485000D02*
D03*
Y475000D02*
D03*
X390000Y470000D02*
D03*
X392500Y465000D02*
D03*
X385000Y490000D02*
D03*
Y470000D02*
D03*
X387500Y465000D02*
D03*
X380000Y490000D02*
D03*
Y470000D02*
D03*
X382500Y465000D02*
D03*
X375000Y490000D02*
D03*
Y470000D02*
D03*
X377500Y465000D02*
D03*
X370000Y490000D02*
D03*
X372500Y485000D02*
D03*
Y475000D02*
D03*
Y465000D02*
D03*
X365000Y490000D02*
D03*
X367500Y485000D02*
D03*
Y465000D02*
D03*
X362500Y485000D02*
D03*
Y465000D02*
D03*
X355000Y480000D02*
D03*
Y470000D02*
D03*
D36*
X507000Y403200D02*
D03*
X512000Y273200D02*
D03*
X502000Y393200D02*
D03*
X487000Y403200D02*
D03*
X477000D02*
D03*
X467000Y423200D02*
D03*
X457000D02*
D03*
X447000D02*
D03*
X531500Y403000D02*
D03*
Y280500D02*
D03*
X531000Y426500D02*
D03*
X525500Y345000D02*
D03*
X525500Y312500D02*
D03*
Y433000D02*
D03*
D37*
X557158Y475004D02*
D03*
Y246658D02*
D03*
X364244Y475004D02*
D03*
M02*
