G04*
G04 #@! TF.GenerationSoftware,Altium Limited,Altium Designer,20.0.2 (26)*
G04*
G04 Layer_Color=32768*
%FSLAX25Y25*%
%MOIN*%
G70*
G01*
G75*
%ADD12C,0.01000*%
%ADD16C,0.00050*%
%ADD38C,0.00394*%
%ADD39C,0.00197*%
D12*
X416500Y441000D02*
Y454000D01*
X409000Y461500D02*
X416500Y454000D01*
X361000Y461500D02*
X409000D01*
X353000Y481500D02*
X364500Y493000D01*
X353000Y469500D02*
Y481500D01*
Y469500D02*
X361000Y461500D01*
X416500Y441000D02*
X436500Y421000D01*
X507000Y350500D01*
Y270000D02*
Y350500D01*
Y270000D02*
X539000Y238000D01*
X564500D01*
X570000Y243500D01*
Y478500D01*
X555500Y493000D02*
X570000Y478500D01*
X364500Y493000D02*
X555500D01*
D16*
X369657Y475004D02*
G03*
X369657Y475004I-5413J0D01*
G01*
X562571D02*
G03*
X562571Y475004I-5413J0D01*
G01*
Y246658D02*
G03*
X562571Y246658I-5413J0D01*
G01*
D38*
X492500Y447791D02*
Y451728D01*
X490531Y449760D02*
X494468D01*
X492500Y428532D02*
Y432469D01*
X490531Y430500D02*
X494468D01*
X507020Y451835D02*
Y456165D01*
X516468Y451835D02*
Y456165D01*
X507020D02*
X516468D01*
X507020Y451835D02*
X516468D01*
X509874Y454000D02*
X513614D01*
X511744Y452130D02*
Y455870D01*
X518630Y451000D02*
X522370D01*
X520500Y449130D02*
Y452870D01*
X522665Y446276D02*
Y455724D01*
X518335Y446276D02*
Y455724D01*
X522665D01*
X518335Y446276D02*
X522665D01*
X502020Y436835D02*
Y441165D01*
X511469Y436835D02*
Y441165D01*
X502020D02*
X511469D01*
X502020Y436835D02*
X511469D01*
X504874Y439000D02*
X508614D01*
X506744Y437130D02*
Y440870D01*
X508130Y429547D02*
X511870D01*
X510000Y427677D02*
Y431417D01*
X512165Y424823D02*
Y434272D01*
X507835Y424823D02*
Y434272D01*
X512165D01*
X507835Y424823D02*
X512165D01*
X537500Y398630D02*
Y402370D01*
X535630Y400500D02*
X539370D01*
X532776Y402665D02*
X542224D01*
X532776Y398335D02*
X542224D01*
X532776D02*
Y402665D01*
X542224Y398335D02*
Y402665D01*
X537500Y404630D02*
Y408370D01*
X535630Y406500D02*
X539370D01*
X532776Y408665D02*
X542224D01*
X532776Y404335D02*
X542224D01*
X532776D02*
Y408665D01*
X542224Y404335D02*
Y408665D01*
X537500Y437130D02*
Y440870D01*
X535630Y439000D02*
X539370D01*
X532776Y441165D02*
X542224D01*
X532776Y436835D02*
X542224D01*
X532776D02*
Y441165D01*
X542224Y436835D02*
Y441165D01*
X537500Y431130D02*
Y434870D01*
X535630Y433000D02*
X539370D01*
X532776Y435165D02*
X542224D01*
X532776Y430835D02*
X542224D01*
X532776D02*
Y435165D01*
X542224Y430835D02*
Y435165D01*
X537622Y424630D02*
Y428370D01*
X535752Y426500D02*
X539492D01*
X532898Y428665D02*
X542346D01*
X532898Y424335D02*
X542346D01*
X532898D02*
Y428665D01*
X542346Y424335D02*
Y428665D01*
X542224Y291335D02*
Y295665D01*
X532776Y291335D02*
Y295665D01*
Y291335D02*
X542224D01*
X532776Y295665D02*
X542224D01*
X535630Y293500D02*
X539370D01*
X537500Y291630D02*
Y295370D01*
X542102Y297835D02*
Y302165D01*
X532654Y297835D02*
Y302165D01*
Y297835D02*
X542102D01*
X532654Y302165D02*
X542102D01*
X535508Y300000D02*
X539248D01*
X537378Y298130D02*
Y301870D01*
X542346Y314835D02*
Y319165D01*
X532898Y314835D02*
Y319165D01*
Y314835D02*
X542346D01*
X532898Y319165D02*
X542346D01*
X535752Y317000D02*
X539492D01*
X537622Y315130D02*
Y318870D01*
X542102Y336835D02*
Y341165D01*
X532654Y336835D02*
Y341165D01*
Y336835D02*
X542102D01*
X532654Y341165D02*
X542102D01*
X535508Y339000D02*
X539248D01*
X537378Y337130D02*
Y340870D01*
X542224Y353303D02*
Y357633D01*
X532776Y353303D02*
Y357633D01*
Y353303D02*
X542224D01*
X532776Y357633D02*
X542224D01*
X535630Y355468D02*
X539370D01*
X537500Y353598D02*
Y357338D01*
X542224Y263835D02*
Y268165D01*
X532776Y263835D02*
Y268165D01*
Y263835D02*
X542224D01*
X532776Y268165D02*
X542224D01*
X535630Y266000D02*
X539370D01*
X537500Y264130D02*
Y267870D01*
X542224Y284335D02*
Y288665D01*
X532776Y284335D02*
Y288665D01*
Y284335D02*
X542224D01*
X532776Y288665D02*
X542224D01*
X535630Y286500D02*
X539370D01*
X537500Y284630D02*
Y288370D01*
X542224Y303835D02*
Y308165D01*
X532776Y303835D02*
Y308165D01*
Y303835D02*
X542224D01*
X532776Y308165D02*
X542224D01*
X535630Y306000D02*
X539370D01*
X537500Y304130D02*
Y307870D01*
X542224Y309835D02*
Y314165D01*
X532776Y309835D02*
Y314165D01*
Y309835D02*
X542224D01*
X532776Y314165D02*
X542224D01*
X535630Y312000D02*
X539370D01*
X537500Y310130D02*
Y313870D01*
X542102Y343335D02*
Y347665D01*
X532654Y343335D02*
Y347665D01*
Y343335D02*
X542102D01*
X532654Y347665D02*
X542102D01*
X535508Y345500D02*
X539248D01*
X537378Y343630D02*
Y347370D01*
X542102Y364335D02*
Y368665D01*
X532654Y364335D02*
Y368665D01*
Y364335D02*
X542102D01*
X532654Y368665D02*
X542102D01*
X535508Y366500D02*
X539248D01*
X537378Y364630D02*
Y368370D01*
X542224Y358835D02*
Y363165D01*
X532776Y358835D02*
Y363165D01*
Y358835D02*
X542224D01*
X532776Y363165D02*
X542224D01*
X535630Y361000D02*
X539370D01*
X537500Y359130D02*
Y362870D01*
X542224Y413835D02*
Y418165D01*
X532776Y413835D02*
Y418165D01*
Y413835D02*
X542224D01*
X532776Y418165D02*
X542224D01*
X535630Y416000D02*
X539370D01*
X537500Y414130D02*
Y417870D01*
X542224Y444335D02*
Y448665D01*
X532776Y444335D02*
Y448665D01*
Y444335D02*
X542224D01*
X532776Y448665D02*
X542224D01*
X535630Y446500D02*
X539370D01*
X537500Y444630D02*
Y448370D01*
X436500Y438531D02*
Y442469D01*
X434531Y440500D02*
X438469D01*
X465531D02*
X469468D01*
X467500Y438531D02*
Y442469D01*
X544224Y274335D02*
Y278665D01*
X534776Y274335D02*
Y278665D01*
Y274335D02*
X544224D01*
X534776Y278665D02*
X544224D01*
X537630Y276500D02*
X541370D01*
X539500Y274630D02*
Y278370D01*
D39*
X484232Y456847D02*
X500768D01*
X484232Y442673D02*
X500768D01*
X484232D02*
Y456847D01*
X500768Y442673D02*
Y456847D01*
X484232Y437587D02*
X500768D01*
X484232Y423413D02*
X500768D01*
X484232D02*
Y437587D01*
X500768Y423413D02*
Y437587D01*
X428232Y447587D02*
X444768D01*
X428232Y433413D02*
X444768D01*
X428232D02*
Y447587D01*
X444768Y433413D02*
Y447587D01*
X475768Y433413D02*
Y447587D01*
X459232Y433413D02*
Y447587D01*
Y433413D02*
X475768D01*
X459232Y447587D02*
X475768D01*
M02*
