G04*
G04 #@! TF.GenerationSoftware,Altium Limited,Altium Designer,20.0.2 (26)*
G04*
G04 Layer_Color=65535*
%FSLAX25Y25*%
%MOIN*%
G70*
G01*
G75*
%ADD10C,0.00984*%
%ADD11C,0.00787*%
%ADD12C,0.01000*%
%ADD13C,0.01500*%
%ADD14C,0.00800*%
%ADD15C,0.00400*%
%ADD16C,0.00050*%
D10*
X498406Y442673D02*
G03*
X498406Y442673I-492J0D01*
G01*
Y423413D02*
G03*
X498406Y423413I-492J0D01*
G01*
X442406Y433413D02*
G03*
X442406Y433413I-492J0D01*
G01*
X473406D02*
G03*
X473406Y433413I-492J0D01*
G01*
D11*
X490531Y443657D02*
Y455862D01*
X494468Y443657D02*
Y455862D01*
X490531D02*
X494468D01*
X490531Y443657D02*
X494468D01*
X490531Y424398D02*
Y436602D01*
X494468Y424398D02*
Y436602D01*
X490531D02*
X494468D01*
X490531Y424398D02*
X494468D01*
X547000Y261500D02*
Y461500D01*
X567000Y261500D02*
Y461500D01*
X547000D02*
X567000D01*
X547000Y261500D02*
X567000D01*
X434531Y434398D02*
Y446602D01*
X438469Y434398D02*
Y446602D01*
X434531D02*
X438469D01*
X434531Y434398D02*
X438469D01*
X465531D02*
X469468D01*
X465531Y446602D02*
X469468D01*
Y434398D02*
Y446602D01*
X465531Y434398D02*
Y446602D01*
D12*
X467142Y411777D02*
X474102Y418737D01*
X453223Y411777D02*
X467142D01*
X474102Y418737D01*
X467142Y397858D02*
Y411777D01*
X509040Y370040D02*
X516000Y377000D01*
X495121Y370040D02*
X509040D01*
X516000Y377000D01*
X509040Y356121D02*
Y370040D01*
X488040Y391040D02*
X495000Y398000D01*
X474121Y391040D02*
X488040D01*
X495000Y398000D01*
X488040Y377121D02*
Y391040D01*
X529500Y421000D02*
X534000Y423000D01*
X525500Y428000D02*
X531000Y431000D01*
X473898Y453498D02*
Y448500D01*
X474898Y447500D01*
X476897D01*
X477897Y448500D01*
Y453498D01*
X479896Y452498D02*
X480896Y453498D01*
X482895D01*
X483895Y452498D01*
Y451499D01*
X482895Y450499D01*
X481896D01*
X482895D01*
X483895Y449499D01*
Y448500D01*
X482895Y447500D01*
X480896D01*
X479896Y448500D01*
X529155Y390155D02*
X523500Y384500D01*
X526328Y381673D01*
X528212D01*
X529155Y382615D01*
X529155Y384500D01*
X526328Y387328D01*
X529155Y384500D01*
X531040D01*
X531983Y385442D01*
Y387328D01*
X529155Y390155D01*
X503751Y408474D02*
Y410359D01*
X501866Y412244D01*
X499981D01*
X496211Y408474D01*
Y406589D01*
X498096Y404704D01*
X499981D01*
X501866Y406589D01*
X499981Y408474D01*
X473898Y429500D02*
X479553Y435155D01*
X482381Y432328D01*
Y430442D01*
X480496Y428557D01*
X478611Y428557D01*
X475783Y431385D01*
X477668Y429500D02*
X477668Y425730D01*
X462262Y413530D02*
X466260D01*
X464261D01*
Y407532D01*
X468260D02*
X470259D01*
X469260D01*
Y413530D01*
X468260Y412530D01*
X482106Y394928D02*
X486105D01*
X484105D01*
Y388930D01*
X492103D02*
X488104D01*
X492103Y392928D01*
Y393928D01*
X491103Y394928D01*
X489104D01*
X488104Y393928D01*
X502500Y372035D02*
X506499D01*
X504499D01*
Y366037D01*
X508498Y371035D02*
X509498Y372035D01*
X511497D01*
X512497Y371035D01*
Y370035D01*
X511497Y369036D01*
X510497D01*
X511497D01*
X512497Y368036D01*
Y367036D01*
X511497Y366037D01*
X509498D01*
X508498Y367036D01*
X419999Y481998D02*
X417999D01*
X418999D01*
Y477000D01*
X417999Y476000D01*
X417000D01*
X416000Y477000D01*
X425997Y476000D02*
X421998D01*
X425997Y479999D01*
Y480998D01*
X424997Y481998D01*
X422998D01*
X421998Y480998D01*
X543499Y491498D02*
X541499D01*
X542499D01*
Y486500D01*
X541499Y485500D01*
X540500D01*
X539500Y486500D01*
X545498Y490498D02*
X546498Y491498D01*
X548497D01*
X549497Y490498D01*
Y489499D01*
X548497Y488499D01*
X547497D01*
X548497D01*
X549497Y487499D01*
Y486500D01*
X548497Y485500D01*
X546498D01*
X545498Y486500D01*
X540499Y468498D02*
X538499D01*
X539499D01*
Y463500D01*
X538499Y462500D01*
X537500D01*
X536500Y463500D01*
X542498Y462500D02*
X544497D01*
X543498D01*
Y468498D01*
X542498Y467498D01*
X486235Y422814D02*
Y417815D01*
X487234Y416815D01*
X489234D01*
X490233Y417815D01*
Y422814D01*
X495232Y416815D02*
Y422814D01*
X492233Y419814D01*
X496232D01*
X460100Y456698D02*
Y451700D01*
X461100Y450700D01*
X463099D01*
X464099Y451700D01*
Y456698D01*
X470097Y450700D02*
X466098D01*
X470097Y454699D01*
Y455698D01*
X469097Y456698D01*
X467098D01*
X466098Y455698D01*
X429100Y456698D02*
Y451700D01*
X430100Y450700D01*
X432099D01*
X433099Y451700D01*
Y456698D01*
X435098Y450700D02*
X437097D01*
X436098D01*
Y456698D01*
X435098Y455698D01*
X416500Y441000D02*
Y454000D01*
X409000Y461500D02*
X416500Y454000D01*
X361000Y461500D02*
X409000D01*
X353000Y481500D02*
X364500Y493000D01*
X353000Y469500D02*
Y481500D01*
Y469500D02*
X361000Y461500D01*
X416500Y441000D02*
X436500Y421000D01*
X507000Y350500D01*
Y270000D02*
Y350500D01*
Y270000D02*
X539000Y238000D01*
X564500D01*
X570000Y243500D01*
Y478500D01*
X555500Y493000D02*
X570000Y478500D01*
X364500Y493000D02*
X555500D01*
D13*
X521606Y463000D02*
Y468998D01*
X524605D01*
X525605Y467998D01*
Y465999D01*
X524605Y464999D01*
X521606D01*
X523605D02*
X525605Y463000D01*
X506105Y467998D02*
X505105Y468998D01*
X503105D01*
X502106Y467998D01*
Y464000D01*
X503105Y463000D01*
X505105D01*
X506105Y464000D01*
Y465999D01*
X504105D01*
X482106Y468998D02*
Y463000D01*
X485105D01*
X486105Y464000D01*
Y464999D01*
X485105Y465999D01*
X482106D01*
X485105D01*
X486105Y466999D01*
Y467998D01*
X485105Y468998D01*
X482106D01*
X464999Y467998D02*
X463999Y468998D01*
X462000D01*
X461000Y467998D01*
Y466999D01*
X462000Y465999D01*
X463999D01*
X464999Y464999D01*
Y464000D01*
X463999Y463000D01*
X462000D01*
X461000Y464000D01*
X438999Y467998D02*
X437999Y468998D01*
X436000D01*
X435000Y467998D01*
Y464000D01*
X436000Y463000D01*
X437999D01*
X438999Y464000D01*
Y465999D01*
X436999D01*
X440998Y463000D02*
Y468998D01*
X444997Y463000D01*
Y468998D01*
X446996D02*
Y463000D01*
X449995D01*
X450995Y464000D01*
Y467998D01*
X449995Y468998D01*
X446996D01*
X399499Y464000D02*
X395500D01*
X399499Y467999D01*
Y468998D01*
X398499Y469998D01*
X396500D01*
X395500Y468998D01*
X404497Y464000D02*
Y469998D01*
X401498Y466999D01*
X405497D01*
X379499Y464000D02*
X375500D01*
X379499Y467999D01*
Y468998D01*
X378499Y469998D01*
X376500D01*
X375500Y468998D01*
X381498D02*
X382498Y469998D01*
X384497D01*
X385497Y468998D01*
Y467999D01*
X384497Y466999D01*
X383497D01*
X384497D01*
X385497Y465999D01*
Y465000D01*
X384497Y464000D01*
X382498D01*
X381498Y465000D01*
D14*
X550000Y466500D02*
Y464834D01*
Y465667D01*
X554998D01*
X554165Y466500D01*
X560000Y463168D02*
Y466500D01*
X563332Y463168D01*
X564165D01*
X564998Y464001D01*
Y465667D01*
X564165Y466500D01*
X563500Y257501D02*
X568498D01*
X565999Y260000D01*
Y256668D01*
X567665Y255002D02*
X568498Y254169D01*
Y252502D01*
X567665Y251669D01*
X564333D01*
X563500Y252502D01*
Y254169D01*
X564333Y255002D01*
X567665D01*
X548165Y259500D02*
X548998Y258667D01*
Y257001D01*
X548165Y256168D01*
X547332D01*
X546499Y257001D01*
Y257834D01*
Y257001D01*
X545666Y256168D01*
X544833D01*
X544000Y257001D01*
Y258667D01*
X544833Y259500D01*
Y254502D02*
X544000Y253669D01*
Y252002D01*
X544833Y251169D01*
X548165D01*
X548998Y252002D01*
Y253669D01*
X548165Y254502D01*
X547332D01*
X546499Y253669D01*
Y251169D01*
D15*
X524500Y420000D02*
Y421999D01*
X525500D01*
X525833Y421666D01*
Y421000D01*
X525500Y420666D01*
X524500D01*
X525166D02*
X525833Y420000D01*
X526499Y421666D02*
X526833Y421999D01*
X527499D01*
X527832Y421666D01*
Y421333D01*
X527499Y421000D01*
X527832Y420666D01*
Y420333D01*
X527499Y420000D01*
X526833D01*
X526499Y420333D01*
Y420666D01*
X526833Y421000D01*
X526499Y421333D01*
Y421666D01*
X526833Y421000D02*
X527499D01*
X525833Y452500D02*
X524500D01*
X525833Y453833D01*
Y454166D01*
X525500Y454499D01*
X524833D01*
X524500Y454166D01*
X526499Y452500D02*
Y454499D01*
Y453166D02*
X527499Y453833D01*
X526499Y453166D02*
X527499Y452500D01*
X529832D02*
X528499D01*
X529832Y453833D01*
Y454166D01*
X529498Y454499D01*
X528832D01*
X528499Y454166D01*
X513000Y430000D02*
Y431999D01*
X514000D01*
X514333Y431666D01*
Y431000D01*
X514000Y430666D01*
X513000D01*
X513666D02*
X514333Y430000D01*
X516332D02*
X514999D01*
X516332Y431333D01*
Y431666D01*
X515999Y431999D01*
X515333D01*
X514999Y431666D01*
X516999Y430000D02*
X517665D01*
X517332D01*
Y431999D01*
X516999Y431666D01*
X511833Y459166D02*
X511500Y459499D01*
X510833D01*
X510500Y459166D01*
Y457833D01*
X510833Y457500D01*
X511500D01*
X511833Y457833D01*
X513832Y457500D02*
X512499D01*
X513832Y458833D01*
Y459166D01*
X513499Y459499D01*
X512833D01*
X512499Y459166D01*
X506333Y443166D02*
X506000Y443499D01*
X505333D01*
X505000Y443166D01*
Y441833D01*
X505333Y441500D01*
X506000D01*
X506333Y441833D01*
X506999Y441500D02*
X507666D01*
X507333D01*
Y443499D01*
X506999Y443166D01*
X527300Y316000D02*
Y317999D01*
X528300D01*
X528633Y317666D01*
Y317000D01*
X528300Y316666D01*
X527300D01*
X527966D02*
X528633Y316000D01*
X529299D02*
X529966D01*
X529633D01*
Y317999D01*
X529299Y317666D01*
X530966Y317999D02*
X532298D01*
Y317666D01*
X530966Y316333D01*
Y316000D01*
X527178Y354468D02*
Y356468D01*
X528178D01*
X528511Y356134D01*
Y355468D01*
X528178Y355135D01*
X527178D01*
X527844D02*
X528511Y354468D01*
X529177D02*
X529844D01*
X529510D01*
Y356468D01*
X529177Y356134D01*
X530843D02*
X531177Y356468D01*
X531843D01*
X532176Y356134D01*
Y355801D01*
X531843Y355468D01*
X531510D01*
X531843D01*
X532176Y355135D01*
Y354801D01*
X531843Y354468D01*
X531177D01*
X530843Y354801D01*
X527178Y311000D02*
Y312999D01*
X528178D01*
X528511Y312666D01*
Y312000D01*
X528178Y311666D01*
X527178D01*
X527844D02*
X528511Y311000D01*
X529177D02*
X529844D01*
X529510D01*
Y312999D01*
X529177Y312666D01*
X532176Y312999D02*
X531510Y312666D01*
X530843Y312000D01*
Y311333D01*
X531177Y311000D01*
X531843D01*
X532176Y311333D01*
Y311666D01*
X531843Y312000D01*
X530843D01*
X519000Y427000D02*
Y428999D01*
X520000D01*
X520333Y428666D01*
Y428000D01*
X520000Y427666D01*
X519000D01*
X519666D02*
X520333Y427000D01*
X520999D02*
X521666D01*
X521333D01*
Y428999D01*
X520999Y428666D01*
X522666D02*
X522999Y428999D01*
X523665D01*
X523998Y428666D01*
Y428333D01*
X523665Y428000D01*
X523998Y427666D01*
Y427333D01*
X523665Y427000D01*
X522999D01*
X522666Y427333D01*
Y427666D01*
X522999Y428000D01*
X522666Y428333D01*
Y428666D01*
X522999Y428000D02*
X523665D01*
X527056Y344500D02*
Y346499D01*
X528056D01*
X528389Y346166D01*
Y345500D01*
X528056Y345166D01*
X527056D01*
X527722D02*
X528389Y344500D01*
X529055D02*
X529722D01*
X529389D01*
Y346499D01*
X529055Y346166D01*
X532054Y346499D02*
X530721D01*
Y345500D01*
X531388Y345833D01*
X531721D01*
X532054Y345500D01*
Y344833D01*
X531721Y344500D01*
X531055D01*
X530721Y344833D01*
X527178Y360000D02*
Y361999D01*
X528178D01*
X528511Y361666D01*
Y361000D01*
X528178Y360666D01*
X527178D01*
X527844D02*
X528511Y360000D01*
X529177D02*
X529844D01*
X529510D01*
Y361999D01*
X529177Y361666D01*
X531843Y360000D02*
Y361999D01*
X530843Y361000D01*
X532176D01*
X527678Y338000D02*
Y339999D01*
X528678D01*
X529011Y339666D01*
Y339000D01*
X528678Y338666D01*
X527678D01*
X528344D02*
X529011Y338000D01*
X529677D02*
X530344D01*
X530011D01*
Y339999D01*
X529677Y339666D01*
X531343Y338000D02*
X532010D01*
X531677D01*
Y339999D01*
X531343Y339666D01*
X528800Y415000D02*
Y416999D01*
X529800D01*
X530133Y416666D01*
Y416000D01*
X529800Y415666D01*
X528800D01*
X529466D02*
X530133Y415000D01*
X530799Y416999D02*
X532132D01*
Y416666D01*
X530799Y415333D01*
Y415000D01*
X527100Y305000D02*
Y306999D01*
X528100D01*
X528433Y306666D01*
Y306000D01*
X528100Y305666D01*
X527100D01*
X527766D02*
X528433Y305000D01*
X529099D02*
X529766D01*
X529433D01*
Y306999D01*
X529099Y306666D01*
X530765D02*
X531099Y306999D01*
X531765D01*
X532098Y306666D01*
Y305333D01*
X531765Y305000D01*
X531099D01*
X530765Y305333D01*
Y306666D01*
X526978Y365500D02*
Y367499D01*
X527978D01*
X528311Y367166D01*
Y366500D01*
X527978Y366166D01*
X526978D01*
X527644D02*
X528311Y365500D01*
X528977D02*
X529644D01*
X529311D01*
Y367499D01*
X528977Y367166D01*
X531976Y365500D02*
X530643D01*
X531976Y366833D01*
Y367166D01*
X531643Y367499D01*
X530977D01*
X530643Y367166D01*
X528678Y299000D02*
Y300999D01*
X529678D01*
X530011Y300666D01*
Y300000D01*
X529678Y299666D01*
X528678D01*
X529344D02*
X530011Y299000D01*
X530677Y299333D02*
X531010Y299000D01*
X531677D01*
X532010Y299333D01*
Y300666D01*
X531677Y300999D01*
X531010D01*
X530677Y300666D01*
Y300333D01*
X531010Y300000D01*
X532010D01*
X526778Y445500D02*
Y447499D01*
X527778D01*
X528111Y447166D01*
Y446500D01*
X527778Y446166D01*
X526778D01*
X527444D02*
X528111Y445500D01*
X530110D02*
X528777D01*
X530110Y446833D01*
Y447166D01*
X529777Y447499D01*
X529110D01*
X528777Y447166D01*
X530777D02*
X531110Y447499D01*
X531776D01*
X532110Y447166D01*
Y445833D01*
X531776Y445500D01*
X531110D01*
X530777Y445833D01*
Y447166D01*
X530778Y275500D02*
Y277499D01*
X531778D01*
X532111Y277166D01*
Y276500D01*
X531778Y276166D01*
X530778D01*
X531444D02*
X532111Y275500D01*
X534110D02*
X532777D01*
X534110Y276833D01*
Y277166D01*
X533777Y277499D01*
X533111D01*
X532777Y277166D01*
X528778Y285500D02*
Y287499D01*
X529778D01*
X530111Y287166D01*
Y286500D01*
X529778Y286166D01*
X528778D01*
X529444D02*
X530111Y285500D01*
X530777Y287166D02*
X531110Y287499D01*
X531777D01*
X532110Y287166D01*
Y286833D01*
X531777Y286500D01*
X531444D01*
X531777D01*
X532110Y286166D01*
Y285833D01*
X531777Y285500D01*
X531110D01*
X530777Y285833D01*
X528778Y292500D02*
Y294499D01*
X529778D01*
X530111Y294166D01*
Y293500D01*
X529778Y293166D01*
X528778D01*
X529444D02*
X530111Y292500D01*
X532110Y294499D02*
X531444Y294166D01*
X530777Y293500D01*
Y292833D01*
X531110Y292500D01*
X531777D01*
X532110Y292833D01*
Y293166D01*
X531777Y293500D01*
X530777D01*
X526500Y438000D02*
Y439999D01*
X527500D01*
X527833Y439666D01*
Y439000D01*
X527500Y438666D01*
X526500D01*
X527166D02*
X527833Y438000D01*
X528499D02*
X529166D01*
X528833D01*
Y439999D01*
X528499Y439666D01*
X530165Y438333D02*
X530499Y438000D01*
X531165D01*
X531498Y438333D01*
Y439666D01*
X531165Y439999D01*
X530499D01*
X530165Y439666D01*
Y439333D01*
X530499Y439000D01*
X531498D01*
X528678Y396500D02*
Y398499D01*
X529678D01*
X530011Y398166D01*
Y397500D01*
X529678Y397166D01*
X528678D01*
X529344D02*
X530011Y396500D01*
X531677D02*
Y398499D01*
X530677Y397500D01*
X532010D01*
X529478Y265000D02*
Y266999D01*
X530478D01*
X530811Y266666D01*
Y266000D01*
X530478Y265666D01*
X529478D01*
X530144D02*
X530811Y265000D01*
X531477D02*
X532144D01*
X531811D01*
Y266999D01*
X531477Y266666D01*
X528778Y406500D02*
Y408499D01*
X529778D01*
X530111Y408166D01*
Y407500D01*
X529778Y407166D01*
X528778D01*
X529444D02*
X530111Y406500D01*
X532110Y408499D02*
X530777D01*
Y407500D01*
X531444Y407833D01*
X531777D01*
X532110Y407500D01*
Y406833D01*
X531777Y406500D01*
X531110D01*
X530777Y406833D01*
D16*
X369657Y475004D02*
G03*
X369657Y475004I-5413J0D01*
G01*
X562571D02*
G03*
X562571Y475004I-5413J0D01*
G01*
Y246658D02*
G03*
X562571Y246658I-5413J0D01*
G01*
M02*
