G04*
G04 #@! TF.GenerationSoftware,Altium Limited,Altium Designer,20.0.2 (26)*
G04*
G04 Layer_Color=32896*
%FSLAX25Y25*%
%MOIN*%
G70*
G01*
G75*
%ADD12C,0.01000*%
%ADD13C,0.01500*%
%ADD16C,0.00050*%
G36*
X475548Y454356D02*
X475797Y454055D01*
X475993Y453728D01*
X476137Y453427D01*
X476229Y453126D01*
X476281Y452864D01*
X476307Y452681D01*
X476320Y452537D01*
Y452485D01*
X476765Y452406D01*
X477158Y452275D01*
X477525Y452118D01*
X477826Y451948D01*
X478074Y451778D01*
X478179Y451699D01*
X478258Y451621D01*
X478323Y451582D01*
X478585Y451320D01*
X478729Y451124D01*
X478964Y450757D01*
X479121Y450390D01*
X479239Y450063D01*
X479318Y449775D01*
X479344Y449540D01*
Y449461D01*
X479357Y449396D01*
Y449370D01*
Y449343D01*
X479344Y449121D01*
X479305Y448898D01*
X479213Y448493D01*
X479056Y448126D01*
X478886Y447799D01*
X478716Y447550D01*
X478650Y447433D01*
X478572Y447354D01*
X478519Y447275D01*
X478467Y447223D01*
X478441Y447197D01*
X478428Y447184D01*
X478258Y447040D01*
X478100Y446909D01*
X477760Y446700D01*
X477407Y446556D01*
X477079Y446464D01*
X476805Y446398D01*
X476569Y446372D01*
X476425Y446359D01*
X476386Y446372D01*
X476373Y446359D01*
X476425Y446124D01*
X476464Y445901D01*
X476490Y445692D01*
Y445508D01*
X476477Y445338D01*
X476451Y445181D01*
X476399Y444919D01*
X476320Y444710D01*
X476242Y444579D01*
X476190Y444501D01*
X476163Y444475D01*
X475993Y444331D01*
X475823Y444213D01*
X475653Y444147D01*
X475496Y444095D01*
X475365Y444043D01*
X475260D01*
X475195Y444030D01*
X475169D01*
X474868Y444043D01*
X474645Y444056D01*
X474553Y444069D01*
X474501Y444095D01*
X474462Y444082D01*
X474449Y444095D01*
X474527Y443859D01*
X474580Y443650D01*
X474619Y443454D01*
X474645Y443297D01*
X474658Y443153D01*
X474671Y443061D01*
Y443009D01*
Y442982D01*
X474658Y442786D01*
X474606Y442603D01*
X474553Y442446D01*
X474475Y442315D01*
X474409Y442197D01*
X474357Y442119D01*
X474305Y442066D01*
X474292Y442053D01*
X474082Y441870D01*
X473847Y441739D01*
X473624Y441647D01*
X473415Y441569D01*
X473232Y441543D01*
X473088Y441503D01*
X472983D01*
X472957D01*
X472721Y441530D01*
X472485Y441582D01*
X472250Y441660D01*
X471988Y441765D01*
X471504Y442040D01*
X471046Y442367D01*
X470836Y442524D01*
X470640Y442668D01*
X470470Y442812D01*
X470326Y442956D01*
X470195Y443061D01*
X470038Y443218D01*
X469685Y443598D01*
X469357Y443951D01*
X469082Y444278D01*
X468860Y444579D01*
X468664Y444880D01*
X468493Y445155D01*
X468363Y445391D01*
X468245Y445613D01*
X468166Y445796D01*
X468101Y445967D01*
X468048Y446124D01*
X468035Y446242D01*
X468009Y446346D01*
X467996Y446412D01*
X468009Y446451D01*
X467996Y446464D01*
X468022Y446778D01*
X468101Y447092D01*
X468205Y447354D01*
X468323Y447577D01*
X468454Y447760D01*
X468559Y447917D01*
X468637Y447995D01*
X468650Y448008D01*
X468664Y448022D01*
X468886Y448218D01*
X469135Y448362D01*
X469397Y448466D01*
X469619Y448532D01*
X469829Y448584D01*
X469999Y448597D01*
X470103D01*
X470143Y448610D01*
X470352Y448584D01*
X470575Y448545D01*
X470771Y448480D01*
X470954Y448401D01*
X471124Y448310D01*
X471242Y448244D01*
X471334Y448205D01*
X471360Y448179D01*
X471753Y447838D01*
X472106Y447511D01*
X472446Y447197D01*
X472747Y446948D01*
X472865Y446831D01*
X472996Y446726D01*
X473166Y446556D01*
X473245Y446503D01*
X473336Y446412D01*
X473532Y446242D01*
X473703Y446098D01*
X473873Y445980D01*
X474030Y445875D01*
X474174Y445783D01*
X474305Y445705D01*
X474527Y445587D01*
X474697Y445522D01*
X474828Y445495D01*
X474907Y445469D01*
X474933D01*
X475090Y445495D01*
X475221Y445548D01*
X475300Y445600D01*
X475313Y445613D01*
X475326Y445626D01*
X475391Y445718D01*
X475456Y445836D01*
X475483Y446071D01*
X475509Y446176D01*
X475496Y446268D01*
Y446320D01*
Y446346D01*
X475182Y446477D01*
X474894Y446634D01*
X474645Y446778D01*
X474449Y446922D01*
X474279Y447040D01*
X474148Y447145D01*
X474056Y447236D01*
X473716Y447629D01*
X473454Y448022D01*
X473258Y448375D01*
X473140Y448702D01*
X473061Y448990D01*
X473022Y449186D01*
X473009Y449330D01*
Y449383D01*
X473022Y449605D01*
X473048Y449841D01*
X473166Y450247D01*
X473323Y450639D01*
X473506Y450953D01*
X473690Y451241D01*
X473768Y451346D01*
X473847Y451425D01*
X473912Y451516D01*
X473965Y451569D01*
X473991Y451595D01*
X474004Y451608D01*
X474252Y451830D01*
X474527Y452000D01*
X474776Y452144D01*
X475025Y452236D01*
X475221Y452302D01*
X475391Y452341D01*
X475509Y452354D01*
X475548Y452367D01*
X475313Y452733D01*
X475064Y453034D01*
X474789Y453283D01*
X474540Y453479D01*
X474331Y453637D01*
X474161Y453728D01*
X474095Y453767D01*
X474043Y453794D01*
X474017D01*
X474004Y453807D01*
X475051Y454854D01*
X475548Y454356D01*
D02*
G37*
G36*
X482119Y446451D02*
X482367Y446438D01*
X482603Y446412D01*
X482838Y446359D01*
X483061Y446294D01*
X483480Y446111D01*
X483833Y445914D01*
X484121Y445705D01*
X484252Y445600D01*
X484357Y445522D01*
X484448Y445456D01*
X484553Y445352D01*
X484749Y445129D01*
X484906Y444893D01*
X485037Y444632D01*
X485155Y444383D01*
X485234Y444095D01*
X485325Y443820D01*
X485404Y443297D01*
X485430Y443035D01*
Y442799D01*
X485456Y442590D01*
Y442407D01*
X485443Y442263D01*
Y442132D01*
X485430Y442066D01*
Y442040D01*
X486543Y443153D01*
X487642Y442053D01*
X481451Y435862D01*
X480352Y436962D01*
X483441Y440051D01*
X483598Y440234D01*
X483755Y440443D01*
X483873Y440640D01*
X483990Y440862D01*
X484147Y441281D01*
X484265Y441713D01*
X484304Y441883D01*
X484331Y442066D01*
X484357Y442223D01*
X484370Y442367D01*
X484383Y442485D01*
Y442564D01*
Y442616D01*
Y442642D01*
Y442851D01*
X484357Y443035D01*
X484304Y443375D01*
X484213Y443676D01*
X484108Y443912D01*
X484017Y444082D01*
X483912Y444213D01*
X483859Y444291D01*
X483833Y444317D01*
X483611Y444514D01*
X483375Y444671D01*
X483166Y444776D01*
X482969Y444841D01*
X482799Y444880D01*
X482668Y444906D01*
X482577Y444919D01*
X482550D01*
X482315Y444893D01*
X482105Y444841D01*
X481896Y444763D01*
X481726Y444671D01*
X481582Y444579D01*
X481477Y444501D01*
X481425Y444448D01*
X481399Y444422D01*
X477145Y440168D01*
X476046Y441268D01*
X480626Y445849D01*
X480862Y446058D01*
X481111Y446202D01*
X481373Y446307D01*
X481608Y446385D01*
X481805Y446425D01*
X481975Y446438D01*
X482092Y446451D01*
X482119D01*
D02*
G37*
G36*
X489422Y439226D02*
X489474D01*
X489697Y439213D01*
X489932Y439161D01*
X490391Y439017D01*
X490823Y438794D01*
X491215Y438532D01*
X491398Y438401D01*
X491569Y438284D01*
X491713Y438166D01*
X491830Y438048D01*
X491935Y437969D01*
X492275Y437629D01*
X492446Y437407D01*
X492733Y436988D01*
X492838Y436778D01*
X492930Y436582D01*
X493008Y436399D01*
X493074Y436229D01*
X493126Y436072D01*
X493165Y435928D01*
X493191Y435797D01*
X493205Y435679D01*
X493218Y435587D01*
X493231Y435522D01*
Y435496D01*
Y435470D01*
X493205Y435077D01*
X493126Y434684D01*
X493035Y434331D01*
X492917Y434030D01*
X492799Y433781D01*
X492694Y433598D01*
X492668Y433519D01*
X492629Y433480D01*
X492616Y433441D01*
X492602Y433428D01*
X491398Y434632D01*
X491490Y434828D01*
X491556Y434998D01*
X491608Y435155D01*
X491647Y435299D01*
X491660Y435417D01*
X491673Y435509D01*
Y435561D01*
Y435587D01*
X491634Y435836D01*
X491542Y436085D01*
X491425Y436333D01*
X491294Y436543D01*
X491150Y436739D01*
X491032Y436883D01*
X490901Y437014D01*
X490679Y437210D01*
X490443Y437367D01*
X490234Y437472D01*
X490050Y437551D01*
X489880Y437590D01*
X489749Y437616D01*
X489658Y437629D01*
X489632D01*
X489396Y437603D01*
X489186Y437551D01*
X488990Y437485D01*
X488833Y437407D01*
X488702Y437328D01*
X488611Y437263D01*
X488558Y437210D01*
X488532Y437184D01*
X488584Y437001D01*
X488676Y436778D01*
X488781Y436569D01*
X488899Y436346D01*
X489003Y436163D01*
X489095Y435993D01*
X489134Y435928D01*
X489173Y435888D01*
Y435862D01*
X489186Y435849D01*
X489330Y435601D01*
X489474Y435352D01*
X489618Y435103D01*
X489749Y434894D01*
X489880Y434711D01*
X489985Y434553D01*
X490037Y434449D01*
X490063Y434422D01*
X490338Y433991D01*
X490561Y433585D01*
X490705Y433205D01*
X490809Y432865D01*
X490862Y432577D01*
X490901Y432354D01*
X490914Y432210D01*
Y432184D01*
Y432158D01*
X490888Y431792D01*
X490796Y431464D01*
X490679Y431164D01*
X490521Y430902D01*
X490391Y430692D01*
X490260Y430535D01*
X490220Y430470D01*
X490181Y430431D01*
X490155Y430404D01*
X490142Y430391D01*
X489880Y430182D01*
X489605Y430012D01*
X489317Y429881D01*
X489056Y429802D01*
X488833Y429763D01*
X488650Y429737D01*
X488532Y429724D01*
X488480D01*
X488061Y429776D01*
X487681Y429894D01*
X487302Y430064D01*
X486974Y430260D01*
X486713Y430444D01*
X486595Y430535D01*
X486503Y430627D01*
X486425Y430679D01*
X486320Y430784D01*
X486097Y431033D01*
X485901Y431281D01*
X485731Y431530D01*
X485587Y431779D01*
X485469Y432027D01*
X485365Y432263D01*
X485286Y432499D01*
X485221Y432721D01*
X485155Y432917D01*
X485116Y433114D01*
X485090Y433271D01*
X485064Y433428D01*
X485050Y433546D01*
Y433624D01*
Y433676D01*
Y433703D01*
X484867Y433546D01*
X484684Y433415D01*
X484540Y433323D01*
X484383Y433271D01*
X484265Y433231D01*
X484187Y433205D01*
X484134D01*
X484108D01*
X482786Y434527D01*
X483061Y434514D01*
X483336Y434553D01*
X483571Y434632D01*
X483768Y434724D01*
X483938Y434841D01*
X484056Y434933D01*
X484147Y434998D01*
X484160Y435011D01*
X484173Y435025D01*
X487655Y438506D01*
X487943Y438742D01*
X488244Y438912D01*
X488545Y439056D01*
X488833Y439134D01*
X489095Y439187D01*
X489291Y439226D01*
X489422D01*
D02*
G37*
G36*
X495626Y434252D02*
X495862Y433964D01*
X496058Y433690D01*
X496228Y433415D01*
X496372Y433114D01*
X496503Y432852D01*
X496594Y432603D01*
X496686Y432354D01*
X496738Y432119D01*
X496778Y431923D01*
X496830Y431739D01*
X496856Y431582D01*
Y431451D01*
X496869Y431360D01*
Y431307D01*
Y431281D01*
X496843Y430784D01*
X496817Y430548D01*
X496778Y430352D01*
X496752Y430169D01*
X496725Y430038D01*
X496712Y429946D01*
X496699Y429907D01*
X498244Y431451D01*
X499343Y430352D01*
X493152Y424161D01*
X492053Y425260D01*
X495207Y428415D01*
X495351Y428768D01*
X495456Y429109D01*
X495547Y429462D01*
X495587Y429789D01*
X495626Y430090D01*
X495639Y430313D01*
X495652Y430457D01*
X495639Y430496D01*
X495652Y430509D01*
Y430771D01*
X495613Y431019D01*
X495587Y431255D01*
X495521Y431478D01*
X495390Y431870D01*
X495233Y432184D01*
X495089Y432433D01*
X495011Y432538D01*
X494958Y432616D01*
X494906Y432695D01*
X494684Y432917D01*
X494553Y433022D01*
X494435Y433114D01*
X494343Y433205D01*
X494265Y433258D01*
X494199Y433297D01*
X494160Y433310D01*
X494147Y433323D01*
X495364Y434540D01*
X495626Y434252D01*
D02*
G37*
G36*
X500861Y427368D02*
X500888D01*
X501189Y427355D01*
X501490Y427315D01*
X501764Y427250D01*
X502026Y427172D01*
X502288Y427093D01*
X502511Y427001D01*
X502916Y426779D01*
X503100Y426674D01*
X503257Y426569D01*
X503387Y426465D01*
X503492Y426386D01*
X503584Y426321D01*
X503702Y426203D01*
X503911Y425967D01*
X504094Y425732D01*
X504278Y425496D01*
X504408Y425260D01*
X504513Y425025D01*
X504618Y424789D01*
X504696Y424580D01*
X504775Y424370D01*
X504814Y424174D01*
X504853Y424004D01*
X504880Y423847D01*
X504893Y423703D01*
X504906Y423585D01*
X504919Y423520D01*
Y423467D01*
Y423441D01*
X504906Y423088D01*
X504853Y422748D01*
X504775Y422433D01*
X504696Y422119D01*
X504579Y421818D01*
X504448Y421557D01*
X504304Y421282D01*
X504173Y421046D01*
X504029Y420823D01*
X503898Y420640D01*
X503780Y420470D01*
X503662Y420326D01*
X503558Y420221D01*
X503492Y420130D01*
X503440Y420078D01*
X503427Y420064D01*
X503139Y419803D01*
X502864Y419580D01*
X502576Y419371D01*
X502288Y419214D01*
X502013Y419070D01*
X501738Y418952D01*
X501477Y418847D01*
X501241Y418769D01*
X501018Y418703D01*
X500809Y418677D01*
X500626Y418625D01*
X500469Y418599D01*
X500338D01*
X500246Y418585D01*
X500194D01*
X500168D01*
X499867Y418599D01*
X499566Y418638D01*
X499278Y418716D01*
X499016Y418795D01*
X498754Y418899D01*
X498492Y419004D01*
X498061Y419253D01*
X497864Y419371D01*
X497694Y419488D01*
X497550Y419606D01*
X497432Y419698D01*
X497328Y419776D01*
X497197Y419907D01*
X496974Y420156D01*
X496778Y420378D01*
X496608Y420627D01*
X496464Y420876D01*
X496346Y421098D01*
X496228Y421321D01*
X496149Y421530D01*
X496097Y421740D01*
X496032Y421936D01*
X495993Y422106D01*
X495966Y422237D01*
X495940Y422368D01*
Y422473D01*
Y422551D01*
X495927Y422590D01*
Y422617D01*
X495966Y422996D01*
X496045Y423389D01*
X496163Y423742D01*
X496307Y424096D01*
X496438Y424384D01*
X496503Y424501D01*
X496568Y424619D01*
X496621Y424698D01*
X496660Y424763D01*
X496673Y424802D01*
X496686Y424816D01*
X497903Y423598D01*
X497746Y423415D01*
X497615Y423206D01*
X497537Y422996D01*
X497472Y422800D01*
X497432Y422604D01*
X497406Y422473D01*
Y422368D01*
Y422342D01*
X497445Y422093D01*
X497537Y421844D01*
X497655Y421596D01*
X497799Y421373D01*
X497943Y421177D01*
X498061Y421033D01*
X498191Y420902D01*
X498492Y420653D01*
X498793Y420457D01*
X499094Y420313D01*
X499369Y420221D01*
X499605Y420169D01*
X499788Y420143D01*
X499906Y420130D01*
X499958D01*
X500155Y420143D01*
X500377Y420182D01*
X500770Y420313D01*
X501162Y420496D01*
X501503Y420706D01*
X501791Y420915D01*
X501908Y421007D01*
X502013Y421111D01*
X502105Y421177D01*
X502157Y421229D01*
X502197Y421269D01*
X502210Y421282D01*
X497733Y425758D01*
X498034Y426033D01*
X498335Y426281D01*
X498623Y426517D01*
X498898Y426687D01*
X499186Y426844D01*
X499448Y426975D01*
X499683Y427080D01*
X499906Y427172D01*
X500129Y427237D01*
X500312Y427289D01*
X500482Y427328D01*
X500626Y427342D01*
X500744Y427355D01*
X500809Y427368D01*
X500861D01*
D02*
G37*
G36*
X508126Y420732D02*
X508178D01*
X508544Y420706D01*
X508885Y420601D01*
X509212Y420457D01*
X509487Y420287D01*
X509722Y420130D01*
X509814Y420064D01*
X509893Y419986D01*
X509971Y419934D01*
X510050Y419855D01*
X510272Y419606D01*
X510442Y419358D01*
X510599Y419096D01*
X510717Y418821D01*
X510809Y418572D01*
X510874Y418297D01*
X510913Y418049D01*
X510940Y417813D01*
X510953Y417591D01*
Y417381D01*
X510940Y417185D01*
Y417028D01*
X510913Y416897D01*
X510900Y416805D01*
X510887Y416740D01*
Y416714D01*
X511267Y416805D01*
X511437Y416845D01*
X511594D01*
X511738Y416858D01*
X511830Y416871D01*
X511908D01*
X511934D01*
X512340Y416831D01*
X512733Y416701D01*
X513099Y416544D01*
X513426Y416347D01*
X513688Y416164D01*
X513806Y416072D01*
X513898Y415981D01*
X513976Y415928D01*
X514081Y415824D01*
X514238Y415640D01*
X514382Y415444D01*
X514487Y415235D01*
X514578Y415012D01*
X514696Y414554D01*
X514735Y414122D01*
X514748Y413716D01*
Y413559D01*
X514735Y413415D01*
X514709Y413284D01*
X514696Y413193D01*
Y413140D01*
Y413114D01*
X515638Y414057D01*
X516738Y412957D01*
X510547Y406766D01*
X509447Y407866D01*
X513309Y411727D01*
X513453Y411923D01*
X513570Y412146D01*
X513649Y412381D01*
X513701Y412617D01*
X513728Y412826D01*
X513754Y413010D01*
Y413114D01*
Y413167D01*
X513728Y413481D01*
X513662Y413782D01*
X513570Y414031D01*
X513453Y414253D01*
X513335Y414423D01*
X513256Y414554D01*
X513152Y414659D01*
X512942Y414842D01*
X512746Y414986D01*
X512549Y415078D01*
X512392Y415156D01*
X512248Y415195D01*
X512131Y415208D01*
X512065Y415222D01*
X512039D01*
X511817Y415208D01*
X511620Y415169D01*
X511437Y415117D01*
X511293Y415052D01*
X511188Y414999D01*
X511097Y414934D01*
X511057Y414894D01*
X511044Y414881D01*
X506738Y410575D01*
X505639Y411675D01*
X509565Y415601D01*
X509696Y415758D01*
X509788Y415955D01*
X509853Y416177D01*
X509893Y416373D01*
X509932Y416570D01*
Y416727D01*
X509945Y416845D01*
Y416871D01*
X509919Y417237D01*
X509827Y417564D01*
X509709Y417866D01*
X509552Y418127D01*
X509421Y418337D01*
X509290Y418494D01*
X509251Y418559D01*
X509173Y418638D01*
X509002Y418782D01*
X508806Y418899D01*
X508623Y418978D01*
X508466Y419030D01*
X508309Y419057D01*
X508178Y419083D01*
X508099D01*
X508073D01*
X507903Y419070D01*
X507759Y419030D01*
X507628Y418978D01*
X507510Y418913D01*
X507419Y418847D01*
X507340Y418795D01*
X507301Y418755D01*
X507288Y418742D01*
X502929Y414384D01*
X501830Y415483D01*
X506411Y420064D01*
X506686Y420287D01*
X506974Y420444D01*
X507262Y420575D01*
X507550Y420653D01*
X507798Y420693D01*
X507995Y420732D01*
X508126D01*
D02*
G37*
G36*
X518308Y409868D02*
X518361D01*
X518387D01*
X518688Y409855D01*
X518989Y409816D01*
X519264Y409751D01*
X519526Y409672D01*
X519787Y409593D01*
X520023Y409489D01*
X520442Y409253D01*
X520625Y409149D01*
X520782Y409044D01*
X520913Y408939D01*
X521031Y408848D01*
X521136Y408769D01*
X521253Y408651D01*
X521463Y408416D01*
X521646Y408180D01*
X521816Y407931D01*
X521960Y407683D01*
X522170Y407211D01*
X522248Y406976D01*
X522327Y406766D01*
X522379Y406557D01*
X522405Y406374D01*
X522444Y406204D01*
X522458Y406060D01*
X522471Y405942D01*
Y405863D01*
Y405811D01*
Y405785D01*
X522458Y405431D01*
X522418Y405104D01*
X522327Y404777D01*
X522248Y404463D01*
X522143Y404175D01*
X522013Y403913D01*
X521882Y403651D01*
X521751Y403416D01*
X521620Y403206D01*
X521489Y403023D01*
X521371Y402853D01*
X521253Y402709D01*
X521162Y402617D01*
X521096Y402526D01*
X521044Y402473D01*
X521031Y402460D01*
X520756Y402212D01*
X520481Y401989D01*
X520193Y401806D01*
X519918Y401636D01*
X519630Y401505D01*
X519355Y401387D01*
X519094Y401282D01*
X518845Y401217D01*
X518596Y401151D01*
X518400Y401112D01*
X518204Y401073D01*
X518034Y401060D01*
X517903Y401034D01*
X517798D01*
X517746D01*
X517720D01*
X517418Y401047D01*
X517117Y401086D01*
X516843Y401151D01*
X516581Y401230D01*
X516332Y401322D01*
X516083Y401413D01*
X515665Y401649D01*
X515481Y401754D01*
X515324Y401858D01*
X515180Y401976D01*
X515063Y402068D01*
X514971Y402133D01*
X514853Y402251D01*
X514644Y402487D01*
X514460Y402722D01*
X514290Y402971D01*
X514146Y403219D01*
X513937Y403691D01*
X513858Y403926D01*
X513793Y404149D01*
X513728Y404345D01*
X513701Y404528D01*
X513662Y404698D01*
X513649Y404842D01*
X513636Y404960D01*
Y405039D01*
Y405091D01*
Y405117D01*
X513649Y405471D01*
X513688Y405798D01*
X513767Y406112D01*
X513858Y406439D01*
X513963Y406727D01*
X514094Y406989D01*
X514225Y407251D01*
X514356Y407486D01*
X514487Y407696D01*
X514617Y407879D01*
X514735Y408049D01*
X514840Y408180D01*
X514919Y408285D01*
X514997Y408363D01*
X515049Y408416D01*
X515063Y408429D01*
X515337Y408677D01*
X515612Y408900D01*
X515913Y409096D01*
X516188Y409266D01*
X516476Y409397D01*
X516751Y409515D01*
X517013Y409620D01*
X517261Y409685D01*
X517510Y409751D01*
X517706Y409790D01*
X517903Y409829D01*
X518073Y409842D01*
X518204Y409868D01*
X518308D01*
D02*
G37*
G36*
X536227Y398495D02*
X536253D01*
X536279D01*
X536554Y398481D01*
X536803Y398442D01*
X537051Y398403D01*
X537287Y398324D01*
X537719Y398154D01*
X538085Y397945D01*
X538386Y397748D01*
X538517Y397644D01*
X538622Y397565D01*
X538714Y397500D01*
X543242Y392971D01*
X533792Y383521D01*
X529421Y387893D01*
X529198Y388141D01*
X528976Y388390D01*
X528819Y388626D01*
X528661Y388861D01*
X528531Y389097D01*
X528426Y389306D01*
X528347Y389516D01*
X528282Y389712D01*
X528217Y389882D01*
X528177Y390052D01*
X528151Y390183D01*
X528125Y390314D01*
X528112Y390406D01*
Y390484D01*
Y390510D01*
Y390537D01*
X528125Y390838D01*
X528164Y391139D01*
X528217Y391427D01*
X528295Y391688D01*
X528387Y391937D01*
X528491Y392173D01*
X528714Y392605D01*
X528819Y392788D01*
X528923Y392945D01*
X529041Y393089D01*
X529133Y393207D01*
X529198Y393298D01*
X529264Y393364D01*
X529303Y393403D01*
X529316Y393416D01*
X529512Y393586D01*
X529696Y393743D01*
X530101Y393992D01*
X530481Y394162D01*
X530847Y394293D01*
X531161Y394345D01*
X531292Y394372D01*
X531410Y394385D01*
X531502Y394398D01*
X531580D01*
X531606D01*
X531633D01*
X531934Y394385D01*
X532222Y394332D01*
X532496Y394267D01*
X532758Y394188D01*
X532968Y394110D01*
X533151Y394031D01*
X533256Y393979D01*
X533282D01*
X533295Y393966D01*
X533177Y394215D01*
X533099Y394450D01*
X533046Y394686D01*
X533007Y394882D01*
X532981Y395039D01*
X532968Y395183D01*
Y395262D01*
Y395288D01*
X532981Y395510D01*
X532994Y395733D01*
X533099Y396125D01*
X533229Y396492D01*
X533399Y396793D01*
X533557Y397055D01*
X533635Y397159D01*
X533714Y397238D01*
X533753Y397303D01*
X533805Y397356D01*
X533832Y397382D01*
X533845Y397395D01*
X534054Y397578D01*
X534263Y397762D01*
X534695Y398036D01*
X535101Y398233D01*
X535467Y398364D01*
X535638Y398403D01*
X535795Y398429D01*
X535939Y398468D01*
X536057Y398481D01*
X536148Y398495D01*
X536227D01*
D02*
G37*
G36*
X525481Y402696D02*
X525533D01*
X525560D01*
X525861Y402683D01*
X526162Y402643D01*
X526436Y402578D01*
X526698Y402499D01*
X526960Y402421D01*
X527196Y402316D01*
X527614Y402081D01*
X527798Y401976D01*
X527955Y401871D01*
X528086Y401767D01*
X528203Y401675D01*
X528308Y401596D01*
X528426Y401479D01*
X528635Y401243D01*
X528819Y401008D01*
X528989Y400759D01*
X529133Y400510D01*
X529342Y400039D01*
X529421Y399803D01*
X529499Y399594D01*
X529552Y399384D01*
X529578Y399201D01*
X529617Y399031D01*
X529630Y398887D01*
X529643Y398769D01*
Y398691D01*
Y398638D01*
Y398612D01*
X529630Y398259D01*
X529591Y397932D01*
X529499Y397604D01*
X529421Y397290D01*
X529316Y397002D01*
X529185Y396741D01*
X529054Y396479D01*
X528923Y396243D01*
X528792Y396034D01*
X528661Y395851D01*
X528544Y395680D01*
X528426Y395536D01*
X528334Y395445D01*
X528269Y395353D01*
X528217Y395301D01*
X528203Y395288D01*
X527928Y395039D01*
X527654Y394817D01*
X527366Y394633D01*
X527091Y394463D01*
X526803Y394332D01*
X526528Y394215D01*
X526266Y394110D01*
X526018Y394044D01*
X525769Y393979D01*
X525573Y393940D01*
X525376Y393900D01*
X525206Y393887D01*
X525075Y393861D01*
X524970D01*
X524918D01*
X524892D01*
X524591Y393874D01*
X524290Y393914D01*
X524015Y393979D01*
X523753Y394057D01*
X523505Y394149D01*
X523256Y394241D01*
X522837Y394476D01*
X522654Y394581D01*
X522497Y394686D01*
X522353Y394804D01*
X522235Y394895D01*
X522143Y394961D01*
X522026Y395078D01*
X521816Y395314D01*
X521633Y395550D01*
X521463Y395798D01*
X521319Y396047D01*
X521109Y396518D01*
X521031Y396754D01*
X520965Y396976D01*
X520900Y397172D01*
X520874Y397356D01*
X520834Y397526D01*
X520821Y397670D01*
X520808Y397788D01*
Y397866D01*
Y397919D01*
Y397945D01*
X520821Y398298D01*
X520861Y398625D01*
X520939Y398939D01*
X521031Y399267D01*
X521136Y399555D01*
X521267Y399816D01*
X521397Y400078D01*
X521528Y400314D01*
X521659Y400523D01*
X521790Y400706D01*
X521908Y400877D01*
X522013Y401008D01*
X522091Y401112D01*
X522170Y401191D01*
X522222Y401243D01*
X522235Y401256D01*
X522510Y401505D01*
X522785Y401727D01*
X523086Y401924D01*
X523361Y402094D01*
X523649Y402225D01*
X523923Y402343D01*
X524185Y402447D01*
X524434Y402513D01*
X524683Y402578D01*
X524879Y402617D01*
X525075Y402657D01*
X525245Y402670D01*
X525376Y402696D01*
X525481D01*
D02*
G37*
%LPC*%
G36*
X476425Y451045D02*
X476150Y451032D01*
X475902Y450966D01*
X475679Y450875D01*
X475496Y450770D01*
X475326Y450678D01*
X475208Y450587D01*
X475142Y450521D01*
X475116Y450495D01*
X474907Y450260D01*
X474763Y450037D01*
X474658Y449828D01*
X474567Y449631D01*
X474527Y449461D01*
X474514Y449343D01*
X474501Y449252D01*
Y449226D01*
X474527Y449016D01*
X474580Y448833D01*
X474658Y448650D01*
X474750Y448506D01*
X474841Y448362D01*
X474920Y448257D01*
X474998Y448179D01*
X475169Y448035D01*
X475365Y447917D01*
X475548Y447838D01*
X475718Y447799D01*
X475862Y447760D01*
X475993Y447734D01*
X476072D01*
X476098D01*
X476334Y447760D01*
X476556Y447825D01*
X476779Y447917D01*
X476949Y448008D01*
X477106Y448113D01*
X477223Y448205D01*
X477289Y448270D01*
X477315Y448296D01*
X477498Y448506D01*
X477629Y448741D01*
X477734Y448951D01*
X477786Y449160D01*
X477839Y449343D01*
X477852Y449487D01*
X477865Y449579D01*
Y449605D01*
X477852Y449802D01*
X477799Y449985D01*
X477747Y450142D01*
X477669Y450273D01*
X477603Y450390D01*
X477538Y450482D01*
X477472Y450548D01*
X477289Y450705D01*
X477106Y450836D01*
X476923Y450914D01*
X476765Y450993D01*
X476635Y451019D01*
X476517Y451032D01*
X476451Y451045D01*
X476425D01*
D02*
G37*
G36*
X470143Y447066D02*
X470025Y447053D01*
X469907Y447040D01*
X469750Y446961D01*
X469685Y446922D01*
X469632Y446896D01*
X469606Y446870D01*
X469593Y446857D01*
X469527Y446765D01*
X469475Y446660D01*
X469410Y446464D01*
X469397Y446346D01*
X469383Y446281D01*
Y446228D01*
Y446202D01*
X469397Y446058D01*
X469436Y445888D01*
X469514Y445705D01*
X469619Y445522D01*
X469842Y445142D01*
X470116Y444789D01*
X470391Y444461D01*
X470522Y444304D01*
X470640Y444187D01*
X470718Y444082D01*
X471059Y443742D01*
X471255Y443571D01*
X471438Y443414D01*
X471608Y443297D01*
X471766Y443192D01*
X471910Y443100D01*
X472040Y443022D01*
X472171Y442969D01*
X472368Y442878D01*
X472512Y442838D01*
X472603Y442825D01*
X472629D01*
X472800Y442838D01*
X472930Y442865D01*
X473061Y442917D01*
X473153Y442956D01*
X473232Y443009D01*
X473297Y443048D01*
X473336Y443087D01*
X473349Y443100D01*
X473441Y443218D01*
X473506Y443336D01*
X473572Y443558D01*
X473598Y443663D01*
X473611Y443728D01*
Y443781D01*
Y443807D01*
X473598Y443951D01*
X473572Y444082D01*
X473467Y444344D01*
X473428Y444461D01*
X473389Y444553D01*
X473349Y444619D01*
X473336Y444632D01*
X473179Y444763D01*
X472996Y444893D01*
X472643Y445194D01*
X472276Y445508D01*
X471923Y445810D01*
X471766Y445940D01*
X471622Y446084D01*
X471478Y446202D01*
X471373Y446307D01*
X471268Y446385D01*
X471137Y446516D01*
X470928Y446700D01*
X470745Y446831D01*
X470575Y446948D01*
X470431Y447014D01*
X470300Y447040D01*
X470221Y447066D01*
X470169D01*
X470143D01*
D02*
G37*
G36*
X487485Y436137D02*
X486372Y435025D01*
X486346Y434920D01*
X486307Y434776D01*
X486281Y434619D01*
Y434462D01*
X486268Y434292D01*
Y434161D01*
Y434056D01*
Y434030D01*
X486281Y433807D01*
X486307Y433598D01*
X486412Y433179D01*
X486569Y432813D01*
X486739Y432512D01*
X486909Y432237D01*
X486988Y432132D01*
X487066Y432054D01*
X487118Y431975D01*
X487210Y431883D01*
X487406Y431713D01*
X487576Y431569D01*
X487734Y431464D01*
X487851Y431399D01*
X487956Y431347D01*
X488022Y431334D01*
X488074D01*
X488087Y431320D01*
X488283Y431334D01*
X488467Y431386D01*
X488624Y431438D01*
X488755Y431517D01*
X488872Y431582D01*
X488964Y431648D01*
X489016Y431700D01*
X489029Y431713D01*
X489134Y431844D01*
X489226Y431988D01*
X489278Y432145D01*
X489304Y432276D01*
X489344Y432394D01*
Y432499D01*
X489357Y432564D01*
Y432590D01*
X489344Y432760D01*
X489304Y432930D01*
X489186Y433258D01*
X489134Y433389D01*
X489082Y433493D01*
X489043Y433585D01*
X489029Y433598D01*
X488859Y433847D01*
X488689Y434122D01*
X488493Y434422D01*
X488336Y434711D01*
X488166Y434959D01*
X488100Y435077D01*
X488035Y435169D01*
X487982Y435247D01*
X487943Y435313D01*
X487930Y435352D01*
X487917Y435365D01*
X487760Y435627D01*
X487616Y435875D01*
X487564Y435980D01*
X487524Y436072D01*
X487498Y436124D01*
X487485Y436137D01*
D02*
G37*
G36*
X501333Y425928D02*
X501018Y425902D01*
X500731Y425849D01*
X500482Y425758D01*
X500272Y425653D01*
X500115Y425549D01*
X499985Y425470D01*
X499919Y425405D01*
X499893Y425378D01*
X503047Y422224D01*
X503191Y422473D01*
X503296Y422734D01*
X503374Y422970D01*
X503440Y423193D01*
X503466Y423376D01*
X503492Y423533D01*
Y423638D01*
Y423664D01*
X503466Y423978D01*
X503374Y424279D01*
X503270Y424541D01*
X503152Y424763D01*
X503021Y424946D01*
X502916Y425104D01*
X502812Y425208D01*
X502550Y425444D01*
X502288Y425627D01*
X502039Y425745D01*
X501817Y425836D01*
X501608Y425889D01*
X501464Y425928D01*
X501359D01*
X501333D01*
D02*
G37*
G36*
X518714Y408311D02*
X518466Y408298D01*
X518230Y408272D01*
X517994Y408219D01*
X517772Y408154D01*
X517353Y407971D01*
X517000Y407774D01*
X516712Y407565D01*
X516581Y407460D01*
X516476Y407382D01*
X516384Y407316D01*
X516332Y407264D01*
X516293Y407225D01*
X516280Y407211D01*
X516083Y407015D01*
X515913Y406793D01*
X515638Y406387D01*
X515455Y405994D01*
X515324Y405654D01*
X515285Y405484D01*
X515246Y405340D01*
X515219Y405209D01*
Y405104D01*
X515206Y405013D01*
X515193Y404947D01*
Y404921D01*
Y404895D01*
X515219Y404528D01*
X515298Y404214D01*
X515403Y403926D01*
X515521Y403704D01*
X515638Y403507D01*
X515756Y403363D01*
X515822Y403272D01*
X515848Y403246D01*
X516110Y403036D01*
X516384Y402866D01*
X516672Y402735D01*
X516934Y402657D01*
X517157Y402617D01*
X517340Y402591D01*
X517458Y402578D01*
X517510D01*
X517732Y402591D01*
X517955Y402630D01*
X518387Y402748D01*
X518766Y402918D01*
X519107Y403128D01*
X519408Y403324D01*
X519526Y403416D01*
X519617Y403507D01*
X519709Y403573D01*
X519761Y403625D01*
X519801Y403664D01*
X519814Y403678D01*
X520010Y403900D01*
X520180Y404096D01*
X520455Y404528D01*
X520651Y404934D01*
X520782Y405301D01*
X520834Y405484D01*
X520874Y405628D01*
X520900Y405759D01*
X520913Y405876D01*
X520926Y405968D01*
Y406046D01*
Y406073D01*
Y406099D01*
X520900Y406413D01*
X520822Y406727D01*
X520717Y406989D01*
X520599Y407211D01*
X520468Y407395D01*
X520363Y407552D01*
X520259Y407656D01*
X520010Y407879D01*
X519748Y408036D01*
X519473Y408154D01*
X519238Y408232D01*
X519028Y408285D01*
X518858Y408298D01*
X518753D01*
X518714Y408311D01*
D02*
G37*
G36*
X536659Y396780D02*
X536344Y396754D01*
X536043Y396688D01*
X535795Y396597D01*
X535572Y396479D01*
X535402Y396361D01*
X535271Y396283D01*
X535193Y396204D01*
X535180Y396191D01*
X535167Y396178D01*
X534918Y395903D01*
X534748Y395628D01*
X534630Y395353D01*
X534538Y395105D01*
X534486Y394895D01*
X534460Y394712D01*
Y394607D01*
X534447Y394568D01*
X534473Y394280D01*
X534538Y394031D01*
X534630Y393809D01*
X534735Y393625D01*
X534839Y393468D01*
X534918Y393338D01*
X537994Y390262D01*
X540912Y393180D01*
X537810Y396283D01*
X537627Y396440D01*
X537431Y396557D01*
X537234Y396649D01*
X537064Y396714D01*
X536894Y396754D01*
X536776Y396767D01*
X536685Y396780D01*
X536659D01*
D02*
G37*
G36*
X532300Y392866D02*
X531973Y392827D01*
X531672Y392736D01*
X531397Y392618D01*
X531148Y392474D01*
X530939Y392317D01*
X530782Y392212D01*
X530729Y392160D01*
X530690Y392120D01*
X530664Y392094D01*
X530651Y392081D01*
X530415Y391793D01*
X530232Y391505D01*
X530101Y391217D01*
X530023Y390955D01*
X529970Y390720D01*
X529944Y390537D01*
X529931Y390419D01*
Y390367D01*
X529970Y390039D01*
X530049Y389725D01*
X530180Y389437D01*
X530337Y389175D01*
X530494Y388966D01*
X530625Y388809D01*
X530677Y388730D01*
X533570Y385838D01*
X536946Y389215D01*
X534132Y392029D01*
X533805Y392304D01*
X533491Y392513D01*
X533190Y392657D01*
X532902Y392762D01*
X532654Y392827D01*
X532470Y392853D01*
X532352Y392866D01*
X532300D01*
D02*
G37*
G36*
X525887Y401138D02*
X525638Y401125D01*
X525402Y401099D01*
X525167Y401047D01*
X524944Y400981D01*
X524525Y400798D01*
X524172Y400602D01*
X523884Y400392D01*
X523753Y400288D01*
X523649Y400209D01*
X523557Y400144D01*
X523505Y400091D01*
X523465Y400052D01*
X523452Y400039D01*
X523256Y399843D01*
X523086Y399620D01*
X522811Y399214D01*
X522628Y398822D01*
X522497Y398481D01*
X522458Y398311D01*
X522418Y398167D01*
X522392Y398036D01*
Y397932D01*
X522379Y397840D01*
X522366Y397775D01*
Y397748D01*
Y397722D01*
X522392Y397356D01*
X522471Y397042D01*
X522575Y396754D01*
X522693Y396531D01*
X522811Y396335D01*
X522929Y396191D01*
X522994Y396099D01*
X523020Y396073D01*
X523282Y395864D01*
X523557Y395693D01*
X523845Y395563D01*
X524107Y395484D01*
X524329Y395445D01*
X524512Y395419D01*
X524630Y395406D01*
X524683D01*
X524905Y395419D01*
X525128Y395458D01*
X525560Y395576D01*
X525939Y395746D01*
X526279Y395955D01*
X526580Y396152D01*
X526698Y396243D01*
X526790Y396335D01*
X526881Y396400D01*
X526934Y396453D01*
X526973Y396492D01*
X526986Y396505D01*
X527182Y396727D01*
X527353Y396924D01*
X527628Y397356D01*
X527824Y397762D01*
X527955Y398128D01*
X528007Y398311D01*
X528046Y398455D01*
X528073Y398586D01*
X528086Y398704D01*
X528099Y398796D01*
Y398874D01*
Y398900D01*
Y398926D01*
X528073Y399240D01*
X527994Y399555D01*
X527889Y399816D01*
X527772Y400039D01*
X527641Y400222D01*
X527536Y400379D01*
X527431Y400484D01*
X527182Y400706D01*
X526921Y400864D01*
X526646Y400981D01*
X526410Y401060D01*
X526201Y401112D01*
X526031Y401125D01*
X525926D01*
X525887Y401138D01*
D02*
G37*
%LPD*%
D12*
X416500Y441000D02*
Y454000D01*
X409000Y461500D02*
X416500Y454000D01*
X361000Y461500D02*
X409000D01*
X353000Y481500D02*
X364500Y493000D01*
X353000Y469500D02*
Y481500D01*
Y469500D02*
X361000Y461500D01*
X416500Y441000D02*
X436500Y421000D01*
X507000Y350500D01*
Y270000D02*
Y350500D01*
Y270000D02*
X539000Y238000D01*
X564500D01*
X570000Y243500D01*
Y478500D01*
X555500Y493000D02*
X570000Y478500D01*
X364500Y493000D02*
X555500D01*
D13*
X423500Y463000D02*
X421501D01*
X422500D01*
Y466999D01*
X423500D01*
X414503D02*
X417502D01*
X418502Y465999D01*
Y464000D01*
X417502Y463000D01*
X414503D01*
X409505D02*
X411504D01*
X412504Y464000D01*
Y465999D01*
X411504Y466999D01*
X409505D01*
X408505Y465999D01*
Y464999D01*
X412504D01*
X402507Y466999D02*
X405506D01*
X406505Y465999D01*
Y464000D01*
X405506Y463000D01*
X402507D01*
X400507Y466999D02*
Y464000D01*
X399508Y463000D01*
X396509D01*
Y466999D01*
X394509Y468998D02*
Y463000D01*
X391510D01*
X390511Y464000D01*
Y464999D01*
Y465999D01*
X391510Y466999D01*
X394509D01*
X385512Y463000D02*
X387512D01*
X388511Y464000D01*
Y465999D01*
X387512Y466999D01*
X385512D01*
X384513Y465999D01*
Y464999D01*
X388511D01*
X379514Y463000D02*
Y468998D01*
X382513Y465999D01*
X378515D01*
X372516Y468998D02*
X376515D01*
Y465999D01*
X374516Y466999D01*
X373516D01*
X372516Y465999D01*
Y464000D01*
X373516Y463000D01*
X375516D01*
X376515Y464000D01*
D16*
X369657Y475004D02*
G03*
X369657Y475004I-5413J0D01*
G01*
X562571D02*
G03*
X562571Y475004I-5413J0D01*
G01*
Y246658D02*
G03*
X562571Y246658I-5413J0D01*
G01*
M02*
