G04*
G04 #@! TF.GenerationSoftware,Altium Limited,Altium Designer,20.0.2 (26)*
G04*
G04 Layer_Color=16711935*
%FSLAX25Y25*%
%MOIN*%
G70*
G01*
G75*
%ADD12C,0.01000*%
%ADD16C,0.00050*%
G04:AMPARAMS|DCode=23|XSize=84.77mil|YSize=84.77mil|CornerRadius=0mil|HoleSize=0mil|Usage=FLASHONLY|Rotation=315.000|XOffset=0mil|YOffset=0mil|HoleType=Round|Shape=Round|*
%AMOVALD23*
21,1,0.00000,0.08477,0.00000,0.00000,315.0*
1,1,0.08477,0.00000,0.00000*
1,1,0.08477,0.00000,0.00000*
%
%ADD23OVALD23*%

%ADD24R,0.13024X0.13024*%
%ADD25C,0.13024*%
%ADD26C,0.06706*%
%ADD27R,0.06706X0.06706*%
%ADD28C,0.05800*%
%ADD29C,0.12611*%
G36*
X440625Y466520D02*
X440750D01*
Y466478D01*
X440792D01*
Y466437D01*
X440834D01*
Y466395D01*
X440875D01*
Y466354D01*
X440917D01*
Y466312D01*
Y466270D01*
Y466228D01*
X440958D01*
Y466187D01*
Y466145D01*
Y466104D01*
Y466062D01*
Y466020D01*
X441000D01*
Y465978D01*
Y465937D01*
Y465895D01*
Y465854D01*
Y465812D01*
Y465770D01*
Y465729D01*
Y465687D01*
Y465645D01*
Y465603D01*
X440958D01*
Y465562D01*
Y465520D01*
Y465479D01*
Y465437D01*
Y465395D01*
Y465353D01*
Y465312D01*
Y465270D01*
Y465229D01*
Y465187D01*
Y465145D01*
X440917D01*
Y465103D01*
Y465062D01*
Y465020D01*
Y464979D01*
X440875D01*
Y464937D01*
Y464895D01*
X440834D01*
Y464853D01*
Y464812D01*
Y464770D01*
X440792D01*
Y464729D01*
X440750D01*
Y464687D01*
Y464645D01*
X440708D01*
Y464604D01*
X440667D01*
Y464562D01*
Y464520D01*
X440625D01*
Y464479D01*
X440584D01*
Y464437D01*
X440542D01*
Y464395D01*
X440500D01*
Y464354D01*
X440458D01*
Y464312D01*
X440417D01*
Y464270D01*
X440375D01*
Y464229D01*
Y464187D01*
Y464145D01*
Y464104D01*
Y464062D01*
Y464020D01*
Y463979D01*
Y463937D01*
Y463895D01*
Y463854D01*
Y463812D01*
Y463770D01*
Y463729D01*
X440417D01*
Y463687D01*
Y463645D01*
Y463604D01*
Y463562D01*
X440458D01*
Y463520D01*
Y463479D01*
Y463437D01*
X440500D01*
Y463395D01*
Y463354D01*
X440542D01*
Y463312D01*
Y463270D01*
X440584D01*
Y463229D01*
Y463187D01*
X440625D01*
Y463145D01*
Y463104D01*
X440667D01*
Y463062D01*
Y463020D01*
X440708D01*
Y462979D01*
Y462937D01*
X440750D01*
Y462895D01*
Y462854D01*
X440792D01*
Y462812D01*
X440834D01*
Y462770D01*
X441833D01*
Y462729D01*
X442334D01*
Y462687D01*
X442667D01*
Y462645D01*
X443459D01*
Y462604D01*
X443583D01*
Y462645D01*
Y462687D01*
X443500D01*
Y462729D01*
X443459D01*
Y462770D01*
X443417D01*
Y462812D01*
X443375D01*
Y462854D01*
X443333D01*
Y462895D01*
X443292D01*
Y462937D01*
X443250D01*
Y462979D01*
X443209D01*
Y463020D01*
X444250D01*
Y462979D01*
X444500D01*
Y462937D01*
X444583D01*
Y462895D01*
X444667D01*
Y462854D01*
X444750D01*
Y462812D01*
X444792D01*
Y462770D01*
X444833D01*
Y462729D01*
X444917D01*
Y462687D01*
X445042D01*
Y462645D01*
X445167D01*
Y462604D01*
X445375D01*
Y462562D01*
X445833D01*
Y462520D01*
X446417D01*
Y462479D01*
X446792D01*
Y462437D01*
X447042D01*
Y462395D01*
X447250D01*
Y462354D01*
X447417D01*
Y462312D01*
X447583D01*
Y462270D01*
X447750D01*
Y462229D01*
X447958D01*
Y462187D01*
X448083D01*
Y462229D01*
X448042D01*
Y462270D01*
X448000D01*
Y462312D01*
Y462354D01*
X447958D01*
Y462395D01*
X447917D01*
Y462437D01*
X448000D01*
Y462395D01*
X448042D01*
Y462354D01*
X448125D01*
Y462312D01*
X448208D01*
Y462270D01*
X448333D01*
Y462229D01*
X448458D01*
Y462187D01*
X448625D01*
Y462145D01*
X448833D01*
Y462104D01*
X449042D01*
Y462062D01*
X449208D01*
Y462020D01*
X449417D01*
Y461979D01*
X449583D01*
Y461937D01*
X449750D01*
Y461895D01*
X449875D01*
Y461854D01*
X450083D01*
Y461812D01*
X450333D01*
Y461770D01*
X450500D01*
Y461729D01*
X450625D01*
Y461687D01*
X450750D01*
Y461645D01*
X450875D01*
Y461604D01*
X450958D01*
Y461645D01*
X451000D01*
Y461687D01*
Y461729D01*
Y461770D01*
X450958D01*
Y461812D01*
Y461854D01*
Y461895D01*
X450917D01*
Y461937D01*
Y461979D01*
Y462020D01*
X450875D01*
Y462062D01*
Y462104D01*
Y462145D01*
Y462187D01*
Y462229D01*
X450833D01*
Y462270D01*
Y462312D01*
Y462354D01*
X450875D01*
Y462312D01*
X450917D01*
Y462270D01*
X450958D01*
Y462229D01*
X451042D01*
Y462187D01*
X451083D01*
Y462145D01*
X451125D01*
Y462104D01*
X451208D01*
Y462062D01*
X451250D01*
Y462020D01*
X451292D01*
Y461979D01*
X451333D01*
Y461937D01*
X451417D01*
Y461895D01*
X451458D01*
Y461854D01*
X451500D01*
Y461812D01*
X451542D01*
Y461770D01*
X451583D01*
Y461729D01*
X451625D01*
Y461687D01*
X451667D01*
Y461645D01*
X451708D01*
Y461604D01*
Y461562D01*
X451750D01*
Y461520D01*
Y461479D01*
Y461437D01*
X451792D01*
Y461395D01*
Y461354D01*
Y461312D01*
Y461270D01*
Y461229D01*
X451833D01*
Y461187D01*
Y461145D01*
Y461104D01*
Y461062D01*
X451875D01*
Y461020D01*
Y460979D01*
X451917D01*
Y460937D01*
Y460895D01*
Y460854D01*
X451958D01*
Y460812D01*
Y460770D01*
Y460729D01*
Y460687D01*
Y460645D01*
Y460604D01*
Y460562D01*
Y460520D01*
Y460479D01*
Y460437D01*
Y460395D01*
Y460354D01*
Y460312D01*
Y460270D01*
Y460229D01*
Y460187D01*
X452000D01*
Y460145D01*
Y460104D01*
Y460062D01*
Y460020D01*
Y459979D01*
Y459937D01*
X452042D01*
Y459895D01*
Y459854D01*
Y459812D01*
Y459770D01*
X452083D01*
Y459729D01*
Y459687D01*
X452125D01*
Y459645D01*
Y459604D01*
X452208D01*
Y459645D01*
Y459687D01*
Y459729D01*
Y459770D01*
Y459812D01*
Y459854D01*
Y459895D01*
X452167D01*
Y459937D01*
Y459979D01*
Y460020D01*
Y460062D01*
Y460104D01*
X452250D01*
Y460062D01*
X452292D01*
Y460020D01*
X452333D01*
Y459979D01*
X452417D01*
Y459937D01*
X452458D01*
Y459895D01*
X452500D01*
Y459854D01*
X452542D01*
Y459812D01*
X452583D01*
Y459770D01*
X452625D01*
Y459729D01*
Y459687D01*
X452667D01*
Y459645D01*
Y459604D01*
Y459562D01*
Y459520D01*
Y459479D01*
X452708D01*
Y459437D01*
Y459395D01*
Y459354D01*
Y459312D01*
Y459270D01*
Y459229D01*
Y459187D01*
Y459145D01*
Y459104D01*
Y459062D01*
X452750D01*
Y459020D01*
Y458979D01*
Y458937D01*
Y458895D01*
Y458854D01*
Y458812D01*
Y458770D01*
X452792D01*
Y458729D01*
Y458687D01*
Y458645D01*
Y458604D01*
X452833D01*
Y458562D01*
Y458520D01*
Y458479D01*
X452875D01*
Y458437D01*
X452916D01*
Y458395D01*
Y458354D01*
X452958D01*
Y458312D01*
X453000D01*
Y458270D01*
Y458229D01*
X453042D01*
Y458187D01*
X453083D01*
Y458145D01*
Y458104D01*
X453125D01*
Y458062D01*
Y458020D01*
X453166D01*
Y457979D01*
Y457937D01*
X453208D01*
Y457895D01*
Y457854D01*
X453250D01*
Y457812D01*
Y457770D01*
X453292D01*
Y457729D01*
Y457687D01*
X453250D01*
Y457729D01*
X453208D01*
Y457770D01*
X453166D01*
Y457812D01*
X453083D01*
Y457854D01*
X453042D01*
Y457895D01*
X453000D01*
Y457937D01*
X452958D01*
Y457979D01*
X452916D01*
Y458020D01*
X452833D01*
Y457979D01*
Y457937D01*
Y457895D01*
Y457854D01*
Y457812D01*
Y457770D01*
Y457729D01*
Y457687D01*
Y457645D01*
Y457604D01*
Y457562D01*
X452875D01*
Y457520D01*
Y457479D01*
Y457437D01*
Y457395D01*
Y457354D01*
Y457312D01*
Y457270D01*
Y457229D01*
Y457187D01*
X452916D01*
Y457145D01*
Y457104D01*
Y457062D01*
Y457020D01*
Y456979D01*
Y456937D01*
Y456895D01*
Y456854D01*
Y456812D01*
X452958D01*
Y456770D01*
Y456729D01*
Y456687D01*
Y456645D01*
Y456604D01*
Y456562D01*
Y456520D01*
Y456479D01*
X453000D01*
Y456437D01*
Y456395D01*
Y456354D01*
Y456312D01*
Y456270D01*
Y456229D01*
Y456187D01*
Y456145D01*
Y456104D01*
X453042D01*
Y456062D01*
Y456020D01*
Y455979D01*
Y455937D01*
Y455896D01*
Y455854D01*
X453083D01*
Y455812D01*
Y455770D01*
Y455729D01*
Y455687D01*
Y455646D01*
Y455604D01*
Y455562D01*
X453125D01*
Y455520D01*
Y455479D01*
Y455437D01*
Y455396D01*
Y455354D01*
Y455312D01*
X453166D01*
Y455270D01*
Y455229D01*
Y455187D01*
Y455146D01*
Y455104D01*
Y455062D01*
X453208D01*
Y455021D01*
Y454979D01*
Y454937D01*
Y454895D01*
Y454854D01*
Y454812D01*
X453250D01*
Y454771D01*
Y454729D01*
Y454687D01*
Y454645D01*
Y454604D01*
Y454562D01*
X453292D01*
Y454521D01*
Y454479D01*
Y454437D01*
Y454395D01*
Y454354D01*
Y454312D01*
X453333D01*
Y454271D01*
Y454229D01*
Y454187D01*
Y454145D01*
X453375D01*
Y454104D01*
Y454062D01*
Y454021D01*
Y453979D01*
X453416D01*
Y453937D01*
Y453896D01*
Y453854D01*
Y453812D01*
X453458D01*
Y453770D01*
Y453729D01*
Y453687D01*
X453500D01*
Y453646D01*
Y453604D01*
Y453562D01*
X453542D01*
Y453520D01*
Y453479D01*
Y453437D01*
X453583D01*
Y453396D01*
Y453354D01*
Y453312D01*
X453625D01*
Y453270D01*
Y453229D01*
Y453187D01*
X453666D01*
Y453146D01*
Y453104D01*
Y453062D01*
X453708D01*
Y453020D01*
Y452979D01*
Y452937D01*
X453750D01*
Y452895D01*
Y452854D01*
X453792D01*
Y452812D01*
Y452771D01*
Y452729D01*
X453833D01*
Y452687D01*
Y452646D01*
Y452604D01*
X453875D01*
Y452562D01*
Y452521D01*
Y452479D01*
X453917D01*
Y452437D01*
Y452396D01*
X453875D01*
Y452437D01*
X453833D01*
Y452479D01*
X453792D01*
Y452521D01*
X453708D01*
Y452562D01*
X453625D01*
Y452521D01*
Y452479D01*
Y452437D01*
Y452396D01*
X453666D01*
Y452354D01*
Y452312D01*
Y452271D01*
Y452229D01*
Y452187D01*
Y452146D01*
X453708D01*
Y452104D01*
Y452062D01*
Y452021D01*
Y451979D01*
Y451937D01*
Y451896D01*
X453750D01*
Y451854D01*
Y451812D01*
Y451771D01*
Y451729D01*
Y451687D01*
Y451646D01*
X453792D01*
Y451604D01*
Y451562D01*
Y451521D01*
Y451479D01*
Y451437D01*
Y451396D01*
Y451354D01*
X453833D01*
Y451312D01*
Y451271D01*
Y451229D01*
Y451187D01*
Y451146D01*
Y451104D01*
Y451062D01*
X453875D01*
Y451021D01*
Y450979D01*
Y450937D01*
Y450896D01*
Y450854D01*
Y450812D01*
Y450771D01*
Y450729D01*
X453917D01*
Y450687D01*
Y450646D01*
Y450604D01*
Y450562D01*
Y450521D01*
Y450479D01*
Y450437D01*
Y450396D01*
X453958D01*
Y450354D01*
Y450312D01*
Y450271D01*
Y450229D01*
Y450187D01*
Y450146D01*
Y450104D01*
Y450062D01*
Y450021D01*
X454000D01*
Y449979D01*
Y449937D01*
Y449896D01*
Y449854D01*
Y449812D01*
Y449771D01*
Y449729D01*
Y449687D01*
Y449646D01*
X454041D01*
Y449604D01*
Y449562D01*
Y449521D01*
Y449479D01*
Y449437D01*
Y449396D01*
Y449354D01*
Y449312D01*
Y449271D01*
X454083D01*
Y449229D01*
Y449187D01*
Y449146D01*
Y449104D01*
Y449062D01*
Y449021D01*
Y448979D01*
X454125D01*
Y448937D01*
Y448896D01*
Y448854D01*
Y448812D01*
Y448771D01*
Y448729D01*
Y448687D01*
X454167D01*
Y448646D01*
Y448604D01*
Y448562D01*
Y448521D01*
Y448479D01*
Y448437D01*
X454208D01*
Y448396D01*
Y448354D01*
Y448312D01*
Y448271D01*
Y448229D01*
Y448187D01*
X454250D01*
Y448146D01*
Y448104D01*
Y448062D01*
Y448021D01*
Y447979D01*
Y447937D01*
X454291D01*
Y447896D01*
Y447854D01*
Y447812D01*
Y447771D01*
Y447729D01*
Y447687D01*
X454333D01*
Y447646D01*
Y447604D01*
Y447562D01*
Y447521D01*
Y447479D01*
Y447437D01*
X454375D01*
Y447396D01*
Y447354D01*
Y447312D01*
Y447271D01*
Y447229D01*
Y447187D01*
Y447146D01*
X454417D01*
Y447104D01*
Y447062D01*
Y447021D01*
Y446979D01*
Y446937D01*
Y446896D01*
Y446854D01*
X454458D01*
Y446812D01*
Y446771D01*
Y446729D01*
Y446687D01*
Y446646D01*
Y446604D01*
Y446562D01*
Y446521D01*
X454500D01*
Y446479D01*
Y446437D01*
Y446396D01*
Y446354D01*
Y446312D01*
Y446271D01*
Y446229D01*
X454541D01*
Y446187D01*
Y446146D01*
Y446104D01*
Y446062D01*
Y446021D01*
Y445979D01*
Y445937D01*
X454583D01*
Y445896D01*
Y445854D01*
Y445812D01*
Y445771D01*
Y445729D01*
Y445687D01*
Y445646D01*
X454625D01*
Y445604D01*
Y445562D01*
Y445521D01*
Y445479D01*
Y445437D01*
Y445396D01*
Y445354D01*
X454667D01*
Y445312D01*
Y445271D01*
Y445229D01*
Y445187D01*
Y445146D01*
Y445104D01*
X454708D01*
Y445062D01*
Y445021D01*
Y444979D01*
Y444937D01*
X454750D01*
Y444896D01*
Y444854D01*
Y444812D01*
Y444771D01*
X454791D01*
Y444729D01*
Y444687D01*
Y444646D01*
Y444604D01*
X454833D01*
Y444562D01*
Y444521D01*
Y444479D01*
X454875D01*
Y444437D01*
Y444396D01*
Y444354D01*
X454916D01*
Y444312D01*
Y444271D01*
Y444229D01*
X454958D01*
Y444187D01*
Y444146D01*
Y444104D01*
X455000D01*
Y444062D01*
Y444021D01*
X455042D01*
Y443979D01*
Y443937D01*
Y443896D01*
X455083D01*
Y443854D01*
Y443812D01*
X455125D01*
Y443771D01*
Y443729D01*
X455166D01*
Y443687D01*
Y443646D01*
Y443604D01*
X455208D01*
Y443563D01*
Y443521D01*
X455250D01*
Y443479D01*
Y443437D01*
X455292D01*
Y443396D01*
Y443354D01*
X455333D01*
Y443313D01*
Y443271D01*
X455375D01*
Y443229D01*
Y443188D01*
X455416D01*
Y443146D01*
Y443104D01*
X455458D01*
Y443062D01*
Y443021D01*
X455500D01*
Y442979D01*
Y442938D01*
X455542D01*
Y442896D01*
Y442854D01*
Y442812D01*
X455583D01*
Y442771D01*
Y442729D01*
X455625D01*
Y442688D01*
Y442646D01*
X455666D01*
Y442604D01*
Y442562D01*
Y442521D01*
X455708D01*
Y442479D01*
Y442438D01*
X455750D01*
Y442396D01*
Y442354D01*
X455792D01*
Y442312D01*
Y442271D01*
X455833D01*
Y442229D01*
Y442188D01*
X455875D01*
Y442146D01*
Y442104D01*
X455917D01*
Y442063D01*
X455958D01*
Y442021D01*
Y441979D01*
X456000D01*
Y441937D01*
X456041D01*
Y441896D01*
X456083D01*
Y441854D01*
Y441813D01*
X456125D01*
Y441771D01*
X456167D01*
Y441729D01*
X456208D01*
Y441687D01*
X456250D01*
Y441646D01*
X456291D01*
Y441604D01*
Y441563D01*
X456333D01*
Y441521D01*
X456375D01*
Y441479D01*
X456416D01*
Y441437D01*
X456458D01*
Y441396D01*
Y441354D01*
X456500D01*
Y441313D01*
X456541D01*
Y441271D01*
X456583D01*
Y441229D01*
Y441187D01*
X456625D01*
Y441146D01*
Y441104D01*
X456666D01*
Y441062D01*
Y441021D01*
X456708D01*
Y440979D01*
X456750D01*
Y440938D01*
Y440896D01*
X456791D01*
Y440854D01*
X456833D01*
Y440812D01*
Y440771D01*
X456791D01*
Y440812D01*
X456750D01*
Y440854D01*
X456708D01*
Y440896D01*
X456666D01*
Y440938D01*
X456625D01*
Y440979D01*
X456583D01*
Y441021D01*
X456541D01*
Y441062D01*
X456500D01*
Y441104D01*
X456458D01*
Y441146D01*
X456416D01*
Y441187D01*
X456375D01*
Y441229D01*
Y441271D01*
X456333D01*
Y441313D01*
X456291D01*
Y441354D01*
X456250D01*
Y441396D01*
Y441437D01*
X456208D01*
Y441479D01*
X456167D01*
Y441521D01*
Y441563D01*
X456125D01*
Y441604D01*
Y441646D01*
X456083D01*
Y441687D01*
X456041D01*
Y441729D01*
Y441771D01*
X456000D01*
Y441813D01*
X455958D01*
Y441854D01*
Y441896D01*
X455917D01*
Y441937D01*
X455875D01*
Y441979D01*
X455833D01*
Y442021D01*
X455792D01*
Y442063D01*
X455750D01*
Y442104D01*
X455708D01*
Y442146D01*
Y442188D01*
X455666D01*
Y442229D01*
X455625D01*
Y442271D01*
X455583D01*
Y442312D01*
X455542D01*
Y442354D01*
X455500D01*
Y442396D01*
Y442438D01*
X455458D01*
Y442479D01*
X455416D01*
Y442521D01*
Y442562D01*
X455375D01*
Y442604D01*
Y442646D01*
X455333D01*
Y442688D01*
Y442729D01*
X455292D01*
Y442771D01*
Y442812D01*
X455250D01*
Y442854D01*
Y442896D01*
Y442938D01*
X455208D01*
Y442979D01*
Y443021D01*
X455166D01*
Y443062D01*
Y443104D01*
X455125D01*
Y443146D01*
Y443188D01*
X455083D01*
Y443229D01*
Y443271D01*
X455042D01*
Y443313D01*
Y443354D01*
X455000D01*
Y443396D01*
Y443437D01*
Y443479D01*
X454958D01*
Y443521D01*
Y443563D01*
X454916D01*
Y443604D01*
Y443646D01*
X454875D01*
Y443687D01*
Y443729D01*
X454833D01*
Y443771D01*
Y443812D01*
X454791D01*
Y443854D01*
Y443896D01*
Y443937D01*
X454750D01*
Y443979D01*
Y444021D01*
X454708D01*
Y444062D01*
Y444104D01*
X454667D01*
Y444146D01*
Y444187D01*
X454625D01*
Y444229D01*
Y444271D01*
X454583D01*
Y444312D01*
Y444354D01*
X454541D01*
Y444396D01*
Y444437D01*
Y444479D01*
X454500D01*
Y444521D01*
Y444562D01*
X454458D01*
Y444604D01*
Y444646D01*
X454417D01*
Y444687D01*
Y444729D01*
X454375D01*
Y444771D01*
Y444812D01*
X454333D01*
Y444854D01*
Y444896D01*
X454291D01*
Y444937D01*
Y444979D01*
Y445021D01*
Y445062D01*
X454250D01*
Y445104D01*
Y445146D01*
Y445187D01*
Y445229D01*
Y445271D01*
X454208D01*
Y445312D01*
Y445354D01*
Y445396D01*
Y445437D01*
Y445479D01*
X454167D01*
Y445521D01*
Y445562D01*
Y445604D01*
Y445646D01*
Y445687D01*
Y445729D01*
Y445771D01*
X454125D01*
Y445812D01*
Y445854D01*
Y445896D01*
Y445937D01*
Y445979D01*
Y446021D01*
X454083D01*
Y446062D01*
Y446104D01*
Y446146D01*
Y446187D01*
Y446229D01*
Y446271D01*
Y446312D01*
X454041D01*
Y446354D01*
Y446396D01*
Y446437D01*
Y446479D01*
Y446521D01*
Y446562D01*
Y446604D01*
X454000D01*
Y446646D01*
Y446687D01*
Y446729D01*
Y446771D01*
Y446812D01*
Y446854D01*
Y446896D01*
Y446937D01*
X453958D01*
Y446979D01*
Y447021D01*
Y447062D01*
Y447104D01*
Y447146D01*
Y447187D01*
Y447229D01*
X453917D01*
Y447271D01*
Y447312D01*
Y447354D01*
Y447396D01*
Y447437D01*
Y447479D01*
Y447521D01*
X453875D01*
Y447562D01*
Y447604D01*
Y447646D01*
Y447687D01*
Y447729D01*
Y447771D01*
Y447812D01*
X453833D01*
Y447854D01*
Y447896D01*
Y447937D01*
Y447979D01*
Y448021D01*
Y448062D01*
Y448104D01*
X453792D01*
Y448146D01*
Y448187D01*
Y448229D01*
Y448271D01*
Y448312D01*
Y448354D01*
X453750D01*
Y448396D01*
Y448437D01*
Y448479D01*
Y448521D01*
Y448562D01*
Y448604D01*
X453708D01*
Y448646D01*
Y448687D01*
Y448729D01*
Y448771D01*
Y448812D01*
Y448854D01*
X453666D01*
Y448896D01*
Y448937D01*
Y448979D01*
Y449021D01*
Y449062D01*
Y449104D01*
Y449146D01*
X453625D01*
Y449187D01*
Y449229D01*
Y449271D01*
Y449312D01*
Y449354D01*
Y449396D01*
Y449437D01*
X453583D01*
Y449479D01*
Y449521D01*
Y449562D01*
Y449604D01*
Y449646D01*
Y449687D01*
Y449729D01*
X453542D01*
Y449771D01*
Y449812D01*
Y449854D01*
Y449896D01*
Y449937D01*
Y449979D01*
Y450021D01*
X453500D01*
Y450062D01*
Y450104D01*
Y450146D01*
Y450187D01*
Y450229D01*
Y450271D01*
Y450312D01*
Y450354D01*
Y450396D01*
Y450437D01*
X453458D01*
Y450479D01*
Y450521D01*
Y450562D01*
Y450604D01*
Y450646D01*
Y450687D01*
Y450729D01*
Y450771D01*
Y450812D01*
X453416D01*
Y450854D01*
Y450896D01*
Y450937D01*
Y450979D01*
Y451021D01*
Y451062D01*
Y451104D01*
Y451146D01*
X453375D01*
Y451187D01*
Y451229D01*
Y451271D01*
Y451312D01*
Y451354D01*
Y451396D01*
Y451437D01*
Y451479D01*
X453333D01*
Y451521D01*
Y451562D01*
Y451604D01*
Y451646D01*
Y451687D01*
Y451729D01*
Y451771D01*
X453292D01*
Y451812D01*
Y451854D01*
Y451896D01*
Y451937D01*
Y451979D01*
Y452021D01*
Y452062D01*
X453250D01*
Y452104D01*
Y452146D01*
Y452187D01*
Y452229D01*
Y452271D01*
X453208D01*
Y452312D01*
Y452354D01*
Y452396D01*
Y452437D01*
Y452479D01*
Y452521D01*
X453166D01*
Y452562D01*
Y452604D01*
Y452646D01*
Y452687D01*
Y452729D01*
Y452771D01*
X453125D01*
Y452812D01*
Y452854D01*
Y452895D01*
Y452937D01*
Y452979D01*
X453083D01*
Y453020D01*
Y453062D01*
Y453104D01*
Y453146D01*
Y453187D01*
X453042D01*
Y453229D01*
Y453270D01*
Y453312D01*
Y453354D01*
Y453396D01*
Y453437D01*
X453000D01*
Y453479D01*
Y453520D01*
Y453562D01*
Y453604D01*
Y453646D01*
X452958D01*
Y453687D01*
Y453729D01*
Y453770D01*
Y453812D01*
Y453854D01*
Y453896D01*
X452916D01*
Y453937D01*
Y453979D01*
Y454021D01*
Y454062D01*
Y454104D01*
X452875D01*
Y454145D01*
Y454187D01*
Y454229D01*
Y454271D01*
Y454312D01*
X452833D01*
Y454354D01*
Y454395D01*
Y454437D01*
Y454479D01*
Y454521D01*
X452792D01*
Y454562D01*
Y454604D01*
Y454645D01*
Y454687D01*
X452750D01*
Y454729D01*
Y454771D01*
Y454812D01*
Y454854D01*
X452708D01*
Y454895D01*
Y454937D01*
Y454979D01*
Y455021D01*
X452667D01*
Y455062D01*
Y455104D01*
Y455146D01*
Y455187D01*
X452625D01*
Y455229D01*
Y455270D01*
Y455312D01*
X452583D01*
Y455354D01*
Y455396D01*
Y455437D01*
X452542D01*
Y455479D01*
Y455520D01*
Y455562D01*
Y455604D01*
X452500D01*
Y455646D01*
Y455687D01*
Y455729D01*
X452458D01*
Y455770D01*
Y455812D01*
Y455854D01*
X452417D01*
Y455896D01*
Y455937D01*
Y455979D01*
X452375D01*
Y456020D01*
Y456062D01*
Y456104D01*
X452333D01*
Y456145D01*
Y456187D01*
Y456229D01*
X452292D01*
Y456270D01*
Y456312D01*
Y456354D01*
Y456395D01*
X452250D01*
Y456437D01*
Y456479D01*
Y456520D01*
X452208D01*
Y456562D01*
Y456604D01*
Y456645D01*
X452167D01*
Y456687D01*
Y456729D01*
Y456770D01*
Y456812D01*
X452125D01*
Y456854D01*
Y456895D01*
Y456937D01*
X452083D01*
Y456979D01*
Y457020D01*
Y457062D01*
Y457104D01*
X452042D01*
Y457145D01*
Y457187D01*
Y457229D01*
Y457270D01*
X452000D01*
Y457312D01*
Y457354D01*
Y457395D01*
Y457437D01*
X451958D01*
Y457479D01*
Y457520D01*
Y457562D01*
Y457604D01*
X451917D01*
Y457645D01*
Y457687D01*
Y457729D01*
Y457770D01*
X451875D01*
Y457812D01*
Y457854D01*
Y457895D01*
Y457937D01*
X451833D01*
Y457979D01*
Y458020D01*
Y458062D01*
Y458104D01*
X451792D01*
Y458145D01*
Y458187D01*
Y458229D01*
Y458270D01*
Y458312D01*
X451750D01*
Y458354D01*
Y458395D01*
Y458437D01*
Y458479D01*
X451708D01*
Y458520D01*
Y458562D01*
Y458604D01*
Y458645D01*
X451667D01*
Y458687D01*
Y458729D01*
Y458770D01*
Y458812D01*
X451625D01*
Y458854D01*
Y458895D01*
Y458937D01*
Y458979D01*
Y459020D01*
X451583D01*
Y459062D01*
Y459104D01*
Y459145D01*
Y459187D01*
Y459229D01*
X451542D01*
Y459270D01*
Y459312D01*
Y459354D01*
Y459395D01*
X451500D01*
Y459437D01*
Y459479D01*
Y459520D01*
Y459562D01*
Y459604D01*
X451458D01*
Y459645D01*
Y459687D01*
Y459729D01*
Y459770D01*
Y459812D01*
Y459854D01*
X451417D01*
Y459895D01*
Y459937D01*
Y459979D01*
Y460020D01*
Y460062D01*
X451375D01*
Y460104D01*
Y460145D01*
Y460187D01*
Y460229D01*
Y460270D01*
Y460312D01*
Y460354D01*
Y460395D01*
Y460437D01*
X451333D01*
Y460479D01*
Y460520D01*
Y460562D01*
Y460604D01*
Y460645D01*
Y460687D01*
Y460729D01*
X451292D01*
Y460770D01*
Y460812D01*
Y460854D01*
Y460895D01*
X451250D01*
Y460937D01*
Y460979D01*
Y461020D01*
Y461062D01*
X451208D01*
Y461104D01*
Y461145D01*
Y461187D01*
X451167D01*
Y461229D01*
X451125D01*
Y461270D01*
X451083D01*
Y461312D01*
X450958D01*
Y461354D01*
X450667D01*
Y461395D01*
X450500D01*
Y461354D01*
Y461312D01*
X450583D01*
Y461270D01*
X450625D01*
Y461229D01*
X450667D01*
Y461187D01*
X450708D01*
Y461145D01*
Y461104D01*
X450667D01*
Y461145D01*
X450625D01*
Y461187D01*
X450542D01*
Y461229D01*
X450417D01*
Y461270D01*
X450292D01*
Y461312D01*
X450167D01*
Y461354D01*
X450042D01*
Y461395D01*
X449958D01*
Y461437D01*
X449833D01*
Y461479D01*
X449708D01*
Y461520D01*
X449625D01*
Y461562D01*
X449500D01*
Y461604D01*
X449375D01*
Y461645D01*
X449250D01*
Y461687D01*
X449000D01*
Y461729D01*
X448917D01*
Y461687D01*
X448958D01*
Y461645D01*
X449000D01*
Y461604D01*
X449042D01*
Y461562D01*
X449125D01*
Y461520D01*
X449167D01*
Y461479D01*
X449208D01*
Y461437D01*
X449250D01*
Y461395D01*
X449333D01*
Y461354D01*
X449375D01*
Y461312D01*
X449417D01*
Y461270D01*
X449458D01*
Y461229D01*
X449375D01*
Y461270D01*
X449292D01*
Y461312D01*
X449208D01*
Y461354D01*
X449083D01*
Y461395D01*
X448958D01*
Y461437D01*
X448833D01*
Y461479D01*
X448708D01*
Y461520D01*
X448542D01*
Y461562D01*
X448417D01*
Y461604D01*
X448292D01*
Y461645D01*
X448125D01*
Y461687D01*
X447958D01*
Y461729D01*
X447750D01*
Y461770D01*
X447542D01*
Y461812D01*
X447375D01*
Y461854D01*
X447167D01*
Y461895D01*
X447000D01*
Y461937D01*
X446875D01*
Y461979D01*
X446667D01*
Y462020D01*
X446417D01*
Y462062D01*
X446000D01*
Y462104D01*
X445208D01*
Y462145D01*
X444167D01*
Y462187D01*
X443292D01*
Y462229D01*
X442667D01*
Y462270D01*
X440667D01*
Y462312D01*
X435667D01*
Y462270D01*
X434000D01*
Y462229D01*
X433959D01*
Y462187D01*
X434000D01*
Y462145D01*
X434042D01*
Y462104D01*
X434084D01*
Y462062D01*
X434125D01*
Y462020D01*
X434167D01*
Y461979D01*
X434209D01*
Y461937D01*
X434250D01*
Y461895D01*
X434292D01*
Y461854D01*
X433959D01*
Y461812D01*
X434000D01*
Y461770D01*
X434042D01*
Y461729D01*
X434084D01*
Y461687D01*
X434125D01*
Y461645D01*
X434167D01*
Y461604D01*
X434209D01*
Y461562D01*
X434250D01*
Y461520D01*
X434125D01*
Y461479D01*
X433417D01*
Y461437D01*
X433000D01*
Y461395D01*
X432792D01*
Y461437D01*
X432709D01*
Y461479D01*
X432667D01*
Y461520D01*
X432584D01*
Y461562D01*
X432542D01*
Y461604D01*
X432500D01*
Y461645D01*
X432459D01*
Y461687D01*
X432417D01*
Y461729D01*
X432375D01*
Y461770D01*
X432334D01*
Y461812D01*
X432292D01*
Y461854D01*
X431792D01*
Y461812D01*
X431542D01*
Y461770D01*
X431417D01*
Y461729D01*
X431459D01*
Y461687D01*
X431500D01*
Y461645D01*
X431542D01*
Y461604D01*
X431626D01*
Y461562D01*
X431667D01*
Y461520D01*
X431709D01*
Y461479D01*
X431750D01*
Y461437D01*
X431792D01*
Y461395D01*
X431875D01*
Y461354D01*
X428792D01*
Y461395D01*
X428167D01*
Y461437D01*
X427876D01*
Y461395D01*
X427251D01*
Y461354D01*
X427167D01*
Y461312D01*
Y461270D01*
Y461229D01*
Y461187D01*
Y461145D01*
Y461104D01*
Y461062D01*
X427209D01*
Y461020D01*
Y460979D01*
Y460937D01*
Y460895D01*
Y460854D01*
Y460812D01*
Y460770D01*
X427251D01*
Y460729D01*
Y460687D01*
Y460645D01*
Y460604D01*
X427292D01*
Y460562D01*
Y460520D01*
Y460479D01*
X427334D01*
Y460437D01*
Y460395D01*
X427376D01*
Y460354D01*
Y460312D01*
Y460270D01*
X427417D01*
Y460229D01*
Y460187D01*
X427459D01*
Y460145D01*
Y460104D01*
Y460062D01*
X427501D01*
Y460020D01*
Y459979D01*
X427542D01*
Y459937D01*
Y459895D01*
Y459854D01*
X427584D01*
Y459812D01*
Y459770D01*
X427626D01*
Y459729D01*
Y459687D01*
Y459645D01*
X427667D01*
Y459604D01*
Y459562D01*
X427709D01*
Y459520D01*
Y459479D01*
Y459437D01*
X427751D01*
Y459395D01*
Y459354D01*
Y459312D01*
X427792D01*
Y459270D01*
Y459229D01*
X427834D01*
Y459187D01*
Y459145D01*
Y459104D01*
X427876D01*
Y459062D01*
Y459020D01*
Y458979D01*
X427917D01*
Y458937D01*
Y458895D01*
X427959D01*
Y458854D01*
Y458812D01*
Y458770D01*
X428000D01*
Y458729D01*
Y458687D01*
Y458645D01*
X428042D01*
Y458604D01*
Y458562D01*
X428084D01*
Y458520D01*
Y458479D01*
Y458437D01*
X428125D01*
Y458395D01*
Y458354D01*
X428167D01*
Y458312D01*
Y458270D01*
X428209D01*
Y458229D01*
Y458187D01*
X428251D01*
Y458145D01*
Y458104D01*
Y458062D01*
X428292D01*
Y458020D01*
Y457979D01*
X428334D01*
Y457937D01*
Y457895D01*
X428375D01*
Y457854D01*
Y457812D01*
X428417D01*
Y457770D01*
Y457729D01*
X428459D01*
Y457687D01*
X428501D01*
Y457645D01*
Y457604D01*
X428542D01*
Y457562D01*
Y457520D01*
X428584D01*
Y457479D01*
Y457437D01*
X428625D01*
Y457395D01*
Y457354D01*
X428667D01*
Y457312D01*
Y457270D01*
X428709D01*
Y457229D01*
X428751D01*
Y457187D01*
Y457145D01*
X428792D01*
Y457104D01*
Y457062D01*
X428834D01*
Y457020D01*
Y456979D01*
X428875D01*
Y456937D01*
Y456895D01*
X428917D01*
Y456854D01*
Y456812D01*
X428959D01*
Y456770D01*
X429001D01*
Y456729D01*
Y456687D01*
X429042D01*
Y456645D01*
Y456604D01*
X429084D01*
Y456562D01*
Y456520D01*
X429125D01*
Y456479D01*
Y456437D01*
X429167D01*
Y456395D01*
X429209D01*
Y456354D01*
Y456312D01*
X429250D01*
Y456270D01*
Y456229D01*
X429292D01*
Y456187D01*
Y456145D01*
X429334D01*
Y456104D01*
Y456062D01*
X429376D01*
Y456020D01*
Y455979D01*
X429417D01*
Y455937D01*
Y455896D01*
X429459D01*
Y455854D01*
X429500D01*
Y455812D01*
Y455770D01*
X429542D01*
Y455729D01*
Y455687D01*
X429584D01*
Y455646D01*
Y455604D01*
X429626D01*
Y455562D01*
Y455520D01*
X429667D01*
Y455479D01*
Y455437D01*
X429709D01*
Y455396D01*
X429750D01*
Y455354D01*
Y455312D01*
X429792D01*
Y455270D01*
Y455229D01*
X429834D01*
Y455187D01*
Y455146D01*
X429876D01*
Y455104D01*
Y455062D01*
X429917D01*
Y455021D01*
Y454979D01*
X429959D01*
Y454937D01*
Y454895D01*
X430000D01*
Y454854D01*
Y454812D01*
X430042D01*
Y454771D01*
X430084D01*
Y454729D01*
Y454687D01*
X430126D01*
Y454645D01*
Y454604D01*
X430167D01*
Y454562D01*
Y454521D01*
X430209D01*
Y454479D01*
Y454437D01*
X430251D01*
Y454395D01*
X430292D01*
Y454354D01*
Y454312D01*
X430334D01*
Y454354D01*
X430375D01*
Y454395D01*
X430417D01*
Y454437D01*
Y454479D01*
X430459D01*
Y454521D01*
Y454562D01*
X430501D01*
Y454604D01*
Y454645D01*
Y454687D01*
X430542D01*
Y454729D01*
Y454771D01*
X430584D01*
Y454812D01*
Y454854D01*
Y454895D01*
X430625D01*
Y454937D01*
Y454979D01*
X430667D01*
Y455021D01*
Y455062D01*
X430709D01*
Y455104D01*
Y455146D01*
X430751D01*
Y455187D01*
Y455229D01*
X430792D01*
Y455270D01*
Y455312D01*
X430834D01*
Y455354D01*
Y455396D01*
X430875D01*
Y455437D01*
X430917D01*
Y455479D01*
Y455520D01*
X430959D01*
Y455562D01*
X431001D01*
Y455604D01*
Y455646D01*
X431042D01*
Y455687D01*
Y455729D01*
X431084D01*
Y455770D01*
X431125D01*
Y455812D01*
X431167D01*
Y455854D01*
Y455896D01*
X431209D01*
Y455937D01*
X431250D01*
Y455979D01*
Y456020D01*
X431292D01*
Y456062D01*
X431334D01*
Y456104D01*
Y456145D01*
X431376D01*
Y456187D01*
X431417D01*
Y456229D01*
Y456270D01*
X431459D01*
Y456312D01*
Y456354D01*
X431500D01*
Y456395D01*
X431542D01*
Y456437D01*
Y456479D01*
X431584D01*
Y456520D01*
Y456562D01*
X431626D01*
Y456604D01*
Y456645D01*
X431667D01*
Y456687D01*
Y456729D01*
X431709D01*
Y456770D01*
Y456812D01*
X431750D01*
Y456854D01*
Y456895D01*
X431792D01*
Y456937D01*
Y456979D01*
Y457020D01*
X431834D01*
Y457062D01*
Y457104D01*
X431875D01*
Y457145D01*
Y457187D01*
X431917D01*
Y457229D01*
Y457270D01*
Y457312D01*
X431959D01*
Y457354D01*
Y457395D01*
X432000D01*
Y457437D01*
Y457479D01*
X432042D01*
Y457520D01*
Y457562D01*
Y457604D01*
X432084D01*
Y457645D01*
Y457687D01*
X432125D01*
Y457729D01*
Y457770D01*
X432167D01*
Y457812D01*
Y457854D01*
X432209D01*
Y457895D01*
Y457937D01*
X432250D01*
Y457979D01*
Y458020D01*
X432292D01*
Y458062D01*
Y458104D01*
X432334D01*
Y458145D01*
Y458187D01*
X432375D01*
Y458229D01*
Y458270D01*
X432417D01*
Y458312D01*
Y458354D01*
X432459D01*
Y458395D01*
Y458437D01*
X432500D01*
Y458479D01*
Y458520D01*
X432542D01*
Y458562D01*
Y458604D01*
X432584D01*
Y458645D01*
Y458687D01*
X432625D01*
Y458729D01*
Y458770D01*
Y458812D01*
X432667D01*
Y458854D01*
Y458895D01*
X432709D01*
Y458937D01*
Y458979D01*
X432750D01*
Y459020D01*
Y459062D01*
X432792D01*
Y459104D01*
Y459145D01*
X432834D01*
Y459187D01*
Y459229D01*
X432875D01*
Y459270D01*
Y459312D01*
X432917D01*
Y459354D01*
Y459395D01*
X432959D01*
Y459437D01*
Y459479D01*
Y459520D01*
X433000D01*
Y459562D01*
Y459604D01*
X433042D01*
Y459645D01*
Y459687D01*
X433084D01*
Y459729D01*
Y459770D01*
X433125D01*
Y459812D01*
Y459854D01*
Y459895D01*
X433167D01*
Y459937D01*
Y459979D01*
X433209D01*
Y460020D01*
Y460062D01*
X433250D01*
Y460104D01*
Y460145D01*
Y460187D01*
X433292D01*
Y460229D01*
Y460270D01*
X433334D01*
Y460312D01*
Y460354D01*
X433375D01*
Y460395D01*
Y460437D01*
Y460479D01*
X433417D01*
Y460520D01*
Y460562D01*
X433459D01*
Y460604D01*
Y460645D01*
X433500D01*
Y460687D01*
X433542D01*
Y460729D01*
Y460770D01*
X433584D01*
Y460812D01*
Y460854D01*
X433625D01*
Y460812D01*
X433667D01*
Y460770D01*
X433709D01*
Y460729D01*
X433792D01*
Y460687D01*
X433834D01*
Y460645D01*
X433875D01*
Y460604D01*
X433917D01*
Y460562D01*
X433959D01*
Y460520D01*
X434000D01*
Y460479D01*
X434042D01*
Y460437D01*
X434084D01*
Y460395D01*
Y460354D01*
X434042D01*
Y460312D01*
Y460270D01*
X434000D01*
Y460229D01*
Y460187D01*
X433959D01*
Y460145D01*
Y460104D01*
X433917D01*
Y460062D01*
Y460020D01*
X433875D01*
Y459979D01*
Y459937D01*
X433917D01*
Y459895D01*
X433959D01*
Y459854D01*
X434000D01*
Y459812D01*
X434042D01*
Y459770D01*
X434084D01*
Y459729D01*
X434125D01*
Y459687D01*
X434167D01*
Y459645D01*
X434209D01*
Y459604D01*
Y459562D01*
Y459520D01*
Y459479D01*
Y459437D01*
Y459395D01*
Y459354D01*
Y459312D01*
Y459270D01*
X434250D01*
Y459229D01*
Y459187D01*
Y459145D01*
Y459104D01*
Y459062D01*
X434292D01*
Y459020D01*
Y458979D01*
Y458937D01*
Y458895D01*
Y458854D01*
Y458812D01*
Y458770D01*
Y458729D01*
X434334D01*
Y458687D01*
Y458645D01*
X434375D01*
Y458604D01*
Y458562D01*
X434417D01*
Y458520D01*
X434459D01*
Y458479D01*
X434500D01*
Y458437D01*
Y458395D01*
X434542D01*
Y458354D01*
X434584D01*
Y458312D01*
X434625D01*
Y458270D01*
Y458229D01*
X434667D01*
Y458187D01*
X434709D01*
Y458145D01*
Y458104D01*
X434750D01*
Y458062D01*
X434792D01*
Y458020D01*
Y457979D01*
X434834D01*
Y457937D01*
Y457895D01*
X434875D01*
Y457854D01*
Y457812D01*
X434917D01*
Y457770D01*
Y457729D01*
X434959D01*
Y457687D01*
Y457645D01*
X435000D01*
Y457604D01*
Y457562D01*
X435042D01*
Y457520D01*
Y457479D01*
Y457437D01*
X435084D01*
Y457395D01*
Y457354D01*
X435125D01*
Y457312D01*
Y457270D01*
X435167D01*
Y457229D01*
Y457187D01*
Y457145D01*
X435209D01*
Y457104D01*
Y457062D01*
Y457020D01*
X435250D01*
Y456979D01*
Y456937D01*
X435292D01*
Y456895D01*
Y456854D01*
Y456812D01*
X435334D01*
Y456770D01*
Y456729D01*
Y456687D01*
X435375D01*
Y456645D01*
Y456604D01*
Y456562D01*
X435417D01*
Y456520D01*
Y456479D01*
Y456437D01*
X435459D01*
Y456395D01*
Y456354D01*
X435500D01*
Y456312D01*
Y456270D01*
Y456229D01*
X435542D01*
Y456187D01*
Y456145D01*
Y456104D01*
X435584D01*
Y456062D01*
Y456020D01*
Y455979D01*
X435625D01*
Y455937D01*
Y455896D01*
Y455854D01*
X435667D01*
Y455812D01*
Y455770D01*
Y455729D01*
X435709D01*
Y455687D01*
Y455646D01*
Y455604D01*
X435750D01*
Y455562D01*
Y455520D01*
X435792D01*
Y455479D01*
Y455437D01*
Y455396D01*
X435834D01*
Y455354D01*
Y455312D01*
Y455270D01*
X435875D01*
Y455229D01*
Y455187D01*
Y455146D01*
X435917D01*
Y455104D01*
Y455062D01*
Y455021D01*
X435959D01*
Y454979D01*
Y454937D01*
Y454895D01*
X436000D01*
Y454854D01*
Y454812D01*
Y454771D01*
X436042D01*
Y454729D01*
Y454687D01*
X436084D01*
Y454645D01*
Y454604D01*
Y454562D01*
X436125D01*
Y454521D01*
Y454479D01*
Y454437D01*
X436167D01*
Y454395D01*
Y454354D01*
Y454312D01*
X436209D01*
Y454271D01*
Y454229D01*
X436250D01*
Y454187D01*
Y454145D01*
Y454104D01*
X436292D01*
Y454062D01*
Y454021D01*
Y453979D01*
X436334D01*
Y453937D01*
Y453896D01*
X436375D01*
Y453854D01*
Y453812D01*
Y453770D01*
X436417D01*
Y453729D01*
Y453687D01*
X436459D01*
Y453646D01*
Y453604D01*
Y453562D01*
X436500D01*
Y453520D01*
Y453479D01*
X436542D01*
Y453437D01*
Y453396D01*
X436584D01*
Y453354D01*
Y453312D01*
Y453270D01*
X436625D01*
Y453229D01*
Y453187D01*
X436667D01*
Y453146D01*
Y453104D01*
Y453062D01*
X436709D01*
Y453020D01*
Y452979D01*
X436750D01*
Y452937D01*
Y452895D01*
Y452854D01*
X436792D01*
Y452812D01*
Y452771D01*
Y452729D01*
X436834D01*
Y452687D01*
Y452646D01*
Y452604D01*
X436875D01*
Y452562D01*
Y452521D01*
Y452479D01*
X436917D01*
Y452437D01*
Y452396D01*
X436959D01*
Y452354D01*
Y452312D01*
Y452271D01*
X437000D01*
Y452229D01*
Y452187D01*
Y452146D01*
X437042D01*
Y452104D01*
Y452062D01*
Y452021D01*
X437084D01*
Y451979D01*
Y451937D01*
X437125D01*
Y451896D01*
Y451854D01*
Y451812D01*
X437167D01*
Y451771D01*
Y451729D01*
X437209D01*
Y451687D01*
Y451646D01*
Y451604D01*
X437250D01*
Y451562D01*
Y451521D01*
X437292D01*
Y451479D01*
Y451437D01*
X437334D01*
Y451396D01*
Y451354D01*
Y451312D01*
X437375D01*
Y451271D01*
Y451229D01*
X437417D01*
Y451187D01*
Y451146D01*
X437459D01*
Y451104D01*
Y451062D01*
X437500D01*
Y451021D01*
Y450979D01*
Y450937D01*
X437542D01*
Y450896D01*
Y450854D01*
X437500D01*
Y450896D01*
X437417D01*
Y450937D01*
X437375D01*
Y450979D01*
X437334D01*
Y451021D01*
X437292D01*
Y451062D01*
X437250D01*
Y451104D01*
X437209D01*
Y451146D01*
X437167D01*
Y451187D01*
X437125D01*
Y451229D01*
X437084D01*
Y451271D01*
Y451312D01*
X437042D01*
Y451354D01*
Y451396D01*
X437000D01*
Y451437D01*
Y451479D01*
Y451521D01*
X436959D01*
Y451562D01*
Y451604D01*
X436917D01*
Y451646D01*
Y451687D01*
X436875D01*
Y451729D01*
Y451771D01*
X436834D01*
Y451812D01*
Y451854D01*
X436792D01*
Y451896D01*
Y451937D01*
Y451979D01*
X436750D01*
Y452021D01*
Y452062D01*
X436709D01*
Y452104D01*
Y452146D01*
X436667D01*
Y452187D01*
Y452229D01*
Y452271D01*
X436625D01*
Y452312D01*
Y452354D01*
X436584D01*
Y452396D01*
Y452437D01*
Y452479D01*
X436542D01*
Y452521D01*
Y452562D01*
Y452604D01*
X436500D01*
Y452646D01*
Y452687D01*
X436459D01*
Y452729D01*
Y452771D01*
Y452812D01*
X436417D01*
Y452854D01*
Y452895D01*
Y452937D01*
X436375D01*
Y452979D01*
Y453020D01*
Y453062D01*
X436334D01*
Y453104D01*
Y453146D01*
X436292D01*
Y453187D01*
Y453229D01*
Y453270D01*
X436250D01*
Y453312D01*
Y453354D01*
Y453396D01*
X436209D01*
Y453437D01*
Y453479D01*
Y453520D01*
X436167D01*
Y453562D01*
Y453604D01*
X436125D01*
Y453646D01*
Y453687D01*
Y453729D01*
X436084D01*
Y453770D01*
Y453812D01*
X436042D01*
Y453854D01*
Y453896D01*
Y453937D01*
X436000D01*
Y453979D01*
Y454021D01*
X435959D01*
Y454062D01*
Y454104D01*
X435917D01*
Y454145D01*
Y454187D01*
Y454229D01*
X435875D01*
Y454271D01*
Y454312D01*
X435834D01*
Y454354D01*
Y454395D01*
Y454437D01*
X435792D01*
Y454479D01*
Y454521D01*
X435750D01*
Y454562D01*
Y454604D01*
Y454645D01*
X435709D01*
Y454687D01*
Y454729D01*
X435667D01*
Y454771D01*
Y454812D01*
Y454854D01*
X435625D01*
Y454895D01*
Y454937D01*
Y454979D01*
X435584D01*
Y455021D01*
Y455062D01*
Y455104D01*
X435542D01*
Y455146D01*
Y455187D01*
X435500D01*
Y455229D01*
Y455270D01*
Y455312D01*
X435459D01*
Y455354D01*
Y455396D01*
Y455437D01*
X435417D01*
Y455479D01*
Y455520D01*
Y455562D01*
X435375D01*
Y455604D01*
Y455646D01*
Y455687D01*
X435334D01*
Y455729D01*
Y455770D01*
Y455812D01*
X435292D01*
Y455854D01*
Y455896D01*
Y455937D01*
X435250D01*
Y455979D01*
Y456020D01*
Y456062D01*
X435209D01*
Y456104D01*
Y456145D01*
X435167D01*
Y456187D01*
Y456229D01*
Y456270D01*
X435125D01*
Y456312D01*
Y456354D01*
Y456395D01*
X435084D01*
Y456437D01*
Y456479D01*
Y456520D01*
X435042D01*
Y456562D01*
Y456604D01*
Y456645D01*
X435000D01*
Y456687D01*
Y456729D01*
Y456770D01*
X434959D01*
Y456812D01*
Y456854D01*
Y456895D01*
X434917D01*
Y456937D01*
Y456979D01*
Y457020D01*
X434875D01*
Y457062D01*
Y457104D01*
Y457145D01*
X434834D01*
Y457187D01*
Y457229D01*
X434792D01*
Y457270D01*
Y457312D01*
Y457354D01*
X434750D01*
Y457395D01*
Y457437D01*
Y457479D01*
X434709D01*
Y457520D01*
Y457562D01*
Y457604D01*
X434667D01*
Y457645D01*
Y457687D01*
X434625D01*
Y457729D01*
Y457770D01*
Y457812D01*
X434584D01*
Y457854D01*
Y457895D01*
X434542D01*
Y457937D01*
Y457979D01*
Y458020D01*
X434500D01*
Y458062D01*
Y458104D01*
X434459D01*
Y458145D01*
Y458187D01*
X434417D01*
Y458229D01*
Y458270D01*
X434375D01*
Y458312D01*
Y458354D01*
X434334D01*
Y458395D01*
Y458437D01*
X434292D01*
Y458479D01*
X434250D01*
Y458520D01*
Y458562D01*
X434209D01*
Y458604D01*
X434167D01*
Y458645D01*
Y458687D01*
X434125D01*
Y458729D01*
X434084D01*
Y458770D01*
Y458812D01*
X434042D01*
Y458854D01*
X434000D01*
Y458895D01*
Y458937D01*
X433959D01*
Y458979D01*
X433917D01*
Y459020D01*
Y459062D01*
X433875D01*
Y459104D01*
X433834D01*
Y459145D01*
Y459187D01*
X433792D01*
Y459229D01*
Y459270D01*
Y459312D01*
X433750D01*
Y459354D01*
Y459395D01*
Y459437D01*
Y459479D01*
X433709D01*
Y459437D01*
Y459395D01*
X433667D01*
Y459354D01*
Y459312D01*
X433625D01*
Y459270D01*
Y459229D01*
X433584D01*
Y459187D01*
X433542D01*
Y459145D01*
Y459104D01*
X433500D01*
Y459062D01*
Y459020D01*
X433459D01*
Y458979D01*
Y458937D01*
X433417D01*
Y458895D01*
Y458854D01*
X433375D01*
Y458812D01*
Y458770D01*
X433334D01*
Y458729D01*
Y458687D01*
X433292D01*
Y458645D01*
Y458604D01*
X433250D01*
Y458562D01*
Y458520D01*
X433209D01*
Y458479D01*
Y458437D01*
X433167D01*
Y458395D01*
Y458354D01*
Y458312D01*
X433125D01*
Y458270D01*
Y458229D01*
X433084D01*
Y458187D01*
Y458145D01*
X433042D01*
Y458104D01*
Y458062D01*
X433000D01*
Y458020D01*
Y457979D01*
X432959D01*
Y457937D01*
Y457895D01*
X432917D01*
Y457854D01*
Y457812D01*
X432875D01*
Y457770D01*
Y457729D01*
X432834D01*
Y457687D01*
Y457645D01*
X432792D01*
Y457604D01*
Y457562D01*
X432750D01*
Y457520D01*
Y457479D01*
Y457437D01*
X432709D01*
Y457395D01*
Y457354D01*
X432667D01*
Y457312D01*
Y457270D01*
X432625D01*
Y457229D01*
Y457187D01*
X432584D01*
Y457145D01*
Y457104D01*
X432542D01*
Y457062D01*
Y457020D01*
X432500D01*
Y456979D01*
Y456937D01*
X432459D01*
Y456895D01*
Y456854D01*
Y456812D01*
X432417D01*
Y456770D01*
Y456729D01*
X432375D01*
Y456687D01*
Y456645D01*
X432334D01*
Y456604D01*
Y456562D01*
Y456520D01*
X432292D01*
Y456479D01*
Y456437D01*
X432250D01*
Y456395D01*
Y456354D01*
X432209D01*
Y456312D01*
Y456270D01*
X432167D01*
Y456229D01*
Y456187D01*
X432125D01*
Y456145D01*
Y456104D01*
X432084D01*
Y456062D01*
Y456020D01*
X432042D01*
Y455979D01*
Y455937D01*
X432000D01*
Y455896D01*
X431959D01*
Y455854D01*
Y455812D01*
X431917D01*
Y455770D01*
X431875D01*
Y455729D01*
Y455687D01*
X431834D01*
Y455646D01*
Y455604D01*
X431792D01*
Y455562D01*
X431750D01*
Y455520D01*
Y455479D01*
X431709D01*
Y455437D01*
X431667D01*
Y455396D01*
Y455354D01*
X431626D01*
Y455312D01*
X431584D01*
Y455270D01*
Y455229D01*
X431542D01*
Y455187D01*
X431500D01*
Y455146D01*
Y455104D01*
X431459D01*
Y455062D01*
X431417D01*
Y455021D01*
Y454979D01*
X431376D01*
Y454937D01*
X431334D01*
Y454895D01*
Y454854D01*
X431292D01*
Y454812D01*
Y454771D01*
X431250D01*
Y454729D01*
Y454687D01*
X431209D01*
Y454645D01*
Y454604D01*
X431167D01*
Y454562D01*
Y454521D01*
X431125D01*
Y454479D01*
Y454437D01*
Y454395D01*
X431084D01*
Y454354D01*
Y454312D01*
Y454271D01*
X431042D01*
Y454229D01*
Y454187D01*
X431001D01*
Y454145D01*
Y454104D01*
X430959D01*
Y454062D01*
Y454021D01*
X430917D01*
Y453979D01*
Y453937D01*
X430875D01*
Y453896D01*
Y453854D01*
X430834D01*
Y453812D01*
Y453770D01*
X430792D01*
Y453729D01*
Y453687D01*
X430751D01*
Y453646D01*
Y453604D01*
X430709D01*
Y453562D01*
Y453520D01*
Y453479D01*
X430667D01*
Y453437D01*
Y453396D01*
Y453354D01*
Y453312D01*
X430625D01*
Y453270D01*
Y453229D01*
Y453187D01*
X430584D01*
Y453146D01*
X430542D01*
Y453104D01*
X430501D01*
Y453062D01*
Y453020D01*
X430459D01*
Y452979D01*
Y452937D01*
Y452895D01*
Y452854D01*
X430417D01*
Y452812D01*
Y452771D01*
Y452729D01*
Y452687D01*
X430375D01*
Y452646D01*
Y452604D01*
Y452562D01*
Y452521D01*
Y452479D01*
Y452437D01*
Y452396D01*
Y452354D01*
Y452312D01*
Y452271D01*
Y452229D01*
Y452187D01*
Y452146D01*
Y452104D01*
X430334D01*
Y452062D01*
Y452021D01*
Y451979D01*
X430292D01*
Y451937D01*
Y451896D01*
Y451854D01*
X430251D01*
Y451812D01*
Y451771D01*
X430209D01*
Y451729D01*
Y451687D01*
X430167D01*
Y451646D01*
Y451604D01*
X430126D01*
Y451562D01*
X430417D01*
Y451521D01*
X431292D01*
Y451479D01*
X431459D01*
Y451437D01*
X431542D01*
Y451396D01*
X431667D01*
Y451354D01*
X431792D01*
Y451396D01*
X431750D01*
Y451437D01*
X431709D01*
Y451479D01*
X431667D01*
Y451521D01*
X431626D01*
Y451562D01*
X431709D01*
Y451604D01*
X431750D01*
Y451646D01*
Y451687D01*
Y451729D01*
X431792D01*
Y451771D01*
X431834D01*
Y451812D01*
X431917D01*
Y451854D01*
X431959D01*
Y451896D01*
Y451937D01*
X432000D01*
Y451979D01*
Y452021D01*
Y452062D01*
X432042D01*
Y452104D01*
Y452146D01*
Y452187D01*
X432084D01*
Y452229D01*
Y452271D01*
Y452312D01*
X432125D01*
Y452354D01*
X432167D01*
Y452396D01*
Y452437D01*
X432209D01*
Y452479D01*
X432250D01*
Y452521D01*
X432292D01*
Y452562D01*
X432334D01*
Y452604D01*
Y452646D01*
X432375D01*
Y452687D01*
X432417D01*
Y452729D01*
X432459D01*
Y452771D01*
Y452812D01*
X432500D01*
Y452854D01*
X432542D01*
Y452895D01*
X432584D01*
Y452937D01*
Y452979D01*
X432625D01*
Y453020D01*
X432667D01*
Y453062D01*
Y453104D01*
X432709D01*
Y453146D01*
X432750D01*
Y453187D01*
X432792D01*
Y453229D01*
Y453270D01*
X432834D01*
Y453312D01*
X432875D01*
Y453354D01*
Y453396D01*
X432917D01*
Y453437D01*
Y453479D01*
X432959D01*
Y453520D01*
X433000D01*
Y453562D01*
Y453604D01*
X433042D01*
Y453646D01*
Y453687D01*
X433084D01*
Y453729D01*
X433125D01*
Y453770D01*
Y453812D01*
X433167D01*
Y453854D01*
X433209D01*
Y453896D01*
Y453937D01*
X433250D01*
Y453979D01*
X433292D01*
Y454021D01*
X433334D01*
Y454062D01*
X433375D01*
Y454104D01*
Y454145D01*
X433417D01*
Y454187D01*
X433459D01*
Y454229D01*
X433500D01*
Y454271D01*
Y454312D01*
X433542D01*
Y454354D01*
X433584D01*
Y454395D01*
Y454437D01*
X433625D01*
Y454479D01*
Y454521D01*
X433667D01*
Y454562D01*
Y454604D01*
X433709D01*
Y454645D01*
X433750D01*
Y454604D01*
X433834D01*
Y454562D01*
X433875D01*
Y454521D01*
X433917D01*
Y454479D01*
X433959D01*
Y454437D01*
X434000D01*
Y454395D01*
X434084D01*
Y454354D01*
X434125D01*
Y454312D01*
X434167D01*
Y454271D01*
Y454229D01*
X434209D01*
Y454187D01*
Y454145D01*
Y454104D01*
X434167D01*
Y454062D01*
Y454021D01*
X434125D01*
Y453979D01*
Y453937D01*
Y453896D01*
X434084D01*
Y453854D01*
Y453812D01*
X434125D01*
Y453770D01*
X434167D01*
Y453729D01*
X434209D01*
Y453687D01*
X434250D01*
Y453646D01*
X434292D01*
Y453604D01*
X434334D01*
Y453562D01*
Y453520D01*
X434375D01*
Y453479D01*
X434417D01*
Y453437D01*
Y453396D01*
Y453354D01*
Y453312D01*
Y453270D01*
Y453229D01*
Y453187D01*
X434459D01*
Y453146D01*
Y453104D01*
Y453062D01*
X434500D01*
Y453020D01*
Y452979D01*
X434542D01*
Y452937D01*
Y452895D01*
X434584D01*
Y452854D01*
Y452812D01*
Y452771D01*
X434625D01*
Y452729D01*
Y452687D01*
Y452646D01*
Y452604D01*
X434667D01*
Y452562D01*
Y452521D01*
Y452479D01*
X434709D01*
Y452437D01*
Y452396D01*
X434750D01*
Y452354D01*
Y452312D01*
X434792D01*
Y452271D01*
Y452229D01*
X434834D01*
Y452187D01*
Y452146D01*
X434875D01*
Y452104D01*
Y452062D01*
X434917D01*
Y452021D01*
Y451979D01*
X434959D01*
Y451937D01*
Y451896D01*
Y451854D01*
X435000D01*
Y451812D01*
Y451771D01*
X435042D01*
Y451729D01*
Y451687D01*
Y451646D01*
X435084D01*
Y451604D01*
Y451562D01*
Y451521D01*
X435125D01*
Y451479D01*
Y451437D01*
Y451396D01*
X435167D01*
Y451354D01*
Y451312D01*
X435250D01*
Y451271D01*
X435459D01*
Y451229D01*
X435667D01*
Y451187D01*
X435834D01*
Y451146D01*
X436167D01*
Y451104D01*
X436792D01*
Y451062D01*
X436834D01*
Y451021D01*
X436875D01*
Y450979D01*
X436917D01*
Y450937D01*
X437000D01*
Y450896D01*
X437042D01*
Y450854D01*
X437084D01*
Y450812D01*
X437125D01*
Y450771D01*
X437167D01*
Y450729D01*
X437209D01*
Y450687D01*
X437250D01*
Y450646D01*
Y450604D01*
X437000D01*
Y450646D01*
X436667D01*
Y450687D01*
X436459D01*
Y450729D01*
X436250D01*
Y450771D01*
X435875D01*
Y450812D01*
X435292D01*
Y450854D01*
X435125D01*
Y450896D01*
X435084D01*
Y450937D01*
X435000D01*
Y450979D01*
X434959D01*
Y451021D01*
X434917D01*
Y451062D01*
X434875D01*
Y451104D01*
X434834D01*
Y451146D01*
X434792D01*
Y451187D01*
X434750D01*
Y451229D01*
X434709D01*
Y451271D01*
Y451312D01*
Y451354D01*
Y451396D01*
Y451437D01*
Y451479D01*
Y451521D01*
X434667D01*
Y451562D01*
Y451604D01*
Y451646D01*
Y451687D01*
Y451729D01*
X434625D01*
Y451771D01*
Y451812D01*
Y451854D01*
Y451896D01*
Y451937D01*
X434584D01*
Y451979D01*
Y452021D01*
Y452062D01*
Y452104D01*
X434542D01*
Y452146D01*
Y452187D01*
Y452229D01*
X434500D01*
Y452271D01*
Y452312D01*
X434459D01*
Y452354D01*
Y452396D01*
X434417D01*
Y452437D01*
Y452479D01*
Y452521D01*
X434375D01*
Y452562D01*
Y452604D01*
X434334D01*
Y452646D01*
Y452687D01*
X434292D01*
Y452729D01*
Y452771D01*
X434250D01*
Y452812D01*
Y452854D01*
X434209D01*
Y452895D01*
Y452937D01*
X434167D01*
Y452979D01*
Y453020D01*
Y453062D01*
X434125D01*
Y453104D01*
Y453146D01*
Y453187D01*
X434084D01*
Y453229D01*
Y453270D01*
Y453312D01*
Y453354D01*
X434042D01*
Y453396D01*
Y453437D01*
X434000D01*
Y453479D01*
X433959D01*
Y453520D01*
Y453562D01*
X433917D01*
Y453604D01*
X433875D01*
Y453646D01*
X433834D01*
Y453604D01*
X433792D01*
Y453562D01*
Y453520D01*
X433750D01*
Y453479D01*
X433709D01*
Y453437D01*
Y453396D01*
X433667D01*
Y453354D01*
X433625D01*
Y453312D01*
Y453270D01*
X433584D01*
Y453229D01*
Y453187D01*
X433542D01*
Y453146D01*
X433500D01*
Y453104D01*
Y453062D01*
X433459D01*
Y453020D01*
Y452979D01*
X433417D01*
Y452937D01*
X433375D01*
Y452895D01*
Y452854D01*
X433334D01*
Y452812D01*
X433292D01*
Y452771D01*
X433250D01*
Y452729D01*
Y452687D01*
X433209D01*
Y452646D01*
X433167D01*
Y452604D01*
Y452562D01*
X433125D01*
Y452521D01*
X433084D01*
Y452479D01*
Y452437D01*
X433042D01*
Y452396D01*
X433000D01*
Y452354D01*
Y452312D01*
X432959D01*
Y452271D01*
X432917D01*
Y452229D01*
Y452187D01*
X432875D01*
Y452146D01*
X432834D01*
Y452104D01*
X432792D01*
Y452062D01*
X432750D01*
Y452021D01*
X432709D01*
Y451979D01*
X432667D01*
Y451937D01*
Y451896D01*
X432625D01*
Y451854D01*
Y451812D01*
X432584D01*
Y451771D01*
Y451729D01*
Y451687D01*
X432542D01*
Y451646D01*
Y451604D01*
Y451562D01*
X432500D01*
Y451521D01*
Y451479D01*
X432459D01*
Y451437D01*
Y451396D01*
Y451354D01*
X432417D01*
Y451312D01*
Y451271D01*
X432375D01*
Y451229D01*
Y451187D01*
Y451146D01*
Y451104D01*
X432417D01*
Y451062D01*
Y451021D01*
X432459D01*
Y450979D01*
X432500D01*
Y450937D01*
X432542D01*
Y450896D01*
Y450854D01*
X432584D01*
Y450812D01*
X432625D01*
Y450771D01*
X432667D01*
Y450729D01*
Y450687D01*
X432709D01*
Y450646D01*
X432750D01*
Y450604D01*
X432792D01*
Y450562D01*
Y450521D01*
X432834D01*
Y450479D01*
X432875D01*
Y450437D01*
X432917D01*
Y450396D01*
Y450354D01*
X432959D01*
Y450312D01*
X433000D01*
Y450271D01*
X433042D01*
Y450229D01*
Y450187D01*
X433084D01*
Y450146D01*
X433125D01*
Y450104D01*
Y450062D01*
X433167D01*
Y450021D01*
X433209D01*
Y449979D01*
X433250D01*
Y449937D01*
Y449896D01*
X433292D01*
Y449854D01*
X433334D01*
Y449812D01*
Y449771D01*
X433375D01*
Y449729D01*
X433417D01*
Y449687D01*
X433459D01*
Y449646D01*
Y449604D01*
X433500D01*
Y449562D01*
X433542D01*
Y449521D01*
Y449479D01*
X433584D01*
Y449437D01*
X433625D01*
Y449396D01*
Y449354D01*
X433667D01*
Y449312D01*
X433709D01*
Y449271D01*
X433750D01*
Y449229D01*
Y449187D01*
X433792D01*
Y449146D01*
X433834D01*
Y449104D01*
Y449062D01*
X433875D01*
Y449021D01*
X433917D01*
Y448979D01*
Y448937D01*
X433959D01*
Y448896D01*
X434000D01*
Y448854D01*
Y448812D01*
X434042D01*
Y448771D01*
X434084D01*
Y448729D01*
Y448687D01*
X434125D01*
Y448646D01*
X434167D01*
Y448604D01*
Y448562D01*
X434209D01*
Y448521D01*
X434250D01*
Y448479D01*
Y448437D01*
X434292D01*
Y448396D01*
X434334D01*
Y448354D01*
X434375D01*
Y448312D01*
Y448271D01*
X434417D01*
Y448229D01*
X434459D01*
Y448187D01*
Y448146D01*
X434500D01*
Y448104D01*
X434542D01*
Y448062D01*
Y448021D01*
X434584D01*
Y447979D01*
X434625D01*
Y447937D01*
Y447896D01*
X434667D01*
Y447854D01*
Y447812D01*
X434709D01*
Y447771D01*
X434750D01*
Y447729D01*
Y447687D01*
X434792D01*
Y447646D01*
X434834D01*
Y447604D01*
Y447562D01*
X434875D01*
Y447521D01*
X434917D01*
Y447479D01*
Y447437D01*
X434959D01*
Y447396D01*
X435000D01*
Y447354D01*
Y447312D01*
X435042D01*
Y447271D01*
X435084D01*
Y447229D01*
Y447187D01*
X435125D01*
Y447146D01*
X435167D01*
Y447104D01*
Y447062D01*
X435209D01*
Y447021D01*
Y446979D01*
X435250D01*
Y446937D01*
X435292D01*
Y446896D01*
Y446854D01*
X435334D01*
Y446812D01*
X435375D01*
Y446771D01*
Y446729D01*
X435417D01*
Y446687D01*
Y446646D01*
X435459D01*
Y446604D01*
X435500D01*
Y446562D01*
Y446521D01*
X435542D01*
Y446479D01*
X435584D01*
Y446437D01*
Y446396D01*
X435625D01*
Y446354D01*
Y446312D01*
X435667D01*
Y446271D01*
X435709D01*
Y446229D01*
Y446187D01*
X435750D01*
Y446146D01*
Y446104D01*
X435792D01*
Y446062D01*
X435834D01*
Y446021D01*
Y445979D01*
X435875D01*
Y445937D01*
X435917D01*
Y445896D01*
Y445854D01*
X435959D01*
Y445812D01*
Y445771D01*
X436000D01*
Y445729D01*
X436042D01*
Y445687D01*
Y445646D01*
X436084D01*
Y445604D01*
Y445562D01*
X436125D01*
Y445521D01*
Y445479D01*
X436167D01*
Y445437D01*
Y445396D01*
Y445354D01*
X436209D01*
Y445312D01*
Y445271D01*
X436250D01*
Y445229D01*
Y445187D01*
Y445146D01*
X436292D01*
Y445104D01*
Y445062D01*
Y445021D01*
X436334D01*
Y444979D01*
Y444937D01*
Y444896D01*
X436375D01*
Y444854D01*
Y444812D01*
Y444771D01*
X436417D01*
Y444729D01*
Y444687D01*
X436459D01*
Y444646D01*
Y444604D01*
Y444562D01*
X436500D01*
Y444521D01*
Y444479D01*
X436542D01*
Y444437D01*
Y444396D01*
X436584D01*
Y444354D01*
Y444312D01*
Y444271D01*
X436625D01*
Y444229D01*
Y444187D01*
X436667D01*
Y444146D01*
Y444104D01*
X436709D01*
Y444062D01*
Y444021D01*
Y443979D01*
X436750D01*
Y443937D01*
Y443896D01*
X436792D01*
Y443854D01*
Y443812D01*
X436834D01*
Y443771D01*
Y443729D01*
X436875D01*
Y443687D01*
Y443646D01*
Y443604D01*
X436917D01*
Y443563D01*
Y443521D01*
X436959D01*
Y443479D01*
Y443437D01*
X437000D01*
Y443396D01*
Y443354D01*
Y443313D01*
X437042D01*
Y443271D01*
Y443229D01*
X437084D01*
Y443188D01*
Y443146D01*
X437125D01*
Y443104D01*
Y443062D01*
X437167D01*
Y443021D01*
Y442979D01*
Y442938D01*
X437209D01*
Y442896D01*
Y442854D01*
X437250D01*
Y442812D01*
Y442771D01*
X437292D01*
Y442729D01*
Y442688D01*
X437334D01*
Y442646D01*
Y442604D01*
Y442562D01*
X437375D01*
Y442521D01*
Y442479D01*
X437417D01*
Y442438D01*
Y442396D01*
X437459D01*
Y442354D01*
Y442312D01*
X437500D01*
Y442271D01*
Y442229D01*
Y442188D01*
X437542D01*
Y442146D01*
Y442104D01*
X437584D01*
Y442063D01*
Y442021D01*
X437625D01*
Y441979D01*
Y441937D01*
X437667D01*
Y441896D01*
Y441854D01*
X437709D01*
Y441813D01*
Y441771D01*
Y441729D01*
X437750D01*
Y441687D01*
Y441646D01*
X437792D01*
Y441604D01*
Y441563D01*
X437834D01*
Y441521D01*
Y441479D01*
X437875D01*
Y441437D01*
Y441396D01*
X437917D01*
Y441354D01*
Y441313D01*
X437959D01*
Y441271D01*
Y441229D01*
X438000D01*
Y441187D01*
Y441146D01*
X438042D01*
Y441104D01*
X438084D01*
Y441062D01*
Y441021D01*
X438125D01*
Y440979D01*
X438167D01*
Y440938D01*
Y440896D01*
Y440854D01*
X438209D01*
Y440812D01*
Y440771D01*
Y440729D01*
Y440688D01*
Y440646D01*
Y440604D01*
Y440562D01*
Y440521D01*
Y440479D01*
X438250D01*
Y440438D01*
Y440396D01*
Y440354D01*
Y440313D01*
X438292D01*
Y440271D01*
Y440229D01*
X438334D01*
Y440188D01*
X438417D01*
Y440146D01*
X438584D01*
Y440188D01*
X438792D01*
Y440146D01*
X438834D01*
Y440104D01*
X438917D01*
Y440063D01*
X438959D01*
Y440021D01*
X439042D01*
Y439979D01*
X439167D01*
Y439938D01*
X439417D01*
Y439896D01*
X439917D01*
Y439854D01*
X440834D01*
Y439813D01*
X441667D01*
Y439771D01*
X442500D01*
Y439729D01*
X444375D01*
Y439688D01*
X446208D01*
Y439646D01*
X446250D01*
Y439604D01*
X446333D01*
Y439563D01*
X446375D01*
Y439521D01*
X446458D01*
Y439479D01*
X446792D01*
Y439521D01*
X447167D01*
Y439563D01*
X447250D01*
Y439604D01*
X447208D01*
Y439646D01*
X447167D01*
Y439688D01*
X447125D01*
Y439729D01*
X447083D01*
Y439771D01*
X447375D01*
Y439813D01*
X447875D01*
Y439854D01*
X448333D01*
Y439896D01*
X448792D01*
Y439938D01*
X449250D01*
Y439979D01*
X449708D01*
Y440021D01*
X450250D01*
Y440063D01*
X451083D01*
Y440104D01*
X451750D01*
Y440146D01*
X452292D01*
Y440188D01*
X452916D01*
Y440229D01*
X453625D01*
Y440271D01*
X454167D01*
Y440313D01*
X454583D01*
Y440354D01*
X454916D01*
Y440396D01*
X455250D01*
Y440438D01*
X455542D01*
Y440479D01*
X455750D01*
Y440521D01*
X455917D01*
Y440562D01*
X456041D01*
Y440604D01*
X456208D01*
Y440646D01*
X456333D01*
Y440688D01*
X456458D01*
Y440729D01*
X456666D01*
Y440688D01*
X456750D01*
Y440646D01*
X456791D01*
Y440604D01*
X456833D01*
Y440562D01*
X456916D01*
Y440521D01*
X456958D01*
Y440479D01*
X457000D01*
Y440438D01*
X457041D01*
Y440396D01*
X457083D01*
Y440354D01*
X457125D01*
Y440313D01*
X457166D01*
Y440271D01*
Y440229D01*
X457041D01*
Y440271D01*
X456916D01*
Y440229D01*
X456791D01*
Y440188D01*
X456666D01*
Y440146D01*
X456500D01*
Y440104D01*
X456375D01*
Y440063D01*
X456208D01*
Y440021D01*
X456000D01*
Y439979D01*
X455917D01*
Y439938D01*
Y439896D01*
Y439854D01*
X455875D01*
Y439813D01*
X455708D01*
Y439771D01*
X455500D01*
Y439729D01*
X455333D01*
Y439688D01*
X455125D01*
Y439646D01*
X454958D01*
Y439604D01*
X454791D01*
Y439563D01*
X454625D01*
Y439521D01*
X454417D01*
Y439479D01*
X454208D01*
Y439438D01*
X453917D01*
Y439396D01*
X453500D01*
Y439354D01*
X452458D01*
Y439313D01*
X451875D01*
Y439271D01*
X451917D01*
Y439229D01*
Y439188D01*
X451958D01*
Y439146D01*
Y439104D01*
X452000D01*
Y439063D01*
X452042D01*
Y439021D01*
X452083D01*
Y438979D01*
X452125D01*
Y438938D01*
X452167D01*
Y438896D01*
X452208D01*
Y438854D01*
Y438813D01*
X452250D01*
Y438771D01*
X452292D01*
Y438729D01*
Y438688D01*
Y438646D01*
Y438604D01*
X452333D01*
Y438563D01*
Y438521D01*
X452375D01*
Y438479D01*
Y438438D01*
X452417D01*
Y438396D01*
Y438354D01*
X452458D01*
Y438313D01*
X452500D01*
Y438271D01*
Y438229D01*
X452542D01*
Y438188D01*
X452583D01*
Y438146D01*
Y438104D01*
X452625D01*
Y438063D01*
X452667D01*
Y438021D01*
X452708D01*
Y437979D01*
Y437938D01*
X452750D01*
Y437896D01*
X452792D01*
Y437854D01*
X452833D01*
Y437813D01*
X452875D01*
Y437771D01*
X452916D01*
Y437729D01*
Y437688D01*
X452958D01*
Y437646D01*
X453000D01*
Y437604D01*
X453042D01*
Y437563D01*
X453083D01*
Y437521D01*
X453125D01*
Y437479D01*
X453166D01*
Y437438D01*
X453208D01*
Y437396D01*
X453250D01*
Y437354D01*
X453292D01*
Y437313D01*
X453333D01*
Y437271D01*
X453375D01*
Y437229D01*
X453416D01*
Y437188D01*
X453458D01*
Y437146D01*
X453500D01*
Y437104D01*
Y437063D01*
X453542D01*
Y437021D01*
X453625D01*
Y436979D01*
X453666D01*
Y436938D01*
X453708D01*
Y436896D01*
X453750D01*
Y436854D01*
X453833D01*
Y436896D01*
X453875D01*
Y436854D01*
X453917D01*
Y436813D01*
X453958D01*
Y436771D01*
X454000D01*
Y436729D01*
X454083D01*
Y436688D01*
X454125D01*
Y436646D01*
X454167D01*
Y436604D01*
X454208D01*
Y436563D01*
X454250D01*
Y436521D01*
X454291D01*
Y436479D01*
Y436438D01*
X454333D01*
Y436396D01*
Y436354D01*
Y436313D01*
Y436271D01*
X454375D01*
Y436229D01*
X454417D01*
Y436188D01*
Y436146D01*
X454458D01*
Y436104D01*
X454417D01*
Y436063D01*
Y436021D01*
X454458D01*
Y435979D01*
Y435938D01*
X454500D01*
Y435896D01*
X454541D01*
Y435854D01*
Y435813D01*
X454583D01*
Y435771D01*
Y435729D01*
X454625D01*
Y435688D01*
Y435646D01*
X454667D01*
Y435604D01*
Y435563D01*
X454708D01*
Y435521D01*
X454750D01*
Y435479D01*
Y435438D01*
X454791D01*
Y435396D01*
X454833D01*
Y435354D01*
Y435313D01*
X454875D01*
Y435271D01*
X454916D01*
Y435229D01*
Y435188D01*
X454958D01*
Y435146D01*
X455000D01*
Y435104D01*
X455042D01*
Y435063D01*
Y435021D01*
X455083D01*
Y434979D01*
X455125D01*
Y434938D01*
X455166D01*
Y434896D01*
X455208D01*
Y434854D01*
Y434813D01*
X455250D01*
Y434771D01*
X455292D01*
Y434729D01*
X455333D01*
Y434688D01*
X455375D01*
Y434646D01*
Y434604D01*
X455416D01*
Y434563D01*
X455458D01*
Y434521D01*
X455500D01*
Y434479D01*
X455542D01*
Y434438D01*
X455583D01*
Y434396D01*
X455625D01*
Y434354D01*
X455542D01*
Y434396D01*
X455500D01*
Y434438D01*
X455458D01*
Y434396D01*
Y434354D01*
X455500D01*
Y434313D01*
X455542D01*
Y434271D01*
Y434229D01*
X455583D01*
Y434188D01*
X455625D01*
Y434146D01*
Y434104D01*
X455666D01*
Y434063D01*
X455708D01*
Y434021D01*
X455750D01*
Y433979D01*
Y433938D01*
X455792D01*
Y433896D01*
X455833D01*
Y433854D01*
Y433813D01*
X455875D01*
Y433771D01*
X455917D01*
Y433729D01*
X455958D01*
Y433688D01*
Y433646D01*
X456000D01*
Y433604D01*
X456041D01*
Y433563D01*
X456083D01*
Y433521D01*
Y433479D01*
X456125D01*
Y433438D01*
X456167D01*
Y433396D01*
X456208D01*
Y433354D01*
X456250D01*
Y433313D01*
X456291D01*
Y433271D01*
X456333D01*
Y433229D01*
X456375D01*
Y433188D01*
X456291D01*
Y433229D01*
X456250D01*
Y433271D01*
X456208D01*
Y433313D01*
X456167D01*
Y433354D01*
X456125D01*
Y433396D01*
X456083D01*
Y433438D01*
X456041D01*
Y433479D01*
X456000D01*
Y433521D01*
X455958D01*
Y433563D01*
X455917D01*
Y433604D01*
X455875D01*
Y433646D01*
X455833D01*
Y433688D01*
X455792D01*
Y433729D01*
X455750D01*
Y433771D01*
X455708D01*
Y433813D01*
X455666D01*
Y433854D01*
X455625D01*
Y433896D01*
X455583D01*
Y433938D01*
X455500D01*
Y433896D01*
X455542D01*
Y433854D01*
X455583D01*
Y433813D01*
Y433771D01*
X455625D01*
Y433729D01*
Y433688D01*
X455666D01*
Y433646D01*
Y433604D01*
X455708D01*
Y433563D01*
X455750D01*
Y433521D01*
Y433479D01*
X455792D01*
Y433438D01*
Y433396D01*
X455833D01*
Y433354D01*
X455875D01*
Y433313D01*
X455917D01*
Y433271D01*
Y433229D01*
X455958D01*
Y433188D01*
X456000D01*
Y433146D01*
Y433104D01*
X456041D01*
Y433063D01*
X456083D01*
Y433021D01*
X456125D01*
Y432979D01*
X456167D01*
Y432938D01*
Y432896D01*
X456208D01*
Y432854D01*
X456250D01*
Y432813D01*
X456291D01*
Y432771D01*
X456333D01*
Y432729D01*
Y432688D01*
X456375D01*
Y432646D01*
X456416D01*
Y432604D01*
X456458D01*
Y432563D01*
X456500D01*
Y432521D01*
X456541D01*
Y432479D01*
Y432438D01*
X456583D01*
Y432396D01*
X456625D01*
Y432354D01*
X456666D01*
Y432313D01*
X456708D01*
Y432271D01*
X456750D01*
Y432229D01*
X456791D01*
Y432188D01*
X456833D01*
Y432146D01*
Y432104D01*
X456875D01*
Y432063D01*
X456916D01*
Y432021D01*
X456958D01*
Y431979D01*
X457000D01*
Y431938D01*
X456916D01*
Y431979D01*
X456875D01*
Y432021D01*
X456833D01*
Y432063D01*
X456791D01*
Y432104D01*
X456750D01*
Y432146D01*
X456708D01*
Y432188D01*
X456666D01*
Y432229D01*
X456625D01*
Y432271D01*
X456583D01*
Y432313D01*
Y432354D01*
X456541D01*
Y432396D01*
X456500D01*
Y432438D01*
X456458D01*
Y432479D01*
X456416D01*
Y432521D01*
X456375D01*
Y432563D01*
X456333D01*
Y432604D01*
X456291D01*
Y432646D01*
Y432688D01*
X456250D01*
Y432729D01*
X456208D01*
Y432771D01*
X456167D01*
Y432813D01*
X456125D01*
Y432854D01*
X456083D01*
Y432896D01*
X456041D01*
Y432938D01*
X456000D01*
Y432979D01*
Y433021D01*
X455958D01*
Y433063D01*
X455917D01*
Y433104D01*
X455875D01*
Y433146D01*
X455833D01*
Y433188D01*
X455792D01*
Y433229D01*
X455750D01*
Y433271D01*
X455708D01*
Y433313D01*
X455666D01*
Y433354D01*
X455625D01*
Y433396D01*
X455583D01*
Y433438D01*
X455542D01*
Y433479D01*
X455500D01*
Y433521D01*
X455458D01*
Y433563D01*
X455416D01*
Y433604D01*
X455375D01*
Y433646D01*
X455333D01*
Y433688D01*
X455292D01*
Y433729D01*
X455208D01*
Y433771D01*
X455166D01*
Y433813D01*
X455125D01*
Y433854D01*
X455208D01*
Y433813D01*
X455250D01*
Y433771D01*
X455333D01*
Y433813D01*
X455292D01*
Y433854D01*
Y433896D01*
X455250D01*
Y433938D01*
X455208D01*
Y433979D01*
X455166D01*
Y434021D01*
Y434063D01*
X455125D01*
Y434104D01*
X455083D01*
Y434146D01*
X455042D01*
Y434188D01*
Y434229D01*
X455000D01*
Y434271D01*
X454958D01*
Y434313D01*
X454916D01*
Y434354D01*
X454875D01*
Y434396D01*
X454833D01*
Y434438D01*
Y434479D01*
X454791D01*
Y434521D01*
X454750D01*
Y434563D01*
X454708D01*
Y434604D01*
Y434646D01*
X454667D01*
Y434688D01*
X454625D01*
Y434729D01*
X454583D01*
Y434771D01*
X454541D01*
Y434813D01*
Y434854D01*
X454500D01*
Y434896D01*
X454458D01*
Y434938D01*
X454417D01*
Y434979D01*
X454375D01*
Y435021D01*
Y435063D01*
X454333D01*
Y435104D01*
X454291D01*
Y435146D01*
X454250D01*
Y435188D01*
Y435229D01*
X454208D01*
Y435271D01*
X454167D01*
Y435313D01*
X454125D01*
Y435354D01*
Y435396D01*
X454083D01*
Y435438D01*
X454041D01*
Y435479D01*
X454000D01*
Y435521D01*
Y435563D01*
X453958D01*
Y435604D01*
X453917D01*
Y435646D01*
X453875D01*
Y435688D01*
Y435729D01*
X453833D01*
Y435771D01*
X453792D01*
Y435813D01*
X453750D01*
Y435854D01*
Y435896D01*
X453708D01*
Y435938D01*
X453666D01*
Y435979D01*
X453625D01*
Y436021D01*
Y436063D01*
X453583D01*
Y436104D01*
X453542D01*
Y436146D01*
X453500D01*
Y436188D01*
X453458D01*
Y436229D01*
X453416D01*
Y436271D01*
X453333D01*
Y436313D01*
X453250D01*
Y436354D01*
X453125D01*
Y436313D01*
Y436271D01*
X453166D01*
Y436229D01*
X453208D01*
Y436188D01*
X453250D01*
Y436146D01*
X453292D01*
Y436104D01*
X453333D01*
Y436063D01*
X453375D01*
Y436021D01*
Y435979D01*
X453416D01*
Y435938D01*
X453458D01*
Y435896D01*
X453500D01*
Y435854D01*
Y435813D01*
X453542D01*
Y435771D01*
X453583D01*
Y435729D01*
X453625D01*
Y435688D01*
X453666D01*
Y435646D01*
X453708D01*
Y435604D01*
X453750D01*
Y435563D01*
X453792D01*
Y435521D01*
X453833D01*
Y435479D01*
X453875D01*
Y435438D01*
X453792D01*
Y435479D01*
X453708D01*
Y435521D01*
X453625D01*
Y435563D01*
X453500D01*
Y435604D01*
X453416D01*
Y435646D01*
X453292D01*
Y435688D01*
X453208D01*
Y435729D01*
X453083D01*
Y435771D01*
X452958D01*
Y435813D01*
X452875D01*
Y435854D01*
X452708D01*
Y435896D01*
X452583D01*
Y435938D01*
X452458D01*
Y435979D01*
X452333D01*
Y436021D01*
X452167D01*
Y436063D01*
X452000D01*
Y436104D01*
X451917D01*
Y436146D01*
X451833D01*
Y436188D01*
X451792D01*
Y436229D01*
X451750D01*
Y436271D01*
X451708D01*
Y436313D01*
X451625D01*
Y436354D01*
X451583D01*
Y436396D01*
X451542D01*
Y436438D01*
X451458D01*
Y436396D01*
Y436354D01*
X451417D01*
Y436396D01*
X451375D01*
Y436438D01*
X451333D01*
Y436479D01*
X451292D01*
Y436521D01*
X451250D01*
Y436563D01*
X451208D01*
Y436604D01*
X451167D01*
Y436646D01*
X451125D01*
Y436688D01*
X451083D01*
Y436729D01*
Y436771D01*
X451042D01*
Y436813D01*
X451000D01*
Y436854D01*
X450958D01*
Y436896D01*
X450917D01*
Y436938D01*
X450875D01*
Y436979D01*
X450833D01*
Y437021D01*
X450792D01*
Y437063D01*
X450750D01*
Y437104D01*
X450708D01*
Y437146D01*
X450625D01*
Y437188D01*
X450500D01*
Y437229D01*
X450292D01*
Y437271D01*
X450083D01*
Y437229D01*
Y437188D01*
X450125D01*
Y437146D01*
X450167D01*
Y437104D01*
Y437063D01*
X450208D01*
Y437021D01*
X450250D01*
Y436979D01*
X450292D01*
Y436938D01*
X450333D01*
Y436896D01*
X450250D01*
Y436854D01*
X450292D01*
Y436813D01*
Y436771D01*
X450333D01*
Y436729D01*
Y436688D01*
Y436646D01*
X450375D01*
Y436604D01*
Y436563D01*
X450417D01*
Y436521D01*
Y436479D01*
X450458D01*
Y436438D01*
Y436396D01*
X450500D01*
Y436354D01*
Y436313D01*
X450542D01*
Y436271D01*
Y436229D01*
X450583D01*
Y436188D01*
X450625D01*
Y436146D01*
Y436104D01*
X450667D01*
Y436063D01*
Y436021D01*
X450708D01*
Y435979D01*
X450750D01*
Y435938D01*
X450792D01*
Y435896D01*
Y435854D01*
X450833D01*
Y435813D01*
X450875D01*
Y435771D01*
X450917D01*
Y435729D01*
Y435688D01*
X450958D01*
Y435646D01*
X451000D01*
Y435604D01*
X451042D01*
Y435563D01*
X451083D01*
Y435521D01*
X451125D01*
Y435479D01*
X451167D01*
Y435438D01*
Y435396D01*
X451208D01*
Y435354D01*
X451250D01*
Y435313D01*
X451292D01*
Y435271D01*
X451333D01*
Y435229D01*
X451375D01*
Y435188D01*
X451417D01*
Y435146D01*
X451458D01*
Y435104D01*
X451500D01*
Y435063D01*
X451542D01*
Y435021D01*
X451583D01*
Y434979D01*
Y434938D01*
X451625D01*
Y434896D01*
X451667D01*
Y434854D01*
X451708D01*
Y434813D01*
X451750D01*
Y434771D01*
X451792D01*
Y434729D01*
X451833D01*
Y434688D01*
X451875D01*
Y434646D01*
Y434604D01*
X451917D01*
Y434563D01*
X451958D01*
Y434521D01*
X452000D01*
Y434479D01*
X452042D01*
Y434438D01*
X452083D01*
Y434396D01*
Y434354D01*
X452125D01*
Y434313D01*
X452167D01*
Y434271D01*
X452208D01*
Y434229D01*
X452250D01*
Y434188D01*
X452292D01*
Y434146D01*
X452333D01*
Y434104D01*
X452375D01*
Y434063D01*
X452417D01*
Y434021D01*
X452458D01*
Y433979D01*
X452500D01*
Y433938D01*
X452542D01*
Y433896D01*
X452583D01*
Y433854D01*
X452667D01*
Y433813D01*
X452708D01*
Y433771D01*
X452750D01*
Y433729D01*
X452708D01*
Y433688D01*
Y433646D01*
Y433604D01*
X452750D01*
Y433563D01*
X452792D01*
Y433521D01*
X452833D01*
Y433479D01*
X452875D01*
Y433438D01*
X452958D01*
Y433396D01*
X453000D01*
Y433354D01*
X453083D01*
Y433313D01*
X453125D01*
Y433271D01*
X453208D01*
Y433229D01*
X453292D01*
Y433271D01*
X453250D01*
Y433313D01*
X453208D01*
Y433354D01*
X453166D01*
Y433396D01*
X453125D01*
Y433438D01*
X453083D01*
Y433479D01*
X453042D01*
Y433521D01*
X452958D01*
Y433563D01*
X452916D01*
Y433604D01*
X453000D01*
Y433563D01*
X453042D01*
Y433521D01*
X453125D01*
Y433479D01*
X453208D01*
Y433438D01*
X453250D01*
Y433396D01*
X453333D01*
Y433354D01*
X453416D01*
Y433313D01*
X453458D01*
Y433271D01*
X453500D01*
Y433229D01*
X453583D01*
Y433188D01*
X453625D01*
Y433146D01*
X453666D01*
Y433104D01*
X453708D01*
Y433063D01*
X453792D01*
Y433021D01*
X453833D01*
Y432979D01*
X453750D01*
Y433021D01*
X453625D01*
Y432979D01*
X453666D01*
Y432938D01*
X453750D01*
Y432896D01*
X453792D01*
Y432854D01*
X453875D01*
Y432813D01*
X453917D01*
Y432771D01*
X453958D01*
Y432729D01*
X454000D01*
Y432688D01*
X453917D01*
Y432729D01*
X453875D01*
Y432771D01*
X453792D01*
Y432813D01*
X453708D01*
Y432854D01*
X453666D01*
Y432896D01*
X453583D01*
Y432938D01*
X453500D01*
Y432979D01*
X453458D01*
Y433021D01*
X453375D01*
Y433063D01*
X453292D01*
Y433104D01*
X453208D01*
Y433146D01*
X453125D01*
Y433188D01*
X453083D01*
Y433229D01*
X453000D01*
Y433271D01*
X452958D01*
Y433313D01*
X452916D01*
Y433354D01*
X452833D01*
Y433396D01*
X452792D01*
Y433438D01*
X452708D01*
Y433479D01*
X452667D01*
Y433521D01*
X452625D01*
Y433563D01*
X452542D01*
Y433604D01*
X452500D01*
Y433646D01*
X452417D01*
Y433688D01*
X452375D01*
Y433729D01*
X452292D01*
Y433771D01*
X452250D01*
Y433813D01*
X452167D01*
Y433854D01*
X452125D01*
Y433896D01*
X452083D01*
Y433938D01*
X452000D01*
Y433979D01*
X451958D01*
Y434021D01*
X451917D01*
Y434063D01*
X451833D01*
Y434104D01*
X451792D01*
Y434146D01*
X451875D01*
Y434104D01*
X451917D01*
Y434063D01*
X452000D01*
Y434021D01*
X452042D01*
Y433979D01*
X452125D01*
Y433938D01*
X452167D01*
Y433896D01*
X452250D01*
Y433854D01*
X452292D01*
Y433813D01*
X452375D01*
Y433854D01*
Y433896D01*
X452333D01*
Y433938D01*
Y433979D01*
X452292D01*
Y434021D01*
X452250D01*
Y434063D01*
X452208D01*
Y434104D01*
X452167D01*
Y434146D01*
X452125D01*
Y434188D01*
X452083D01*
Y434229D01*
X452042D01*
Y434271D01*
X452000D01*
Y434313D01*
X451917D01*
Y434354D01*
X451875D01*
Y434396D01*
X451833D01*
Y434438D01*
X451792D01*
Y434479D01*
X451750D01*
Y434521D01*
X451708D01*
Y434563D01*
X451667D01*
Y434604D01*
X451625D01*
Y434646D01*
X451583D01*
Y434688D01*
X451500D01*
Y434729D01*
X451458D01*
Y434771D01*
X451417D01*
Y434813D01*
X451375D01*
Y434854D01*
X451333D01*
Y434896D01*
X451292D01*
Y434938D01*
X451250D01*
Y434979D01*
X451208D01*
Y435021D01*
X451167D01*
Y435063D01*
X451125D01*
Y435104D01*
X451083D01*
Y435146D01*
X451042D01*
Y435188D01*
X450958D01*
Y435229D01*
X450917D01*
Y435271D01*
X450875D01*
Y435313D01*
X450833D01*
Y435354D01*
X450917D01*
Y435313D01*
X450958D01*
Y435271D01*
X451000D01*
Y435229D01*
X451042D01*
Y435271D01*
Y435313D01*
X451000D01*
Y435354D01*
X450958D01*
Y435396D01*
Y435438D01*
X450917D01*
Y435479D01*
X450875D01*
Y435521D01*
Y435563D01*
X450833D01*
Y435604D01*
X450792D01*
Y435646D01*
Y435688D01*
X450750D01*
Y435729D01*
X450708D01*
Y435771D01*
Y435813D01*
X450667D01*
Y435854D01*
X450625D01*
Y435896D01*
X450583D01*
Y435938D01*
X450542D01*
Y435979D01*
Y436021D01*
X450500D01*
Y436063D01*
X450458D01*
Y436104D01*
X450417D01*
Y436146D01*
X450375D01*
Y436188D01*
Y436229D01*
X450333D01*
Y436271D01*
X450292D01*
Y436313D01*
X450250D01*
Y436354D01*
X450208D01*
Y436396D01*
X450167D01*
Y436438D01*
Y436479D01*
X450125D01*
Y436521D01*
X450083D01*
Y436563D01*
X450042D01*
Y436604D01*
X450000D01*
Y436646D01*
X449958D01*
Y436688D01*
X449917D01*
Y436729D01*
X449875D01*
Y436771D01*
X449833D01*
Y436813D01*
X449792D01*
Y436854D01*
Y436896D01*
X449833D01*
Y436854D01*
X449875D01*
Y436813D01*
X449917D01*
Y436771D01*
X449958D01*
Y436813D01*
Y436854D01*
Y436896D01*
X449917D01*
Y436938D01*
Y436979D01*
Y437021D01*
X449875D01*
Y437063D01*
Y437104D01*
X449833D01*
Y437146D01*
Y437188D01*
X449792D01*
Y437229D01*
Y437271D01*
X449750D01*
Y437313D01*
X449708D01*
Y437354D01*
X449583D01*
Y437396D01*
X449500D01*
Y437438D01*
X449458D01*
Y437479D01*
X449375D01*
Y437521D01*
X449333D01*
Y437563D01*
X449292D01*
Y437604D01*
X449250D01*
Y437646D01*
X449167D01*
Y437604D01*
Y437563D01*
X449208D01*
Y437521D01*
X449250D01*
Y437479D01*
X449292D01*
Y437438D01*
X449333D01*
Y437396D01*
X449375D01*
Y437354D01*
X449417D01*
Y437313D01*
X449458D01*
Y437271D01*
X449500D01*
Y437229D01*
X449542D01*
Y437188D01*
X449583D01*
Y437146D01*
X449625D01*
Y437104D01*
Y437063D01*
X449583D01*
Y437104D01*
X449542D01*
Y437146D01*
X449500D01*
Y437188D01*
X449458D01*
Y437229D01*
X449417D01*
Y437271D01*
X449375D01*
Y437313D01*
X449333D01*
Y437354D01*
X449292D01*
Y437396D01*
X449250D01*
Y437438D01*
X449208D01*
Y437479D01*
X449125D01*
Y437521D01*
X449042D01*
Y437479D01*
Y437438D01*
X449083D01*
Y437396D01*
Y437354D01*
X449125D01*
Y437313D01*
X449167D01*
Y437271D01*
Y437229D01*
X449208D01*
Y437188D01*
X449250D01*
Y437146D01*
Y437104D01*
X449292D01*
Y437063D01*
X449333D01*
Y437021D01*
Y436979D01*
X449375D01*
Y436938D01*
X449417D01*
Y436896D01*
Y436854D01*
X449458D01*
Y436813D01*
Y436771D01*
X449500D01*
Y436729D01*
X449542D01*
Y436688D01*
X449583D01*
Y436646D01*
Y436604D01*
X449625D01*
Y436563D01*
X449667D01*
Y436521D01*
X449708D01*
Y436479D01*
X449750D01*
Y436438D01*
Y436396D01*
X449708D01*
Y436438D01*
X449667D01*
Y436479D01*
X449625D01*
Y436521D01*
X449583D01*
Y436563D01*
X449542D01*
Y436604D01*
X449500D01*
Y436646D01*
X449458D01*
Y436688D01*
X449417D01*
Y436646D01*
Y436604D01*
Y436563D01*
X449458D01*
Y436521D01*
X449500D01*
Y436479D01*
X449542D01*
Y436438D01*
Y436396D01*
X449583D01*
Y436354D01*
X449625D01*
Y436313D01*
X449667D01*
Y436271D01*
Y436229D01*
X449708D01*
Y436188D01*
X449750D01*
Y436146D01*
X449792D01*
Y436104D01*
X449833D01*
Y436063D01*
Y436021D01*
X449875D01*
Y435979D01*
X449917D01*
Y435938D01*
X449958D01*
Y435896D01*
X450000D01*
Y435854D01*
Y435813D01*
X450042D01*
Y435771D01*
X450083D01*
Y435729D01*
X450125D01*
Y435688D01*
X450167D01*
Y435646D01*
Y435604D01*
X450208D01*
Y435563D01*
X450250D01*
Y435521D01*
X450292D01*
Y435479D01*
X450333D01*
Y435438D01*
X450375D01*
Y435396D01*
X450417D01*
Y435354D01*
X450458D01*
Y435313D01*
Y435271D01*
X450417D01*
Y435313D01*
X450375D01*
Y435354D01*
X450333D01*
Y435396D01*
X450292D01*
Y435438D01*
X450250D01*
Y435479D01*
X450208D01*
Y435521D01*
X450167D01*
Y435563D01*
X450125D01*
Y435604D01*
X450083D01*
Y435646D01*
X450042D01*
Y435688D01*
X450000D01*
Y435729D01*
X449958D01*
Y435771D01*
X449917D01*
Y435813D01*
Y435854D01*
X449875D01*
Y435896D01*
X449833D01*
Y435938D01*
X449792D01*
Y435979D01*
X449750D01*
Y436021D01*
X449708D01*
Y436063D01*
Y436104D01*
X449667D01*
Y436146D01*
X449625D01*
Y436188D01*
X449583D01*
Y436229D01*
X449542D01*
Y436271D01*
X449500D01*
Y436313D01*
Y436354D01*
X449458D01*
Y436396D01*
X449417D01*
Y436438D01*
X449375D01*
Y436479D01*
X449333D01*
Y436521D01*
Y436563D01*
X449292D01*
Y436604D01*
X449250D01*
Y436646D01*
X449208D01*
Y436688D01*
Y436729D01*
X449167D01*
Y436771D01*
X449125D01*
Y436813D01*
X449083D01*
Y436854D01*
Y436896D01*
X449042D01*
Y436938D01*
X449000D01*
Y436979D01*
X448958D01*
Y437021D01*
Y437063D01*
X448917D01*
Y437104D01*
X448875D01*
Y437146D01*
X448833D01*
Y437188D01*
Y437229D01*
X448792D01*
Y437271D01*
X448750D01*
Y437313D01*
Y437354D01*
X448708D01*
Y437396D01*
X448667D01*
Y437438D01*
X448625D01*
Y437479D01*
Y437521D01*
X448583D01*
Y437563D01*
X448542D01*
Y437604D01*
Y437646D01*
X448500D01*
Y437688D01*
X448458D01*
Y437729D01*
Y437771D01*
X448417D01*
Y437813D01*
X448375D01*
Y437854D01*
Y437896D01*
X448333D01*
Y437938D01*
X448292D01*
Y437979D01*
X448250D01*
Y438021D01*
Y438063D01*
X448208D01*
Y438104D01*
X448167D01*
Y438146D01*
X448125D01*
Y438188D01*
Y438229D01*
X448083D01*
Y438271D01*
X448042D01*
Y438313D01*
Y438354D01*
X448000D01*
Y438396D01*
X447958D01*
Y438438D01*
Y438479D01*
X447917D01*
Y438521D01*
X447875D01*
Y438563D01*
Y438604D01*
X447833D01*
Y438646D01*
Y438688D01*
X447792D01*
Y438729D01*
X447750D01*
Y438771D01*
Y438813D01*
X447708D01*
Y438854D01*
Y438896D01*
X447667D01*
Y438938D01*
Y438979D01*
X447625D01*
Y439021D01*
X447167D01*
Y438979D01*
X446333D01*
Y438938D01*
X445167D01*
Y438896D01*
X443459D01*
Y438854D01*
X441459D01*
Y438896D01*
X440917D01*
Y438938D01*
X440625D01*
Y438979D01*
X440334D01*
Y439021D01*
X439709D01*
Y439063D01*
X439500D01*
Y439104D01*
X439375D01*
Y439146D01*
X439292D01*
Y439188D01*
X438917D01*
Y439229D01*
X438750D01*
Y439188D01*
X438667D01*
Y439229D01*
X438584D01*
Y439271D01*
X438459D01*
Y439313D01*
X438084D01*
Y439354D01*
X437917D01*
Y439396D01*
X437834D01*
Y439438D01*
X437750D01*
Y439479D01*
X437709D01*
Y439521D01*
X437667D01*
Y439563D01*
X437625D01*
Y439604D01*
X437584D01*
Y439646D01*
X437542D01*
Y439688D01*
X437500D01*
Y439729D01*
X437459D01*
Y439771D01*
X437667D01*
Y439813D01*
Y439854D01*
Y439896D01*
Y439938D01*
Y439979D01*
Y440021D01*
Y440063D01*
Y440104D01*
X437625D01*
Y440146D01*
Y440188D01*
Y440229D01*
X437584D01*
Y440271D01*
Y440313D01*
Y440354D01*
Y440396D01*
Y440438D01*
X437542D01*
Y440479D01*
X437500D01*
Y440521D01*
Y440562D01*
X437459D01*
Y440604D01*
Y440646D01*
X437417D01*
Y440688D01*
Y440729D01*
Y440771D01*
X437375D01*
Y440812D01*
Y440854D01*
Y440896D01*
X437334D01*
Y440938D01*
Y440979D01*
Y441021D01*
Y441062D01*
X437292D01*
Y441104D01*
Y441146D01*
Y441187D01*
X437250D01*
Y441229D01*
Y441271D01*
X437209D01*
Y441313D01*
Y441354D01*
X437167D01*
Y441396D01*
Y441437D01*
Y441479D01*
X437125D01*
Y441521D01*
Y441563D01*
X437084D01*
Y441604D01*
Y441646D01*
Y441687D01*
X437042D01*
Y441729D01*
Y441771D01*
Y441813D01*
X437000D01*
Y441854D01*
Y441896D01*
Y441937D01*
Y441979D01*
X436959D01*
Y442021D01*
Y442063D01*
Y442104D01*
Y442146D01*
X436917D01*
Y442188D01*
Y442229D01*
Y442271D01*
Y442312D01*
X436875D01*
Y442354D01*
Y442396D01*
Y442438D01*
Y442479D01*
X436834D01*
Y442521D01*
Y442562D01*
Y442604D01*
Y442646D01*
X436792D01*
Y442688D01*
Y442729D01*
Y442771D01*
X436750D01*
Y442812D01*
Y442854D01*
Y442896D01*
Y442938D01*
Y442979D01*
X436709D01*
Y443021D01*
Y443062D01*
Y443104D01*
X436667D01*
Y443146D01*
Y443188D01*
X436625D01*
Y443229D01*
Y443271D01*
Y443313D01*
X436584D01*
Y443354D01*
Y443396D01*
X436542D01*
Y443437D01*
Y443479D01*
Y443521D01*
X436500D01*
Y443563D01*
Y443604D01*
X436459D01*
Y443646D01*
Y443687D01*
Y443729D01*
Y443771D01*
X436417D01*
Y443812D01*
Y443854D01*
Y443896D01*
X436375D01*
Y443937D01*
Y443979D01*
Y444021D01*
X436334D01*
Y444062D01*
Y444104D01*
X436292D01*
Y444146D01*
Y444187D01*
Y444229D01*
X436250D01*
Y444271D01*
Y444312D01*
X436209D01*
Y444354D01*
Y444396D01*
X436167D01*
Y444437D01*
Y444479D01*
X436125D01*
Y444521D01*
Y444562D01*
X436084D01*
Y444604D01*
Y444646D01*
X436042D01*
Y444687D01*
Y444729D01*
X436000D01*
Y444771D01*
Y444812D01*
X435959D01*
Y444854D01*
Y444896D01*
X435917D01*
Y444937D01*
Y444979D01*
X435875D01*
Y445021D01*
Y445062D01*
X435834D01*
Y445104D01*
Y445146D01*
Y445187D01*
Y445229D01*
X435792D01*
Y445271D01*
Y445312D01*
X435750D01*
Y445354D01*
Y445396D01*
X435709D01*
Y445437D01*
Y445479D01*
X435667D01*
Y445521D01*
Y445562D01*
X435625D01*
Y445604D01*
Y445646D01*
X435584D01*
Y445687D01*
Y445729D01*
X435542D01*
Y445771D01*
X435500D01*
Y445812D01*
Y445854D01*
X435459D01*
Y445896D01*
X435417D01*
Y445937D01*
Y445979D01*
Y446021D01*
Y446062D01*
X435375D01*
Y446104D01*
Y446146D01*
Y446187D01*
X435334D01*
Y446229D01*
Y446271D01*
X435292D01*
Y446312D01*
Y446354D01*
X435250D01*
Y446396D01*
Y446437D01*
X435209D01*
Y446479D01*
X435167D01*
Y446521D01*
Y446562D01*
X435125D01*
Y446604D01*
X435084D01*
Y446646D01*
X435042D01*
Y446687D01*
Y446729D01*
X435000D01*
Y446771D01*
X434959D01*
Y446812D01*
Y446854D01*
X434917D01*
Y446896D01*
Y446937D01*
X434875D01*
Y446979D01*
Y447021D01*
X434834D01*
Y447062D01*
X434792D01*
Y447104D01*
Y447146D01*
X434750D01*
Y447187D01*
X434709D01*
Y447229D01*
X434667D01*
Y447271D01*
Y447312D01*
X434625D01*
Y447354D01*
X434584D01*
Y447396D01*
X434542D01*
Y447437D01*
X434500D01*
Y447479D01*
Y447521D01*
X434459D01*
Y447562D01*
X434417D01*
Y447604D01*
X434375D01*
Y447646D01*
Y447687D01*
X434334D01*
Y447729D01*
X434292D01*
Y447771D01*
Y447812D01*
X434250D01*
Y447854D01*
X434209D01*
Y447896D01*
Y447937D01*
X434167D01*
Y447979D01*
Y448021D01*
X434125D01*
Y448062D01*
X434084D01*
Y448104D01*
Y448146D01*
X434042D01*
Y448187D01*
Y448229D01*
X434000D01*
Y448271D01*
X433959D01*
Y448312D01*
Y448354D01*
X433917D01*
Y448396D01*
Y448437D01*
X433875D01*
Y448479D01*
Y448521D01*
X433834D01*
Y448562D01*
X433792D01*
Y448604D01*
Y448646D01*
X433750D01*
Y448687D01*
Y448729D01*
X433709D01*
Y448771D01*
X433667D01*
Y448812D01*
Y448854D01*
X433625D01*
Y448896D01*
X433584D01*
Y448937D01*
X433542D01*
Y448979D01*
X433500D01*
Y449021D01*
X433459D01*
Y449062D01*
Y449104D01*
X433417D01*
Y449146D01*
X433375D01*
Y449187D01*
X433334D01*
Y449229D01*
Y449271D01*
X433292D01*
Y449312D01*
X433250D01*
Y449354D01*
Y449396D01*
X433209D01*
Y449437D01*
X433167D01*
Y449479D01*
Y449521D01*
X433125D01*
Y449562D01*
X433084D01*
Y449604D01*
Y449646D01*
X433042D01*
Y449687D01*
X433000D01*
Y449729D01*
Y449771D01*
X432959D01*
Y449812D01*
Y449854D01*
X432917D01*
Y449896D01*
X432875D01*
Y449937D01*
Y449979D01*
X432834D01*
Y450021D01*
X432792D01*
Y450062D01*
X432750D01*
Y450104D01*
X432709D01*
Y450146D01*
X432667D01*
Y450187D01*
Y450229D01*
X432625D01*
Y450271D01*
X432584D01*
Y450312D01*
X432542D01*
Y450354D01*
X432500D01*
Y450396D01*
X432459D01*
Y450437D01*
X432417D01*
Y450479D01*
Y450521D01*
X432375D01*
Y450562D01*
X432334D01*
Y450604D01*
X432292D01*
Y450646D01*
X432250D01*
Y450687D01*
X432209D01*
Y450729D01*
X432167D01*
Y450771D01*
Y450812D01*
X432125D01*
Y450854D01*
X432084D01*
Y450896D01*
X432042D01*
Y450937D01*
X432000D01*
Y450979D01*
X431959D01*
Y451021D01*
Y451062D01*
X431792D01*
Y451104D01*
X431167D01*
Y451146D01*
X429709D01*
Y451187D01*
X429292D01*
Y451229D01*
Y451271D01*
Y451312D01*
X429334D01*
Y451354D01*
Y451396D01*
Y451437D01*
X429376D01*
Y451479D01*
Y451521D01*
X429417D01*
Y451562D01*
Y451604D01*
Y451646D01*
X429459D01*
Y451687D01*
Y451729D01*
X429500D01*
Y451771D01*
Y451812D01*
X429542D01*
Y451854D01*
Y451896D01*
X429584D01*
Y451937D01*
Y451979D01*
X429626D01*
Y452021D01*
Y452062D01*
Y452104D01*
X429667D01*
Y452146D01*
Y452187D01*
X429709D01*
Y452229D01*
Y452271D01*
X429750D01*
Y452312D01*
Y452354D01*
X429792D01*
Y452396D01*
Y452437D01*
X429834D01*
Y452479D01*
Y452521D01*
Y452562D01*
Y452604D01*
Y452646D01*
Y452687D01*
X429876D01*
Y452729D01*
Y452771D01*
Y452812D01*
Y452854D01*
Y452895D01*
Y452937D01*
Y452979D01*
Y453020D01*
Y453062D01*
Y453104D01*
Y453146D01*
X429917D01*
Y453187D01*
Y453229D01*
Y453270D01*
Y453312D01*
Y453354D01*
X429959D01*
Y453396D01*
Y453437D01*
Y453479D01*
X430000D01*
Y453520D01*
Y453562D01*
X430084D01*
Y453604D01*
Y453646D01*
Y453687D01*
X430042D01*
Y453729D01*
Y453770D01*
X430000D01*
Y453812D01*
X429959D01*
Y453854D01*
X429917D01*
Y453896D01*
X429876D01*
Y453937D01*
X429834D01*
Y453979D01*
Y454021D01*
X429792D01*
Y454062D01*
Y454104D01*
X429750D01*
Y454145D01*
Y454187D01*
Y454229D01*
Y454271D01*
X429709D01*
Y454312D01*
Y454354D01*
Y454395D01*
X429667D01*
Y454437D01*
Y454479D01*
X429626D01*
Y454521D01*
Y454562D01*
Y454604D01*
X429584D01*
Y454645D01*
Y454687D01*
X429542D01*
Y454729D01*
Y454771D01*
Y454812D01*
X429500D01*
Y454854D01*
Y454895D01*
X429459D01*
Y454937D01*
Y454979D01*
X429417D01*
Y455021D01*
Y455062D01*
X429376D01*
Y455104D01*
X429334D01*
Y455146D01*
X429292D01*
Y455187D01*
Y455229D01*
X429250D01*
Y455270D01*
X429209D01*
Y455312D01*
Y455354D01*
X429167D01*
Y455396D01*
Y455437D01*
X429125D01*
Y455479D01*
Y455520D01*
X429084D01*
Y455562D01*
X429042D01*
Y455604D01*
Y455646D01*
X429001D01*
Y455687D01*
Y455729D01*
X428959D01*
Y455770D01*
Y455812D01*
X428917D01*
Y455854D01*
X428875D01*
Y455896D01*
Y455937D01*
X428834D01*
Y455979D01*
X428792D01*
Y456020D01*
Y456062D01*
X428751D01*
Y456104D01*
Y456145D01*
Y456187D01*
Y456229D01*
X428709D01*
Y456270D01*
Y456312D01*
Y456354D01*
X428667D01*
Y456395D01*
Y456437D01*
Y456479D01*
X428625D01*
Y456520D01*
Y456562D01*
X428584D01*
Y456604D01*
Y456645D01*
X428542D01*
Y456687D01*
Y456729D01*
X428501D01*
Y456770D01*
X428459D01*
Y456812D01*
Y456854D01*
X428417D01*
Y456895D01*
Y456937D01*
X428375D01*
Y456979D01*
Y457020D01*
X428334D01*
Y457062D01*
Y457104D01*
X428292D01*
Y457145D01*
X428251D01*
Y457187D01*
Y457229D01*
X428209D01*
Y457270D01*
Y457312D01*
X428167D01*
Y457354D01*
Y457395D01*
X428125D01*
Y457437D01*
Y457479D01*
X428084D01*
Y457520D01*
Y457562D01*
X428042D01*
Y457604D01*
Y457645D01*
X428000D01*
Y457687D01*
Y457729D01*
X427959D01*
Y457770D01*
Y457812D01*
X427917D01*
Y457854D01*
Y457895D01*
Y457937D01*
X427876D01*
Y457979D01*
Y458020D01*
X427834D01*
Y458062D01*
Y458104D01*
X427792D01*
Y458145D01*
Y458187D01*
X427751D01*
Y458229D01*
Y458270D01*
X427709D01*
Y458312D01*
Y458354D01*
Y458395D01*
X427667D01*
Y458437D01*
Y458479D01*
X427626D01*
Y458520D01*
Y458562D01*
X427584D01*
Y458604D01*
Y458645D01*
X427542D01*
Y458687D01*
Y458729D01*
Y458770D01*
X427501D01*
Y458812D01*
Y458854D01*
X427459D01*
Y458895D01*
Y458937D01*
Y458979D01*
X427417D01*
Y459020D01*
Y459062D01*
Y459104D01*
X427376D01*
Y459145D01*
Y459187D01*
X427334D01*
Y459229D01*
Y459270D01*
Y459312D01*
X427292D01*
Y459354D01*
Y459395D01*
Y459437D01*
X427251D01*
Y459479D01*
Y459520D01*
Y459562D01*
X427209D01*
Y459604D01*
Y459645D01*
Y459687D01*
X427167D01*
Y459729D01*
Y459770D01*
Y459812D01*
X427126D01*
Y459854D01*
Y459895D01*
X427084D01*
Y459937D01*
Y459979D01*
Y460020D01*
X427042D01*
Y460062D01*
Y460104D01*
Y460145D01*
X427001D01*
Y460187D01*
Y460229D01*
X426959D01*
Y460270D01*
Y460312D01*
Y460354D01*
X426917D01*
Y460395D01*
Y460437D01*
X426876D01*
Y460479D01*
Y460520D01*
Y460562D01*
X426834D01*
Y460604D01*
Y460645D01*
X426792D01*
Y460687D01*
Y460729D01*
Y460770D01*
X426751D01*
Y460812D01*
Y460854D01*
Y460895D01*
X426709D01*
Y460937D01*
Y460979D01*
Y461020D01*
Y461062D01*
Y461104D01*
X426667D01*
Y461145D01*
Y461187D01*
Y461229D01*
Y461270D01*
Y461312D01*
Y461354D01*
Y461395D01*
Y461437D01*
X426626D01*
Y461479D01*
Y461520D01*
Y461562D01*
Y461604D01*
Y461645D01*
Y461687D01*
X426584D01*
Y461729D01*
Y461770D01*
X426542D01*
Y461812D01*
X426501D01*
Y461854D01*
X426626D01*
Y461895D01*
X427251D01*
Y461937D01*
X427709D01*
Y461979D01*
X427917D01*
Y462020D01*
X428167D01*
Y462062D01*
X428375D01*
Y462104D01*
X428459D01*
Y462145D01*
X428751D01*
Y462187D01*
X429084D01*
Y462229D01*
X429417D01*
Y462270D01*
X429709D01*
Y462312D01*
X430000D01*
Y462354D01*
X430292D01*
Y462395D01*
X430625D01*
Y462437D01*
X430834D01*
Y462479D01*
X431167D01*
Y462520D01*
X431584D01*
Y462562D01*
X432042D01*
Y462604D01*
X432334D01*
Y462645D01*
X432917D01*
Y462687D01*
X433917D01*
Y462729D01*
X434917D01*
Y462770D01*
X435250D01*
Y462812D01*
X435292D01*
Y462854D01*
X438542D01*
Y462812D01*
X440334D01*
Y462770D01*
X440500D01*
Y462812D01*
X440542D01*
Y462854D01*
X440500D01*
Y462895D01*
Y462937D01*
X440458D01*
Y462979D01*
Y463020D01*
X440417D01*
Y463062D01*
X440375D01*
Y463104D01*
Y463145D01*
X440334D01*
Y463187D01*
Y463229D01*
X440292D01*
Y463270D01*
Y463312D01*
X440250D01*
Y463354D01*
Y463395D01*
X440209D01*
Y463437D01*
Y463479D01*
X440167D01*
Y463520D01*
Y463562D01*
X440125D01*
Y463604D01*
Y463645D01*
X440084D01*
Y463687D01*
Y463729D01*
X440042D01*
Y463770D01*
Y463812D01*
X440000D01*
Y463854D01*
Y463895D01*
X439959D01*
Y463937D01*
X439375D01*
Y463979D01*
X439250D01*
Y464020D01*
X439209D01*
Y464062D01*
X439167D01*
Y464104D01*
X439125D01*
Y464145D01*
X439084D01*
Y464187D01*
X439042D01*
Y464229D01*
Y464270D01*
Y464312D01*
Y464354D01*
Y464395D01*
Y464437D01*
Y464479D01*
Y464520D01*
Y464562D01*
Y464604D01*
Y464645D01*
Y464687D01*
Y464729D01*
Y464770D01*
Y464812D01*
Y464853D01*
Y464895D01*
Y464937D01*
Y464979D01*
Y465020D01*
Y465062D01*
Y465103D01*
Y465145D01*
Y465187D01*
X439084D01*
Y465229D01*
Y465270D01*
Y465312D01*
Y465353D01*
X439125D01*
Y465395D01*
Y465437D01*
X439167D01*
Y465479D01*
Y465520D01*
Y465562D01*
X439209D01*
Y465603D01*
Y465645D01*
X439250D01*
Y465687D01*
Y465729D01*
X439292D01*
Y465770D01*
X439334D01*
Y465812D01*
X439375D01*
Y465854D01*
Y465895D01*
X439417D01*
Y465937D01*
Y465978D01*
X439459D01*
Y466020D01*
X439500D01*
Y466062D01*
X439542D01*
Y466104D01*
X439584D01*
Y466145D01*
X439625D01*
Y466187D01*
X439709D01*
Y466228D01*
X439750D01*
Y466270D01*
X439792D01*
Y466312D01*
X439834D01*
Y466354D01*
X439917D01*
Y466395D01*
X439959D01*
Y466437D01*
X440042D01*
Y466478D01*
X440209D01*
Y466520D01*
X440584D01*
Y466562D01*
X440625D01*
Y466520D01*
D02*
G37*
G36*
X443750Y460979D02*
X443792D01*
Y460937D01*
X443875D01*
Y460895D01*
X443917D01*
Y460854D01*
X443958D01*
Y460812D01*
X444000D01*
Y460770D01*
X444042D01*
Y460729D01*
X444083D01*
Y460687D01*
X444125D01*
Y460645D01*
Y460604D01*
X444167D01*
Y460562D01*
Y460520D01*
X444208D01*
Y460479D01*
Y460437D01*
Y460395D01*
X444250D01*
Y460354D01*
Y460312D01*
Y460270D01*
X444292D01*
Y460229D01*
Y460187D01*
Y460145D01*
X444333D01*
Y460104D01*
Y460062D01*
Y460020D01*
X444375D01*
Y459979D01*
Y459937D01*
Y459895D01*
Y459854D01*
X444417D01*
Y459812D01*
Y459770D01*
Y459729D01*
X444458D01*
Y459687D01*
Y459645D01*
Y459604D01*
X444500D01*
Y459562D01*
Y459520D01*
Y459479D01*
X444542D01*
Y459437D01*
Y459395D01*
Y459354D01*
Y459312D01*
X444583D01*
Y459270D01*
Y459229D01*
Y459187D01*
X444625D01*
Y459145D01*
Y459104D01*
Y459062D01*
X444667D01*
Y459020D01*
Y458979D01*
Y458937D01*
X444708D01*
Y458895D01*
Y458854D01*
Y458812D01*
X444750D01*
Y458770D01*
Y458729D01*
Y458687D01*
Y458645D01*
X444792D01*
Y458604D01*
Y458562D01*
X444833D01*
Y458520D01*
Y458479D01*
Y458437D01*
X444875D01*
Y458395D01*
Y458354D01*
Y458312D01*
X444917D01*
Y458270D01*
Y458229D01*
X444958D01*
Y458187D01*
Y458145D01*
Y458104D01*
X445000D01*
Y458062D01*
Y458020D01*
X445042D01*
Y457979D01*
Y457937D01*
Y457895D01*
X445083D01*
Y457854D01*
Y457812D01*
X445125D01*
Y457770D01*
Y457729D01*
X445167D01*
Y457687D01*
Y457645D01*
Y457604D01*
X445208D01*
Y457562D01*
Y457520D01*
X445250D01*
Y457479D01*
Y457437D01*
X445292D01*
Y457395D01*
Y457354D01*
Y457312D01*
X445333D01*
Y457270D01*
Y457229D01*
X445375D01*
Y457187D01*
Y457145D01*
X445417D01*
Y457104D01*
Y457062D01*
X445458D01*
Y457020D01*
Y456979D01*
Y456937D01*
X445500D01*
Y456895D01*
Y456854D01*
X445542D01*
Y456812D01*
Y456770D01*
X445583D01*
Y456729D01*
Y456687D01*
X445625D01*
Y456645D01*
Y456604D01*
X445667D01*
Y456562D01*
Y456520D01*
X445708D01*
Y456479D01*
Y456437D01*
X445750D01*
Y456395D01*
X445792D01*
Y456354D01*
Y456312D01*
X445833D01*
Y456270D01*
Y456229D01*
X445875D01*
Y456187D01*
Y456145D01*
X445917D01*
Y456104D01*
X445958D01*
Y456062D01*
Y456020D01*
X446000D01*
Y455979D01*
Y455937D01*
X446042D01*
Y455896D01*
X446083D01*
Y455854D01*
Y455812D01*
X446125D01*
Y455770D01*
Y455729D01*
X446167D01*
Y455687D01*
X446208D01*
Y455646D01*
Y455604D01*
X446250D01*
Y455562D01*
Y455520D01*
X446292D01*
Y455479D01*
X446333D01*
Y455437D01*
Y455396D01*
X446375D01*
Y455354D01*
Y455312D01*
X446417D01*
Y455270D01*
X446458D01*
Y455229D01*
Y455187D01*
X446500D01*
Y455146D01*
X446542D01*
Y455104D01*
Y455062D01*
X446583D01*
Y455021D01*
Y454979D01*
X446625D01*
Y454937D01*
X446667D01*
Y454895D01*
Y454854D01*
X446708D01*
Y454812D01*
X446750D01*
Y454771D01*
Y454729D01*
X446792D01*
Y454687D01*
X446833D01*
Y454645D01*
Y454604D01*
X446875D01*
Y454562D01*
X446917D01*
Y454521D01*
Y454479D01*
X446958D01*
Y454437D01*
X447000D01*
Y454395D01*
Y454354D01*
X447042D01*
Y454312D01*
X447083D01*
Y454271D01*
Y454229D01*
X447125D01*
Y454187D01*
X447167D01*
Y454145D01*
Y454104D01*
X447208D01*
Y454062D01*
X447250D01*
Y454021D01*
Y453979D01*
X447292D01*
Y453937D01*
X447333D01*
Y453896D01*
X447375D01*
Y453854D01*
Y453812D01*
X447417D01*
Y453770D01*
X447458D01*
Y453729D01*
Y453687D01*
X447500D01*
Y453646D01*
X447542D01*
Y453604D01*
X447583D01*
Y453562D01*
Y453520D01*
X447625D01*
Y453479D01*
X447667D01*
Y453437D01*
Y453396D01*
X447708D01*
Y453354D01*
X447750D01*
Y453312D01*
X447792D01*
Y453270D01*
Y453229D01*
X447833D01*
Y453187D01*
X447875D01*
Y453146D01*
X447917D01*
Y453104D01*
Y453062D01*
X447958D01*
Y453020D01*
X448000D01*
Y452979D01*
X448042D01*
Y452937D01*
Y452895D01*
X448083D01*
Y452854D01*
X448125D01*
Y452812D01*
X448167D01*
Y452771D01*
Y452729D01*
X448208D01*
Y452687D01*
X448250D01*
Y452646D01*
X448292D01*
Y452604D01*
Y452562D01*
X448333D01*
Y452521D01*
X448375D01*
Y452479D01*
X448417D01*
Y452437D01*
X448458D01*
Y452396D01*
Y452354D01*
X448500D01*
Y452312D01*
X448542D01*
Y452271D01*
X448583D01*
Y452229D01*
Y452187D01*
X448625D01*
Y452146D01*
X448667D01*
Y452104D01*
X448708D01*
Y452062D01*
X448750D01*
Y452021D01*
Y451979D01*
X448792D01*
Y451937D01*
X448833D01*
Y451896D01*
X448875D01*
Y451854D01*
Y451812D01*
X448917D01*
Y451771D01*
X448958D01*
Y451729D01*
X449000D01*
Y451687D01*
Y451646D01*
X449042D01*
Y451604D01*
X449083D01*
Y451562D01*
Y451521D01*
X449125D01*
Y451479D01*
X449167D01*
Y451437D01*
X449208D01*
Y451396D01*
Y451354D01*
X449250D01*
Y451312D01*
X449292D01*
Y451271D01*
Y451229D01*
X449333D01*
Y451187D01*
X449375D01*
Y451146D01*
Y451104D01*
X449417D01*
Y451062D01*
X449458D01*
Y451021D01*
Y450979D01*
X449500D01*
Y450937D01*
X449542D01*
Y450896D01*
Y450854D01*
X449583D01*
Y450812D01*
X449625D01*
Y450771D01*
Y450729D01*
X449667D01*
Y450687D01*
X449708D01*
Y450646D01*
X449750D01*
Y450604D01*
Y450562D01*
X449792D01*
Y450521D01*
X449833D01*
Y450479D01*
Y450437D01*
X449875D01*
Y450396D01*
X449917D01*
Y450354D01*
X449958D01*
Y450312D01*
Y450271D01*
X450000D01*
Y450229D01*
X450042D01*
Y450187D01*
X450083D01*
Y450146D01*
Y450104D01*
X450125D01*
Y450062D01*
X450167D01*
Y450021D01*
X450208D01*
Y449979D01*
Y449937D01*
X450250D01*
Y449896D01*
X450292D01*
Y449854D01*
Y449812D01*
X450250D01*
Y449854D01*
X450208D01*
Y449896D01*
X450125D01*
Y449937D01*
X450083D01*
Y449979D01*
X450042D01*
Y450021D01*
X450000D01*
Y450062D01*
X449958D01*
Y450104D01*
X449917D01*
Y450146D01*
Y450187D01*
X449875D01*
Y450229D01*
X449833D01*
Y450271D01*
X449792D01*
Y450312D01*
Y450354D01*
X449750D01*
Y450396D01*
Y450437D01*
X449708D01*
Y450479D01*
X449667D01*
Y450521D01*
Y450562D01*
X449625D01*
Y450604D01*
X449583D01*
Y450646D01*
X449542D01*
Y450687D01*
X449500D01*
Y450729D01*
Y450771D01*
X449458D01*
Y450812D01*
X449417D01*
Y450854D01*
X449375D01*
Y450896D01*
X449333D01*
Y450937D01*
Y450979D01*
X449292D01*
Y451021D01*
X449250D01*
Y451062D01*
Y451104D01*
X449208D01*
Y451146D01*
X449167D01*
Y451187D01*
X449125D01*
Y451229D01*
Y451271D01*
X449083D01*
Y451312D01*
X449042D01*
Y451354D01*
Y451396D01*
X449000D01*
Y451437D01*
X448958D01*
Y451479D01*
Y451521D01*
X448917D01*
Y451562D01*
X448875D01*
Y451604D01*
Y451646D01*
X448833D01*
Y451687D01*
X448792D01*
Y451729D01*
Y451771D01*
X448750D01*
Y451812D01*
X448708D01*
Y451854D01*
Y451896D01*
X448667D01*
Y451937D01*
X448625D01*
Y451979D01*
X448583D01*
Y452021D01*
Y452062D01*
X448542D01*
Y452104D01*
X448500D01*
Y452146D01*
Y452187D01*
X448458D01*
Y452229D01*
X448417D01*
Y452271D01*
X448375D01*
Y452312D01*
Y452354D01*
X448333D01*
Y452396D01*
X448292D01*
Y452437D01*
X448250D01*
Y452479D01*
Y452521D01*
X448208D01*
Y452562D01*
X448167D01*
Y452604D01*
X448125D01*
Y452646D01*
Y452687D01*
X448083D01*
Y452729D01*
X448042D01*
Y452771D01*
X448000D01*
Y452812D01*
X447958D01*
Y452854D01*
Y452895D01*
X447917D01*
Y452937D01*
X447875D01*
Y452979D01*
X447833D01*
Y453020D01*
Y453062D01*
X447792D01*
Y453104D01*
X447750D01*
Y453146D01*
X447708D01*
Y453187D01*
Y453229D01*
X447667D01*
Y453270D01*
X447625D01*
Y453312D01*
X447583D01*
Y453354D01*
Y453396D01*
X447542D01*
Y453437D01*
X447500D01*
Y453479D01*
X447458D01*
Y453520D01*
Y453562D01*
X447417D01*
Y453604D01*
X447375D01*
Y453646D01*
X447333D01*
Y453687D01*
Y453729D01*
X447292D01*
Y453770D01*
X447250D01*
Y453812D01*
X447208D01*
Y453854D01*
Y453896D01*
X447167D01*
Y453937D01*
X447125D01*
Y453979D01*
X447083D01*
Y454021D01*
Y454062D01*
X447042D01*
Y454104D01*
X447000D01*
Y454145D01*
Y454187D01*
X446958D01*
Y454229D01*
X446917D01*
Y454271D01*
X446875D01*
Y454312D01*
Y454354D01*
X446833D01*
Y454395D01*
X446792D01*
Y454437D01*
Y454479D01*
X446750D01*
Y454521D01*
X446708D01*
Y454562D01*
X446667D01*
Y454604D01*
Y454645D01*
X446625D01*
Y454687D01*
X446583D01*
Y454729D01*
Y454771D01*
X446542D01*
Y454812D01*
X446500D01*
Y454854D01*
Y454895D01*
X446458D01*
Y454937D01*
X446417D01*
Y454979D01*
X446375D01*
Y455021D01*
Y455062D01*
X446333D01*
Y455104D01*
X446292D01*
Y455146D01*
Y455187D01*
X446250D01*
Y455229D01*
X446208D01*
Y455270D01*
Y455312D01*
X446167D01*
Y455354D01*
Y455396D01*
X446125D01*
Y455437D01*
X446083D01*
Y455479D01*
Y455520D01*
X446042D01*
Y455562D01*
X446000D01*
Y455604D01*
Y455646D01*
X445958D01*
Y455687D01*
Y455729D01*
X445917D01*
Y455770D01*
X445875D01*
Y455812D01*
Y455854D01*
X445833D01*
Y455896D01*
X445792D01*
Y455937D01*
Y455979D01*
X445750D01*
Y456020D01*
Y456062D01*
X445708D01*
Y456104D01*
Y456145D01*
X445667D01*
Y456187D01*
X445625D01*
Y456229D01*
Y456270D01*
X445583D01*
Y456312D01*
Y456354D01*
X445542D01*
Y456395D01*
X445500D01*
Y456437D01*
Y456479D01*
X445458D01*
Y456520D01*
Y456562D01*
X445417D01*
Y456604D01*
Y456645D01*
X445375D01*
Y456687D01*
Y456729D01*
X445333D01*
Y456770D01*
X445292D01*
Y456812D01*
Y456854D01*
X445250D01*
Y456895D01*
Y456937D01*
X445208D01*
Y456979D01*
Y457020D01*
X445167D01*
Y457062D01*
Y457104D01*
X445125D01*
Y457145D01*
Y457187D01*
X445083D01*
Y457229D01*
Y457270D01*
X445042D01*
Y457312D01*
X445000D01*
Y457354D01*
Y457395D01*
X444958D01*
Y457437D01*
Y457479D01*
Y457520D01*
X444917D01*
Y457562D01*
Y457604D01*
X444875D01*
Y457645D01*
Y457687D01*
X444833D01*
Y457729D01*
Y457770D01*
X444792D01*
Y457812D01*
Y457854D01*
X444750D01*
Y457895D01*
Y457937D01*
Y457979D01*
X444708D01*
Y458020D01*
Y458062D01*
X444667D01*
Y458104D01*
Y458145D01*
X444625D01*
Y458187D01*
Y458229D01*
Y458270D01*
X444583D01*
Y458312D01*
Y458354D01*
X444542D01*
Y458395D01*
Y458437D01*
Y458479D01*
X444500D01*
Y458520D01*
Y458562D01*
X444458D01*
Y458604D01*
Y458645D01*
Y458687D01*
X444417D01*
Y458729D01*
Y458770D01*
X444375D01*
Y458812D01*
Y458854D01*
Y458895D01*
X444333D01*
Y458937D01*
Y458979D01*
X444292D01*
Y459020D01*
Y459062D01*
Y459104D01*
X444250D01*
Y459145D01*
Y459187D01*
Y459229D01*
X444208D01*
Y459270D01*
Y459312D01*
X444167D01*
Y459354D01*
Y459395D01*
Y459437D01*
Y459479D01*
X444125D01*
Y459520D01*
Y459562D01*
X444042D01*
Y459520D01*
Y459479D01*
Y459437D01*
Y459395D01*
Y459354D01*
Y459312D01*
Y459270D01*
Y459229D01*
Y459187D01*
Y459145D01*
Y459104D01*
Y459062D01*
Y459020D01*
Y458979D01*
Y458937D01*
Y458895D01*
Y458854D01*
Y458812D01*
X444000D01*
Y458770D01*
Y458729D01*
Y458687D01*
Y458645D01*
Y458604D01*
Y458562D01*
Y458520D01*
Y458479D01*
Y458437D01*
Y458395D01*
Y458354D01*
Y458312D01*
Y458270D01*
Y458229D01*
Y458187D01*
Y458145D01*
Y458104D01*
X443958D01*
Y458062D01*
Y458020D01*
Y457979D01*
Y457937D01*
Y457895D01*
Y457854D01*
Y457812D01*
Y457770D01*
Y457729D01*
Y457687D01*
X443917D01*
Y457645D01*
Y457604D01*
Y457562D01*
Y457520D01*
Y457479D01*
Y457437D01*
Y457395D01*
X443875D01*
Y457354D01*
Y457312D01*
Y457270D01*
Y457229D01*
Y457187D01*
X443833D01*
Y457145D01*
Y457104D01*
Y457062D01*
Y457020D01*
Y456979D01*
X443792D01*
Y456937D01*
Y456895D01*
Y456854D01*
Y456812D01*
Y456770D01*
X443750D01*
Y456729D01*
Y456687D01*
Y456645D01*
Y456604D01*
X443709D01*
Y456562D01*
Y456520D01*
Y456479D01*
Y456437D01*
Y456395D01*
X443667D01*
Y456354D01*
Y456312D01*
Y456270D01*
Y456229D01*
X443625D01*
Y456187D01*
Y456145D01*
Y456104D01*
Y456062D01*
X443583D01*
Y456020D01*
Y455979D01*
Y455937D01*
X443542D01*
Y455896D01*
Y455854D01*
Y455812D01*
Y455770D01*
X443500D01*
Y455729D01*
Y455687D01*
Y455646D01*
Y455604D01*
X443459D01*
Y455562D01*
Y455520D01*
Y455479D01*
X443417D01*
Y455437D01*
Y455396D01*
Y455354D01*
X443375D01*
Y455312D01*
Y455270D01*
Y455229D01*
X443333D01*
Y455187D01*
Y455146D01*
Y455104D01*
X443292D01*
Y455062D01*
Y455021D01*
Y454979D01*
X443250D01*
Y454937D01*
Y454895D01*
X443209D01*
Y454854D01*
Y454812D01*
Y454771D01*
X443167D01*
Y454729D01*
Y454687D01*
Y454645D01*
X443125D01*
Y454604D01*
Y454562D01*
Y454521D01*
X443083D01*
Y454479D01*
Y454437D01*
X443042D01*
Y454395D01*
Y454354D01*
Y454312D01*
X443000D01*
Y454271D01*
Y454229D01*
Y454187D01*
X442958D01*
Y454145D01*
Y454104D01*
Y454062D01*
X442917D01*
Y454021D01*
Y453979D01*
Y453937D01*
X442875D01*
Y453896D01*
Y453854D01*
Y453812D01*
X442834D01*
Y453770D01*
Y453729D01*
Y453687D01*
X442792D01*
Y453646D01*
Y453604D01*
Y453562D01*
X442750D01*
Y453520D01*
Y453479D01*
Y453437D01*
X442708D01*
Y453396D01*
Y453354D01*
Y453312D01*
X442667D01*
Y453270D01*
Y453229D01*
Y453187D01*
X442625D01*
Y453146D01*
Y453104D01*
Y453062D01*
X442584D01*
Y453020D01*
Y452979D01*
Y452937D01*
X442542D01*
Y452895D01*
Y452854D01*
X442500D01*
Y452812D01*
Y452771D01*
Y452729D01*
X442458D01*
Y452687D01*
Y452646D01*
X442417D01*
Y452604D01*
Y452562D01*
Y452521D01*
X442375D01*
Y452479D01*
Y452437D01*
X442334D01*
Y452396D01*
Y452354D01*
X442292D01*
Y452312D01*
Y452271D01*
Y452229D01*
X442250D01*
Y452187D01*
Y452146D01*
X442208D01*
Y452104D01*
Y452062D01*
X442167D01*
Y452021D01*
Y451979D01*
Y451937D01*
X442125D01*
Y451896D01*
Y451854D01*
X442084D01*
Y451812D01*
Y451771D01*
Y451729D01*
X442042D01*
Y451687D01*
Y451646D01*
X442000D01*
Y451604D01*
Y451562D01*
Y451521D01*
X441959D01*
Y451479D01*
Y451437D01*
Y451396D01*
X441917D01*
Y451354D01*
Y451312D01*
Y451271D01*
X441875D01*
Y451229D01*
Y451187D01*
Y451146D01*
X441833D01*
Y451104D01*
Y451062D01*
Y451021D01*
Y450979D01*
X441792D01*
Y450937D01*
Y450896D01*
Y450854D01*
X441833D01*
Y450812D01*
X442542D01*
Y450771D01*
X443209D01*
Y450729D01*
X443625D01*
Y450687D01*
X443875D01*
Y450646D01*
X444083D01*
Y450604D01*
X444250D01*
Y450562D01*
X444458D01*
Y450521D01*
X444708D01*
Y450479D01*
X444875D01*
Y450521D01*
X444917D01*
Y450562D01*
X444958D01*
Y450604D01*
Y450646D01*
Y450687D01*
Y450729D01*
X445000D01*
Y450771D01*
Y450812D01*
Y450854D01*
X444958D01*
Y450896D01*
X445208D01*
Y450937D01*
X445250D01*
Y450979D01*
X445292D01*
Y451021D01*
Y451062D01*
Y451104D01*
Y451146D01*
X445333D01*
Y451187D01*
Y451229D01*
Y451271D01*
Y451312D01*
X445375D01*
Y451354D01*
Y451396D01*
Y451437D01*
X445417D01*
Y451479D01*
Y451521D01*
X445458D01*
Y451562D01*
Y451604D01*
Y451646D01*
X445500D01*
Y451687D01*
Y451729D01*
X445542D01*
Y451771D01*
Y451812D01*
Y451854D01*
X445583D01*
Y451896D01*
Y451937D01*
X445625D01*
Y451979D01*
Y452021D01*
X445667D01*
Y452062D01*
Y452104D01*
X445708D01*
Y452146D01*
Y452187D01*
X445750D01*
Y452229D01*
X445792D01*
Y452271D01*
Y452312D01*
X445833D01*
Y452354D01*
Y452396D01*
X445958D01*
Y452354D01*
X446000D01*
Y452312D01*
X446042D01*
Y452271D01*
X446125D01*
Y452229D01*
X446167D01*
Y452271D01*
Y452312D01*
X446125D01*
Y452354D01*
Y452396D01*
X446167D01*
Y452354D01*
X446208D01*
Y452312D01*
X446250D01*
Y452271D01*
X446292D01*
Y452229D01*
X446333D01*
Y452187D01*
X446375D01*
Y452146D01*
X446417D01*
Y452104D01*
X446458D01*
Y452062D01*
X446500D01*
Y452021D01*
X446542D01*
Y451979D01*
Y451937D01*
X446583D01*
Y451896D01*
X446625D01*
Y451854D01*
X446667D01*
Y451812D01*
Y451771D01*
X446708D01*
Y451729D01*
Y451687D01*
X446750D01*
Y451646D01*
Y451604D01*
X446792D01*
Y451562D01*
X446833D01*
Y451521D01*
Y451479D01*
X446875D01*
Y451437D01*
Y451396D01*
X446917D01*
Y451354D01*
X446958D01*
Y451312D01*
Y451271D01*
X447000D01*
Y451229D01*
Y451187D01*
X447042D01*
Y451146D01*
X447083D01*
Y451104D01*
Y451062D01*
X447125D01*
Y451021D01*
X447167D01*
Y450979D01*
Y450937D01*
X447208D01*
Y450896D01*
X447250D01*
Y450854D01*
Y450812D01*
X447292D01*
Y450771D01*
X447333D01*
Y450729D01*
Y450687D01*
X447375D01*
Y450646D01*
X447417D01*
Y450604D01*
X447708D01*
Y450562D01*
X448167D01*
Y450521D01*
X448417D01*
Y450479D01*
X448542D01*
Y450437D01*
X448667D01*
Y450396D01*
X448750D01*
Y450354D01*
X448833D01*
Y450312D01*
X448917D01*
Y450271D01*
X448958D01*
Y450229D01*
X449042D01*
Y450187D01*
X449083D01*
Y450146D01*
X449125D01*
Y450104D01*
X449167D01*
Y450062D01*
X449208D01*
Y450021D01*
X449250D01*
Y449979D01*
X449292D01*
Y449937D01*
X449333D01*
Y449896D01*
X449375D01*
Y449854D01*
X449417D01*
Y449812D01*
X449333D01*
Y449854D01*
X449292D01*
Y449896D01*
X449208D01*
Y449937D01*
X449167D01*
Y449979D01*
X449083D01*
Y450021D01*
X448958D01*
Y450062D01*
X448833D01*
Y450104D01*
X448458D01*
Y450146D01*
X448333D01*
Y450104D01*
X447833D01*
Y450146D01*
X447750D01*
Y450187D01*
X447708D01*
Y450229D01*
X447667D01*
Y450271D01*
X447583D01*
Y450312D01*
X447542D01*
Y450354D01*
X447500D01*
Y450396D01*
X447458D01*
Y450437D01*
X447417D01*
Y450479D01*
X447375D01*
Y450521D01*
X447333D01*
Y450562D01*
X447250D01*
Y450604D01*
X447208D01*
Y450646D01*
X447167D01*
Y450687D01*
X447125D01*
Y450729D01*
Y450771D01*
X447083D01*
Y450812D01*
X447042D01*
Y450854D01*
X447000D01*
Y450896D01*
Y450937D01*
X446958D01*
Y450979D01*
X446917D01*
Y451021D01*
Y451062D01*
X446875D01*
Y451104D01*
Y451146D01*
X446833D01*
Y451187D01*
Y451229D01*
X446792D01*
Y451271D01*
X446750D01*
Y451312D01*
Y451354D01*
X446708D01*
Y451396D01*
X446667D01*
Y451437D01*
Y451479D01*
X446625D01*
Y451521D01*
X446583D01*
Y451562D01*
Y451604D01*
X446542D01*
Y451646D01*
X446500D01*
Y451687D01*
Y451729D01*
X446458D01*
Y451771D01*
X446417D01*
Y451812D01*
Y451854D01*
X446333D01*
Y451812D01*
X446292D01*
Y451771D01*
X446250D01*
Y451729D01*
X446208D01*
Y451687D01*
Y451646D01*
X446167D01*
Y451604D01*
X446125D01*
Y451562D01*
Y451521D01*
X446083D01*
Y451479D01*
Y451437D01*
Y451396D01*
X446042D01*
Y451354D01*
Y451312D01*
Y451271D01*
X446000D01*
Y451229D01*
Y451187D01*
Y451146D01*
X445958D01*
Y451104D01*
Y451062D01*
X445917D01*
Y451021D01*
Y450979D01*
Y450937D01*
X445875D01*
Y450896D01*
Y450854D01*
Y450812D01*
X445833D01*
Y450771D01*
Y450729D01*
Y450687D01*
Y450646D01*
Y450604D01*
Y450562D01*
X445792D01*
Y450521D01*
X445750D01*
Y450479D01*
X445667D01*
Y450437D01*
X445417D01*
Y450396D01*
Y450354D01*
X445458D01*
Y450312D01*
X445500D01*
Y450271D01*
X445458D01*
Y450229D01*
X445375D01*
Y450187D01*
X444458D01*
Y450229D01*
X444208D01*
Y450271D01*
X443875D01*
Y450312D01*
X443292D01*
Y450354D01*
X442542D01*
Y450396D01*
X442042D01*
Y450437D01*
X442000D01*
Y450479D01*
X441959D01*
Y450521D01*
X441875D01*
Y450562D01*
X441833D01*
Y450604D01*
X441750D01*
Y450646D01*
X441709D01*
Y450687D01*
X441625D01*
Y450646D01*
X441583D01*
Y450604D01*
X441542D01*
Y450562D01*
Y450521D01*
X441500D01*
Y450479D01*
X441459D01*
Y450521D01*
X441375D01*
Y450562D01*
X441333D01*
Y450604D01*
X441250D01*
Y450646D01*
X441167D01*
Y450687D01*
X441125D01*
Y450729D01*
X441042D01*
Y450771D01*
X440958D01*
Y450812D01*
X440917D01*
Y450854D01*
X440958D01*
Y450896D01*
X441000D01*
Y450937D01*
Y450979D01*
X441042D01*
Y451021D01*
X441083D01*
Y451062D01*
Y451104D01*
X441125D01*
Y451146D01*
X441167D01*
Y451187D01*
Y451229D01*
X441209D01*
Y451271D01*
Y451312D01*
X441250D01*
Y451354D01*
Y451396D01*
X441292D01*
Y451437D01*
Y451479D01*
Y451521D01*
X441333D01*
Y451562D01*
Y451604D01*
Y451646D01*
X441375D01*
Y451687D01*
Y451729D01*
Y451771D01*
X441417D01*
Y451812D01*
Y451854D01*
Y451896D01*
X441459D01*
Y451937D01*
Y451979D01*
Y452021D01*
X441500D01*
Y452062D01*
Y452104D01*
Y452146D01*
X441542D01*
Y452187D01*
Y452229D01*
X441583D01*
Y452271D01*
Y452312D01*
Y452354D01*
X441625D01*
Y452396D01*
Y452437D01*
X441667D01*
Y452479D01*
Y452521D01*
X441709D01*
Y452562D01*
Y452604D01*
Y452646D01*
X441750D01*
Y452687D01*
Y452729D01*
X441792D01*
Y452771D01*
Y452812D01*
X441833D01*
Y452854D01*
Y452895D01*
Y452937D01*
X441875D01*
Y452979D01*
Y453020D01*
X441917D01*
Y453062D01*
Y453104D01*
X441959D01*
Y453146D01*
Y453187D01*
Y453229D01*
X442000D01*
Y453270D01*
Y453312D01*
X442042D01*
Y453354D01*
Y453396D01*
Y453437D01*
X442084D01*
Y453479D01*
Y453520D01*
Y453562D01*
X442125D01*
Y453604D01*
Y453646D01*
X442167D01*
Y453687D01*
Y453729D01*
Y453770D01*
X442208D01*
Y453812D01*
Y453854D01*
Y453896D01*
X442250D01*
Y453937D01*
Y453979D01*
Y454021D01*
Y454062D01*
X442292D01*
Y454104D01*
Y454145D01*
Y454187D01*
X442334D01*
Y454229D01*
Y454271D01*
Y454312D01*
X442375D01*
Y454354D01*
Y454395D01*
Y454437D01*
X442417D01*
Y454479D01*
Y454521D01*
Y454562D01*
X442458D01*
Y454604D01*
Y454645D01*
X442500D01*
Y454687D01*
Y454729D01*
Y454771D01*
X442542D01*
Y454812D01*
Y454854D01*
Y454895D01*
X442584D01*
Y454937D01*
Y454979D01*
Y455021D01*
X442625D01*
Y455062D01*
Y455104D01*
Y455146D01*
X442667D01*
Y455187D01*
Y455229D01*
Y455270D01*
X442708D01*
Y455312D01*
Y455354D01*
X442750D01*
Y455396D01*
Y455437D01*
Y455479D01*
X442792D01*
Y455520D01*
Y455562D01*
Y455604D01*
X442834D01*
Y455646D01*
Y455687D01*
X442875D01*
Y455729D01*
Y455770D01*
Y455812D01*
X442917D01*
Y455854D01*
Y455896D01*
Y455937D01*
X442958D01*
Y455979D01*
Y456020D01*
Y456062D01*
Y456104D01*
X443000D01*
Y456145D01*
Y456187D01*
Y456229D01*
X443042D01*
Y456270D01*
Y456312D01*
Y456354D01*
Y456395D01*
X443083D01*
Y456437D01*
Y456479D01*
Y456520D01*
Y456562D01*
X443125D01*
Y456604D01*
Y456645D01*
Y456687D01*
Y456729D01*
X443167D01*
Y456770D01*
Y456812D01*
Y456854D01*
Y456895D01*
X443209D01*
Y456937D01*
Y456979D01*
Y457020D01*
Y457062D01*
Y457104D01*
X443250D01*
Y457145D01*
Y457187D01*
Y457229D01*
Y457270D01*
X443292D01*
Y457312D01*
Y457354D01*
Y457395D01*
Y457437D01*
Y457479D01*
X443333D01*
Y457520D01*
Y457562D01*
Y457604D01*
Y457645D01*
Y457687D01*
Y457729D01*
X443375D01*
Y457770D01*
Y457812D01*
Y457854D01*
Y457895D01*
Y457937D01*
Y457979D01*
X443417D01*
Y458020D01*
Y458062D01*
Y458104D01*
Y458145D01*
Y458187D01*
Y458229D01*
Y458270D01*
X443459D01*
Y458312D01*
Y458354D01*
Y458395D01*
Y458437D01*
Y458479D01*
Y458520D01*
Y458562D01*
Y458604D01*
Y458645D01*
Y458687D01*
Y458729D01*
Y458770D01*
Y458812D01*
X443500D01*
Y458854D01*
Y458895D01*
Y458937D01*
Y458979D01*
Y459020D01*
Y459062D01*
Y459104D01*
Y459145D01*
Y459187D01*
Y459229D01*
Y459270D01*
Y459312D01*
Y459354D01*
Y459395D01*
Y459437D01*
Y459479D01*
Y459520D01*
Y459562D01*
Y459604D01*
Y459645D01*
Y459687D01*
Y459729D01*
Y459770D01*
Y459812D01*
Y459854D01*
Y459895D01*
Y459937D01*
Y459979D01*
Y460020D01*
Y460062D01*
Y460104D01*
Y460145D01*
Y460187D01*
Y460229D01*
X443542D01*
Y460270D01*
Y460312D01*
Y460354D01*
Y460395D01*
Y460437D01*
Y460479D01*
Y460520D01*
Y460562D01*
X443583D01*
Y460520D01*
X443625D01*
Y460479D01*
X443667D01*
Y460437D01*
X443750D01*
Y460395D01*
X443792D01*
Y460354D01*
X443875D01*
Y460395D01*
Y460437D01*
X443833D01*
Y460479D01*
Y460520D01*
Y460562D01*
Y460604D01*
X443792D01*
Y460645D01*
Y460687D01*
Y460729D01*
X443750D01*
Y460770D01*
Y460812D01*
Y460854D01*
Y460895D01*
X443709D01*
Y460937D01*
Y460979D01*
Y461020D01*
X443750D01*
Y460979D01*
D02*
G37*
G36*
X441375Y445812D02*
X441500D01*
Y445771D01*
X441625D01*
Y445729D01*
X441875D01*
Y445687D01*
X443209D01*
Y445646D01*
X446125D01*
Y445604D01*
X447458D01*
Y445562D01*
X447542D01*
Y445521D01*
X447625D01*
Y445479D01*
X447667D01*
Y445437D01*
X447750D01*
Y445396D01*
X447792D01*
Y445354D01*
X447833D01*
Y445312D01*
X447875D01*
Y445271D01*
X447917D01*
Y445229D01*
X447958D01*
Y445187D01*
X448000D01*
Y445146D01*
X448042D01*
Y445104D01*
Y445062D01*
Y445021D01*
X448083D01*
Y444979D01*
Y444937D01*
X448042D01*
Y444896D01*
Y444854D01*
Y444812D01*
X448000D01*
Y444771D01*
Y444729D01*
X447958D01*
Y444687D01*
Y444646D01*
Y444604D01*
X447917D01*
Y444562D01*
Y444521D01*
X447875D01*
Y444479D01*
Y444437D01*
X447833D01*
Y444396D01*
Y444354D01*
Y444312D01*
X447792D01*
Y444271D01*
Y444229D01*
X447750D01*
Y444187D01*
X447708D01*
Y444146D01*
Y444104D01*
X447667D01*
Y444062D01*
Y444021D01*
Y443979D01*
X447625D01*
Y443937D01*
Y443896D01*
X447583D01*
Y443854D01*
Y443812D01*
Y443771D01*
X447542D01*
Y443729D01*
Y443687D01*
Y443646D01*
X447500D01*
Y443604D01*
Y443563D01*
Y443521D01*
X447458D01*
Y443479D01*
Y443437D01*
Y443396D01*
X447417D01*
Y443354D01*
Y443313D01*
Y443271D01*
X447375D01*
Y443229D01*
Y443188D01*
Y443146D01*
Y443104D01*
X447333D01*
Y443062D01*
Y443021D01*
X447292D01*
Y442979D01*
Y442938D01*
Y442896D01*
X447250D01*
Y442854D01*
X447208D01*
Y442812D01*
X447167D01*
Y442771D01*
X447083D01*
Y442729D01*
X447042D01*
Y442688D01*
X447000D01*
Y442646D01*
X446958D01*
Y442604D01*
X446917D01*
Y442562D01*
X446875D01*
Y442521D01*
X446792D01*
Y442479D01*
X446750D01*
Y442438D01*
X446667D01*
Y442396D01*
X446583D01*
Y442354D01*
X446542D01*
Y442312D01*
X446458D01*
Y442271D01*
X446375D01*
Y442229D01*
X446292D01*
Y442188D01*
X446208D01*
Y442146D01*
X446167D01*
Y442104D01*
X446125D01*
Y442063D01*
Y442021D01*
X446083D01*
Y441979D01*
X445750D01*
Y441937D01*
X445375D01*
Y441896D01*
X445292D01*
Y441854D01*
X445167D01*
Y441896D01*
X445000D01*
Y441937D01*
X444917D01*
Y441979D01*
X444833D01*
Y442021D01*
X444708D01*
Y442063D01*
X444583D01*
Y442104D01*
X444417D01*
Y442146D01*
X444292D01*
Y442188D01*
X444167D01*
Y442229D01*
X444042D01*
Y442271D01*
X443958D01*
Y442312D01*
X443917D01*
Y442354D01*
X443833D01*
Y442396D01*
X443792D01*
Y442438D01*
X443750D01*
Y442479D01*
X443667D01*
Y442521D01*
X443625D01*
Y442562D01*
X443583D01*
Y442604D01*
X443542D01*
Y442646D01*
X443459D01*
Y442688D01*
X443417D01*
Y442729D01*
X443375D01*
Y442771D01*
X443292D01*
Y442812D01*
X443250D01*
Y442854D01*
X443167D01*
Y442896D01*
X443125D01*
Y442938D01*
X443042D01*
Y442979D01*
X442958D01*
Y443021D01*
X442917D01*
Y443062D01*
X442834D01*
Y443104D01*
X442792D01*
Y443146D01*
X442708D01*
Y443188D01*
X442667D01*
Y443229D01*
X442625D01*
Y443271D01*
X442584D01*
Y443313D01*
X442500D01*
Y443354D01*
X442458D01*
Y443396D01*
X442417D01*
Y443437D01*
X442500D01*
Y443396D01*
X442584D01*
Y443354D01*
X442667D01*
Y443313D01*
X442834D01*
Y443354D01*
X442792D01*
Y443396D01*
X442750D01*
Y443437D01*
X442708D01*
Y443479D01*
X442667D01*
Y443521D01*
X442625D01*
Y443563D01*
X442584D01*
Y443604D01*
X442500D01*
Y443646D01*
X442458D01*
Y443687D01*
X442417D01*
Y443729D01*
X442375D01*
Y443771D01*
X442334D01*
Y443812D01*
X442250D01*
Y443854D01*
X442208D01*
Y443896D01*
X442125D01*
Y443854D01*
Y443812D01*
X442167D01*
Y443771D01*
Y443729D01*
X442208D01*
Y443687D01*
X442250D01*
Y443646D01*
Y443604D01*
X442208D01*
Y443646D01*
X442167D01*
Y443687D01*
X442125D01*
Y443729D01*
X442084D01*
Y443771D01*
X442042D01*
Y443812D01*
X442000D01*
Y443854D01*
X441959D01*
Y443896D01*
X441917D01*
Y443937D01*
Y443979D01*
X441875D01*
Y444021D01*
X441833D01*
Y444062D01*
X441792D01*
Y444104D01*
X441750D01*
Y444146D01*
Y444187D01*
X441709D01*
Y444229D01*
X441667D01*
Y444271D01*
X441625D01*
Y444312D01*
Y444354D01*
X441583D01*
Y444396D01*
Y444437D01*
X441542D01*
Y444479D01*
Y444521D01*
X441500D01*
Y444562D01*
Y444604D01*
Y444646D01*
Y444687D01*
X441459D01*
Y444729D01*
Y444771D01*
X441417D01*
Y444812D01*
Y444854D01*
Y444896D01*
X441375D01*
Y444937D01*
Y444979D01*
Y445021D01*
Y445062D01*
X441333D01*
Y445104D01*
Y445146D01*
Y445187D01*
X441292D01*
Y445229D01*
Y445271D01*
X441250D01*
Y445312D01*
Y445354D01*
X441209D01*
Y445396D01*
Y445437D01*
X441167D01*
Y445479D01*
Y445521D01*
X441125D01*
Y445562D01*
Y445604D01*
X441083D01*
Y445646D01*
Y445687D01*
X441042D01*
Y445729D01*
Y445771D01*
X441000D01*
Y445812D01*
Y445854D01*
X441083D01*
Y445812D01*
X441125D01*
Y445771D01*
X441167D01*
Y445729D01*
X441250D01*
Y445687D01*
X441292D01*
Y445646D01*
X441375D01*
Y445687D01*
Y445729D01*
X441333D01*
Y445771D01*
Y445812D01*
Y445854D01*
X441375D01*
Y445812D01*
D02*
G37*
G36*
X450125Y436063D02*
X450167D01*
Y436021D01*
X450208D01*
Y435979D01*
X450250D01*
Y435938D01*
X450292D01*
Y435896D01*
X450333D01*
Y435854D01*
X450250D01*
Y435896D01*
X450208D01*
Y435938D01*
X450167D01*
Y435979D01*
X450125D01*
Y436021D01*
X450083D01*
Y436063D01*
X450042D01*
Y436104D01*
X450125D01*
Y436063D01*
D02*
G37*
G36*
X454958Y435729D02*
X455000D01*
Y435688D01*
X454916D01*
Y435729D01*
X454875D01*
Y435771D01*
X454958D01*
Y435729D01*
D02*
G37*
G36*
X455125Y435604D02*
X455166D01*
Y435563D01*
X455083D01*
Y435604D01*
X455042D01*
Y435646D01*
X455125D01*
Y435604D01*
D02*
G37*
G36*
X455292Y435479D02*
X455333D01*
Y435438D01*
X455250D01*
Y435479D01*
X455208D01*
Y435521D01*
X455292D01*
Y435479D01*
D02*
G37*
G36*
X455458Y435354D02*
X455500D01*
Y435313D01*
X455583D01*
Y435271D01*
X455625D01*
Y435229D01*
X455666D01*
Y435188D01*
X455750D01*
Y435146D01*
X455792D01*
Y435104D01*
X455708D01*
Y435146D01*
X455666D01*
Y435188D01*
X455583D01*
Y435229D01*
X455542D01*
Y435271D01*
X455500D01*
Y435313D01*
X455416D01*
Y435354D01*
X455375D01*
Y435396D01*
X455458D01*
Y435354D01*
D02*
G37*
G36*
X455917Y435021D02*
X455958D01*
Y434979D01*
X456041D01*
Y434938D01*
X456083D01*
Y434896D01*
X456000D01*
Y434938D01*
X455958D01*
Y434979D01*
X455875D01*
Y435021D01*
X455833D01*
Y435063D01*
X455917D01*
Y435021D01*
D02*
G37*
G36*
X451708Y434229D02*
X451750D01*
Y434188D01*
X451667D01*
Y434229D01*
X451625D01*
Y434271D01*
X451708D01*
Y434229D01*
D02*
G37*
G36*
X451042Y436271D02*
X451083D01*
Y436229D01*
X451125D01*
Y436188D01*
X451167D01*
Y436146D01*
X451208D01*
Y436104D01*
X451250D01*
Y436063D01*
X451292D01*
Y436021D01*
X451375D01*
Y435979D01*
X451417D01*
Y435938D01*
X451458D01*
Y435896D01*
X451542D01*
Y435854D01*
X451625D01*
Y435813D01*
X451750D01*
Y435771D01*
X451875D01*
Y435729D01*
X452000D01*
Y435688D01*
X452083D01*
Y435729D01*
Y435771D01*
X452125D01*
Y435729D01*
X452208D01*
Y435688D01*
X452250D01*
Y435646D01*
X452333D01*
Y435604D01*
X452417D01*
Y435563D01*
X452500D01*
Y435521D01*
X452625D01*
Y435479D01*
X452708D01*
Y435438D01*
X452792D01*
Y435396D01*
X452875D01*
Y435354D01*
X452958D01*
Y435313D01*
X453042D01*
Y435271D01*
X453125D01*
Y435229D01*
X453208D01*
Y435188D01*
X453292D01*
Y435146D01*
X453416D01*
Y435104D01*
X453500D01*
Y435063D01*
X453583D01*
Y435021D01*
X453666D01*
Y434979D01*
X453750D01*
Y434938D01*
X453833D01*
Y434896D01*
X453875D01*
Y434854D01*
X453958D01*
Y434813D01*
X454041D01*
Y434771D01*
X454125D01*
Y434729D01*
X454291D01*
Y434688D01*
X454375D01*
Y434646D01*
X454417D01*
Y434604D01*
X454500D01*
Y434563D01*
X454541D01*
Y434521D01*
X454583D01*
Y434479D01*
X454625D01*
Y434438D01*
X454667D01*
Y434396D01*
X454708D01*
Y434354D01*
X454750D01*
Y434313D01*
X454791D01*
Y434271D01*
X454750D01*
Y434229D01*
Y434188D01*
X454791D01*
Y434146D01*
X454833D01*
Y434104D01*
X454875D01*
Y434063D01*
X454916D01*
Y434021D01*
X455000D01*
Y433979D01*
X455042D01*
Y433938D01*
X455083D01*
Y433896D01*
X455000D01*
Y433938D01*
X454958D01*
Y433979D01*
X454916D01*
Y434021D01*
X454833D01*
Y434063D01*
X454750D01*
Y434104D01*
X454667D01*
Y434146D01*
X454625D01*
Y434188D01*
X454541D01*
Y434229D01*
X454458D01*
Y434271D01*
X454333D01*
Y434313D01*
X454250D01*
Y434354D01*
X454167D01*
Y434396D01*
X454083D01*
Y434438D01*
X454000D01*
Y434479D01*
X453958D01*
Y434521D01*
X453875D01*
Y434563D01*
X453792D01*
Y434604D01*
X453708D01*
Y434646D01*
X453666D01*
Y434688D01*
X453583D01*
Y434729D01*
X453458D01*
Y434771D01*
X453416D01*
Y434729D01*
Y434688D01*
Y434646D01*
X453458D01*
Y434604D01*
X453542D01*
Y434563D01*
X453583D01*
Y434521D01*
X453500D01*
Y434563D01*
X453458D01*
Y434604D01*
X453375D01*
Y434646D01*
X453333D01*
Y434688D01*
X453292D01*
Y434729D01*
X453208D01*
Y434771D01*
X453166D01*
Y434813D01*
X453083D01*
Y434854D01*
X453000D01*
Y434896D01*
X452916D01*
Y434938D01*
X452792D01*
Y434979D01*
X452708D01*
Y435021D01*
X452583D01*
Y435063D01*
X452458D01*
Y435104D01*
X452333D01*
Y435146D01*
X452208D01*
Y435188D01*
X452042D01*
Y435146D01*
X452083D01*
Y435104D01*
X452125D01*
Y435063D01*
Y435021D01*
X452083D01*
Y435063D01*
X452000D01*
Y435104D01*
X451958D01*
Y435146D01*
X451917D01*
Y435188D01*
X451875D01*
Y435229D01*
X451833D01*
Y435271D01*
X451750D01*
Y435313D01*
X451708D01*
Y435354D01*
X451625D01*
Y435396D01*
X451542D01*
Y435438D01*
X451500D01*
Y435479D01*
X451458D01*
Y435521D01*
X451375D01*
Y435563D01*
X451333D01*
Y435604D01*
X451292D01*
Y435646D01*
X451250D01*
Y435688D01*
X451208D01*
Y435729D01*
X451167D01*
Y435771D01*
X451250D01*
Y435813D01*
X451208D01*
Y435854D01*
X451167D01*
Y435896D01*
X451125D01*
Y435938D01*
X451250D01*
Y435979D01*
X451208D01*
Y436021D01*
X451167D01*
Y436063D01*
Y436104D01*
X451125D01*
Y436146D01*
X451083D01*
Y436188D01*
X451042D01*
Y436229D01*
X451000D01*
Y436271D01*
X450958D01*
Y436313D01*
X451042D01*
Y436271D01*
D02*
G37*
G36*
X457333Y432313D02*
X457375D01*
Y432271D01*
X457500D01*
Y432229D01*
X457541D01*
Y432188D01*
X457625D01*
Y432146D01*
X457666D01*
Y432104D01*
X457708D01*
Y432063D01*
X457750D01*
Y432021D01*
X457833D01*
Y431979D01*
X457875D01*
Y431938D01*
X457916D01*
Y431896D01*
X457958D01*
Y431854D01*
X457875D01*
Y431896D01*
X457791D01*
Y431938D01*
X457750D01*
Y431979D01*
X457666D01*
Y432021D01*
X457625D01*
Y432063D01*
X457583D01*
Y432104D01*
X457500D01*
Y432146D01*
X457458D01*
Y432188D01*
X457416D01*
Y432229D01*
X457375D01*
Y432271D01*
X457291D01*
Y432313D01*
X457250D01*
Y432354D01*
X457333D01*
Y432313D01*
D02*
G37*
%LPC*%
G36*
X440667Y466437D02*
X440334D01*
Y466395D01*
X440167D01*
Y466354D01*
X440084D01*
Y466312D01*
X440000D01*
Y466270D01*
X439959D01*
Y466228D01*
X439875D01*
Y466187D01*
X439834D01*
Y466145D01*
X439792D01*
Y466104D01*
X439750D01*
Y466062D01*
X439709D01*
Y466020D01*
X439667D01*
Y465978D01*
X439625D01*
Y465937D01*
X439584D01*
Y465895D01*
X439542D01*
Y465854D01*
X439500D01*
Y465812D01*
X439459D01*
Y465770D01*
Y465729D01*
X439417D01*
Y465687D01*
X439375D01*
Y465645D01*
Y465603D01*
X439334D01*
Y465562D01*
Y465520D01*
X439292D01*
Y465479D01*
Y465437D01*
X439250D01*
Y465395D01*
Y465353D01*
X439209D01*
Y465312D01*
Y465270D01*
Y465229D01*
X439167D01*
Y465187D01*
Y465145D01*
Y465103D01*
X439125D01*
Y465062D01*
Y465020D01*
Y464979D01*
Y464937D01*
Y464895D01*
Y464853D01*
Y464812D01*
Y464770D01*
Y464729D01*
Y464687D01*
Y464645D01*
Y464604D01*
Y464562D01*
Y464520D01*
Y464479D01*
Y464437D01*
Y464395D01*
Y464354D01*
Y464312D01*
X439167D01*
Y464270D01*
X439209D01*
Y464229D01*
X439250D01*
Y464187D01*
X439292D01*
Y464145D01*
X439375D01*
Y464104D01*
X439417D01*
Y464062D01*
X439500D01*
Y464020D01*
X439875D01*
Y464062D01*
Y464104D01*
Y464145D01*
Y464187D01*
Y464229D01*
Y464270D01*
Y464312D01*
Y464354D01*
Y464395D01*
Y464437D01*
Y464479D01*
Y464520D01*
Y464562D01*
Y464604D01*
Y464645D01*
X439959D01*
Y464604D01*
X440042D01*
Y464562D01*
X440084D01*
Y464520D01*
X440125D01*
Y464479D01*
X440167D01*
Y464437D01*
X440250D01*
Y464395D01*
X440292D01*
Y464354D01*
X440375D01*
Y464395D01*
Y464437D01*
X440417D01*
Y464479D01*
X440458D01*
Y464520D01*
X440500D01*
Y464562D01*
X440542D01*
Y464604D01*
Y464645D01*
X440584D01*
Y464687D01*
X440625D01*
Y464729D01*
Y464770D01*
X440667D01*
Y464812D01*
X440708D01*
Y464853D01*
Y464895D01*
X440750D01*
Y464937D01*
Y464979D01*
Y465020D01*
X440792D01*
Y465062D01*
Y465103D01*
X440834D01*
Y465145D01*
Y465187D01*
Y465229D01*
Y465270D01*
Y465312D01*
X440875D01*
Y465353D01*
Y465395D01*
Y465437D01*
Y465479D01*
Y465520D01*
Y465562D01*
Y465603D01*
Y465645D01*
Y465687D01*
X440917D01*
Y465729D01*
Y465770D01*
Y465812D01*
Y465854D01*
Y465895D01*
Y465937D01*
Y465978D01*
X440875D01*
Y466020D01*
Y466062D01*
Y466104D01*
X440834D01*
Y466145D01*
Y466187D01*
X440792D01*
Y466228D01*
Y466270D01*
X440750D01*
Y466312D01*
Y466354D01*
X440708D01*
Y466395D01*
X440667D01*
Y466437D01*
D02*
G37*
G36*
X452083Y459354D02*
X452042D01*
Y459312D01*
Y459270D01*
Y459229D01*
X452000D01*
Y459187D01*
Y459145D01*
Y459104D01*
X452042D01*
Y459062D01*
Y459020D01*
Y458979D01*
Y458937D01*
Y458895D01*
Y458854D01*
Y458812D01*
X452083D01*
Y458770D01*
Y458729D01*
Y458687D01*
Y458645D01*
Y458604D01*
X452125D01*
Y458562D01*
Y458520D01*
Y458479D01*
Y458437D01*
Y458395D01*
X452167D01*
Y458354D01*
Y458312D01*
Y458270D01*
Y458229D01*
X452208D01*
Y458187D01*
Y458145D01*
Y458104D01*
Y458062D01*
Y458020D01*
X452250D01*
Y457979D01*
Y457937D01*
Y457895D01*
Y457854D01*
X452292D01*
Y457812D01*
Y457770D01*
Y457729D01*
X452333D01*
Y457770D01*
Y457812D01*
Y457854D01*
Y457895D01*
Y457937D01*
Y457979D01*
Y458020D01*
Y458062D01*
Y458104D01*
Y458145D01*
Y458187D01*
Y458229D01*
Y458270D01*
Y458312D01*
Y458354D01*
Y458395D01*
X452292D01*
Y458437D01*
Y458479D01*
Y458520D01*
Y458562D01*
Y458604D01*
Y458645D01*
Y458687D01*
Y458729D01*
Y458770D01*
Y458812D01*
Y458854D01*
X452250D01*
Y458895D01*
Y458937D01*
Y458979D01*
Y459020D01*
Y459062D01*
Y459104D01*
X452208D01*
Y459145D01*
Y459187D01*
X452167D01*
Y459229D01*
Y459270D01*
X452125D01*
Y459312D01*
X452083D01*
Y459354D01*
D02*
G37*
G36*
X432375Y450937D02*
X432292D01*
Y450896D01*
X432334D01*
Y450854D01*
Y450812D01*
Y450771D01*
X432375D01*
Y450729D01*
X432417D01*
Y450687D01*
Y450646D01*
X432459D01*
Y450604D01*
Y450562D01*
X432500D01*
Y450521D01*
X432542D01*
Y450479D01*
Y450437D01*
X432584D01*
Y450396D01*
X432625D01*
Y450354D01*
X432667D01*
Y450312D01*
X432709D01*
Y450271D01*
X432750D01*
Y450229D01*
X432792D01*
Y450187D01*
X432834D01*
Y450146D01*
X432875D01*
Y450104D01*
X432917D01*
Y450062D01*
X432959D01*
Y450104D01*
Y450146D01*
X432917D01*
Y450187D01*
X432875D01*
Y450229D01*
Y450271D01*
X432834D01*
Y450312D01*
X432792D01*
Y450354D01*
Y450396D01*
X432750D01*
Y450437D01*
X432709D01*
Y450479D01*
X432667D01*
Y450521D01*
Y450562D01*
X432625D01*
Y450604D01*
X432584D01*
Y450646D01*
Y450687D01*
X432542D01*
Y450729D01*
X432500D01*
Y450771D01*
X432459D01*
Y450812D01*
Y450854D01*
X432417D01*
Y450896D01*
X432375D01*
Y450937D01*
D02*
G37*
G36*
X437625Y441313D02*
X437542D01*
Y441271D01*
Y441229D01*
X437584D01*
Y441187D01*
Y441146D01*
Y441104D01*
X437625D01*
Y441062D01*
Y441021D01*
X437667D01*
Y440979D01*
X437750D01*
Y441021D01*
Y441062D01*
Y441104D01*
X437709D01*
Y441146D01*
Y441187D01*
X437667D01*
Y441229D01*
Y441271D01*
X437625D01*
Y441313D01*
D02*
G37*
G36*
X438000Y440396D02*
X437917D01*
Y440354D01*
Y440313D01*
Y440271D01*
X438000D01*
Y440313D01*
Y440354D01*
Y440396D01*
D02*
G37*
G36*
X438959Y439771D02*
X438584D01*
Y439729D01*
Y439688D01*
Y439646D01*
X438667D01*
Y439604D01*
X438792D01*
Y439563D01*
X438959D01*
Y439521D01*
X439084D01*
Y439479D01*
X439500D01*
Y439521D01*
X439542D01*
Y439563D01*
X439459D01*
Y439604D01*
X439334D01*
Y439646D01*
X439209D01*
Y439688D01*
X439084D01*
Y439729D01*
X438959D01*
Y439771D01*
D02*
G37*
G36*
X451500Y439271D02*
X450958D01*
Y439229D01*
Y439188D01*
X451000D01*
Y439146D01*
X451042D01*
Y439104D01*
X451083D01*
Y439063D01*
X451125D01*
Y439021D01*
X451167D01*
Y438979D01*
X451208D01*
Y438938D01*
X451250D01*
Y438896D01*
X451292D01*
Y438854D01*
X451333D01*
Y438813D01*
X450250D01*
Y438771D01*
X450292D01*
Y438729D01*
X450417D01*
Y438688D01*
X450542D01*
Y438646D01*
X450667D01*
Y438604D01*
X450750D01*
Y438563D01*
X450833D01*
Y438521D01*
X450958D01*
Y438479D01*
X451042D01*
Y438438D01*
X451125D01*
Y438396D01*
X451250D01*
Y438354D01*
X451333D01*
Y438313D01*
X451458D01*
Y438271D01*
X451542D01*
Y438229D01*
X451667D01*
Y438188D01*
X451750D01*
Y438146D01*
X451875D01*
Y438104D01*
X451958D01*
Y438146D01*
Y438188D01*
X451917D01*
Y438229D01*
Y438271D01*
X451958D01*
Y438229D01*
X452000D01*
Y438188D01*
X452042D01*
Y438146D01*
X452125D01*
Y438104D01*
X452208D01*
Y438146D01*
X452167D01*
Y438188D01*
Y438229D01*
X452125D01*
Y438271D01*
Y438313D01*
X452083D01*
Y438354D01*
X452042D01*
Y438396D01*
Y438438D01*
X452000D01*
Y438479D01*
Y438521D01*
X451958D01*
Y438563D01*
X451917D01*
Y438604D01*
Y438646D01*
X451875D01*
Y438688D01*
Y438729D01*
X451833D01*
Y438771D01*
X451792D01*
Y438813D01*
Y438854D01*
X451750D01*
Y438896D01*
Y438938D01*
X451708D01*
Y438979D01*
X451667D01*
Y439021D01*
Y439063D01*
X451625D01*
Y439104D01*
Y439146D01*
X451583D01*
Y439188D01*
X451542D01*
Y439229D01*
X451500D01*
Y439271D01*
D02*
G37*
G36*
X447875Y438979D02*
X447792D01*
Y438938D01*
Y438896D01*
Y438854D01*
X447833D01*
Y438813D01*
X447875D01*
Y438771D01*
X447917D01*
Y438729D01*
X447958D01*
Y438688D01*
X448000D01*
Y438646D01*
X448042D01*
Y438604D01*
Y438563D01*
X448083D01*
Y438521D01*
X448125D01*
Y438479D01*
X448167D01*
Y438438D01*
Y438396D01*
X448208D01*
Y438354D01*
X448250D01*
Y438313D01*
Y438271D01*
X448292D01*
Y438229D01*
Y438188D01*
X448333D01*
Y438146D01*
Y438104D01*
X448375D01*
Y438063D01*
X448417D01*
Y438021D01*
Y437979D01*
X448500D01*
Y438021D01*
X448583D01*
Y437979D01*
X448625D01*
Y437938D01*
X448708D01*
Y437979D01*
X448667D01*
Y438021D01*
Y438063D01*
X448625D01*
Y438104D01*
X448583D01*
Y438146D01*
X448542D01*
Y438188D01*
X448500D01*
Y438229D01*
Y438271D01*
X448458D01*
Y438313D01*
X448417D01*
Y438354D01*
X448375D01*
Y438396D01*
X448333D01*
Y438438D01*
X448292D01*
Y438479D01*
Y438521D01*
X448250D01*
Y438563D01*
X448208D01*
Y438604D01*
X448167D01*
Y438646D01*
X448125D01*
Y438688D01*
X448083D01*
Y438729D01*
Y438771D01*
X448042D01*
Y438813D01*
X448000D01*
Y438854D01*
X447958D01*
Y438896D01*
X447917D01*
Y438938D01*
X447875D01*
Y438979D01*
D02*
G37*
G36*
X453292Y437271D02*
X453208D01*
Y437229D01*
Y437188D01*
X453166D01*
Y437229D01*
X453125D01*
Y437188D01*
Y437146D01*
X453166D01*
Y437104D01*
Y437063D01*
X453208D01*
Y437021D01*
Y436979D01*
X453250D01*
Y436938D01*
X453292D01*
Y436896D01*
Y436854D01*
X453333D01*
Y436813D01*
X453375D01*
Y436771D01*
Y436729D01*
X453416D01*
Y436688D01*
X453458D01*
Y436646D01*
Y436604D01*
X453500D01*
Y436563D01*
X453542D01*
Y436521D01*
X453583D01*
Y436479D01*
Y436438D01*
X453625D01*
Y436396D01*
X453666D01*
Y436354D01*
X453708D01*
Y436313D01*
X453750D01*
Y436271D01*
Y436229D01*
X453792D01*
Y436188D01*
X453833D01*
Y436146D01*
X453875D01*
Y436104D01*
X453917D01*
Y436063D01*
Y436021D01*
X453958D01*
Y435979D01*
X454000D01*
Y435938D01*
X454041D01*
Y435896D01*
X454083D01*
Y435854D01*
X454125D01*
Y435813D01*
X454167D01*
Y435771D01*
X454208D01*
Y435729D01*
X454250D01*
Y435688D01*
Y435646D01*
X454291D01*
Y435604D01*
X454333D01*
Y435563D01*
X454375D01*
Y435521D01*
X454417D01*
Y435479D01*
X454500D01*
Y435521D01*
Y435563D01*
X454458D01*
Y435604D01*
X454417D01*
Y435646D01*
Y435688D01*
X454375D01*
Y435729D01*
X454333D01*
Y435771D01*
Y435813D01*
X454291D01*
Y435854D01*
X454250D01*
Y435896D01*
Y435938D01*
X454208D01*
Y435979D01*
X454167D01*
Y436021D01*
X454125D01*
Y436063D01*
Y436104D01*
X454083D01*
Y436146D01*
X454041D01*
Y436188D01*
X454000D01*
Y436229D01*
X453958D01*
Y436271D01*
Y436313D01*
X453917D01*
Y436354D01*
X453875D01*
Y436396D01*
X453833D01*
Y436438D01*
Y436479D01*
X453792D01*
Y436521D01*
X453750D01*
Y436563D01*
X453708D01*
Y436604D01*
X453666D01*
Y436646D01*
Y436688D01*
X453625D01*
Y436729D01*
X453583D01*
Y436771D01*
X453542D01*
Y436813D01*
X453500D01*
Y436854D01*
X453458D01*
Y436896D01*
Y436938D01*
X453416D01*
Y436979D01*
X453375D01*
Y437021D01*
X453333D01*
Y437063D01*
X453292D01*
Y437104D01*
X453375D01*
Y437146D01*
Y437188D01*
X453333D01*
Y437229D01*
X453292D01*
Y437271D01*
D02*
G37*
G36*
X448667Y438938D02*
X448042D01*
Y438896D01*
X448083D01*
Y438854D01*
Y438813D01*
X448125D01*
Y438771D01*
X448167D01*
Y438729D01*
X448208D01*
Y438688D01*
X448250D01*
Y438646D01*
X448292D01*
Y438604D01*
X448333D01*
Y438646D01*
X448375D01*
Y438604D01*
X448417D01*
Y438563D01*
X448458D01*
Y438521D01*
X448500D01*
Y438479D01*
X448458D01*
Y438438D01*
Y438396D01*
X448500D01*
Y438354D01*
X448542D01*
Y438313D01*
X448583D01*
Y438271D01*
Y438229D01*
X448625D01*
Y438188D01*
X448667D01*
Y438146D01*
X448708D01*
Y438104D01*
X448750D01*
Y438063D01*
X448792D01*
Y438021D01*
Y437979D01*
X448833D01*
Y437938D01*
X448875D01*
Y437896D01*
X448917D01*
Y437854D01*
X449000D01*
Y437813D01*
X449167D01*
Y437771D01*
X449250D01*
Y437813D01*
Y437854D01*
X449333D01*
Y437813D01*
X449375D01*
Y437771D01*
X449458D01*
Y437729D01*
X449667D01*
Y437688D01*
X449875D01*
Y437646D01*
X450083D01*
Y437604D01*
X450292D01*
Y437563D01*
X450500D01*
Y437521D01*
X450708D01*
Y437479D01*
X450917D01*
Y437438D01*
X451083D01*
Y437479D01*
Y437521D01*
X451000D01*
Y437563D01*
X450958D01*
Y437604D01*
X450875D01*
Y437646D01*
X450792D01*
Y437688D01*
X450708D01*
Y437729D01*
X450667D01*
Y437771D01*
X450583D01*
Y437813D01*
X450458D01*
Y437854D01*
X450375D01*
Y437896D01*
X450333D01*
Y437938D01*
X450250D01*
Y437979D01*
X450208D01*
Y438021D01*
X450167D01*
Y438063D01*
X450125D01*
Y438104D01*
X450083D01*
Y438146D01*
X450042D01*
Y438188D01*
X450000D01*
Y438229D01*
X450083D01*
Y438188D01*
X450125D01*
Y438146D01*
X450208D01*
Y438104D01*
X450292D01*
Y438063D01*
X450375D01*
Y438021D01*
X450458D01*
Y437979D01*
X450542D01*
Y437938D01*
X450625D01*
Y437896D01*
X450708D01*
Y437854D01*
X450792D01*
Y437813D01*
X450875D01*
Y437771D01*
X451000D01*
Y437729D01*
X451083D01*
Y437771D01*
X451125D01*
Y437729D01*
X451167D01*
Y437688D01*
X451250D01*
Y437646D01*
X451292D01*
Y437604D01*
X451375D01*
Y437563D01*
X451458D01*
Y437521D01*
X451500D01*
Y437479D01*
X451583D01*
Y437438D01*
X451667D01*
Y437396D01*
X451792D01*
Y437354D01*
X451875D01*
Y437313D01*
X452000D01*
Y437271D01*
X452125D01*
Y437229D01*
X452208D01*
Y437188D01*
X452333D01*
Y437146D01*
X452417D01*
Y437104D01*
X452500D01*
Y437063D01*
X452583D01*
Y437021D01*
X452667D01*
Y436979D01*
X452750D01*
Y436938D01*
X452792D01*
Y436896D01*
X452875D01*
Y436854D01*
X452916D01*
Y436813D01*
X453000D01*
Y436771D01*
X453042D01*
Y436729D01*
X453125D01*
Y436771D01*
Y436813D01*
Y436854D01*
X453083D01*
Y436896D01*
X453042D01*
Y436938D01*
X453000D01*
Y436979D01*
Y437021D01*
X452958D01*
Y437063D01*
X452916D01*
Y437104D01*
X452875D01*
Y437146D01*
X452833D01*
Y437188D01*
X452792D01*
Y437229D01*
X452750D01*
Y437271D01*
X452708D01*
Y437313D01*
X452667D01*
Y437354D01*
X452625D01*
Y437396D01*
X452583D01*
Y437438D01*
X452542D01*
Y437479D01*
X452500D01*
Y437521D01*
X452417D01*
Y437563D01*
X452375D01*
Y437604D01*
X452292D01*
Y437646D01*
X452208D01*
Y437688D01*
X452125D01*
Y437729D01*
X452042D01*
Y437771D01*
X451958D01*
Y437813D01*
X451875D01*
Y437854D01*
X451750D01*
Y437896D01*
X451667D01*
Y437938D01*
X451542D01*
Y437979D01*
X451417D01*
Y438021D01*
X451292D01*
Y438063D01*
X451208D01*
Y438104D01*
X451083D01*
Y438146D01*
X451000D01*
Y438188D01*
X450875D01*
Y438229D01*
X450792D01*
Y438271D01*
X450708D01*
Y438313D01*
X450625D01*
Y438354D01*
X450500D01*
Y438396D01*
X450417D01*
Y438438D01*
X450333D01*
Y438479D01*
X450250D01*
Y438521D01*
X450167D01*
Y438563D01*
X450083D01*
Y438604D01*
X450042D01*
Y438646D01*
X449958D01*
Y438688D01*
X449875D01*
Y438729D01*
X449833D01*
Y438771D01*
X449750D01*
Y438813D01*
X449667D01*
Y438854D01*
X449375D01*
Y438896D01*
X448667D01*
Y438938D01*
D02*
G37*
G36*
X453625Y436938D02*
X453542D01*
Y436896D01*
X453583D01*
Y436854D01*
Y436813D01*
X453625D01*
Y436771D01*
X453666D01*
Y436729D01*
X453708D01*
Y436688D01*
X453750D01*
Y436646D01*
X453833D01*
Y436688D01*
Y436729D01*
X453792D01*
Y436771D01*
X453750D01*
Y436813D01*
X453708D01*
Y436854D01*
X453666D01*
Y436896D01*
X453625D01*
Y436938D01*
D02*
G37*
G36*
X450917Y437146D02*
X450833D01*
Y437104D01*
Y437063D01*
X450875D01*
Y437021D01*
X450917D01*
Y436979D01*
X451000D01*
Y436938D01*
Y436896D01*
X451042D01*
Y436854D01*
X451083D01*
Y436813D01*
X451125D01*
Y436771D01*
X451167D01*
Y436729D01*
X451208D01*
Y436688D01*
Y436646D01*
X451250D01*
Y436604D01*
X451292D01*
Y436563D01*
X451375D01*
Y436521D01*
X451625D01*
Y436479D01*
X451833D01*
Y436438D01*
X452000D01*
Y436396D01*
X452125D01*
Y436354D01*
X452292D01*
Y436313D01*
X452417D01*
Y436271D01*
X452542D01*
Y436229D01*
X452625D01*
Y436188D01*
X452750D01*
Y436146D01*
X452875D01*
Y436104D01*
X452958D01*
Y436063D01*
X453083D01*
Y436021D01*
X453166D01*
Y435979D01*
X453292D01*
Y436021D01*
X453250D01*
Y436063D01*
X453208D01*
Y436104D01*
X453166D01*
Y436146D01*
X453125D01*
Y436188D01*
X453083D01*
Y436229D01*
X453042D01*
Y436271D01*
Y436313D01*
X453000D01*
Y436354D01*
X452958D01*
Y436396D01*
X452916D01*
Y436438D01*
Y436479D01*
X452875D01*
Y436521D01*
X452792D01*
Y436563D01*
X452708D01*
Y436604D01*
X452667D01*
Y436646D01*
X452583D01*
Y436688D01*
X452500D01*
Y436729D01*
X452417D01*
Y436771D01*
X452292D01*
Y436813D01*
X452167D01*
Y436854D01*
X452000D01*
Y436896D01*
X451833D01*
Y436938D01*
X451667D01*
Y436979D01*
X451500D01*
Y437021D01*
X451333D01*
Y437063D01*
X451125D01*
Y437104D01*
X450917D01*
Y437146D01*
D02*
G37*
G36*
X441959Y445396D02*
X441833D01*
Y445354D01*
Y445312D01*
Y445271D01*
X441875D01*
Y445229D01*
Y445187D01*
X441917D01*
Y445146D01*
Y445104D01*
X441959D01*
Y445062D01*
X442000D01*
Y445021D01*
X442042D01*
Y444979D01*
Y444937D01*
X442084D01*
Y444896D01*
X442125D01*
Y444854D01*
Y444812D01*
X442167D01*
Y444771D01*
Y444729D01*
X442208D01*
Y444687D01*
X442250D01*
Y444646D01*
Y444604D01*
X442292D01*
Y444562D01*
Y444521D01*
X442334D01*
Y444479D01*
Y444437D01*
X442375D01*
Y444396D01*
Y444354D01*
X442417D01*
Y444312D01*
Y444271D01*
X442458D01*
Y444229D01*
Y444187D01*
X442500D01*
Y444146D01*
X442542D01*
Y444104D01*
Y444062D01*
X442584D01*
Y444021D01*
Y443979D01*
X442625D01*
Y443937D01*
X442667D01*
Y443896D01*
X442708D01*
Y443854D01*
Y443812D01*
Y443771D01*
X442750D01*
Y443729D01*
Y443687D01*
X442792D01*
Y443646D01*
X442834D01*
Y443604D01*
Y443563D01*
X442875D01*
Y443521D01*
X442917D01*
Y443479D01*
X442958D01*
Y443437D01*
X443000D01*
Y443396D01*
X443083D01*
Y443437D01*
Y443479D01*
X443042D01*
Y443521D01*
Y443563D01*
X443083D01*
Y443521D01*
X443125D01*
Y443479D01*
X443167D01*
Y443437D01*
X443209D01*
Y443396D01*
X443250D01*
Y443354D01*
X443292D01*
Y443313D01*
X443333D01*
Y443271D01*
X443375D01*
Y443229D01*
X443459D01*
Y443188D01*
X443500D01*
Y443146D01*
X443542D01*
Y443104D01*
X443583D01*
Y443062D01*
X443625D01*
Y443021D01*
X443667D01*
Y442979D01*
X443709D01*
Y442938D01*
X443750D01*
Y442896D01*
X443792D01*
Y442854D01*
X443875D01*
Y442812D01*
X443917D01*
Y442771D01*
X443958D01*
Y442729D01*
X444042D01*
Y442688D01*
X444125D01*
Y442646D01*
X444208D01*
Y442604D01*
X444250D01*
Y442562D01*
X444375D01*
Y442521D01*
X444458D01*
Y442479D01*
X444583D01*
Y442438D01*
X444917D01*
Y442396D01*
X445250D01*
Y442438D01*
X445375D01*
Y442479D01*
X445458D01*
Y442521D01*
X445500D01*
Y442562D01*
X445625D01*
Y442604D01*
X445708D01*
Y442646D01*
X445792D01*
Y442688D01*
X445833D01*
Y442729D01*
X445917D01*
Y442771D01*
X446042D01*
Y442812D01*
X446125D01*
Y442854D01*
X446167D01*
Y442896D01*
X446250D01*
Y442938D01*
X446292D01*
Y442979D01*
X446375D01*
Y443021D01*
X446417D01*
Y443062D01*
X446458D01*
Y443104D01*
X446500D01*
Y443146D01*
X446542D01*
Y443188D01*
X446583D01*
Y443229D01*
X446625D01*
Y443271D01*
Y443313D01*
X446667D01*
Y443354D01*
Y443396D01*
Y443437D01*
X446792D01*
Y443479D01*
X446833D01*
Y443521D01*
Y443563D01*
Y443604D01*
X446875D01*
Y443646D01*
Y443687D01*
Y443729D01*
Y443771D01*
X446917D01*
Y443812D01*
Y443854D01*
Y443896D01*
X446958D01*
Y443937D01*
Y443979D01*
Y444021D01*
X447000D01*
Y444062D01*
Y444104D01*
Y444146D01*
X447042D01*
Y444187D01*
Y444229D01*
Y444271D01*
X447083D01*
Y444312D01*
Y444354D01*
X447125D01*
Y444396D01*
Y444437D01*
Y444479D01*
X447167D01*
Y444521D01*
Y444562D01*
X447208D01*
Y444604D01*
Y444646D01*
X447250D01*
Y444687D01*
Y444729D01*
X447292D01*
Y444771D01*
Y444812D01*
X447333D01*
Y444854D01*
Y444896D01*
X447375D01*
Y444937D01*
Y444979D01*
X447417D01*
Y445021D01*
Y445062D01*
Y445104D01*
Y445146D01*
X445917D01*
Y445187D01*
X443917D01*
Y445229D01*
X442542D01*
Y445271D01*
X442208D01*
Y445312D01*
X442042D01*
Y445354D01*
X441959D01*
Y445396D01*
D02*
G37*
%LPD*%
D12*
X416500Y441000D02*
Y454000D01*
X409000Y461500D02*
X416500Y454000D01*
X361000Y461500D02*
X409000D01*
X353000Y481500D02*
X364500Y493000D01*
X353000Y469500D02*
Y481500D01*
Y469500D02*
X361000Y461500D01*
X416500Y441000D02*
X436500Y421000D01*
X507000Y350500D01*
Y270000D02*
Y350500D01*
Y270000D02*
X539000Y238000D01*
X564500D01*
X570000Y243500D01*
Y478500D01*
X555500Y493000D02*
X570000Y478500D01*
X364500Y493000D02*
X555500D01*
D16*
X369657Y475004D02*
G03*
X369657Y475004I-5413J0D01*
G01*
X562571D02*
G03*
X562571Y475004I-5413J0D01*
G01*
Y246658D02*
G03*
X562571Y246658I-5413J0D01*
G01*
D23*
X474102Y418737D02*
D03*
X467142Y397858D02*
D03*
X453000Y412000D02*
D03*
X516000Y377000D02*
D03*
X509040Y356121D02*
D03*
X494898Y370263D02*
D03*
X495000Y398000D02*
D03*
X488040Y377121D02*
D03*
X473898Y391263D02*
D03*
D24*
X381000Y478500D02*
D03*
X443500D02*
D03*
D25*
X401000D02*
D03*
X463500D02*
D03*
X483500D02*
D03*
X503500D02*
D03*
X523500D02*
D03*
D26*
X562000Y266500D02*
D03*
X552000D02*
D03*
X562000Y276500D02*
D03*
X552000D02*
D03*
X562000Y286500D02*
D03*
X552000D02*
D03*
X562000Y296500D02*
D03*
X552000D02*
D03*
X562000Y306500D02*
D03*
X552000D02*
D03*
X562000Y316500D02*
D03*
X552000D02*
D03*
X562000Y326500D02*
D03*
X552000D02*
D03*
X562000Y336500D02*
D03*
X552000D02*
D03*
X562000Y346500D02*
D03*
X552000D02*
D03*
X562000Y356500D02*
D03*
X552000D02*
D03*
X562000Y366500D02*
D03*
X552000D02*
D03*
X562000Y376500D02*
D03*
X552000D02*
D03*
X562000Y386500D02*
D03*
X552000D02*
D03*
X562000Y396500D02*
D03*
X552000D02*
D03*
X562000Y406500D02*
D03*
X552000D02*
D03*
X562000Y416500D02*
D03*
X552000D02*
D03*
X562000Y426500D02*
D03*
X552000D02*
D03*
X562000Y436500D02*
D03*
X552000D02*
D03*
X562000Y446500D02*
D03*
X552000D02*
D03*
X562000Y456500D02*
D03*
D27*
X552000D02*
D03*
D28*
X507000Y403200D02*
D03*
X531500Y403000D02*
D03*
Y280500D02*
D03*
X531000Y426500D02*
D03*
X525500Y345000D02*
D03*
X525500Y312500D02*
D03*
Y433000D02*
D03*
D29*
X557158Y475004D02*
D03*
Y246658D02*
D03*
X364244Y475004D02*
D03*
M02*
