G04*
G04 #@! TF.GenerationSoftware,Altium Limited,Altium Designer,20.0.2 (26)*
G04*
G04 Layer_Color=8388736*
%FSLAX25Y25*%
%MOIN*%
G70*
G01*
G75*
%ADD12C,0.01000*%
%ADD16C,0.00050*%
%ADD20R,0.04737X0.03162*%
%ADD21R,0.03950X0.04343*%
%ADD22R,0.04343X0.03950*%
G04:AMPARAMS|DCode=23|XSize=84.77mil|YSize=84.77mil|CornerRadius=0mil|HoleSize=0mil|Usage=FLASHONLY|Rotation=315.000|XOffset=0mil|YOffset=0mil|HoleType=Round|Shape=Round|*
%AMOVALD23*
21,1,0.00000,0.08477,0.00000,0.00000,315.0*
1,1,0.08477,0.00000,0.00000*
1,1,0.08477,0.00000,0.00000*
%
%ADD23OVALD23*%

%ADD24R,0.13024X0.13024*%
%ADD25C,0.13024*%
%ADD26C,0.06706*%
%ADD27R,0.06706X0.06706*%
%ADD28C,0.05800*%
%ADD29C,0.12611*%
D12*
X416500Y441000D02*
Y454000D01*
X409000Y461500D02*
X416500Y454000D01*
X361000Y461500D02*
X409000D01*
X353000Y481500D02*
X364500Y493000D01*
X353000Y469500D02*
Y481500D01*
Y469500D02*
X361000Y461500D01*
X416500Y441000D02*
X436500Y421000D01*
X507000Y350500D01*
Y270000D02*
Y350500D01*
Y270000D02*
X539000Y238000D01*
X564500D01*
X570000Y243500D01*
Y478500D01*
X555500Y493000D02*
X570000Y478500D01*
X364500Y493000D02*
X555500D01*
D16*
X369657Y475004D02*
G03*
X369657Y475004I-5413J0D01*
G01*
X562571D02*
G03*
X562571Y475004I-5413J0D01*
G01*
Y246658D02*
G03*
X562571Y246658I-5413J0D01*
G01*
D20*
X487087Y446020D02*
D03*
Y453500D02*
D03*
X497913D02*
D03*
Y449760D02*
D03*
Y446020D02*
D03*
X487087Y426760D02*
D03*
Y434240D02*
D03*
X497913D02*
D03*
Y430500D02*
D03*
Y426760D02*
D03*
X431087Y436760D02*
D03*
Y444240D02*
D03*
X441913D02*
D03*
Y440500D02*
D03*
Y436760D02*
D03*
X472913D02*
D03*
Y440500D02*
D03*
Y444240D02*
D03*
X462087D02*
D03*
Y436760D02*
D03*
D21*
X508988Y454000D02*
D03*
X514500D02*
D03*
X503988Y439000D02*
D03*
X509500D02*
D03*
X534744Y400500D02*
D03*
X540256D02*
D03*
X534744Y406500D02*
D03*
X540256D02*
D03*
X534744Y439000D02*
D03*
X540256D02*
D03*
X534744Y433000D02*
D03*
X540256D02*
D03*
X534866Y426500D02*
D03*
X540378D02*
D03*
X540256Y293500D02*
D03*
X534744D02*
D03*
X540134Y300000D02*
D03*
X534622D02*
D03*
X540378Y317000D02*
D03*
X534866D02*
D03*
X540134Y339000D02*
D03*
X534622D02*
D03*
X540256Y355468D02*
D03*
X534744D02*
D03*
X540256Y266000D02*
D03*
X534744D02*
D03*
X540256Y286500D02*
D03*
X534744D02*
D03*
X540256Y306000D02*
D03*
X534744D02*
D03*
X540256Y312000D02*
D03*
X534744D02*
D03*
X540134Y345500D02*
D03*
X534622D02*
D03*
X540134Y366500D02*
D03*
X534622D02*
D03*
X540256Y361000D02*
D03*
X534744D02*
D03*
X540256Y416000D02*
D03*
X534744D02*
D03*
X540256Y446500D02*
D03*
X534744D02*
D03*
X542256Y276500D02*
D03*
X536744D02*
D03*
D22*
X520500Y453756D02*
D03*
Y448244D02*
D03*
X510000Y432303D02*
D03*
Y426791D02*
D03*
D23*
X474102Y418737D02*
D03*
X467142Y397858D02*
D03*
X453000Y412000D02*
D03*
X516000Y377000D02*
D03*
X509040Y356121D02*
D03*
X494898Y370263D02*
D03*
X495000Y398000D02*
D03*
X488040Y377121D02*
D03*
X473898Y391263D02*
D03*
D24*
X381000Y478500D02*
D03*
X443500D02*
D03*
D25*
X401000D02*
D03*
X463500D02*
D03*
X483500D02*
D03*
X503500D02*
D03*
X523500D02*
D03*
D26*
X562000Y266500D02*
D03*
X552000D02*
D03*
X562000Y276500D02*
D03*
X552000D02*
D03*
X562000Y286500D02*
D03*
X552000D02*
D03*
X562000Y296500D02*
D03*
X552000D02*
D03*
X562000Y306500D02*
D03*
X552000D02*
D03*
X562000Y316500D02*
D03*
X552000D02*
D03*
X562000Y326500D02*
D03*
X552000D02*
D03*
X562000Y336500D02*
D03*
X552000D02*
D03*
X562000Y346500D02*
D03*
X552000D02*
D03*
X562000Y356500D02*
D03*
X552000D02*
D03*
X562000Y366500D02*
D03*
X552000D02*
D03*
X562000Y376500D02*
D03*
X552000D02*
D03*
X562000Y386500D02*
D03*
X552000D02*
D03*
X562000Y396500D02*
D03*
X552000D02*
D03*
X562000Y406500D02*
D03*
X552000D02*
D03*
X562000Y416500D02*
D03*
X552000D02*
D03*
X562000Y426500D02*
D03*
X552000D02*
D03*
X562000Y436500D02*
D03*
X552000D02*
D03*
X562000Y446500D02*
D03*
X552000D02*
D03*
X562000Y456500D02*
D03*
D27*
X552000D02*
D03*
D28*
X507000Y403200D02*
D03*
X531500Y403000D02*
D03*
Y280500D02*
D03*
X531000Y426500D02*
D03*
X525500Y345000D02*
D03*
X525500Y312500D02*
D03*
Y433000D02*
D03*
D29*
X557158Y475004D02*
D03*
Y246658D02*
D03*
X364244Y475004D02*
D03*
M02*
