M48
;Layer_Color=9474304
;FILE_FORMAT=2:5
INCH,TZ
;TYPE=PLATED
T1F00S00C0.01181
T2F00S00C0.02800
T3F00S00C0.03543
T4F00S00C0.04921
T5F00S00C0.06112
T6F00S00C0.11811
%
T01
X540000Y240000
X545000
X550000
X547500Y245000
X542500
X537500
X540000Y250000
X545000
X547500Y255000
X552500
X557500
X562500
X567500
X565000Y260000
X560000
X567500Y265000
Y275000
Y285000
Y295000
Y305000
X525000Y300000
X520000
X515000
X510000
X512500Y305000
X517500
Y295000
X522500
X527500
X525000Y290000
X520000
X515000
X510000
X512500Y295000
Y285000
X517500
X522500
X527500
X525000Y280000
X520000
X515000
X510000
X517500Y275000
X522500
X527500
X532500
X530000Y270000
X525000
X520000
X522500Y265000
X527500
X530000Y260000
X535000
X540000
X545000
X542500Y255000
X537500
X532500
X527500
X530000Y250000
X535000
X525000Y260000
X520000
X517500Y265000
X540000Y270000
X545000
X565000Y250000
X567500Y245000
X510000Y310000
X467500Y405000
X462500
X457500
X460000Y400000
X462500Y415000
X467500
X462500Y425000
X460000Y430000
X455000
X450000
X445000
X440000
X435000
X430000
X437500Y425000
X442500
X440000Y420000
X447500Y415000
X452500Y425000
X460000Y450000
X465000
X467500Y455000
X462500
X457500
X460000Y460000
X465000
X467500Y465000
X462500
X457500
X455000Y460000
X467500Y445000
X435000Y440000
X425000
X420000
X422500Y445000
X425000Y450000
X420000
X422500Y455000
X417500
X420000Y460000
X415000
X417500Y465000
X422500
X427500
X432500
X412500
X407500
X402500
X397500
X392500
X387500
X382500
X377500
X372500
X367500
X362500
X472500
X475000Y460000
X470000
Y450000
X480000
X482500Y455000
X485000Y460000
X502500Y455000
Y435000
X495000Y440000
Y420000
X500000
X505000
X510000
X515000
X512500Y415000
X507500
X502500
Y405000
X512500
Y395000
X507500
X510000Y390000
X512500Y385000
X507500
X510000Y380000
X500000
X492500Y385000
X487500Y395000
X482500
Y405000
Y415000
X487500
X485000Y420000
X480000Y430000
X472500Y405000
X480000Y380000
X502500Y365000
X500000Y360000
X510000Y350000
Y340000
Y330000
Y320000
X517500Y315000
X537500Y325000
X542500
X545000Y330000
X540000
X535000
X537500Y335000
X542500
X545000Y320000
X567500Y325000
Y335000
Y345000
Y355000
Y365000
Y375000
Y385000
X542500
X537500
X540000Y390000
X545000
X542500Y395000
X537500
X535000Y390000
Y380000
X540000
X545000
X542500Y375000
X537500
X545000Y370000
Y410000
X530000
Y420000
X532500Y455000
X537500
X542500
X545000Y450000
X527500Y455000
X567500Y465000
Y315000
X565000Y470000
X567500Y475000
X565000Y480000
X557500Y485000
X552500
X547500
X542500
X537500
X532500
X535000Y490000
X540000
X545000
X550000
X555000
X550000Y480000
X545000
X540000
X535000
X537500Y475000
X542500
X547500
X550000Y470000
X545000
X540000
X535000
X530000
X525000
X520000
X515000
X510000
X512500Y475000
X515000Y480000
Y490000
X520000
X525000
X530000
X532500Y475000
X510000Y490000
X505000
X500000
X470000Y470000
X465000
X460000
X450000
X445000
X440000
X435000
X430000
X425000
X420000
X415000
X410000
X405000
X400000
X395000
X390000
X385000
X380000
X375000
X372500Y475000
Y485000
X367500
X362500
X365000Y490000
X370000
X375000
X380000
X385000
X390000
X395000
X392500Y485000
Y475000
X412500
X417500
X422500
X427500
X432500
X435000Y480000
X455000
X452500Y475000
X355000Y480000
Y470000
T02
X512000Y273200
X531500Y280500
X467000Y423200
X457000
X447000
X477000Y403200
X487000
X507000
X502000Y393200
X531500Y403000
X531000Y426500
X525500Y433000
X525500Y345000
X525500Y312500
T03
X552000Y266500
X562000
Y276500
X552000
Y286500
X562000
Y296500
X552000
Y306500
X562000
Y316500
X552000
Y326500
X562000
Y336500
X552000
Y346500
X562000
Y356500
X552000
Y366500
X562000
Y376500
X552000
Y386500
X562000
Y396500
X552000
Y406500
X562000
Y416500
X552000
Y426500
X562000
Y436500
X552000
Y446500
X562000
Y456500
X552000
T04
X467142Y397858
X453000Y412000
X474102Y418737
X473898Y391263
X495000Y398000
X494898Y370263
X488040Y377121
X516000Y377000
X509040Y356121
T05
X483500Y478500
X503500
X523500
X463500
X443500
X401000
X381000
T06
X557158Y246658
Y475004
X364244
M30
