G04*
G04 #@! TF.GenerationSoftware,Altium Limited,Altium Designer,20.0.2 (26)*
G04*
G04 Layer_Color=2752767*
%FSLAX25Y25*%
%MOIN*%
G70*
G01*
G75*
%ADD12C,0.01000*%
%ADD16C,0.00050*%
%ADD40C,0.00200*%
%ADD41C,0.00267*%
D12*
X416500Y441000D02*
Y454000D01*
X409000Y461500D02*
X416500Y454000D01*
X361000Y461500D02*
X409000D01*
X353000Y481500D02*
X364500Y493000D01*
X353000Y469500D02*
Y481500D01*
Y469500D02*
X361000Y461500D01*
X416500Y441000D02*
X436500Y421000D01*
X507000Y350500D01*
Y270000D02*
Y350500D01*
Y270000D02*
X539000Y238000D01*
X564500D01*
X570000Y243500D01*
Y478500D01*
X555500Y493000D02*
X570000Y478500D01*
X364500Y493000D02*
X555500D01*
D16*
X369657Y475004D02*
G03*
X369657Y475004I-5413J0D01*
G01*
X562571D02*
G03*
X562571Y475004I-5413J0D01*
G01*
Y246658D02*
G03*
X562571Y246658I-5413J0D01*
G01*
D40*
X473302Y417937D02*
Y419537D01*
X474902D01*
Y417937D01*
X473302D01*
X466342Y397058D02*
Y398658D01*
X467942D01*
Y397058D01*
X466342D01*
X452200Y411200D02*
Y412800D01*
X453800D01*
Y411200D01*
X452200D01*
X515200Y376200D02*
Y377800D01*
X516800D01*
Y376200D01*
X515200D01*
X508240Y355321D02*
Y356921D01*
X509840D01*
Y355321D01*
X508240D01*
X494098Y369463D02*
Y371063D01*
X495698D01*
Y369463D01*
X494098D01*
X494200Y397200D02*
Y398800D01*
X495800D01*
Y397200D01*
X494200D01*
X487240Y376321D02*
Y377921D01*
X488840D01*
Y376321D01*
X487240D01*
X473098Y390463D02*
Y392063D01*
X474698D01*
Y390463D01*
X473098D01*
X562000Y265700D02*
X561200Y267300D01*
X562800D01*
X562000Y265700D01*
X552000D02*
X551200Y267300D01*
X552800D01*
X552000Y265700D01*
X562000Y275700D02*
X561200Y277300D01*
X562800D01*
X562000Y275700D01*
X552000D02*
X551200Y277300D01*
X552800D01*
X552000Y275700D01*
X562000Y285700D02*
X561200Y287300D01*
X562800D01*
X562000Y285700D01*
X552000D02*
X551200Y287300D01*
X552800D01*
X552000Y285700D01*
X562000Y295700D02*
X561200Y297300D01*
X562800D01*
X562000Y295700D01*
X552000D02*
X551200Y297300D01*
X552800D01*
X552000Y295700D01*
X562000Y305700D02*
X561200Y307300D01*
X562800D01*
X562000Y305700D01*
X552000D02*
X551200Y307300D01*
X552800D01*
X552000Y305700D01*
X562000Y315700D02*
X561200Y317300D01*
X562800D01*
X562000Y315700D01*
X552000D02*
X551200Y317300D01*
X552800D01*
X552000Y315700D01*
X562000Y325700D02*
X561200Y327300D01*
X562800D01*
X562000Y325700D01*
X552000D02*
X551200Y327300D01*
X552800D01*
X552000Y325700D01*
X562000Y335700D02*
X561200Y337300D01*
X562800D01*
X562000Y335700D01*
X552000D02*
X551200Y337300D01*
X552800D01*
X552000Y335700D01*
X562000Y345700D02*
X561200Y347300D01*
X562800D01*
X562000Y345700D01*
X552000D02*
X551200Y347300D01*
X552800D01*
X552000Y345700D01*
X562000Y355700D02*
X561200Y357300D01*
X562800D01*
X562000Y355700D01*
X552000D02*
X551200Y357300D01*
X552800D01*
X552000Y355700D01*
X562000Y365700D02*
X561200Y367300D01*
X562800D01*
X562000Y365700D01*
X552000D02*
X551200Y367300D01*
X552800D01*
X552000Y365700D01*
X562000Y375700D02*
X561200Y377300D01*
X562800D01*
X562000Y375700D01*
X552000D02*
X551200Y377300D01*
X552800D01*
X552000Y375700D01*
X562000Y385700D02*
X561200Y387300D01*
X562800D01*
X562000Y385700D01*
X552000D02*
X551200Y387300D01*
X552800D01*
X552000Y385700D01*
X562000Y395700D02*
X561200Y397300D01*
X562800D01*
X562000Y395700D01*
X552000D02*
X551200Y397300D01*
X552800D01*
X552000Y395700D01*
X562000Y405700D02*
X561200Y407300D01*
X562800D01*
X562000Y405700D01*
X552000D02*
X551200Y407300D01*
X552800D01*
X552000Y405700D01*
X562000Y415700D02*
X561200Y417300D01*
X562800D01*
X562000Y415700D01*
X552000D02*
X551200Y417300D01*
X552800D01*
X552000Y415700D01*
X562000Y425700D02*
X561200Y427300D01*
X562800D01*
X562000Y425700D01*
X552000D02*
X551200Y427300D01*
X552800D01*
X552000Y425700D01*
X562000Y435700D02*
X561200Y437300D01*
X562800D01*
X562000Y435700D01*
X552000D02*
X551200Y437300D01*
X552800D01*
X552000Y435700D01*
X562000Y445700D02*
X561200Y447300D01*
X562800D01*
X562000Y445700D01*
X552000D02*
X551200Y447300D01*
X552800D01*
X552000Y445700D01*
X562000Y455700D02*
X561200Y457300D01*
X562800D01*
X562000Y455700D01*
X552000D02*
X551200Y457300D01*
X552800D01*
X552000Y455700D01*
X565000Y479200D02*
X565400Y479600D01*
X565800D01*
X565400Y480000D01*
X565800Y480400D01*
X565400D01*
X565000Y480800D01*
X564600Y480400D01*
X564200D01*
X564600Y480000D01*
X564200Y479600D01*
X564600D01*
X565000Y479200D01*
X567500Y474200D02*
X567900Y474600D01*
X568300D01*
X567900Y475000D01*
X568300Y475400D01*
X567900D01*
X567500Y475800D01*
X567100Y475400D01*
X566700D01*
X567100Y475000D01*
X566700Y474600D01*
X567100D01*
X567500Y474200D01*
X565000Y469200D02*
X565400Y469600D01*
X565800D01*
X565400Y470000D01*
X565800Y470400D01*
X565400D01*
X565000Y470800D01*
X564600Y470400D01*
X564200D01*
X564600Y470000D01*
X564200Y469600D01*
X564600D01*
X565000Y469200D01*
X567500Y464200D02*
X567900Y464600D01*
X568300D01*
X567900Y465000D01*
X568300Y465400D01*
X567900D01*
X567500Y465800D01*
X567100Y465400D01*
X566700D01*
X567100Y465000D01*
X566700Y464600D01*
X567100D01*
X567500Y464200D01*
Y384200D02*
X567900Y384600D01*
X568300D01*
X567900Y385000D01*
X568300Y385400D01*
X567900D01*
X567500Y385800D01*
X567100Y385400D01*
X566700D01*
X567100Y385000D01*
X566700Y384600D01*
X567100D01*
X567500Y384200D01*
Y374200D02*
X567900Y374600D01*
X568300D01*
X567900Y375000D01*
X568300Y375400D01*
X567900D01*
X567500Y375800D01*
X567100Y375400D01*
X566700D01*
X567100Y375000D01*
X566700Y374600D01*
X567100D01*
X567500Y374200D01*
Y364200D02*
X567900Y364600D01*
X568300D01*
X567900Y365000D01*
X568300Y365400D01*
X567900D01*
X567500Y365800D01*
X567100Y365400D01*
X566700D01*
X567100Y365000D01*
X566700Y364600D01*
X567100D01*
X567500Y364200D01*
Y354200D02*
X567900Y354600D01*
X568300D01*
X567900Y355000D01*
X568300Y355400D01*
X567900D01*
X567500Y355800D01*
X567100Y355400D01*
X566700D01*
X567100Y355000D01*
X566700Y354600D01*
X567100D01*
X567500Y354200D01*
Y344200D02*
X567900Y344600D01*
X568300D01*
X567900Y345000D01*
X568300Y345400D01*
X567900D01*
X567500Y345800D01*
X567100Y345400D01*
X566700D01*
X567100Y345000D01*
X566700Y344600D01*
X567100D01*
X567500Y344200D01*
Y334200D02*
X567900Y334600D01*
X568300D01*
X567900Y335000D01*
X568300Y335400D01*
X567900D01*
X567500Y335800D01*
X567100Y335400D01*
X566700D01*
X567100Y335000D01*
X566700Y334600D01*
X567100D01*
X567500Y334200D01*
Y324200D02*
X567900Y324600D01*
X568300D01*
X567900Y325000D01*
X568300Y325400D01*
X567900D01*
X567500Y325800D01*
X567100Y325400D01*
X566700D01*
X567100Y325000D01*
X566700Y324600D01*
X567100D01*
X567500Y324200D01*
Y314200D02*
X567900Y314600D01*
X568300D01*
X567900Y315000D01*
X568300Y315400D01*
X567900D01*
X567500Y315800D01*
X567100Y315400D01*
X566700D01*
X567100Y315000D01*
X566700Y314600D01*
X567100D01*
X567500Y314200D01*
Y304200D02*
X567900Y304600D01*
X568300D01*
X567900Y305000D01*
X568300Y305400D01*
X567900D01*
X567500Y305800D01*
X567100Y305400D01*
X566700D01*
X567100Y305000D01*
X566700Y304600D01*
X567100D01*
X567500Y304200D01*
Y294200D02*
X567900Y294600D01*
X568300D01*
X567900Y295000D01*
X568300Y295400D01*
X567900D01*
X567500Y295800D01*
X567100Y295400D01*
X566700D01*
X567100Y295000D01*
X566700Y294600D01*
X567100D01*
X567500Y294200D01*
Y284200D02*
X567900Y284600D01*
X568300D01*
X567900Y285000D01*
X568300Y285400D01*
X567900D01*
X567500Y285800D01*
X567100Y285400D01*
X566700D01*
X567100Y285000D01*
X566700Y284600D01*
X567100D01*
X567500Y284200D01*
Y274200D02*
X567900Y274600D01*
X568300D01*
X567900Y275000D01*
X568300Y275400D01*
X567900D01*
X567500Y275800D01*
X567100Y275400D01*
X566700D01*
X567100Y275000D01*
X566700Y274600D01*
X567100D01*
X567500Y274200D01*
Y264200D02*
X567900Y264600D01*
X568300D01*
X567900Y265000D01*
X568300Y265400D01*
X567900D01*
X567500Y265800D01*
X567100Y265400D01*
X566700D01*
X567100Y265000D01*
X566700Y264600D01*
X567100D01*
X567500Y264200D01*
X565000Y259200D02*
X565400Y259600D01*
X565800D01*
X565400Y260000D01*
X565800Y260400D01*
X565400D01*
X565000Y260800D01*
X564600Y260400D01*
X564200D01*
X564600Y260000D01*
X564200Y259600D01*
X564600D01*
X565000Y259200D01*
X567500Y254200D02*
X567900Y254600D01*
X568300D01*
X567900Y255000D01*
X568300Y255400D01*
X567900D01*
X567500Y255800D01*
X567100Y255400D01*
X566700D01*
X567100Y255000D01*
X566700Y254600D01*
X567100D01*
X567500Y254200D01*
X565000Y249200D02*
X565400Y249600D01*
X565800D01*
X565400Y250000D01*
X565800Y250400D01*
X565400D01*
X565000Y250800D01*
X564600Y250400D01*
X564200D01*
X564600Y250000D01*
X564200Y249600D01*
X564600D01*
X565000Y249200D01*
X567500Y244200D02*
X567900Y244600D01*
X568300D01*
X567900Y245000D01*
X568300Y245400D01*
X567900D01*
X567500Y245800D01*
X567100Y245400D01*
X566700D01*
X567100Y245000D01*
X566700Y244600D01*
X567100D01*
X567500Y244200D01*
X560000Y259200D02*
X560400Y259600D01*
X560800D01*
X560400Y260000D01*
X560800Y260400D01*
X560400D01*
X560000Y260800D01*
X559600Y260400D01*
X559200D01*
X559600Y260000D01*
X559200Y259600D01*
X559600D01*
X560000Y259200D01*
X562500Y254200D02*
X562900Y254600D01*
X563300D01*
X562900Y255000D01*
X563300Y255400D01*
X562900D01*
X562500Y255800D01*
X562100Y255400D01*
X561700D01*
X562100Y255000D01*
X561700Y254600D01*
X562100D01*
X562500Y254200D01*
X555000Y489200D02*
X555400Y489600D01*
X555800D01*
X555400Y490000D01*
X555800Y490400D01*
X555400D01*
X555000Y490800D01*
X554600Y490400D01*
X554200D01*
X554600Y490000D01*
X554200Y489600D01*
X554600D01*
X555000Y489200D01*
X557500Y484200D02*
X557900Y484600D01*
X558300D01*
X557900Y485000D01*
X558300Y485400D01*
X557900D01*
X557500Y485800D01*
X557100Y485400D01*
X556700D01*
X557100Y485000D01*
X556700Y484600D01*
X557100D01*
X557500Y484200D01*
Y254200D02*
X557900Y254600D01*
X558300D01*
X557900Y255000D01*
X558300Y255400D01*
X557900D01*
X557500Y255800D01*
X557100Y255400D01*
X556700D01*
X557100Y255000D01*
X556700Y254600D01*
X557100D01*
X557500Y254200D01*
X550000Y489200D02*
X550400Y489600D01*
X550800D01*
X550400Y490000D01*
X550800Y490400D01*
X550400D01*
X550000Y490800D01*
X549600Y490400D01*
X549200D01*
X549600Y490000D01*
X549200Y489600D01*
X549600D01*
X550000Y489200D01*
X552500Y484200D02*
X552900Y484600D01*
X553300D01*
X552900Y485000D01*
X553300Y485400D01*
X552900D01*
X552500Y485800D01*
X552100Y485400D01*
X551700D01*
X552100Y485000D01*
X551700Y484600D01*
X552100D01*
X552500Y484200D01*
X550000Y479200D02*
X550400Y479600D01*
X550800D01*
X550400Y480000D01*
X550800Y480400D01*
X550400D01*
X550000Y480800D01*
X549600Y480400D01*
X549200D01*
X549600Y480000D01*
X549200Y479600D01*
X549600D01*
X550000Y479200D01*
Y469200D02*
X550400Y469600D01*
X550800D01*
X550400Y470000D01*
X550800Y470400D01*
X550400D01*
X550000Y470800D01*
X549600Y470400D01*
X549200D01*
X549600Y470000D01*
X549200Y469600D01*
X549600D01*
X550000Y469200D01*
X552500Y254200D02*
X552900Y254600D01*
X553300D01*
X552900Y255000D01*
X553300Y255400D01*
X552900D01*
X552500Y255800D01*
X552100Y255400D01*
X551700D01*
X552100Y255000D01*
X551700Y254600D01*
X552100D01*
X552500Y254200D01*
X550000Y239200D02*
X550400Y239600D01*
X550800D01*
X550400Y240000D01*
X550800Y240400D01*
X550400D01*
X550000Y240800D01*
X549600Y240400D01*
X549200D01*
X549600Y240000D01*
X549200Y239600D01*
X549600D01*
X550000Y239200D01*
X545000Y489200D02*
X545400Y489600D01*
X545800D01*
X545400Y490000D01*
X545800Y490400D01*
X545400D01*
X545000Y490800D01*
X544600Y490400D01*
X544200D01*
X544600Y490000D01*
X544200Y489600D01*
X544600D01*
X545000Y489200D01*
X547500Y484200D02*
X547900Y484600D01*
X548300D01*
X547900Y485000D01*
X548300Y485400D01*
X547900D01*
X547500Y485800D01*
X547100Y485400D01*
X546700D01*
X547100Y485000D01*
X546700Y484600D01*
X547100D01*
X547500Y484200D01*
X545000Y479200D02*
X545400Y479600D01*
X545800D01*
X545400Y480000D01*
X545800Y480400D01*
X545400D01*
X545000Y480800D01*
X544600Y480400D01*
X544200D01*
X544600Y480000D01*
X544200Y479600D01*
X544600D01*
X545000Y479200D01*
X547500Y474200D02*
X547900Y474600D01*
X548300D01*
X547900Y475000D01*
X548300Y475400D01*
X547900D01*
X547500Y475800D01*
X547100Y475400D01*
X546700D01*
X547100Y475000D01*
X546700Y474600D01*
X547100D01*
X547500Y474200D01*
X545000Y469200D02*
X545400Y469600D01*
X545800D01*
X545400Y470000D01*
X545800Y470400D01*
X545400D01*
X545000Y470800D01*
X544600Y470400D01*
X544200D01*
X544600Y470000D01*
X544200Y469600D01*
X544600D01*
X545000Y469200D01*
Y449200D02*
X545400Y449600D01*
X545800D01*
X545400Y450000D01*
X545800Y450400D01*
X545400D01*
X545000Y450800D01*
X544600Y450400D01*
X544200D01*
X544600Y450000D01*
X544200Y449600D01*
X544600D01*
X545000Y449200D01*
Y409200D02*
X545400Y409600D01*
X545800D01*
X545400Y410000D01*
X545800Y410400D01*
X545400D01*
X545000Y410800D01*
X544600Y410400D01*
X544200D01*
X544600Y410000D01*
X544200Y409600D01*
X544600D01*
X545000Y409200D01*
Y389200D02*
X545400Y389600D01*
X545800D01*
X545400Y390000D01*
X545800Y390400D01*
X545400D01*
X545000Y390800D01*
X544600Y390400D01*
X544200D01*
X544600Y390000D01*
X544200Y389600D01*
X544600D01*
X545000Y389200D01*
Y379200D02*
X545400Y379600D01*
X545800D01*
X545400Y380000D01*
X545800Y380400D01*
X545400D01*
X545000Y380800D01*
X544600Y380400D01*
X544200D01*
X544600Y380000D01*
X544200Y379600D01*
X544600D01*
X545000Y379200D01*
Y369200D02*
X545400Y369600D01*
X545800D01*
X545400Y370000D01*
X545800Y370400D01*
X545400D01*
X545000Y370800D01*
X544600Y370400D01*
X544200D01*
X544600Y370000D01*
X544200Y369600D01*
X544600D01*
X545000Y369200D01*
Y329200D02*
X545400Y329600D01*
X545800D01*
X545400Y330000D01*
X545800Y330400D01*
X545400D01*
X545000Y330800D01*
X544600Y330400D01*
X544200D01*
X544600Y330000D01*
X544200Y329600D01*
X544600D01*
X545000Y329200D01*
Y319200D02*
X545400Y319600D01*
X545800D01*
X545400Y320000D01*
X545800Y320400D01*
X545400D01*
X545000Y320800D01*
X544600Y320400D01*
X544200D01*
X544600Y320000D01*
X544200Y319600D01*
X544600D01*
X545000Y319200D01*
Y269200D02*
X545400Y269600D01*
X545800D01*
X545400Y270000D01*
X545800Y270400D01*
X545400D01*
X545000Y270800D01*
X544600Y270400D01*
X544200D01*
X544600Y270000D01*
X544200Y269600D01*
X544600D01*
X545000Y269200D01*
Y259200D02*
X545400Y259600D01*
X545800D01*
X545400Y260000D01*
X545800Y260400D01*
X545400D01*
X545000Y260800D01*
X544600Y260400D01*
X544200D01*
X544600Y260000D01*
X544200Y259600D01*
X544600D01*
X545000Y259200D01*
X547500Y254200D02*
X547900Y254600D01*
X548300D01*
X547900Y255000D01*
X548300Y255400D01*
X547900D01*
X547500Y255800D01*
X547100Y255400D01*
X546700D01*
X547100Y255000D01*
X546700Y254600D01*
X547100D01*
X547500Y254200D01*
X545000Y249200D02*
X545400Y249600D01*
X545800D01*
X545400Y250000D01*
X545800Y250400D01*
X545400D01*
X545000Y250800D01*
X544600Y250400D01*
X544200D01*
X544600Y250000D01*
X544200Y249600D01*
X544600D01*
X545000Y249200D01*
X547500Y244200D02*
X547900Y244600D01*
X548300D01*
X547900Y245000D01*
X548300Y245400D01*
X547900D01*
X547500Y245800D01*
X547100Y245400D01*
X546700D01*
X547100Y245000D01*
X546700Y244600D01*
X547100D01*
X547500Y244200D01*
X545000Y239200D02*
X545400Y239600D01*
X545800D01*
X545400Y240000D01*
X545800Y240400D01*
X545400D01*
X545000Y240800D01*
X544600Y240400D01*
X544200D01*
X544600Y240000D01*
X544200Y239600D01*
X544600D01*
X545000Y239200D01*
X540000Y489200D02*
X540400Y489600D01*
X540800D01*
X540400Y490000D01*
X540800Y490400D01*
X540400D01*
X540000Y490800D01*
X539600Y490400D01*
X539200D01*
X539600Y490000D01*
X539200Y489600D01*
X539600D01*
X540000Y489200D01*
X542500Y484200D02*
X542900Y484600D01*
X543300D01*
X542900Y485000D01*
X543300Y485400D01*
X542900D01*
X542500Y485800D01*
X542100Y485400D01*
X541700D01*
X542100Y485000D01*
X541700Y484600D01*
X542100D01*
X542500Y484200D01*
X540000Y479200D02*
X540400Y479600D01*
X540800D01*
X540400Y480000D01*
X540800Y480400D01*
X540400D01*
X540000Y480800D01*
X539600Y480400D01*
X539200D01*
X539600Y480000D01*
X539200Y479600D01*
X539600D01*
X540000Y479200D01*
X542500Y474200D02*
X542900Y474600D01*
X543300D01*
X542900Y475000D01*
X543300Y475400D01*
X542900D01*
X542500Y475800D01*
X542100Y475400D01*
X541700D01*
X542100Y475000D01*
X541700Y474600D01*
X542100D01*
X542500Y474200D01*
X540000Y469200D02*
X540400Y469600D01*
X540800D01*
X540400Y470000D01*
X540800Y470400D01*
X540400D01*
X540000Y470800D01*
X539600Y470400D01*
X539200D01*
X539600Y470000D01*
X539200Y469600D01*
X539600D01*
X540000Y469200D01*
X542500Y454200D02*
X542900Y454600D01*
X543300D01*
X542900Y455000D01*
X543300Y455400D01*
X542900D01*
X542500Y455800D01*
X542100Y455400D01*
X541700D01*
X542100Y455000D01*
X541700Y454600D01*
X542100D01*
X542500Y454200D01*
Y394200D02*
X542900Y394600D01*
X543300D01*
X542900Y395000D01*
X543300Y395400D01*
X542900D01*
X542500Y395800D01*
X542100Y395400D01*
X541700D01*
X542100Y395000D01*
X541700Y394600D01*
X542100D01*
X542500Y394200D01*
X540000Y389200D02*
X540400Y389600D01*
X540800D01*
X540400Y390000D01*
X540800Y390400D01*
X540400D01*
X540000Y390800D01*
X539600Y390400D01*
X539200D01*
X539600Y390000D01*
X539200Y389600D01*
X539600D01*
X540000Y389200D01*
X542500Y384200D02*
X542900Y384600D01*
X543300D01*
X542900Y385000D01*
X543300Y385400D01*
X542900D01*
X542500Y385800D01*
X542100Y385400D01*
X541700D01*
X542100Y385000D01*
X541700Y384600D01*
X542100D01*
X542500Y384200D01*
X540000Y379200D02*
X540400Y379600D01*
X540800D01*
X540400Y380000D01*
X540800Y380400D01*
X540400D01*
X540000Y380800D01*
X539600Y380400D01*
X539200D01*
X539600Y380000D01*
X539200Y379600D01*
X539600D01*
X540000Y379200D01*
X542500Y374200D02*
X542900Y374600D01*
X543300D01*
X542900Y375000D01*
X543300Y375400D01*
X542900D01*
X542500Y375800D01*
X542100Y375400D01*
X541700D01*
X542100Y375000D01*
X541700Y374600D01*
X542100D01*
X542500Y374200D01*
Y334200D02*
X542900Y334600D01*
X543300D01*
X542900Y335000D01*
X543300Y335400D01*
X542900D01*
X542500Y335800D01*
X542100Y335400D01*
X541700D01*
X542100Y335000D01*
X541700Y334600D01*
X542100D01*
X542500Y334200D01*
X540000Y329200D02*
X540400Y329600D01*
X540800D01*
X540400Y330000D01*
X540800Y330400D01*
X540400D01*
X540000Y330800D01*
X539600Y330400D01*
X539200D01*
X539600Y330000D01*
X539200Y329600D01*
X539600D01*
X540000Y329200D01*
X542500Y324200D02*
X542900Y324600D01*
X543300D01*
X542900Y325000D01*
X543300Y325400D01*
X542900D01*
X542500Y325800D01*
X542100Y325400D01*
X541700D01*
X542100Y325000D01*
X541700Y324600D01*
X542100D01*
X542500Y324200D01*
X540000Y269200D02*
X540400Y269600D01*
X540800D01*
X540400Y270000D01*
X540800Y270400D01*
X540400D01*
X540000Y270800D01*
X539600Y270400D01*
X539200D01*
X539600Y270000D01*
X539200Y269600D01*
X539600D01*
X540000Y269200D01*
Y259200D02*
X540400Y259600D01*
X540800D01*
X540400Y260000D01*
X540800Y260400D01*
X540400D01*
X540000Y260800D01*
X539600Y260400D01*
X539200D01*
X539600Y260000D01*
X539200Y259600D01*
X539600D01*
X540000Y259200D01*
X542500Y254200D02*
X542900Y254600D01*
X543300D01*
X542900Y255000D01*
X543300Y255400D01*
X542900D01*
X542500Y255800D01*
X542100Y255400D01*
X541700D01*
X542100Y255000D01*
X541700Y254600D01*
X542100D01*
X542500Y254200D01*
X540000Y249200D02*
X540400Y249600D01*
X540800D01*
X540400Y250000D01*
X540800Y250400D01*
X540400D01*
X540000Y250800D01*
X539600Y250400D01*
X539200D01*
X539600Y250000D01*
X539200Y249600D01*
X539600D01*
X540000Y249200D01*
X542500Y244200D02*
X542900Y244600D01*
X543300D01*
X542900Y245000D01*
X543300Y245400D01*
X542900D01*
X542500Y245800D01*
X542100Y245400D01*
X541700D01*
X542100Y245000D01*
X541700Y244600D01*
X542100D01*
X542500Y244200D01*
X540000Y239200D02*
X540400Y239600D01*
X540800D01*
X540400Y240000D01*
X540800Y240400D01*
X540400D01*
X540000Y240800D01*
X539600Y240400D01*
X539200D01*
X539600Y240000D01*
X539200Y239600D01*
X539600D01*
X540000Y239200D01*
X535000Y489200D02*
X535400Y489600D01*
X535800D01*
X535400Y490000D01*
X535800Y490400D01*
X535400D01*
X535000Y490800D01*
X534600Y490400D01*
X534200D01*
X534600Y490000D01*
X534200Y489600D01*
X534600D01*
X535000Y489200D01*
X537500Y484200D02*
X537900Y484600D01*
X538300D01*
X537900Y485000D01*
X538300Y485400D01*
X537900D01*
X537500Y485800D01*
X537100Y485400D01*
X536700D01*
X537100Y485000D01*
X536700Y484600D01*
X537100D01*
X537500Y484200D01*
X535000Y479200D02*
X535400Y479600D01*
X535800D01*
X535400Y480000D01*
X535800Y480400D01*
X535400D01*
X535000Y480800D01*
X534600Y480400D01*
X534200D01*
X534600Y480000D01*
X534200Y479600D01*
X534600D01*
X535000Y479200D01*
X537500Y474200D02*
X537900Y474600D01*
X538300D01*
X537900Y475000D01*
X538300Y475400D01*
X537900D01*
X537500Y475800D01*
X537100Y475400D01*
X536700D01*
X537100Y475000D01*
X536700Y474600D01*
X537100D01*
X537500Y474200D01*
X535000Y469200D02*
X535400Y469600D01*
X535800D01*
X535400Y470000D01*
X535800Y470400D01*
X535400D01*
X535000Y470800D01*
X534600Y470400D01*
X534200D01*
X534600Y470000D01*
X534200Y469600D01*
X534600D01*
X535000Y469200D01*
X537500Y454200D02*
X537900Y454600D01*
X538300D01*
X537900Y455000D01*
X538300Y455400D01*
X537900D01*
X537500Y455800D01*
X537100Y455400D01*
X536700D01*
X537100Y455000D01*
X536700Y454600D01*
X537100D01*
X537500Y454200D01*
Y394200D02*
X537900Y394600D01*
X538300D01*
X537900Y395000D01*
X538300Y395400D01*
X537900D01*
X537500Y395800D01*
X537100Y395400D01*
X536700D01*
X537100Y395000D01*
X536700Y394600D01*
X537100D01*
X537500Y394200D01*
X535000Y389200D02*
X535400Y389600D01*
X535800D01*
X535400Y390000D01*
X535800Y390400D01*
X535400D01*
X535000Y390800D01*
X534600Y390400D01*
X534200D01*
X534600Y390000D01*
X534200Y389600D01*
X534600D01*
X535000Y389200D01*
X537500Y384200D02*
X537900Y384600D01*
X538300D01*
X537900Y385000D01*
X538300Y385400D01*
X537900D01*
X537500Y385800D01*
X537100Y385400D01*
X536700D01*
X537100Y385000D01*
X536700Y384600D01*
X537100D01*
X537500Y384200D01*
X535000Y379200D02*
X535400Y379600D01*
X535800D01*
X535400Y380000D01*
X535800Y380400D01*
X535400D01*
X535000Y380800D01*
X534600Y380400D01*
X534200D01*
X534600Y380000D01*
X534200Y379600D01*
X534600D01*
X535000Y379200D01*
X537500Y374200D02*
X537900Y374600D01*
X538300D01*
X537900Y375000D01*
X538300Y375400D01*
X537900D01*
X537500Y375800D01*
X537100Y375400D01*
X536700D01*
X537100Y375000D01*
X536700Y374600D01*
X537100D01*
X537500Y374200D01*
Y334200D02*
X537900Y334600D01*
X538300D01*
X537900Y335000D01*
X538300Y335400D01*
X537900D01*
X537500Y335800D01*
X537100Y335400D01*
X536700D01*
X537100Y335000D01*
X536700Y334600D01*
X537100D01*
X537500Y334200D01*
X535000Y329200D02*
X535400Y329600D01*
X535800D01*
X535400Y330000D01*
X535800Y330400D01*
X535400D01*
X535000Y330800D01*
X534600Y330400D01*
X534200D01*
X534600Y330000D01*
X534200Y329600D01*
X534600D01*
X535000Y329200D01*
X537500Y324200D02*
X537900Y324600D01*
X538300D01*
X537900Y325000D01*
X538300Y325400D01*
X537900D01*
X537500Y325800D01*
X537100Y325400D01*
X536700D01*
X537100Y325000D01*
X536700Y324600D01*
X537100D01*
X537500Y324200D01*
X535000Y259200D02*
X535400Y259600D01*
X535800D01*
X535400Y260000D01*
X535800Y260400D01*
X535400D01*
X535000Y260800D01*
X534600Y260400D01*
X534200D01*
X534600Y260000D01*
X534200Y259600D01*
X534600D01*
X535000Y259200D01*
X537500Y254200D02*
X537900Y254600D01*
X538300D01*
X537900Y255000D01*
X538300Y255400D01*
X537900D01*
X537500Y255800D01*
X537100Y255400D01*
X536700D01*
X537100Y255000D01*
X536700Y254600D01*
X537100D01*
X537500Y254200D01*
X535000Y249200D02*
X535400Y249600D01*
X535800D01*
X535400Y250000D01*
X535800Y250400D01*
X535400D01*
X535000Y250800D01*
X534600Y250400D01*
X534200D01*
X534600Y250000D01*
X534200Y249600D01*
X534600D01*
X535000Y249200D01*
X537500Y244200D02*
X537900Y244600D01*
X538300D01*
X537900Y245000D01*
X538300Y245400D01*
X537900D01*
X537500Y245800D01*
X537100Y245400D01*
X536700D01*
X537100Y245000D01*
X536700Y244600D01*
X537100D01*
X537500Y244200D01*
X530000Y489200D02*
X530400Y489600D01*
X530800D01*
X530400Y490000D01*
X530800Y490400D01*
X530400D01*
X530000Y490800D01*
X529600Y490400D01*
X529200D01*
X529600Y490000D01*
X529200Y489600D01*
X529600D01*
X530000Y489200D01*
X532500Y484200D02*
X532900Y484600D01*
X533300D01*
X532900Y485000D01*
X533300Y485400D01*
X532900D01*
X532500Y485800D01*
X532100Y485400D01*
X531700D01*
X532100Y485000D01*
X531700Y484600D01*
X532100D01*
X532500Y484200D01*
Y474200D02*
X532900Y474600D01*
X533300D01*
X532900Y475000D01*
X533300Y475400D01*
X532900D01*
X532500Y475800D01*
X532100Y475400D01*
X531700D01*
X532100Y475000D01*
X531700Y474600D01*
X532100D01*
X532500Y474200D01*
X530000Y469200D02*
X530400Y469600D01*
X530800D01*
X530400Y470000D01*
X530800Y470400D01*
X530400D01*
X530000Y470800D01*
X529600Y470400D01*
X529200D01*
X529600Y470000D01*
X529200Y469600D01*
X529600D01*
X530000Y469200D01*
X532500Y454200D02*
X532900Y454600D01*
X533300D01*
X532900Y455000D01*
X533300Y455400D01*
X532900D01*
X532500Y455800D01*
X532100Y455400D01*
X531700D01*
X532100Y455000D01*
X531700Y454600D01*
X532100D01*
X532500Y454200D01*
X530000Y419200D02*
X530400Y419600D01*
X530800D01*
X530400Y420000D01*
X530800Y420400D01*
X530400D01*
X530000Y420800D01*
X529600Y420400D01*
X529200D01*
X529600Y420000D01*
X529200Y419600D01*
X529600D01*
X530000Y419200D01*
Y409200D02*
X530400Y409600D01*
X530800D01*
X530400Y410000D01*
X530800Y410400D01*
X530400D01*
X530000Y410800D01*
X529600Y410400D01*
X529200D01*
X529600Y410000D01*
X529200Y409600D01*
X529600D01*
X530000Y409200D01*
X532500Y274200D02*
X532900Y274600D01*
X533300D01*
X532900Y275000D01*
X533300Y275400D01*
X532900D01*
X532500Y275800D01*
X532100Y275400D01*
X531700D01*
X532100Y275000D01*
X531700Y274600D01*
X532100D01*
X532500Y274200D01*
X530000Y269200D02*
X530400Y269600D01*
X530800D01*
X530400Y270000D01*
X530800Y270400D01*
X530400D01*
X530000Y270800D01*
X529600Y270400D01*
X529200D01*
X529600Y270000D01*
X529200Y269600D01*
X529600D01*
X530000Y269200D01*
Y259200D02*
X530400Y259600D01*
X530800D01*
X530400Y260000D01*
X530800Y260400D01*
X530400D01*
X530000Y260800D01*
X529600Y260400D01*
X529200D01*
X529600Y260000D01*
X529200Y259600D01*
X529600D01*
X530000Y259200D01*
X532500Y254200D02*
X532900Y254600D01*
X533300D01*
X532900Y255000D01*
X533300Y255400D01*
X532900D01*
X532500Y255800D01*
X532100Y255400D01*
X531700D01*
X532100Y255000D01*
X531700Y254600D01*
X532100D01*
X532500Y254200D01*
X530000Y249200D02*
X530400Y249600D01*
X530800D01*
X530400Y250000D01*
X530800Y250400D01*
X530400D01*
X530000Y250800D01*
X529600Y250400D01*
X529200D01*
X529600Y250000D01*
X529200Y249600D01*
X529600D01*
X530000Y249200D01*
X525000Y489200D02*
X525400Y489600D01*
X525800D01*
X525400Y490000D01*
X525800Y490400D01*
X525400D01*
X525000Y490800D01*
X524600Y490400D01*
X524200D01*
X524600Y490000D01*
X524200Y489600D01*
X524600D01*
X525000Y489200D01*
Y469200D02*
X525400Y469600D01*
X525800D01*
X525400Y470000D01*
X525800Y470400D01*
X525400D01*
X525000Y470800D01*
X524600Y470400D01*
X524200D01*
X524600Y470000D01*
X524200Y469600D01*
X524600D01*
X525000Y469200D01*
X527500Y454200D02*
X527900Y454600D01*
X528300D01*
X527900Y455000D01*
X528300Y455400D01*
X527900D01*
X527500Y455800D01*
X527100Y455400D01*
X526700D01*
X527100Y455000D01*
X526700Y454600D01*
X527100D01*
X527500Y454200D01*
X525000Y299200D02*
X525400Y299600D01*
X525800D01*
X525400Y300000D01*
X525800Y300400D01*
X525400D01*
X525000Y300800D01*
X524600Y300400D01*
X524200D01*
X524600Y300000D01*
X524200Y299600D01*
X524600D01*
X525000Y299200D01*
X527500Y294200D02*
X527900Y294600D01*
X528300D01*
X527900Y295000D01*
X528300Y295400D01*
X527900D01*
X527500Y295800D01*
X527100Y295400D01*
X526700D01*
X527100Y295000D01*
X526700Y294600D01*
X527100D01*
X527500Y294200D01*
X525000Y289200D02*
X525400Y289600D01*
X525800D01*
X525400Y290000D01*
X525800Y290400D01*
X525400D01*
X525000Y290800D01*
X524600Y290400D01*
X524200D01*
X524600Y290000D01*
X524200Y289600D01*
X524600D01*
X525000Y289200D01*
X527500Y284200D02*
X527900Y284600D01*
X528300D01*
X527900Y285000D01*
X528300Y285400D01*
X527900D01*
X527500Y285800D01*
X527100Y285400D01*
X526700D01*
X527100Y285000D01*
X526700Y284600D01*
X527100D01*
X527500Y284200D01*
X525000Y279200D02*
X525400Y279600D01*
X525800D01*
X525400Y280000D01*
X525800Y280400D01*
X525400D01*
X525000Y280800D01*
X524600Y280400D01*
X524200D01*
X524600Y280000D01*
X524200Y279600D01*
X524600D01*
X525000Y279200D01*
X527500Y274200D02*
X527900Y274600D01*
X528300D01*
X527900Y275000D01*
X528300Y275400D01*
X527900D01*
X527500Y275800D01*
X527100Y275400D01*
X526700D01*
X527100Y275000D01*
X526700Y274600D01*
X527100D01*
X527500Y274200D01*
X525000Y269200D02*
X525400Y269600D01*
X525800D01*
X525400Y270000D01*
X525800Y270400D01*
X525400D01*
X525000Y270800D01*
X524600Y270400D01*
X524200D01*
X524600Y270000D01*
X524200Y269600D01*
X524600D01*
X525000Y269200D01*
X527500Y264200D02*
X527900Y264600D01*
X528300D01*
X527900Y265000D01*
X528300Y265400D01*
X527900D01*
X527500Y265800D01*
X527100Y265400D01*
X526700D01*
X527100Y265000D01*
X526700Y264600D01*
X527100D01*
X527500Y264200D01*
X525000Y259200D02*
X525400Y259600D01*
X525800D01*
X525400Y260000D01*
X525800Y260400D01*
X525400D01*
X525000Y260800D01*
X524600Y260400D01*
X524200D01*
X524600Y260000D01*
X524200Y259600D01*
X524600D01*
X525000Y259200D01*
X527500Y254200D02*
X527900Y254600D01*
X528300D01*
X527900Y255000D01*
X528300Y255400D01*
X527900D01*
X527500Y255800D01*
X527100Y255400D01*
X526700D01*
X527100Y255000D01*
X526700Y254600D01*
X527100D01*
X527500Y254200D01*
X520000Y489200D02*
X520400Y489600D01*
X520800D01*
X520400Y490000D01*
X520800Y490400D01*
X520400D01*
X520000Y490800D01*
X519600Y490400D01*
X519200D01*
X519600Y490000D01*
X519200Y489600D01*
X519600D01*
X520000Y489200D01*
Y469200D02*
X520400Y469600D01*
X520800D01*
X520400Y470000D01*
X520800Y470400D01*
X520400D01*
X520000Y470800D01*
X519600Y470400D01*
X519200D01*
X519600Y470000D01*
X519200Y469600D01*
X519600D01*
X520000Y469200D01*
Y299200D02*
X520400Y299600D01*
X520800D01*
X520400Y300000D01*
X520800Y300400D01*
X520400D01*
X520000Y300800D01*
X519600Y300400D01*
X519200D01*
X519600Y300000D01*
X519200Y299600D01*
X519600D01*
X520000Y299200D01*
X522500Y294200D02*
X522900Y294600D01*
X523300D01*
X522900Y295000D01*
X523300Y295400D01*
X522900D01*
X522500Y295800D01*
X522100Y295400D01*
X521700D01*
X522100Y295000D01*
X521700Y294600D01*
X522100D01*
X522500Y294200D01*
X520000Y289200D02*
X520400Y289600D01*
X520800D01*
X520400Y290000D01*
X520800Y290400D01*
X520400D01*
X520000Y290800D01*
X519600Y290400D01*
X519200D01*
X519600Y290000D01*
X519200Y289600D01*
X519600D01*
X520000Y289200D01*
X522500Y284200D02*
X522900Y284600D01*
X523300D01*
X522900Y285000D01*
X523300Y285400D01*
X522900D01*
X522500Y285800D01*
X522100Y285400D01*
X521700D01*
X522100Y285000D01*
X521700Y284600D01*
X522100D01*
X522500Y284200D01*
X520000Y279200D02*
X520400Y279600D01*
X520800D01*
X520400Y280000D01*
X520800Y280400D01*
X520400D01*
X520000Y280800D01*
X519600Y280400D01*
X519200D01*
X519600Y280000D01*
X519200Y279600D01*
X519600D01*
X520000Y279200D01*
X522500Y274200D02*
X522900Y274600D01*
X523300D01*
X522900Y275000D01*
X523300Y275400D01*
X522900D01*
X522500Y275800D01*
X522100Y275400D01*
X521700D01*
X522100Y275000D01*
X521700Y274600D01*
X522100D01*
X522500Y274200D01*
X520000Y269200D02*
X520400Y269600D01*
X520800D01*
X520400Y270000D01*
X520800Y270400D01*
X520400D01*
X520000Y270800D01*
X519600Y270400D01*
X519200D01*
X519600Y270000D01*
X519200Y269600D01*
X519600D01*
X520000Y269200D01*
X522500Y264200D02*
X522900Y264600D01*
X523300D01*
X522900Y265000D01*
X523300Y265400D01*
X522900D01*
X522500Y265800D01*
X522100Y265400D01*
X521700D01*
X522100Y265000D01*
X521700Y264600D01*
X522100D01*
X522500Y264200D01*
X520000Y259200D02*
X520400Y259600D01*
X520800D01*
X520400Y260000D01*
X520800Y260400D01*
X520400D01*
X520000Y260800D01*
X519600Y260400D01*
X519200D01*
X519600Y260000D01*
X519200Y259600D01*
X519600D01*
X520000Y259200D01*
X515000Y489200D02*
X515400Y489600D01*
X515800D01*
X515400Y490000D01*
X515800Y490400D01*
X515400D01*
X515000Y490800D01*
X514600Y490400D01*
X514200D01*
X514600Y490000D01*
X514200Y489600D01*
X514600D01*
X515000Y489200D01*
Y479200D02*
X515400Y479600D01*
X515800D01*
X515400Y480000D01*
X515800Y480400D01*
X515400D01*
X515000Y480800D01*
X514600Y480400D01*
X514200D01*
X514600Y480000D01*
X514200Y479600D01*
X514600D01*
X515000Y479200D01*
Y469200D02*
X515400Y469600D01*
X515800D01*
X515400Y470000D01*
X515800Y470400D01*
X515400D01*
X515000Y470800D01*
X514600Y470400D01*
X514200D01*
X514600Y470000D01*
X514200Y469600D01*
X514600D01*
X515000Y469200D01*
Y419200D02*
X515400Y419600D01*
X515800D01*
X515400Y420000D01*
X515800Y420400D01*
X515400D01*
X515000Y420800D01*
X514600Y420400D01*
X514200D01*
X514600Y420000D01*
X514200Y419600D01*
X514600D01*
X515000Y419200D01*
X517500Y314200D02*
X517900Y314600D01*
X518300D01*
X517900Y315000D01*
X518300Y315400D01*
X517900D01*
X517500Y315800D01*
X517100Y315400D01*
X516700D01*
X517100Y315000D01*
X516700Y314600D01*
X517100D01*
X517500Y314200D01*
Y304200D02*
X517900Y304600D01*
X518300D01*
X517900Y305000D01*
X518300Y305400D01*
X517900D01*
X517500Y305800D01*
X517100Y305400D01*
X516700D01*
X517100Y305000D01*
X516700Y304600D01*
X517100D01*
X517500Y304200D01*
X515000Y299200D02*
X515400Y299600D01*
X515800D01*
X515400Y300000D01*
X515800Y300400D01*
X515400D01*
X515000Y300800D01*
X514600Y300400D01*
X514200D01*
X514600Y300000D01*
X514200Y299600D01*
X514600D01*
X515000Y299200D01*
X517500Y294200D02*
X517900Y294600D01*
X518300D01*
X517900Y295000D01*
X518300Y295400D01*
X517900D01*
X517500Y295800D01*
X517100Y295400D01*
X516700D01*
X517100Y295000D01*
X516700Y294600D01*
X517100D01*
X517500Y294200D01*
X515000Y289200D02*
X515400Y289600D01*
X515800D01*
X515400Y290000D01*
X515800Y290400D01*
X515400D01*
X515000Y290800D01*
X514600Y290400D01*
X514200D01*
X514600Y290000D01*
X514200Y289600D01*
X514600D01*
X515000Y289200D01*
X517500Y284200D02*
X517900Y284600D01*
X518300D01*
X517900Y285000D01*
X518300Y285400D01*
X517900D01*
X517500Y285800D01*
X517100Y285400D01*
X516700D01*
X517100Y285000D01*
X516700Y284600D01*
X517100D01*
X517500Y284200D01*
X515000Y279200D02*
X515400Y279600D01*
X515800D01*
X515400Y280000D01*
X515800Y280400D01*
X515400D01*
X515000Y280800D01*
X514600Y280400D01*
X514200D01*
X514600Y280000D01*
X514200Y279600D01*
X514600D01*
X515000Y279200D01*
X517500Y274200D02*
X517900Y274600D01*
X518300D01*
X517900Y275000D01*
X518300Y275400D01*
X517900D01*
X517500Y275800D01*
X517100Y275400D01*
X516700D01*
X517100Y275000D01*
X516700Y274600D01*
X517100D01*
X517500Y274200D01*
Y264200D02*
X517900Y264600D01*
X518300D01*
X517900Y265000D01*
X518300Y265400D01*
X517900D01*
X517500Y265800D01*
X517100Y265400D01*
X516700D01*
X517100Y265000D01*
X516700Y264600D01*
X517100D01*
X517500Y264200D01*
X510000Y489200D02*
X510400Y489600D01*
X510800D01*
X510400Y490000D01*
X510800Y490400D01*
X510400D01*
X510000Y490800D01*
X509600Y490400D01*
X509200D01*
X509600Y490000D01*
X509200Y489600D01*
X509600D01*
X510000Y489200D01*
X512500Y474200D02*
X512900Y474600D01*
X513300D01*
X512900Y475000D01*
X513300Y475400D01*
X512900D01*
X512500Y475800D01*
X512100Y475400D01*
X511700D01*
X512100Y475000D01*
X511700Y474600D01*
X512100D01*
X512500Y474200D01*
X510000Y469200D02*
X510400Y469600D01*
X510800D01*
X510400Y470000D01*
X510800Y470400D01*
X510400D01*
X510000Y470800D01*
X509600Y470400D01*
X509200D01*
X509600Y470000D01*
X509200Y469600D01*
X509600D01*
X510000Y469200D01*
Y419200D02*
X510400Y419600D01*
X510800D01*
X510400Y420000D01*
X510800Y420400D01*
X510400D01*
X510000Y420800D01*
X509600Y420400D01*
X509200D01*
X509600Y420000D01*
X509200Y419600D01*
X509600D01*
X510000Y419200D01*
X512500Y414200D02*
X512900Y414600D01*
X513300D01*
X512900Y415000D01*
X513300Y415400D01*
X512900D01*
X512500Y415800D01*
X512100Y415400D01*
X511700D01*
X512100Y415000D01*
X511700Y414600D01*
X512100D01*
X512500Y414200D01*
Y404200D02*
X512900Y404600D01*
X513300D01*
X512900Y405000D01*
X513300Y405400D01*
X512900D01*
X512500Y405800D01*
X512100Y405400D01*
X511700D01*
X512100Y405000D01*
X511700Y404600D01*
X512100D01*
X512500Y404200D01*
Y394200D02*
X512900Y394600D01*
X513300D01*
X512900Y395000D01*
X513300Y395400D01*
X512900D01*
X512500Y395800D01*
X512100Y395400D01*
X511700D01*
X512100Y395000D01*
X511700Y394600D01*
X512100D01*
X512500Y394200D01*
X510000Y389200D02*
X510400Y389600D01*
X510800D01*
X510400Y390000D01*
X510800Y390400D01*
X510400D01*
X510000Y390800D01*
X509600Y390400D01*
X509200D01*
X509600Y390000D01*
X509200Y389600D01*
X509600D01*
X510000Y389200D01*
X512500Y384200D02*
X512900Y384600D01*
X513300D01*
X512900Y385000D01*
X513300Y385400D01*
X512900D01*
X512500Y385800D01*
X512100Y385400D01*
X511700D01*
X512100Y385000D01*
X511700Y384600D01*
X512100D01*
X512500Y384200D01*
X510000Y379200D02*
X510400Y379600D01*
X510800D01*
X510400Y380000D01*
X510800Y380400D01*
X510400D01*
X510000Y380800D01*
X509600Y380400D01*
X509200D01*
X509600Y380000D01*
X509200Y379600D01*
X509600D01*
X510000Y379200D01*
Y349200D02*
X510400Y349600D01*
X510800D01*
X510400Y350000D01*
X510800Y350400D01*
X510400D01*
X510000Y350800D01*
X509600Y350400D01*
X509200D01*
X509600Y350000D01*
X509200Y349600D01*
X509600D01*
X510000Y349200D01*
Y339200D02*
X510400Y339600D01*
X510800D01*
X510400Y340000D01*
X510800Y340400D01*
X510400D01*
X510000Y340800D01*
X509600Y340400D01*
X509200D01*
X509600Y340000D01*
X509200Y339600D01*
X509600D01*
X510000Y339200D01*
Y329200D02*
X510400Y329600D01*
X510800D01*
X510400Y330000D01*
X510800Y330400D01*
X510400D01*
X510000Y330800D01*
X509600Y330400D01*
X509200D01*
X509600Y330000D01*
X509200Y329600D01*
X509600D01*
X510000Y329200D01*
Y319200D02*
X510400Y319600D01*
X510800D01*
X510400Y320000D01*
X510800Y320400D01*
X510400D01*
X510000Y320800D01*
X509600Y320400D01*
X509200D01*
X509600Y320000D01*
X509200Y319600D01*
X509600D01*
X510000Y319200D01*
Y309200D02*
X510400Y309600D01*
X510800D01*
X510400Y310000D01*
X510800Y310400D01*
X510400D01*
X510000Y310800D01*
X509600Y310400D01*
X509200D01*
X509600Y310000D01*
X509200Y309600D01*
X509600D01*
X510000Y309200D01*
X512500Y304200D02*
X512900Y304600D01*
X513300D01*
X512900Y305000D01*
X513300Y305400D01*
X512900D01*
X512500Y305800D01*
X512100Y305400D01*
X511700D01*
X512100Y305000D01*
X511700Y304600D01*
X512100D01*
X512500Y304200D01*
X510000Y299200D02*
X510400Y299600D01*
X510800D01*
X510400Y300000D01*
X510800Y300400D01*
X510400D01*
X510000Y300800D01*
X509600Y300400D01*
X509200D01*
X509600Y300000D01*
X509200Y299600D01*
X509600D01*
X510000Y299200D01*
X512500Y294200D02*
X512900Y294600D01*
X513300D01*
X512900Y295000D01*
X513300Y295400D01*
X512900D01*
X512500Y295800D01*
X512100Y295400D01*
X511700D01*
X512100Y295000D01*
X511700Y294600D01*
X512100D01*
X512500Y294200D01*
X510000Y289200D02*
X510400Y289600D01*
X510800D01*
X510400Y290000D01*
X510800Y290400D01*
X510400D01*
X510000Y290800D01*
X509600Y290400D01*
X509200D01*
X509600Y290000D01*
X509200Y289600D01*
X509600D01*
X510000Y289200D01*
X512500Y284200D02*
X512900Y284600D01*
X513300D01*
X512900Y285000D01*
X513300Y285400D01*
X512900D01*
X512500Y285800D01*
X512100Y285400D01*
X511700D01*
X512100Y285000D01*
X511700Y284600D01*
X512100D01*
X512500Y284200D01*
X510000Y279200D02*
X510400Y279600D01*
X510800D01*
X510400Y280000D01*
X510800Y280400D01*
X510400D01*
X510000Y280800D01*
X509600Y280400D01*
X509200D01*
X509600Y280000D01*
X509200Y279600D01*
X509600D01*
X510000Y279200D01*
X505000Y489200D02*
X505400Y489600D01*
X505800D01*
X505400Y490000D01*
X505800Y490400D01*
X505400D01*
X505000Y490800D01*
X504600Y490400D01*
X504200D01*
X504600Y490000D01*
X504200Y489600D01*
X504600D01*
X505000Y489200D01*
Y419200D02*
X505400Y419600D01*
X505800D01*
X505400Y420000D01*
X505800Y420400D01*
X505400D01*
X505000Y420800D01*
X504600Y420400D01*
X504200D01*
X504600Y420000D01*
X504200Y419600D01*
X504600D01*
X505000Y419200D01*
X507500Y414200D02*
X507900Y414600D01*
X508300D01*
X507900Y415000D01*
X508300Y415400D01*
X507900D01*
X507500Y415800D01*
X507100Y415400D01*
X506700D01*
X507100Y415000D01*
X506700Y414600D01*
X507100D01*
X507500Y414200D01*
Y394200D02*
X507900Y394600D01*
X508300D01*
X507900Y395000D01*
X508300Y395400D01*
X507900D01*
X507500Y395800D01*
X507100Y395400D01*
X506700D01*
X507100Y395000D01*
X506700Y394600D01*
X507100D01*
X507500Y394200D01*
Y384200D02*
X507900Y384600D01*
X508300D01*
X507900Y385000D01*
X508300Y385400D01*
X507900D01*
X507500Y385800D01*
X507100Y385400D01*
X506700D01*
X507100Y385000D01*
X506700Y384600D01*
X507100D01*
X507500Y384200D01*
X500000Y489200D02*
X500400Y489600D01*
X500800D01*
X500400Y490000D01*
X500800Y490400D01*
X500400D01*
X500000Y490800D01*
X499600Y490400D01*
X499200D01*
X499600Y490000D01*
X499200Y489600D01*
X499600D01*
X500000Y489200D01*
X502500Y454200D02*
X502900Y454600D01*
X503300D01*
X502900Y455000D01*
X503300Y455400D01*
X502900D01*
X502500Y455800D01*
X502100Y455400D01*
X501700D01*
X502100Y455000D01*
X501700Y454600D01*
X502100D01*
X502500Y454200D01*
Y434200D02*
X502900Y434600D01*
X503300D01*
X502900Y435000D01*
X503300Y435400D01*
X502900D01*
X502500Y435800D01*
X502100Y435400D01*
X501700D01*
X502100Y435000D01*
X501700Y434600D01*
X502100D01*
X502500Y434200D01*
X500000Y419200D02*
X500400Y419600D01*
X500800D01*
X500400Y420000D01*
X500800Y420400D01*
X500400D01*
X500000Y420800D01*
X499600Y420400D01*
X499200D01*
X499600Y420000D01*
X499200Y419600D01*
X499600D01*
X500000Y419200D01*
X502500Y414200D02*
X502900Y414600D01*
X503300D01*
X502900Y415000D01*
X503300Y415400D01*
X502900D01*
X502500Y415800D01*
X502100Y415400D01*
X501700D01*
X502100Y415000D01*
X501700Y414600D01*
X502100D01*
X502500Y414200D01*
Y404200D02*
X502900Y404600D01*
X503300D01*
X502900Y405000D01*
X503300Y405400D01*
X502900D01*
X502500Y405800D01*
X502100Y405400D01*
X501700D01*
X502100Y405000D01*
X501700Y404600D01*
X502100D01*
X502500Y404200D01*
X500000Y379200D02*
X500400Y379600D01*
X500800D01*
X500400Y380000D01*
X500800Y380400D01*
X500400D01*
X500000Y380800D01*
X499600Y380400D01*
X499200D01*
X499600Y380000D01*
X499200Y379600D01*
X499600D01*
X500000Y379200D01*
X502500Y364200D02*
X502900Y364600D01*
X503300D01*
X502900Y365000D01*
X503300Y365400D01*
X502900D01*
X502500Y365800D01*
X502100Y365400D01*
X501700D01*
X502100Y365000D01*
X501700Y364600D01*
X502100D01*
X502500Y364200D01*
X500000Y359200D02*
X500400Y359600D01*
X500800D01*
X500400Y360000D01*
X500800Y360400D01*
X500400D01*
X500000Y360800D01*
X499600Y360400D01*
X499200D01*
X499600Y360000D01*
X499200Y359600D01*
X499600D01*
X500000Y359200D01*
X495000Y439200D02*
X495400Y439600D01*
X495800D01*
X495400Y440000D01*
X495800Y440400D01*
X495400D01*
X495000Y440800D01*
X494600Y440400D01*
X494200D01*
X494600Y440000D01*
X494200Y439600D01*
X494600D01*
X495000Y439200D01*
Y419200D02*
X495400Y419600D01*
X495800D01*
X495400Y420000D01*
X495800Y420400D01*
X495400D01*
X495000Y420800D01*
X494600Y420400D01*
X494200D01*
X494600Y420000D01*
X494200Y419600D01*
X494600D01*
X495000Y419200D01*
X492500Y384200D02*
X492900Y384600D01*
X493300D01*
X492900Y385000D01*
X493300Y385400D01*
X492900D01*
X492500Y385800D01*
X492100Y385400D01*
X491700D01*
X492100Y385000D01*
X491700Y384600D01*
X492100D01*
X492500Y384200D01*
X485000Y459200D02*
X485400Y459600D01*
X485800D01*
X485400Y460000D01*
X485800Y460400D01*
X485400D01*
X485000Y460800D01*
X484600Y460400D01*
X484200D01*
X484600Y460000D01*
X484200Y459600D01*
X484600D01*
X485000Y459200D01*
Y419200D02*
X485400Y419600D01*
X485800D01*
X485400Y420000D01*
X485800Y420400D01*
X485400D01*
X485000Y420800D01*
X484600Y420400D01*
X484200D01*
X484600Y420000D01*
X484200Y419600D01*
X484600D01*
X485000Y419200D01*
X487500Y414200D02*
X487900Y414600D01*
X488300D01*
X487900Y415000D01*
X488300Y415400D01*
X487900D01*
X487500Y415800D01*
X487100Y415400D01*
X486700D01*
X487100Y415000D01*
X486700Y414600D01*
X487100D01*
X487500Y414200D01*
Y394200D02*
X487900Y394600D01*
X488300D01*
X487900Y395000D01*
X488300Y395400D01*
X487900D01*
X487500Y395800D01*
X487100Y395400D01*
X486700D01*
X487100Y395000D01*
X486700Y394600D01*
X487100D01*
X487500Y394200D01*
X482500Y454200D02*
X482900Y454600D01*
X483300D01*
X482900Y455000D01*
X483300Y455400D01*
X482900D01*
X482500Y455800D01*
X482100Y455400D01*
X481700D01*
X482100Y455000D01*
X481700Y454600D01*
X482100D01*
X482500Y454200D01*
X480000Y449200D02*
X480400Y449600D01*
X480800D01*
X480400Y450000D01*
X480800Y450400D01*
X480400D01*
X480000Y450800D01*
X479600Y450400D01*
X479200D01*
X479600Y450000D01*
X479200Y449600D01*
X479600D01*
X480000Y449200D01*
Y429200D02*
X480400Y429600D01*
X480800D01*
X480400Y430000D01*
X480800Y430400D01*
X480400D01*
X480000Y430800D01*
X479600Y430400D01*
X479200D01*
X479600Y430000D01*
X479200Y429600D01*
X479600D01*
X480000Y429200D01*
X482500Y414200D02*
X482900Y414600D01*
X483300D01*
X482900Y415000D01*
X483300Y415400D01*
X482900D01*
X482500Y415800D01*
X482100Y415400D01*
X481700D01*
X482100Y415000D01*
X481700Y414600D01*
X482100D01*
X482500Y414200D01*
Y404200D02*
X482900Y404600D01*
X483300D01*
X482900Y405000D01*
X483300Y405400D01*
X482900D01*
X482500Y405800D01*
X482100Y405400D01*
X481700D01*
X482100Y405000D01*
X481700Y404600D01*
X482100D01*
X482500Y404200D01*
Y394200D02*
X482900Y394600D01*
X483300D01*
X482900Y395000D01*
X483300Y395400D01*
X482900D01*
X482500Y395800D01*
X482100Y395400D01*
X481700D01*
X482100Y395000D01*
X481700Y394600D01*
X482100D01*
X482500Y394200D01*
X480000Y379200D02*
X480400Y379600D01*
X480800D01*
X480400Y380000D01*
X480800Y380400D01*
X480400D01*
X480000Y380800D01*
X479600Y380400D01*
X479200D01*
X479600Y380000D01*
X479200Y379600D01*
X479600D01*
X480000Y379200D01*
X475000Y459200D02*
X475400Y459600D01*
X475800D01*
X475400Y460000D01*
X475800Y460400D01*
X475400D01*
X475000Y460800D01*
X474600Y460400D01*
X474200D01*
X474600Y460000D01*
X474200Y459600D01*
X474600D01*
X475000Y459200D01*
X470000Y469200D02*
X470400Y469600D01*
X470800D01*
X470400Y470000D01*
X470800Y470400D01*
X470400D01*
X470000Y470800D01*
X469600Y470400D01*
X469200D01*
X469600Y470000D01*
X469200Y469600D01*
X469600D01*
X470000Y469200D01*
X472500Y464200D02*
X472900Y464600D01*
X473300D01*
X472900Y465000D01*
X473300Y465400D01*
X472900D01*
X472500Y465800D01*
X472100Y465400D01*
X471700D01*
X472100Y465000D01*
X471700Y464600D01*
X472100D01*
X472500Y464200D01*
X470000Y459200D02*
X470400Y459600D01*
X470800D01*
X470400Y460000D01*
X470800Y460400D01*
X470400D01*
X470000Y460800D01*
X469600Y460400D01*
X469200D01*
X469600Y460000D01*
X469200Y459600D01*
X469600D01*
X470000Y459200D01*
Y449200D02*
X470400Y449600D01*
X470800D01*
X470400Y450000D01*
X470800Y450400D01*
X470400D01*
X470000Y450800D01*
X469600Y450400D01*
X469200D01*
X469600Y450000D01*
X469200Y449600D01*
X469600D01*
X470000Y449200D01*
X472500Y404200D02*
X472900Y404600D01*
X473300D01*
X472900Y405000D01*
X473300Y405400D01*
X472900D01*
X472500Y405800D01*
X472100Y405400D01*
X471700D01*
X472100Y405000D01*
X471700Y404600D01*
X472100D01*
X472500Y404200D01*
X465000Y469200D02*
X465400Y469600D01*
X465800D01*
X465400Y470000D01*
X465800Y470400D01*
X465400D01*
X465000Y470800D01*
X464600Y470400D01*
X464200D01*
X464600Y470000D01*
X464200Y469600D01*
X464600D01*
X465000Y469200D01*
X467500Y464200D02*
X467900Y464600D01*
X468300D01*
X467900Y465000D01*
X468300Y465400D01*
X467900D01*
X467500Y465800D01*
X467100Y465400D01*
X466700D01*
X467100Y465000D01*
X466700Y464600D01*
X467100D01*
X467500Y464200D01*
X465000Y459200D02*
X465400Y459600D01*
X465800D01*
X465400Y460000D01*
X465800Y460400D01*
X465400D01*
X465000Y460800D01*
X464600Y460400D01*
X464200D01*
X464600Y460000D01*
X464200Y459600D01*
X464600D01*
X465000Y459200D01*
X467500Y454200D02*
X467900Y454600D01*
X468300D01*
X467900Y455000D01*
X468300Y455400D01*
X467900D01*
X467500Y455800D01*
X467100Y455400D01*
X466700D01*
X467100Y455000D01*
X466700Y454600D01*
X467100D01*
X467500Y454200D01*
X465000Y449200D02*
X465400Y449600D01*
X465800D01*
X465400Y450000D01*
X465800Y450400D01*
X465400D01*
X465000Y450800D01*
X464600Y450400D01*
X464200D01*
X464600Y450000D01*
X464200Y449600D01*
X464600D01*
X465000Y449200D01*
X467500Y444200D02*
X467900Y444600D01*
X468300D01*
X467900Y445000D01*
X468300Y445400D01*
X467900D01*
X467500Y445800D01*
X467100Y445400D01*
X466700D01*
X467100Y445000D01*
X466700Y444600D01*
X467100D01*
X467500Y444200D01*
Y414200D02*
X467900Y414600D01*
X468300D01*
X467900Y415000D01*
X468300Y415400D01*
X467900D01*
X467500Y415800D01*
X467100Y415400D01*
X466700D01*
X467100Y415000D01*
X466700Y414600D01*
X467100D01*
X467500Y414200D01*
Y404200D02*
X467900Y404600D01*
X468300D01*
X467900Y405000D01*
X468300Y405400D01*
X467900D01*
X467500Y405800D01*
X467100Y405400D01*
X466700D01*
X467100Y405000D01*
X466700Y404600D01*
X467100D01*
X467500Y404200D01*
X460000Y469200D02*
X460400Y469600D01*
X460800D01*
X460400Y470000D01*
X460800Y470400D01*
X460400D01*
X460000Y470800D01*
X459600Y470400D01*
X459200D01*
X459600Y470000D01*
X459200Y469600D01*
X459600D01*
X460000Y469200D01*
X462500Y464200D02*
X462900Y464600D01*
X463300D01*
X462900Y465000D01*
X463300Y465400D01*
X462900D01*
X462500Y465800D01*
X462100Y465400D01*
X461700D01*
X462100Y465000D01*
X461700Y464600D01*
X462100D01*
X462500Y464200D01*
X460000Y459200D02*
X460400Y459600D01*
X460800D01*
X460400Y460000D01*
X460800Y460400D01*
X460400D01*
X460000Y460800D01*
X459600Y460400D01*
X459200D01*
X459600Y460000D01*
X459200Y459600D01*
X459600D01*
X460000Y459200D01*
X462500Y454200D02*
X462900Y454600D01*
X463300D01*
X462900Y455000D01*
X463300Y455400D01*
X462900D01*
X462500Y455800D01*
X462100Y455400D01*
X461700D01*
X462100Y455000D01*
X461700Y454600D01*
X462100D01*
X462500Y454200D01*
X460000Y449200D02*
X460400Y449600D01*
X460800D01*
X460400Y450000D01*
X460800Y450400D01*
X460400D01*
X460000Y450800D01*
X459600Y450400D01*
X459200D01*
X459600Y450000D01*
X459200Y449600D01*
X459600D01*
X460000Y449200D01*
Y429200D02*
X460400Y429600D01*
X460800D01*
X460400Y430000D01*
X460800Y430400D01*
X460400D01*
X460000Y430800D01*
X459600Y430400D01*
X459200D01*
X459600Y430000D01*
X459200Y429600D01*
X459600D01*
X460000Y429200D01*
X462500Y424200D02*
X462900Y424600D01*
X463300D01*
X462900Y425000D01*
X463300Y425400D01*
X462900D01*
X462500Y425800D01*
X462100Y425400D01*
X461700D01*
X462100Y425000D01*
X461700Y424600D01*
X462100D01*
X462500Y424200D01*
Y414200D02*
X462900Y414600D01*
X463300D01*
X462900Y415000D01*
X463300Y415400D01*
X462900D01*
X462500Y415800D01*
X462100Y415400D01*
X461700D01*
X462100Y415000D01*
X461700Y414600D01*
X462100D01*
X462500Y414200D01*
Y404200D02*
X462900Y404600D01*
X463300D01*
X462900Y405000D01*
X463300Y405400D01*
X462900D01*
X462500Y405800D01*
X462100Y405400D01*
X461700D01*
X462100Y405000D01*
X461700Y404600D01*
X462100D01*
X462500Y404200D01*
X460000Y399200D02*
X460400Y399600D01*
X460800D01*
X460400Y400000D01*
X460800Y400400D01*
X460400D01*
X460000Y400800D01*
X459600Y400400D01*
X459200D01*
X459600Y400000D01*
X459200Y399600D01*
X459600D01*
X460000Y399200D01*
X455000Y479200D02*
X455400Y479600D01*
X455800D01*
X455400Y480000D01*
X455800Y480400D01*
X455400D01*
X455000Y480800D01*
X454600Y480400D01*
X454200D01*
X454600Y480000D01*
X454200Y479600D01*
X454600D01*
X455000Y479200D01*
X457500Y464200D02*
X457900Y464600D01*
X458300D01*
X457900Y465000D01*
X458300Y465400D01*
X457900D01*
X457500Y465800D01*
X457100Y465400D01*
X456700D01*
X457100Y465000D01*
X456700Y464600D01*
X457100D01*
X457500Y464200D01*
X455000Y459200D02*
X455400Y459600D01*
X455800D01*
X455400Y460000D01*
X455800Y460400D01*
X455400D01*
X455000Y460800D01*
X454600Y460400D01*
X454200D01*
X454600Y460000D01*
X454200Y459600D01*
X454600D01*
X455000Y459200D01*
X457500Y454200D02*
X457900Y454600D01*
X458300D01*
X457900Y455000D01*
X458300Y455400D01*
X457900D01*
X457500Y455800D01*
X457100Y455400D01*
X456700D01*
X457100Y455000D01*
X456700Y454600D01*
X457100D01*
X457500Y454200D01*
X455000Y429200D02*
X455400Y429600D01*
X455800D01*
X455400Y430000D01*
X455800Y430400D01*
X455400D01*
X455000Y430800D01*
X454600Y430400D01*
X454200D01*
X454600Y430000D01*
X454200Y429600D01*
X454600D01*
X455000Y429200D01*
X457500Y404200D02*
X457900Y404600D01*
X458300D01*
X457900Y405000D01*
X458300Y405400D01*
X457900D01*
X457500Y405800D01*
X457100Y405400D01*
X456700D01*
X457100Y405000D01*
X456700Y404600D01*
X457100D01*
X457500Y404200D01*
X452500Y474200D02*
X452900Y474600D01*
X453300D01*
X452900Y475000D01*
X453300Y475400D01*
X452900D01*
X452500Y475800D01*
X452100Y475400D01*
X451700D01*
X452100Y475000D01*
X451700Y474600D01*
X452100D01*
X452500Y474200D01*
X450000Y469200D02*
X450400Y469600D01*
X450800D01*
X450400Y470000D01*
X450800Y470400D01*
X450400D01*
X450000Y470800D01*
X449600Y470400D01*
X449200D01*
X449600Y470000D01*
X449200Y469600D01*
X449600D01*
X450000Y469200D01*
Y429200D02*
X450400Y429600D01*
X450800D01*
X450400Y430000D01*
X450800Y430400D01*
X450400D01*
X450000Y430800D01*
X449600Y430400D01*
X449200D01*
X449600Y430000D01*
X449200Y429600D01*
X449600D01*
X450000Y429200D01*
X452500Y424200D02*
X452900Y424600D01*
X453300D01*
X452900Y425000D01*
X453300Y425400D01*
X452900D01*
X452500Y425800D01*
X452100Y425400D01*
X451700D01*
X452100Y425000D01*
X451700Y424600D01*
X452100D01*
X452500Y424200D01*
X445000Y469200D02*
X445400Y469600D01*
X445800D01*
X445400Y470000D01*
X445800Y470400D01*
X445400D01*
X445000Y470800D01*
X444600Y470400D01*
X444200D01*
X444600Y470000D01*
X444200Y469600D01*
X444600D01*
X445000Y469200D01*
Y429200D02*
X445400Y429600D01*
X445800D01*
X445400Y430000D01*
X445800Y430400D01*
X445400D01*
X445000Y430800D01*
X444600Y430400D01*
X444200D01*
X444600Y430000D01*
X444200Y429600D01*
X444600D01*
X445000Y429200D01*
X447500Y414200D02*
X447900Y414600D01*
X448300D01*
X447900Y415000D01*
X448300Y415400D01*
X447900D01*
X447500Y415800D01*
X447100Y415400D01*
X446700D01*
X447100Y415000D01*
X446700Y414600D01*
X447100D01*
X447500Y414200D01*
X440000Y469200D02*
X440400Y469600D01*
X440800D01*
X440400Y470000D01*
X440800Y470400D01*
X440400D01*
X440000Y470800D01*
X439600Y470400D01*
X439200D01*
X439600Y470000D01*
X439200Y469600D01*
X439600D01*
X440000Y469200D01*
Y429200D02*
X440400Y429600D01*
X440800D01*
X440400Y430000D01*
X440800Y430400D01*
X440400D01*
X440000Y430800D01*
X439600Y430400D01*
X439200D01*
X439600Y430000D01*
X439200Y429600D01*
X439600D01*
X440000Y429200D01*
X442500Y424200D02*
X442900Y424600D01*
X443300D01*
X442900Y425000D01*
X443300Y425400D01*
X442900D01*
X442500Y425800D01*
X442100Y425400D01*
X441700D01*
X442100Y425000D01*
X441700Y424600D01*
X442100D01*
X442500Y424200D01*
X440000Y419200D02*
X440400Y419600D01*
X440800D01*
X440400Y420000D01*
X440800Y420400D01*
X440400D01*
X440000Y420800D01*
X439600Y420400D01*
X439200D01*
X439600Y420000D01*
X439200Y419600D01*
X439600D01*
X440000Y419200D01*
X435000Y479200D02*
X435400Y479600D01*
X435800D01*
X435400Y480000D01*
X435800Y480400D01*
X435400D01*
X435000Y480800D01*
X434600Y480400D01*
X434200D01*
X434600Y480000D01*
X434200Y479600D01*
X434600D01*
X435000Y479200D01*
Y469200D02*
X435400Y469600D01*
X435800D01*
X435400Y470000D01*
X435800Y470400D01*
X435400D01*
X435000Y470800D01*
X434600Y470400D01*
X434200D01*
X434600Y470000D01*
X434200Y469600D01*
X434600D01*
X435000Y469200D01*
Y439200D02*
X435400Y439600D01*
X435800D01*
X435400Y440000D01*
X435800Y440400D01*
X435400D01*
X435000Y440800D01*
X434600Y440400D01*
X434200D01*
X434600Y440000D01*
X434200Y439600D01*
X434600D01*
X435000Y439200D01*
Y429200D02*
X435400Y429600D01*
X435800D01*
X435400Y430000D01*
X435800Y430400D01*
X435400D01*
X435000Y430800D01*
X434600Y430400D01*
X434200D01*
X434600Y430000D01*
X434200Y429600D01*
X434600D01*
X435000Y429200D01*
X437500Y424200D02*
X437900Y424600D01*
X438300D01*
X437900Y425000D01*
X438300Y425400D01*
X437900D01*
X437500Y425800D01*
X437100Y425400D01*
X436700D01*
X437100Y425000D01*
X436700Y424600D01*
X437100D01*
X437500Y424200D01*
X432500Y474200D02*
X432900Y474600D01*
X433300D01*
X432900Y475000D01*
X433300Y475400D01*
X432900D01*
X432500Y475800D01*
X432100Y475400D01*
X431700D01*
X432100Y475000D01*
X431700Y474600D01*
X432100D01*
X432500Y474200D01*
X430000Y469200D02*
X430400Y469600D01*
X430800D01*
X430400Y470000D01*
X430800Y470400D01*
X430400D01*
X430000Y470800D01*
X429600Y470400D01*
X429200D01*
X429600Y470000D01*
X429200Y469600D01*
X429600D01*
X430000Y469200D01*
X432500Y464200D02*
X432900Y464600D01*
X433300D01*
X432900Y465000D01*
X433300Y465400D01*
X432900D01*
X432500Y465800D01*
X432100Y465400D01*
X431700D01*
X432100Y465000D01*
X431700Y464600D01*
X432100D01*
X432500Y464200D01*
X430000Y429200D02*
X430400Y429600D01*
X430800D01*
X430400Y430000D01*
X430800Y430400D01*
X430400D01*
X430000Y430800D01*
X429600Y430400D01*
X429200D01*
X429600Y430000D01*
X429200Y429600D01*
X429600D01*
X430000Y429200D01*
X427500Y474200D02*
X427900Y474600D01*
X428300D01*
X427900Y475000D01*
X428300Y475400D01*
X427900D01*
X427500Y475800D01*
X427100Y475400D01*
X426700D01*
X427100Y475000D01*
X426700Y474600D01*
X427100D01*
X427500Y474200D01*
X425000Y469200D02*
X425400Y469600D01*
X425800D01*
X425400Y470000D01*
X425800Y470400D01*
X425400D01*
X425000Y470800D01*
X424600Y470400D01*
X424200D01*
X424600Y470000D01*
X424200Y469600D01*
X424600D01*
X425000Y469200D01*
X427500Y464200D02*
X427900Y464600D01*
X428300D01*
X427900Y465000D01*
X428300Y465400D01*
X427900D01*
X427500Y465800D01*
X427100Y465400D01*
X426700D01*
X427100Y465000D01*
X426700Y464600D01*
X427100D01*
X427500Y464200D01*
X425000Y449200D02*
X425400Y449600D01*
X425800D01*
X425400Y450000D01*
X425800Y450400D01*
X425400D01*
X425000Y450800D01*
X424600Y450400D01*
X424200D01*
X424600Y450000D01*
X424200Y449600D01*
X424600D01*
X425000Y449200D01*
Y439200D02*
X425400Y439600D01*
X425800D01*
X425400Y440000D01*
X425800Y440400D01*
X425400D01*
X425000Y440800D01*
X424600Y440400D01*
X424200D01*
X424600Y440000D01*
X424200Y439600D01*
X424600D01*
X425000Y439200D01*
X422500Y474200D02*
X422900Y474600D01*
X423300D01*
X422900Y475000D01*
X423300Y475400D01*
X422900D01*
X422500Y475800D01*
X422100Y475400D01*
X421700D01*
X422100Y475000D01*
X421700Y474600D01*
X422100D01*
X422500Y474200D01*
X420000Y469200D02*
X420400Y469600D01*
X420800D01*
X420400Y470000D01*
X420800Y470400D01*
X420400D01*
X420000Y470800D01*
X419600Y470400D01*
X419200D01*
X419600Y470000D01*
X419200Y469600D01*
X419600D01*
X420000Y469200D01*
X422500Y464200D02*
X422900Y464600D01*
X423300D01*
X422900Y465000D01*
X423300Y465400D01*
X422900D01*
X422500Y465800D01*
X422100Y465400D01*
X421700D01*
X422100Y465000D01*
X421700Y464600D01*
X422100D01*
X422500Y464200D01*
X420000Y459200D02*
X420400Y459600D01*
X420800D01*
X420400Y460000D01*
X420800Y460400D01*
X420400D01*
X420000Y460800D01*
X419600Y460400D01*
X419200D01*
X419600Y460000D01*
X419200Y459600D01*
X419600D01*
X420000Y459200D01*
X422500Y454200D02*
X422900Y454600D01*
X423300D01*
X422900Y455000D01*
X423300Y455400D01*
X422900D01*
X422500Y455800D01*
X422100Y455400D01*
X421700D01*
X422100Y455000D01*
X421700Y454600D01*
X422100D01*
X422500Y454200D01*
X420000Y449200D02*
X420400Y449600D01*
X420800D01*
X420400Y450000D01*
X420800Y450400D01*
X420400D01*
X420000Y450800D01*
X419600Y450400D01*
X419200D01*
X419600Y450000D01*
X419200Y449600D01*
X419600D01*
X420000Y449200D01*
X422500Y444200D02*
X422900Y444600D01*
X423300D01*
X422900Y445000D01*
X423300Y445400D01*
X422900D01*
X422500Y445800D01*
X422100Y445400D01*
X421700D01*
X422100Y445000D01*
X421700Y444600D01*
X422100D01*
X422500Y444200D01*
X420000Y439200D02*
X420400Y439600D01*
X420800D01*
X420400Y440000D01*
X420800Y440400D01*
X420400D01*
X420000Y440800D01*
X419600Y440400D01*
X419200D01*
X419600Y440000D01*
X419200Y439600D01*
X419600D01*
X420000Y439200D01*
X417500Y474200D02*
X417900Y474600D01*
X418300D01*
X417900Y475000D01*
X418300Y475400D01*
X417900D01*
X417500Y475800D01*
X417100Y475400D01*
X416700D01*
X417100Y475000D01*
X416700Y474600D01*
X417100D01*
X417500Y474200D01*
X415000Y469200D02*
X415400Y469600D01*
X415800D01*
X415400Y470000D01*
X415800Y470400D01*
X415400D01*
X415000Y470800D01*
X414600Y470400D01*
X414200D01*
X414600Y470000D01*
X414200Y469600D01*
X414600D01*
X415000Y469200D01*
X417500Y464200D02*
X417900Y464600D01*
X418300D01*
X417900Y465000D01*
X418300Y465400D01*
X417900D01*
X417500Y465800D01*
X417100Y465400D01*
X416700D01*
X417100Y465000D01*
X416700Y464600D01*
X417100D01*
X417500Y464200D01*
X415000Y459200D02*
X415400Y459600D01*
X415800D01*
X415400Y460000D01*
X415800Y460400D01*
X415400D01*
X415000Y460800D01*
X414600Y460400D01*
X414200D01*
X414600Y460000D01*
X414200Y459600D01*
X414600D01*
X415000Y459200D01*
X417500Y454200D02*
X417900Y454600D01*
X418300D01*
X417900Y455000D01*
X418300Y455400D01*
X417900D01*
X417500Y455800D01*
X417100Y455400D01*
X416700D01*
X417100Y455000D01*
X416700Y454600D01*
X417100D01*
X417500Y454200D01*
X412500Y474200D02*
X412900Y474600D01*
X413300D01*
X412900Y475000D01*
X413300Y475400D01*
X412900D01*
X412500Y475800D01*
X412100Y475400D01*
X411700D01*
X412100Y475000D01*
X411700Y474600D01*
X412100D01*
X412500Y474200D01*
X410000Y469200D02*
X410400Y469600D01*
X410800D01*
X410400Y470000D01*
X410800Y470400D01*
X410400D01*
X410000Y470800D01*
X409600Y470400D01*
X409200D01*
X409600Y470000D01*
X409200Y469600D01*
X409600D01*
X410000Y469200D01*
X412500Y464200D02*
X412900Y464600D01*
X413300D01*
X412900Y465000D01*
X413300Y465400D01*
X412900D01*
X412500Y465800D01*
X412100Y465400D01*
X411700D01*
X412100Y465000D01*
X411700Y464600D01*
X412100D01*
X412500Y464200D01*
X405000Y469200D02*
X405400Y469600D01*
X405800D01*
X405400Y470000D01*
X405800Y470400D01*
X405400D01*
X405000Y470800D01*
X404600Y470400D01*
X404200D01*
X404600Y470000D01*
X404200Y469600D01*
X404600D01*
X405000Y469200D01*
X407500Y464200D02*
X407900Y464600D01*
X408300D01*
X407900Y465000D01*
X408300Y465400D01*
X407900D01*
X407500Y465800D01*
X407100Y465400D01*
X406700D01*
X407100Y465000D01*
X406700Y464600D01*
X407100D01*
X407500Y464200D01*
X400000Y469200D02*
X400400Y469600D01*
X400800D01*
X400400Y470000D01*
X400800Y470400D01*
X400400D01*
X400000Y470800D01*
X399600Y470400D01*
X399200D01*
X399600Y470000D01*
X399200Y469600D01*
X399600D01*
X400000Y469200D01*
X402500Y464200D02*
X402900Y464600D01*
X403300D01*
X402900Y465000D01*
X403300Y465400D01*
X402900D01*
X402500Y465800D01*
X402100Y465400D01*
X401700D01*
X402100Y465000D01*
X401700Y464600D01*
X402100D01*
X402500Y464200D01*
X395000Y489200D02*
X395400Y489600D01*
X395800D01*
X395400Y490000D01*
X395800Y490400D01*
X395400D01*
X395000Y490800D01*
X394600Y490400D01*
X394200D01*
X394600Y490000D01*
X394200Y489600D01*
X394600D01*
X395000Y489200D01*
Y469200D02*
X395400Y469600D01*
X395800D01*
X395400Y470000D01*
X395800Y470400D01*
X395400D01*
X395000Y470800D01*
X394600Y470400D01*
X394200D01*
X394600Y470000D01*
X394200Y469600D01*
X394600D01*
X395000Y469200D01*
X397500Y464200D02*
X397900Y464600D01*
X398300D01*
X397900Y465000D01*
X398300Y465400D01*
X397900D01*
X397500Y465800D01*
X397100Y465400D01*
X396700D01*
X397100Y465000D01*
X396700Y464600D01*
X397100D01*
X397500Y464200D01*
X390000Y489200D02*
X390400Y489600D01*
X390800D01*
X390400Y490000D01*
X390800Y490400D01*
X390400D01*
X390000Y490800D01*
X389600Y490400D01*
X389200D01*
X389600Y490000D01*
X389200Y489600D01*
X389600D01*
X390000Y489200D01*
X392500Y484200D02*
X392900Y484600D01*
X393300D01*
X392900Y485000D01*
X393300Y485400D01*
X392900D01*
X392500Y485800D01*
X392100Y485400D01*
X391700D01*
X392100Y485000D01*
X391700Y484600D01*
X392100D01*
X392500Y484200D01*
Y474200D02*
X392900Y474600D01*
X393300D01*
X392900Y475000D01*
X393300Y475400D01*
X392900D01*
X392500Y475800D01*
X392100Y475400D01*
X391700D01*
X392100Y475000D01*
X391700Y474600D01*
X392100D01*
X392500Y474200D01*
X390000Y469200D02*
X390400Y469600D01*
X390800D01*
X390400Y470000D01*
X390800Y470400D01*
X390400D01*
X390000Y470800D01*
X389600Y470400D01*
X389200D01*
X389600Y470000D01*
X389200Y469600D01*
X389600D01*
X390000Y469200D01*
X392500Y464200D02*
X392900Y464600D01*
X393300D01*
X392900Y465000D01*
X393300Y465400D01*
X392900D01*
X392500Y465800D01*
X392100Y465400D01*
X391700D01*
X392100Y465000D01*
X391700Y464600D01*
X392100D01*
X392500Y464200D01*
X385000Y489200D02*
X385400Y489600D01*
X385800D01*
X385400Y490000D01*
X385800Y490400D01*
X385400D01*
X385000Y490800D01*
X384600Y490400D01*
X384200D01*
X384600Y490000D01*
X384200Y489600D01*
X384600D01*
X385000Y489200D01*
Y469200D02*
X385400Y469600D01*
X385800D01*
X385400Y470000D01*
X385800Y470400D01*
X385400D01*
X385000Y470800D01*
X384600Y470400D01*
X384200D01*
X384600Y470000D01*
X384200Y469600D01*
X384600D01*
X385000Y469200D01*
X387500Y464200D02*
X387900Y464600D01*
X388300D01*
X387900Y465000D01*
X388300Y465400D01*
X387900D01*
X387500Y465800D01*
X387100Y465400D01*
X386700D01*
X387100Y465000D01*
X386700Y464600D01*
X387100D01*
X387500Y464200D01*
X380000Y489200D02*
X380400Y489600D01*
X380800D01*
X380400Y490000D01*
X380800Y490400D01*
X380400D01*
X380000Y490800D01*
X379600Y490400D01*
X379200D01*
X379600Y490000D01*
X379200Y489600D01*
X379600D01*
X380000Y489200D01*
Y469200D02*
X380400Y469600D01*
X380800D01*
X380400Y470000D01*
X380800Y470400D01*
X380400D01*
X380000Y470800D01*
X379600Y470400D01*
X379200D01*
X379600Y470000D01*
X379200Y469600D01*
X379600D01*
X380000Y469200D01*
X382500Y464200D02*
X382900Y464600D01*
X383300D01*
X382900Y465000D01*
X383300Y465400D01*
X382900D01*
X382500Y465800D01*
X382100Y465400D01*
X381700D01*
X382100Y465000D01*
X381700Y464600D01*
X382100D01*
X382500Y464200D01*
X375000Y489200D02*
X375400Y489600D01*
X375800D01*
X375400Y490000D01*
X375800Y490400D01*
X375400D01*
X375000Y490800D01*
X374600Y490400D01*
X374200D01*
X374600Y490000D01*
X374200Y489600D01*
X374600D01*
X375000Y489200D01*
Y469200D02*
X375400Y469600D01*
X375800D01*
X375400Y470000D01*
X375800Y470400D01*
X375400D01*
X375000Y470800D01*
X374600Y470400D01*
X374200D01*
X374600Y470000D01*
X374200Y469600D01*
X374600D01*
X375000Y469200D01*
X377500Y464200D02*
X377900Y464600D01*
X378300D01*
X377900Y465000D01*
X378300Y465400D01*
X377900D01*
X377500Y465800D01*
X377100Y465400D01*
X376700D01*
X377100Y465000D01*
X376700Y464600D01*
X377100D01*
X377500Y464200D01*
X370000Y489200D02*
X370400Y489600D01*
X370800D01*
X370400Y490000D01*
X370800Y490400D01*
X370400D01*
X370000Y490800D01*
X369600Y490400D01*
X369200D01*
X369600Y490000D01*
X369200Y489600D01*
X369600D01*
X370000Y489200D01*
X372500Y484200D02*
X372900Y484600D01*
X373300D01*
X372900Y485000D01*
X373300Y485400D01*
X372900D01*
X372500Y485800D01*
X372100Y485400D01*
X371700D01*
X372100Y485000D01*
X371700Y484600D01*
X372100D01*
X372500Y484200D01*
Y474200D02*
X372900Y474600D01*
X373300D01*
X372900Y475000D01*
X373300Y475400D01*
X372900D01*
X372500Y475800D01*
X372100Y475400D01*
X371700D01*
X372100Y475000D01*
X371700Y474600D01*
X372100D01*
X372500Y474200D01*
Y464200D02*
X372900Y464600D01*
X373300D01*
X372900Y465000D01*
X373300Y465400D01*
X372900D01*
X372500Y465800D01*
X372100Y465400D01*
X371700D01*
X372100Y465000D01*
X371700Y464600D01*
X372100D01*
X372500Y464200D01*
X365000Y489200D02*
X365400Y489600D01*
X365800D01*
X365400Y490000D01*
X365800Y490400D01*
X365400D01*
X365000Y490800D01*
X364600Y490400D01*
X364200D01*
X364600Y490000D01*
X364200Y489600D01*
X364600D01*
X365000Y489200D01*
X367500Y484200D02*
X367900Y484600D01*
X368300D01*
X367900Y485000D01*
X368300Y485400D01*
X367900D01*
X367500Y485800D01*
X367100Y485400D01*
X366700D01*
X367100Y485000D01*
X366700Y484600D01*
X367100D01*
X367500Y484200D01*
Y464200D02*
X367900Y464600D01*
X368300D01*
X367900Y465000D01*
X368300Y465400D01*
X367900D01*
X367500Y465800D01*
X367100Y465400D01*
X366700D01*
X367100Y465000D01*
X366700Y464600D01*
X367100D01*
X367500Y464200D01*
X362500Y484200D02*
X362900Y484600D01*
X363300D01*
X362900Y485000D01*
X363300Y485400D01*
X362900D01*
X362500Y485800D01*
X362100Y485400D01*
X361700D01*
X362100Y485000D01*
X361700Y484600D01*
X362100D01*
X362500Y484200D01*
Y464200D02*
X362900Y464600D01*
X363300D01*
X362900Y465000D01*
X363300Y465400D01*
X362900D01*
X362500Y465800D01*
X362100Y465400D01*
X361700D01*
X362100Y465000D01*
X361700Y464600D01*
X362100D01*
X362500Y464200D01*
X355000Y479200D02*
X355400Y479600D01*
X355800D01*
X355400Y480000D01*
X355800Y480400D01*
X355400D01*
X355000Y480800D01*
X354600Y480400D01*
X354200D01*
X354600Y480000D01*
X354200Y479600D01*
X354600D01*
X355000Y479200D01*
Y469200D02*
X355400Y469600D01*
X355800D01*
X355400Y470000D01*
X355800Y470400D01*
X355400D01*
X355000Y470800D01*
X354600Y470400D01*
X354200D01*
X354600Y470000D01*
X354200Y469600D01*
X354600D01*
X355000Y469200D01*
X506200Y402400D02*
X506600Y403200D01*
X506200Y404000D01*
X507000Y403600D01*
X507800Y404000D01*
X507400Y403200D01*
X507800Y402400D01*
X507000Y402800D01*
X506200Y402400D01*
X511200Y272400D02*
X511600Y273200D01*
X511200Y274000D01*
X512000Y273600D01*
X512800Y274000D01*
X512400Y273200D01*
X512800Y272400D01*
X512000Y272800D01*
X511200Y272400D01*
X501200Y392400D02*
X501600Y393200D01*
X501200Y394000D01*
X502000Y393600D01*
X502800Y394000D01*
X502400Y393200D01*
X502800Y392400D01*
X502000Y392800D01*
X501200Y392400D01*
X486200Y402400D02*
X486600Y403200D01*
X486200Y404000D01*
X487000Y403600D01*
X487800Y404000D01*
X487400Y403200D01*
X487800Y402400D01*
X487000Y402800D01*
X486200Y402400D01*
X476200D02*
X476600Y403200D01*
X476200Y404000D01*
X477000Y403600D01*
X477800Y404000D01*
X477400Y403200D01*
X477800Y402400D01*
X477000Y402800D01*
X476200Y402400D01*
X466200Y422400D02*
X466600Y423200D01*
X466200Y424000D01*
X467000Y423600D01*
X467800Y424000D01*
X467400Y423200D01*
X467800Y422400D01*
X467000Y422800D01*
X466200Y422400D01*
X456200D02*
X456600Y423200D01*
X456200Y424000D01*
X457000Y423600D01*
X457800Y424000D01*
X457400Y423200D01*
X457800Y422400D01*
X457000Y422800D01*
X456200Y422400D01*
X446200D02*
X446600Y423200D01*
X446200Y424000D01*
X447000Y423600D01*
X447800Y424000D01*
X447400Y423200D01*
X447800Y422400D01*
X447000Y422800D01*
X446200Y422400D01*
X556757Y474604D02*
Y474204D01*
X557557D01*
Y474604D01*
X557958D01*
Y475404D01*
X557557D01*
Y475804D01*
X556757D01*
Y475404D01*
X556357D01*
Y474604D01*
X556757D01*
Y246258D02*
Y245858D01*
X557557D01*
Y246258D01*
X557958D01*
Y247058D01*
X557557D01*
Y247458D01*
X556757D01*
Y247058D01*
X556357D01*
Y246258D01*
X556757D01*
X363844Y474604D02*
Y474204D01*
X364644D01*
Y474604D01*
X365044D01*
Y475404D01*
X364644D01*
Y475804D01*
X363844D01*
Y475404D01*
X363444D01*
Y474604D01*
X363844D01*
X530700Y402200D02*
X531100Y403000D01*
X530700Y403800D01*
X531500Y403400D01*
X532300Y403800D01*
X531900Y403000D01*
X532300Y402200D01*
X531500Y402600D01*
X530700Y402200D01*
Y279700D02*
X531100Y280500D01*
X530700Y281300D01*
X531500Y280900D01*
X532300Y281300D01*
X531900Y280500D01*
X532300Y279700D01*
X531500Y280100D01*
X530700Y279700D01*
X530200Y425700D02*
X530600Y426500D01*
X530200Y427300D01*
X531000Y426900D01*
X531800Y427300D01*
X531400Y426500D01*
X531800Y425700D01*
X531000Y426100D01*
X530200Y425700D01*
X524700Y344200D02*
X525100Y345000D01*
X524700Y345800D01*
X525500Y345400D01*
X526300Y345800D01*
X525900Y345000D01*
X526300Y344200D01*
X525500Y344600D01*
X524700Y344200D01*
X524700Y311700D02*
X525100Y312500D01*
X524700Y313300D01*
X525500Y312900D01*
X526300Y313300D01*
X525900Y312500D01*
X526300Y311700D01*
X525500Y312100D01*
X524700Y311700D01*
Y432200D02*
X525100Y433000D01*
X524700Y433800D01*
X525500Y433400D01*
X526300Y433800D01*
X525900Y433000D01*
X526300Y432200D01*
X525500Y432600D01*
X524700Y432200D01*
D41*
X381800Y478500D02*
G03*
X381800Y478500I-800J0D01*
G01*
X401800D02*
G03*
X401800Y478500I-800J0D01*
G01*
X444300D02*
G03*
X444300Y478500I-800J0D01*
G01*
X464300D02*
G03*
X464300Y478500I-800J0D01*
G01*
X484300D02*
G03*
X484300Y478500I-800J0D01*
G01*
X504300D02*
G03*
X504300Y478500I-800J0D01*
G01*
X524300D02*
G03*
X524300Y478500I-800J0D01*
G01*
M02*
